<?xml version="1.0" encoding="UTF-8" standalone="no"?>
<svg
   xmlns:dc="http://purl.org/dc/elements/1.1/"
   xmlns:cc="http://creativecommons.org/ns#"
   xmlns:rdf="http://www.w3.org/1999/02/22-rdf-syntax-ns#"
   xmlns:svg="http://www.w3.org/2000/svg"
   xmlns="http://www.w3.org/2000/svg"
   xmlns:sodipodi="http://sodipodi.sourceforge.net/DTD/sodipodi-0.dtd"
   xmlns:inkscape="http://www.inkscape.org/namespaces/inkscape"
   version="1.1"
   x="0px"
   y="0px"
   viewBox="0 0 90 90"
   enable-background="new 0 0 90 90"
   xml:space="preserve"
   id="svg2"
   inkscape:version="0.48.4 r9939"
   width="100%"
   height="100%"
   sodipodi:docname="logo.svg"><metadata
     id="metadata18"><rdf:RDF><cc:Work
         rdf:about=""><dc:format>image/svg+xml</dc:format><dc:type
           rdf:resource="http://purl.org/dc/dcmitype/StillImage" /><dc:title></dc:title></cc:Work></rdf:RDF></metadata><defs
     id="defs16" /><sodipodi:namedview
     pagecolor="#ffffff"
     bordercolor="#666666"
     borderopacity="1"
     objecttolerance="10"
     gridtolerance="10"
     guidetolerance="10"
     inkscape:pageopacity="0"
     inkscape:pageshadow="2"
     inkscape:window-width="1678"
     inkscape:window-height="1013"
     id="namedview14"
     showgrid="false"
     inkscape:zoom="5.9334116"
     inkscape:cx="45"
     inkscape:cy="51.483051"
     inkscape:window-x="0"
     inkscape:window-y="0"
     inkscape:window-maximized="0"
     inkscape:current-layer="svg2" /><g
     id="g4"
     transform="translate(0,-0.5)"><path
       d="m 85.722,45 c 0,-5.337 -3.64,-10.074 -9.265,-13.047 C 78.32,25.885 77.562,19.974 73.794,16.205 70.026,12.437 64.115,11.679 58.047,13.543 55.075,7.918 50.338,4.279 45,4.279 c -5.337,0 -10.074,3.64 -13.046,9.265 -6.068,-1.864 -11.98,-1.105 -15.748,2.663 -3.768,3.768 -4.525,9.679 -2.662,15.747 -5.625,2.973 -9.264,7.71 -9.264,13.048 0,5.337 3.64,10.074 9.264,13.046 -1.863,6.068 -1.104,11.979 2.663,15.747 3.767,3.768 9.679,4.526 15.747,2.662 2.972,5.625 7.71,9.265 13.047,9.265 5.337,0 10.074,-3.64 13.046,-9.264 6.068,1.863 11.98,1.105 15.748,-2.663 3.768,-3.768 4.525,-9.679 2.662,-15.747 5.625,-2.973 9.265,-7.71 9.265,-13.048 z m -15,-25.722 c 2.668,2.668 3.414,6.754 2.493,11.246 -3.177,-1.16 -6.781,-1.818 -10.606,-1.818 -0.46,0 -0.909,0.03 -1.362,0.049 0.019,-0.454 0.049,-0.903 0.049,-1.363 0,-3.825 -0.659,-7.43 -1.818,-10.607 4.49,-0.921 8.577,-0.174 11.244,2.493 z M 56.315,72.317 c -3.319,-1.208 -6.728,-3.246 -9.854,-6.045 1.864,-2.329 3.311,-4.804 4.329,-7.292 2.479,1.039 5.252,1.768 8.218,2.096 -0.231,4.19 -1.199,8.041 -2.693,11.241 z m -5.188,-14.2 c 0.525,-1.429 0.919,-2.855 1.148,-4.257 -0.505,1.35 -1.15,2.712 -1.923,4.062 -1.501,-0.408 -2.92,-0.915 -4.231,-1.512 1.153,0.828 2.439,1.56 3.821,2.197 -1.316,2.169 -2.963,4.299 -4.942,6.283 -1.979,-1.984 -3.625,-4.113 -4.942,-6.283 1.381,-0.638 2.668,-1.369 3.821,-2.197 -1.311,0.597 -2.73,1.104 -4.231,1.512 -0.772,-1.35 -1.418,-2.712 -1.923,-4.062 0.23,1.401 0.623,2.828 1.148,4.257 -2.465,0.603 -5.135,0.945 -7.938,0.948 0.003,-2.804 0.346,-5.474 0.949,-7.938 1.428,0.526 2.854,0.919 4.255,1.148 -1.349,-0.505 -2.71,-1.15 -4.061,-1.923 0.409,-1.501 0.915,-2.92 1.511,-4.231 -0.828,1.153 -1.559,2.439 -2.197,3.821 -2.169,-1.316 -4.299,-2.963 -6.284,-4.942 1.984,-1.979 4.115,-3.625 6.284,-4.942 0.637,1.381 1.369,2.668 2.197,3.821 -0.597,-1.311 -1.103,-2.73 -1.511,-4.231 1.35,-0.772 2.711,-1.418 4.061,-1.923 -1.401,0.23 -2.828,0.623 -4.255,1.148 -0.603,-2.465 -0.945,-5.135 -0.949,-7.938 2.803,0.003 5.473,0.346 7.938,0.949 -0.526,1.427 -0.919,2.854 -1.148,4.255 0.505,-1.349 1.151,-2.71 1.923,-4.06 1.501,0.409 2.92,0.915 4.231,1.511 -1.153,-0.828 -2.439,-1.559 -3.821,-2.197 1.317,-2.169 2.963,-4.3 4.942,-6.284 1.979,1.985 3.626,4.115 4.942,6.284 -1.382,0.637 -2.668,1.369 -3.821,2.197 1.312,-0.597 2.73,-1.103 4.231,-1.511 0.772,1.35 1.418,2.711 1.923,4.06 -0.229,-1.4 -0.622,-2.827 -1.148,-4.254 2.465,-0.603 5.135,-0.946 7.938,-0.949 -0.003,2.802 -0.346,5.473 -0.948,7.938 -1.428,-0.526 -2.854,-0.919 -4.256,-1.149 1.349,0.505 2.711,1.151 4.061,1.924 -0.408,1.501 -0.915,2.92 -1.512,4.231 0.828,-1.153 1.56,-2.44 2.197,-3.821 2.169,1.316 4.3,2.962 6.284,4.942 -1.984,1.979 -4.114,3.625 -6.284,4.942 -0.638,-1.382 -1.369,-2.668 -2.197,-3.821 0.597,1.311 1.104,2.73 1.512,4.231 -1.351,0.772 -2.712,1.418 -4.062,1.923 1.401,-0.229 2.828,-0.623 4.257,-1.148 0.603,2.465 0.945,5.135 0.948,7.938 -2.803,-0.004 -5.473,-0.346 -7.938,-0.949 z m -20.135,2.959 c 2.965,-0.328 5.737,-1.057 8.217,-2.095 1.019,2.487 2.464,4.962 4.329,7.291 -3.126,2.798 -6.534,4.837 -9.853,6.045 -1.492,-3.201 -2.461,-7.051 -2.693,-11.241 z M 23.728,46.462 c 2.329,1.865 4.804,3.311 7.292,4.329 -1.039,2.479 -1.767,5.252 -2.096,8.218 -4.189,-0.231 -8.04,-1.2 -11.241,-2.692 1.208,-3.32 3.246,-6.729 6.045,-9.855 z m -0.001,-2.924 c -2.798,-3.126 -4.836,-6.534 -6.044,-9.853 3.201,-1.493 7.052,-2.461 11.242,-2.693 0.329,2.965 1.057,5.737 2.095,8.217 -2.489,1.019 -4.964,2.464 -7.293,4.329 z m 9.958,-25.856 c 3.318,1.208 6.727,3.246 9.853,6.044 -1.864,2.329 -3.31,4.805 -4.329,7.292 -2.479,-1.038 -5.252,-1.766 -8.217,-2.095 0.232,-4.188 1.2,-8.04 2.693,-11.241 z m 25.324,11.242 c -2.966,0.329 -5.738,1.057 -8.218,2.095 -1.02,-2.488 -2.465,-4.963 -4.329,-7.292 3.126,-2.798 6.534,-4.837 9.854,-6.044 1.493,3.2 2.46,7.051 2.693,11.241 z M 58.98,50.791 c 2.488,-1.02 4.964,-2.465 7.292,-4.329 2.799,3.126 4.837,6.534 6.045,9.854 -3.201,1.493 -7.052,2.461 -11.241,2.693 -0.328,-2.966 -1.056,-5.738 -2.096,-8.218 z m 0.001,-11.583 c 1.038,-2.479 1.767,-5.252 2.095,-8.217 4.189,0.232 8.04,1.201 11.241,2.693 -1.208,3.319 -3.246,6.727 -6.044,9.853 -2.329,-1.864 -4.804,-3.309 -7.292,-4.329 z M 45,8.625 c 3.775,0 7.194,2.365 9.72,6.195 -3.068,1.427 -6.085,3.501 -8.791,6.207 -0.326,0.325 -0.622,0.665 -0.929,0.999 -0.308,-0.334 -0.604,-0.673 -0.93,-1 -2.705,-2.705 -5.722,-4.78 -8.79,-6.207 2.527,-3.83 5.946,-6.194 9.72,-6.194 z M 19.278,19.279 c 2.667,-2.667 6.754,-3.415 11.246,-2.495 -1.159,3.178 -1.818,6.782 -1.818,10.607 0,0.46 0.03,0.91 0.049,1.363 -0.454,-0.019 -0.903,-0.049 -1.364,-0.049 -3.825,0 -7.429,0.659 -10.606,1.818 -0.921,-4.49 -0.174,-8.576 2.493,-11.244 z M 8.625,45.001 c 0,-3.775 2.364,-7.194 6.195,-9.72 1.427,3.067 3.501,6.084 6.206,8.789 0.326,0.326 0.665,0.622 1,0.93 -0.333,0.307 -0.673,0.603 -0.999,0.929 -2.706,2.706 -4.78,5.722 -6.207,8.791 C 10.989,52.194 8.625,48.775 8.625,45.001 z M 19.28,70.722 c -2.667,-2.667 -3.415,-6.754 -2.494,-11.245 3.177,1.159 6.781,1.818 10.605,1.818 0.461,0 0.91,-0.03 1.364,-0.049 -0.019,0.453 -0.049,0.902 -0.049,1.363 0,3.824 0.659,7.429 1.818,10.605 -4.491,0.921 -8.577,0.175 -11.244,-2.492 z m 25.721,10.653 c -3.774,0 -7.194,-2.364 -9.72,-6.195 3.068,-1.427 6.084,-3.501 8.789,-6.206 0.326,-0.326 0.623,-0.665 0.93,-0.999 0.307,0.334 0.604,0.673 0.929,0.998 2.706,2.706 5.723,4.781 8.791,6.208 -2.526,3.83 -5.945,6.194 -9.719,6.194 z M 70.722,70.722 c -2.667,2.667 -6.754,3.414 -11.245,2.493 1.159,-3.177 1.818,-6.781 1.818,-10.605 0,-0.461 -0.03,-0.91 -0.049,-1.363 0.453,0.019 0.902,0.049 1.362,0.049 3.825,0 7.43,-0.659 10.606,-1.818 0.922,4.49 0.175,8.577 -2.492,11.244 z M 75.181,54.72 c -1.427,-3.068 -3.502,-6.085 -6.208,-8.791 -0.325,-0.325 -0.664,-0.622 -0.998,-0.928 0.334,-0.308 0.673,-0.604 0.999,-0.93 2.705,-2.706 4.78,-5.722 6.207,-8.79 3.83,2.525 6.195,5.944 6.195,9.719 0,3.775 -2.364,7.194 -6.195,9.72 z"
       id="path6"
       inkscape:connector-curvature="0" /><circle
       cx="45"
       cy="45.000999"
       r="8.9289999"
       id="circle8"
       sodipodi:cx="45"
       sodipodi:cy="45.000999"
       sodipodi:rx="8.9289999"
       sodipodi:ry="8.9289999"
       d="m 53.929,45.000999 c 0,4.931351 -3.99765,8.929 -8.929,8.929 -4.93135,0 -8.929,-3.997649 -8.929,-8.929 0,-4.93135 3.99765,-8.928999 8.929,-8.928999 4.93135,0 8.929,3.997649 8.929,8.928999 z" /></g></svg>