<?xml version="1.0" standalone="no"?>
<!DOCTYPE svg PUBLIC "-//W3C//DTD SVG 1.1//EN" "http://www.w3.org/Graphics/SVG/1.1/DTD/svg11.dtd" >
<svg xmlns="http://www.w3.org/2000/svg">
<metadata></metadata>
<defs>
<font id="crimson_textbolditalic" horiz-adv-x="1067" >
<font-face units-per-em="2048" ascent="1484" descent="-564" />
<missing-glyph horiz-adv-x="490" />
<glyph horiz-adv-x="2048" />
<glyph horiz-adv-x="2048" />
<glyph unicode="&#xd;" horiz-adv-x="2048" />
<glyph unicode=" "  horiz-adv-x="490" />
<glyph unicode="&#x09;" horiz-adv-x="490" />
<glyph unicode="&#xa0;" horiz-adv-x="490" />
<glyph unicode="!" horiz-adv-x="570" d="M63 133q12 62 61.5 105.5t107.5 43.5q57 0 89.5 -43.5t21.5 -105.5q-12 -63 -61 -110t-106 -47q-59 0 -92 47.5t-21 109.5zM232 471q6 133 31 430.5t40 374.5q13 68 60 108.5t104 40.5q33 0 58.5 -17.5t38 -52.5t3.5 -81q-8 -43 -96 -328t-144 -455q-11 -32 -34 -50.5 t-48 -18.5q-13 0 -13 49z" />
<glyph unicode="&#x22;" horiz-adv-x="741" d="M234 992q7 69 8.5 136t-0.5 110t-5 94t-3 80q6 37 56.5 87.5t105.5 50.5q26 0 40 -4.5t23.5 -19t8.5 -43.5t-10 -78q-13 -67 -69 -204.5t-75 -203.5q-3 -11 -11.5 -18.5t-17.5 -11.5t-18 -4q-13 0 -23.5 8.5t-9.5 20.5zM576 992q9 89 9 167.5t-4.5 150.5t-4.5 102 q6 37 56.5 87.5t105.5 50.5q26 0 40 -4.5t23.5 -19t8.5 -43.5t-10 -78q-10 -53 -36.5 -122t-58.5 -147.5t-49 -138.5q-5 -16 -19 -25t-28 -9q-13 0 -24 8.5t-9 20.5z" />
<glyph unicode="#" horiz-adv-x="1081" d="M71 391q0 30 19.5 82.5t36.5 52.5h159l65 164h-158q-15 0 -15 14q0 30 19 82.5t36 52.5h160l113 324q1 3 7.5 6t17.5 5.5t30 4.5t41 2q18 0 33 -4t15 -9q-2 -3 -2 -5l-115 -324h171l113 324q1 3 7.5 6t17.5 5.5t29.5 4.5t40.5 2q19 0 34 -4t15 -9q-2 -3 -2 -5l-115 -324 h157q16 0 16 -11q0 -31 -19.5 -84.5t-36.5 -53.5h-160l-64 -164h158q15 0 15 -13q0 -18 -8.5 -50t-22 -59t-24.5 -27h-160l-113 -324q-2 -4 -9 -7.5t-27 -6.5t-49 -3q-20 0 -40 3t-20 8q3 4 3 6l115 324h-171l-113 -324q-1 -3 -5.5 -5.5t-14 -5.5t-26.5 -4.5t-39 -1.5 q-20 0 -39.5 3t-19.5 8q2 4 2 6l115 324h-157q-16 0 -16 14zM426 526h171l65 164h-171z" />
<glyph unicode="$" horiz-adv-x="1092" d="M63 33q131 -32 231 -46l33 106q-51 31 -88.5 90t-53 118t-13.5 107q0 18 -22 18q-6 0 -19 -5t-26.5 -12.5t-19.5 -13.5q-7 -50 -15 -173.5t-7 -188.5zM220 974q-1 -32 1 -58.5t12 -53t18 -45.5t26 -42.5t30 -38t35.5 -36t37 -33t39.5 -33.5l15 -12q20 -17 47 -40l113 355 q-104 119 -85 215q10 51 32 89t51.5 58.5t59.5 30t62 9.5h4l29 88h-24q-77 0 -158.5 -29.5t-150.5 -80t-120 -123.5t-67 -153q-6 -35 -7 -67zM263 -111l31 98q13 -1 38.5 -3.5t39.5 -3.5l-40 -124q-11 0 -28.5 5t-30.5 13t-10 15zM327 93l154 489q59 -54 62 -56l-145 -457 q-42 7 -71 24zM372 -20q20 -2 57 -2q82 0 165.5 29t154 79.5t122 125.5t67.5 161q9 49 9 93t-5.5 76.5t-22.5 65.5t-30.5 54t-41 48t-43.5 40.5t-47 38.5q-17 14 -26 21q-47 39 -77 67l-111 -351q139 -135 117 -253q-10 -54 -34 -95.5t-56 -65t-68 -34.5t-75 -11 q-20 0 -29 2zM594 937l124 402q39 0 76 -23l-140 -439q-6 6 -15.5 15t-16 15t-14.5 14.5t-14 15.5zM747 1427l29 91q9 2 27 -2.5t32.5 -12.5t11.5 -16l-22 -68q-25 4 -78 8zM794 1316q43 -25 73.5 -79.5t41.5 -111.5t9 -108q0 -16 55 -16q11 0 25 14q22 145 46 353 q-21 4 -99 24t-120 27z" />
<glyph unicode="%" horiz-adv-x="1554" d="M164 975q-6 76 26.5 158.5t87.5 146t128 104.5t144 41q53 0 94.5 -10.5t77.5 -34.5t57 -68.5t26 -108.5q6 -76 -27.5 -158t-90 -144.5t-130.5 -103t-145 -40.5q-103 0 -172.5 57t-75.5 161zM250 11q0 5 5 13l992 1403q1 0 4 -1t10 -3.5l14 -5t15 -6.5t14 -8.5t10 -9.5 t4 -10q0 -9 -2 -11l-990 -1403q-3 1 -8.5 2t-18.5 5.5t-22.5 9t-18 11.5t-8.5 14zM366 950q1 -16 4.5 -35t11 -41t21.5 -36t31 -14q43 0 78.5 41t56 103t29.5 130.5t5 126.5q-2 22 -6 43t-11.5 43t-20.5 36t-28 14q-43 0 -79 -41.5t-56.5 -103.5t-30.5 -133t-5 -133z M807 215q-5 77 27.5 159.5t87.5 146t128 104.5t144 41q53 0 94.5 -10.5t77 -34.5t57 -68.5t26.5 -108.5q6 -77 -28 -158.5t-90 -144t-130 -103t-145 -40.5q-104 0 -173 57t-76 160zM1009 191q1 -16 5 -35t11.5 -41t21 -36.5t31.5 -14.5q35 0 65 27.5t50 71t33.5 97t18.5 107 t2 99.5q-2 21 -6.5 42.5t-12 43.5t-20 36t-28.5 14q-42 0 -78 -41.5t-56.5 -104t-30.5 -133t-6 -132.5z" />
<glyph unicode="&#x26;" horiz-adv-x="1795" d="M-22 218q0 119 73 207.5t207 133.5q13 5 17 7q16 92 60 182.5t112.5 169.5t152.5 140t186.5 96.5t208.5 35.5q80 0 141 -51t61 -127q0 -313 -642 -468q1 -131 49.5 -232t136 -156.5t200.5 -55.5q52 0 103 10t98 28.5t87 47t69 64t46 81t17 95.5q0 18 -4 37.5t-10 34.5 t-13 21q-6 -2 -20 -7q-33 -12 -50 -18.5t-47 -19.5t-46.5 -22.5t-38 -24t-33 -28t-19.5 -31.5t-8 -37q0 -18 5 -62q-7 -4 -24 3.5t-30 18.5l-4 6.5t-6.5 11t-7 14t-7 18.5t-4.5 22t-2 28q0 25 3.5 46.5t8 39t15 34.5t18.5 29t26.5 27.5t30.5 25.5t38 26t42.5 25.5t49.5 29 l55 32.5q38 23 66.5 41.5t66 48t64 58t55 68t46 81t28.5 96t11 113.5q24 3 56 -13q44 -33 78.5 -101t34.5 -141q0 -233 -302 -380q18 -40 18 -84q0 -88 -35 -168t-96 -140.5t-140.5 -105t-171.5 -67.5t-186 -23q-72 0 -143.5 14t-139 40.5t-125.5 68.5t-101.5 94t-68.5 121 t-25 146q-77 -24 -115.5 -53t-38.5 -76q0 -26 11 -42t36 -40q44 -41 44 -87q0 -53 -34 -86t-85 -33q-34 0 -71 11q-19 30 -28.5 73t-9.5 78zM559 646q51 18 93 38t83.5 49t69.5 62.5t45.5 78.5t17.5 96q0 46 -24.5 74t-57.5 28q-47 0 -87 -36.5t-68 -97.5t-46.5 -136 t-25.5 -156z" />
<glyph unicode="'" horiz-adv-x="399" d="M234 992q7 69 8.5 136t-0.5 110t-5 94t-3 80q6 37 56.5 87.5t105.5 50.5q26 0 40 -4.5t23.5 -19t8.5 -43.5t-10 -78q-13 -67 -69 -204.5t-75 -203.5q-3 -11 -11.5 -18.5t-17.5 -11.5t-18 -4q-13 0 -23.5 8.5t-9.5 20.5z" />
<glyph unicode="(" horiz-adv-x="614" d="M99 393q-12 136 5.5 269.5t55.5 242.5t95 213.5t116.5 184t128.5 152.5t122.5 120t106.5 86q10 -4 16 -13t4 -16q-38 -36 -82.5 -90.5t-96.5 -132t-100.5 -165t-92 -194.5t-74 -215.5t-44 -231.5t-3.5 -239q19 -227 78.5 -368.5t163.5 -237.5q0 -22 -13 -27 q-48 15 -97 50.5t-97 94t-87 132.5t-67.5 174t-37.5 211z" />
<glyph unicode=")" horiz-adv-x="610" d="M-82 -240q37 36 82 90t96.5 132t100.5 165.5t92.5 194.5t74 215.5t44 231t2.5 239.5q-19 226 -78 368t-164 238q0 22 14 27q34 -11 68.5 -32t69.5 -54t67.5 -74.5t62 -95.5t53 -115t40 -136t23.5 -155q12 -136 -6 -269.5t-55.5 -242.5t-94.5 -213.5t-116 -184 t-128 -152.5t-122.5 -120t-105.5 -86q-10 4 -16 13t-4 16z" />
<glyph unicode="*" horiz-adv-x="943" d="M162 1017q0 8 2 18t7 23t15 25t24.5 22.5t37.5 16.5t52 6q34 0 96 -9t81 -9q34 0 41.5 4.5t7.5 17.5q0 18 -18.5 46.5t-40.5 55.5t-40.5 64t-18.5 70q0 42 28.5 75t69.5 33q18 0 31 -5.5t21 -19t12.5 -26t6.5 -35.5t2.5 -37.5t-0.5 -42.5v-4.5v-4v-5.5l-0.5 -20t-0.5 -39 t1 -41.5t6.5 -36t13.5 -13.5q12 0 26 14.5t29.5 37.5t33 51.5t38 56.5t42 51.5t47 38t51.5 14.5q16 0 29 -7t22 -24t9 -43q0 -38 -30 -70.5t-73 -54.5t-85.5 -41t-72.5 -39t-30 -39q0 -16 27.5 -25t67 -15t79 -15.5t67.5 -33.5t28 -62q0 -25 -16 -49.5t-39 -38.5t-45 -14 q-27 0 -53.5 19.5t-47 46.5t-39.5 54.5t-37.5 47t-33.5 19.5q-22 0 -27.5 -39t-10 -111.5t-20.5 -122.5q-9 -32 -27.5 -51.5t-35.5 -26.5t-35 -7q-26 0 -48.5 22.5t-22.5 50.5q0 30 23.5 74.5t52 82t52 75.5t23.5 57q0 9 -3.5 13.5t-13.5 4.5q-19 0 -68 -24.5t-106 -49 t-93 -24.5q-18 0 -34.5 9t-26.5 24.5t-10 33.5z" />
<glyph unicode="+" horiz-adv-x="1036" d="M51 491q0 52 33 95h371l73 380q3 18 45 26.5t64 8.5q13 0 17.5 -5t2.5 -13l-78 -397h373q7 0 7 -18q0 -64 -29 -95h-368l-78 -386q-3 -16 -34 -26t-62 -10q-15 0 -23.5 5.5t-7.5 12.5l80 404h-375q-11 0 -11 18z" />
<glyph unicode="," horiz-adv-x="475" d="M-67 -229q9 5 24.5 17.5t41 36.5t46.5 50.5t37 60t16 64.5q0 18 -8 32t-19.5 24.5t-23 22t-19.5 30t-8 42.5q0 63 56.5 106t129.5 43q20 0 41.5 -8.5t30.5 -18.5q6 -17 6 -49q0 -55 -17 -122.5t-47 -123.5q-50 -89 -104 -140.5t-147 -110.5q-14 3 -25 15.5t-11 28.5z" />
<glyph unicode="-" horiz-adv-x="810" d="M107 462q0 23 18 76t35 55l504 26q13 0 13 -26q0 -25 -21 -82t-37 -58l-501 -25q-11 0 -11 34z" />
<glyph unicode="." horiz-adv-x="481" d="M28 133q11 62 60.5 105.5t107.5 43.5q57 0 90 -43.5t21 -105.5q-12 -63 -60.5 -110t-105.5 -47q-59 0 -92 47.5t-21 109.5z" />
<glyph unicode="/" horiz-adv-x="896" d="M-53 -62l943 1703q9 14 49 31t69 17q18 0 27 -13l-942 -1703q-6 -11 -46 -29.5t-74 -18.5q-6 0 -15 4.5t-11 8.5z" />
<glyph unicode="0" d="M188 392.5q-15 121.5 13 262.5q31 156 99.5 300t153.5 246.5t182.5 163t186.5 60.5q85 0 154 -35t113 -97.5t70.5 -148.5t26.5 -187.5t-20 -215.5q-27 -139 -91 -275t-148 -241.5t-187.5 -170.5t-203.5 -65q-93 0 -169 51.5t-120.5 141t-59.5 211zM477 337 q0 -51 5.5 -96.5t16.5 -84t30.5 -61t44.5 -22.5q34 0 71.5 36.5t73 100t68 154.5t56.5 194.5t38.5 225.5t14.5 242q0 26 -0.5 48.5t-3 63.5t-9 72.5t-17 63.5t-28 49.5t-39.5 17.5q-35 0 -72.5 -37t-73.5 -101.5t-68 -159t-56 -203t-38 -239.5t-14 -264z" />
<glyph unicode="1" d="M274 30q6 28 14 28q26 0 80.5 14t61.5 30q24 53 36 127l135 692q12 62 17 90t7.5 59.5t-4.5 42t-22.5 10.5t-135.5 -60q-10 6 -16 22t-6 29q0 9 9 18q373 201 515 293h4q9 0 15.5 -29t2.5 -51q-7 -14 -18.5 -41.5t-40.5 -123.5t-50 -205l-124 -675q-24 -135 -22 -198 q1 -16 54.5 -30t74.5 -14q5 0 0 -40q-2 -9 -3.5 -15t-3.5 -10q-205 11 -351 11q-37 0 -72 -1.5t-82.5 -4.5t-73.5 -5q-7 9 -1 37z" />
<glyph unicode="2" d="M105 49q96 87 253 252t247 276q211 259 211 462q0 89 -48.5 143.5t-136.5 54.5q-44 0 -88.5 -18.5t-78 -46.5t-51 -46t-28.5 -32q-14 0 -27 15t-15 30q8 18 35 51t72.5 73.5t98 76.5t118.5 60.5t127 24.5t120.5 -23t108 -64.5t78.5 -106.5t30 -143q0 -69 -22 -134 t-66 -126.5t-93.5 -113.5t-120.5 -115q-56 -49 -121 -104.5t-116 -97.5t-94.5 -78t-66.5 -55.5t-22 -19.5h382q42 0 75 12.5t54.5 35t35 45.5t24.5 54q8 20 33 20q17 0 38 -16q-16 -38 -45 -103.5t-53.5 -120l-49 -109t-27.5 -62.5h-755q-7 0 -12 15t-4 34z" />
<glyph unicode="3" d="M131 131q0 42 13 73t34.5 46.5t42 22.5t41.5 7q19 0 35 -5.5t26 -12t19.5 -20.5t13.5 -22t11.5 -25t9.5 -22q14 -27 36 -49.5t49.5 -36.5t54.5 -14q48 0 93.5 29t81 80t57 129t21.5 169q0 116 -47 174.5t-157 58.5q-42 0 -95 -14q-9 15 -9 40q0 18 9 31q45 6 91 20t92 39 t81.5 56.5t57.5 75t22 91.5q0 96 -48.5 147t-122.5 51q-26 0 -52.5 -8t-49.5 -21.5t-44.5 -29t-39.5 -32.5t-31.5 -31t-24.5 -26t-14 -14q-13 0 -28.5 18t-15.5 33q20 34 54 72.5t80 76.5t96.5 68.5t107.5 49.5t108 19q34 0 69.5 -7.5t73.5 -28t67.5 -51t48.5 -81t19 -114.5 q0 -54 -20.5 -103.5t-51 -83.5t-69.5 -62.5t-71.5 -44t-60.5 -23.5q47 -6 94 -31t85.5 -63t62.5 -92.5t24 -113.5q0 -82 -27.5 -158t-75 -133.5t-108.5 -105t-129.5 -77.5t-137.5 -46.5t-132 -16.5q-102 0 -178.5 22t-121.5 53q-7 9 -13.5 29.5t-6.5 37.5z" />
<glyph unicode="4" d="M113 440l943 950q36 35 63 35q9 0 21 -10.5t19.5 -24.5t5.5 -22l-160 -831h118q18 0 18 -35q0 -28 -12.5 -62.5t-25.5 -51.5h-129l-73 -384q-78 -15 -158 -15q-43 0 -82 5.5t-37 16.5l73 377h-566q-10 7 -15 23.5t-3 28.5zM331 537h393l95 495z" />
<glyph unicode="5" d="M135 131q0 42 13.5 73t34.5 46.5t42 22.5t41 7q15 0 27.5 -3t21.5 -7.5t17.5 -12.5t14 -14.5t11 -17t9 -17.5t8 -18t7.5 -17q21 -41 60 -70.5t80 -29.5q47 0 92.5 29t81 80t57.5 129t22 169q0 123 -60.5 189t-175.5 66q-32 0 -83 -8.5t-83 -18.5q-4 3 -27 31 q86 339 154 671q139 0 218 0.5t185.5 6.5t157.5 17q6 -4 11.5 -11t8 -13t2.5 -9q0 -19 -22 -64t-44.5 -81t-37.5 -57q-100 -22 -435 -22q-3 -12 -14 -65.5t-26 -126.5t-24 -115q40 26 107 40t99 14q52 0 104.5 -15.5t101 -46.5t85.5 -74.5t59.5 -105.5t22.5 -134 q0 -98 -38.5 -188.5t-102 -156.5t-142.5 -115t-162 -74t-159 -25q-102 0 -178 22t-122 53q-7 9 -13.5 29.5t-6.5 37.5z" />
<glyph unicode="6" d="M171 395q0 159 70 323.5t212 318.5q38 42 83 82.5t98.5 81t113 76.5t123 65.5t133.5 51.5t139 31q9 -6 11.5 -25t-0.5 -28q-205 -87 -343.5 -217.5t-226.5 -319.5q-124 -270 -124 -540q0 -110 29 -170.5t75 -60.5q44 0 86 45t70.5 112t46 144t17.5 141q0 209 -116 209 q-38 0 -51 -7q-11 8 -11 33q0 14 31.5 35t79.5 37.5t87 16.5q126 0 198 -88t72 -236q0 -106 -43 -202.5t-115 -165.5t-169 -110t-201 -41q-67 0 -133.5 28.5t-120.5 80t-87.5 130t-33.5 169.5z" />
<glyph unicode="7" d="M252 29q82 96 322.5 451t451.5 688h-477q-29 0 -56 -12t-46 -28.5t-39 -44.5t-31.5 -49t-27.5 -53l-4.5 -6t-7 -4t-14.5 -3q-7 -1 -15 0.5t-14 4t-10.5 6t-7.5 7.5q15 34 46.5 102t58 126.5t52.5 116t36 81.5l595 2q32 0 75.5 2.5t75.5 4.5t36 2q15 0 9 -33 q-2 -5 -5.5 -12.5t-8 -15.5t-12.5 -20.5t-15.5 -24t-19.5 -29.5t-22 -34l-810 -1272q-9 -4 -31 -4q-8 0 -21 2t-29.5 7t-26.5 16t-7 26z" />
<glyph unicode="8" d="M179 373q8 39 24 74.5t34 61.5t46.5 51t50 41t56 34.5t53.5 27t52 23.5q3 1 4 1.5l3 1.5t4 1q4 2 6 7t-2 7q-30 27 -57 63t-49.5 86.5t-29.5 105t3 118.5q14 70 53 133.5t95.5 111t131.5 75.5t157 28q48 0 92 -6.5t88 -22t76.5 -41t57.5 -62t30.5 -86t-4.5 -113.5 q-38 -199 -298 -306q-10 -5 -2 -13q72 -62 121.5 -125t76 -140t11.5 -150q-16 -76 -54 -138.5t-89.5 -105.5t-114.5 -72.5t-128 -43t-131 -13.5q-84 0 -158.5 30.5t-126 81.5t-74.5 123t-8 151zM472 335q-18 -126 14 -196t102 -70q71 0 123.5 59t64.5 138q29 183 -182 359 q-2 2 -3 2.5t-2 1.5l-1 1q-5 3 -9 3q-2 0 -7 -5q-75 -123 -100 -293zM641 1128q0 -61 19.5 -114t48 -90t70.5 -74q1 -1 3 -2t3.5 -1.5t2.5 -0.5q6 0 11 6q102 142 102 300q0 34 -4.5 64.5t-15 62.5t-33 51.5t-54.5 19.5q-61 0 -107 -64t-46 -158z" />
<glyph unicode="9" d="M188 40q205 87 344 217.5t227 319.5q124 270 124 540q0 110 -29.5 170.5t-74.5 60.5q-44 0 -86 -45t-70.5 -112t-46 -144t-17.5 -141q0 -209 116 -209q37 0 51 7q11 -8 11 -34q0 -13 -32 -34t-79.5 -37.5t-86.5 -16.5q-127 0 -199 88t-72 236q0 106 43.5 202.5t115 165.5 t169 110t201.5 41q67 0 133.5 -28.5t120.5 -80t87.5 -130t33.5 -169.5q0 -159 -70 -323.5t-212 -318.5q-59 -64 -132 -124t-161 -115t-191.5 -95t-205.5 -54q-9 6 -11.5 25t-0.5 28z" />
<glyph unicode=":" horiz-adv-x="537" d="M52 133q12 62 61 105.5t108 43.5q57 0 89.5 -43.5t21.5 -105.5q-12 -63 -61 -110t-106 -47q-59 0 -92 47.5t-21 109.5zM187 835q12 61 61.5 104.5t107.5 43.5q37 0 65.5 -19.5t41 -54t4.5 -74.5q-12 -63 -60.5 -110.5t-105.5 -47.5q-59 0 -92 47.5t-22 110.5z" />
<glyph unicode=";" horiz-adv-x="528" d="M-40 -229q12 8 34 26.5t54 50.5t54 73t22 79q0 15 -5.5 27.5t-14 21l-19 19t-19 20.5t-14 26.5t-5.5 36.5q0 63 56 106t130 43q20 0 41.5 -8.5t29.5 -18.5q7 -17 7 -49q0 -55 -17 -122.5t-48 -123.5q-49 -89 -103 -140.5t-147 -110.5q-15 3 -25.5 15.5t-10.5 28.5z M169 835q11 61 60.5 104.5t107.5 43.5q57 0 90 -43.5t21 -104.5q-7 -41 -31.5 -77t-60.5 -58.5t-74 -22.5q-59 0 -92 47.5t-21 110.5z" />
<glyph unicode="&#x3c;" horiz-adv-x="1032" d="M56 482q6 33 47 53l853 415q8 5 11 5q2 0 3.5 -4t3 -14.5t1.5 -29.5v-50q0 -13 -2 -25t-4 -18l-2 -6l-724 -344l590 -351l3 -13q-3 -16 -26 -74.5t-32 -58.5l-9 4l-693 422q-32 21 -20 89z" />
<glyph unicode="=" horiz-adv-x="1203" d="M111 382q0 52 33 95h868q7 0 7 -17q0 -64 -29 -96h-868q-11 0 -11 18zM171 693q0 52 33 95h868q7 0 7 -18q0 -64 -29 -95h-868q-11 0 -11 18z" />
<glyph unicode="&#x3e;" horiz-adv-x="1036" d="M19.5 27.5q-1.5 60.5 1.5 72.5q1 5 3 8t4 4l2 1l728 351l-591 344q0 1 -1 2.5t-2 6.5t1 11q48 127 60 127l9 -5l691 -415q32 -20 26 -53q-12 -67 -55 -89l-855 -422q-9 -4 -11 -4q-9 0 -10.5 60.5z" />
<glyph unicode="?" horiz-adv-x="832" d="M101 133q11 62 60.5 105.5t108.5 43.5q56 0 89 -43.5t22 -105.5q-12 -63 -61 -110t-106 -47q-59 0 -92 47.5t-21 109.5zM185 670q0 35 10.5 67t22.5 52.5t36.5 43.5t37.5 32.5t40.5 27.5t32.5 22q19 13 53 31t64.5 33t66 37t60.5 43q36 30 52.5 58.5t16.5 67.5 q0 27 -9 46.5t-27.5 30t-45.5 10.5q-22 0 -50.5 -17.5t-51 -39t-50.5 -39t-50 -17.5q-30 0 -52.5 12t-35 31.5t-18 44.5t-3 52.5t12.5 52.5q66 82 185 82q67 0 133 -27.5t115 -72.5t79 -104.5t30 -119.5q0 -50 -7.5 -87.5t-27.5 -77t-59.5 -77t-100.5 -75.5 q-12 -8 -73.5 -39.5t-95.5 -54.5q-87 -55 -87 -106q0 -29 17 -56.5t30.5 -39t28.5 -20.5q0 -9 -10 -24t-19 -20q-16 0 -46 12.5t-65 35.5t-66.5 51.5t-52.5 65.5t-21 72z" />
<glyph unicode="@" horiz-adv-x="1727" d="M67 291q0 136 42.5 268t115.5 240.5t171.5 201.5t209.5 156.5t231.5 99t234.5 35.5q120 0 218 -33.5t164.5 -90.5t112.5 -134t66.5 -161.5t20.5 -175.5q0 -101 -25 -194.5t-66 -166t-94.5 -134.5t-111 -105.5t-115 -74t-106 -45.5t-84.5 -15q-81 0 -123.5 42.5 t-42.5 124.5q0 11 4 42q2 13 9 42q-18 -33 -52 -71t-77 -74t-95.5 -60t-99.5 -24q-90 0 -140.5 76.5t-50.5 194.5q0 97 31 193t83 176.5t121 150.5t144.5 118.5t154 76t148.5 27.5q55 0 126.5 -13.5t110.5 -26.5l-137 -664q-19 -80 -7.5 -119t58.5 -39q30 0 70 25.5t82 74 t77.5 111.5t58 147.5t22.5 172.5q0 94 -17 174t-55.5 147t-95.5 113.5t-140 72.5t-187 26q-66 0 -144 -21t-159.5 -61.5t-160.5 -97t-148.5 -133t-122.5 -163t-84 -192t-31 -216.5q0 -146 45 -264.5t155 -219.5q34 -31 95 -62q-6 -5 -18.5 -10.5t-27.5 -8.5t-29 -3 q-18 0 -60.5 15.5t-72.5 42.5q-202 174 -202 486zM664 337q0 -78 21 -117.5t59 -39.5q36 0 82.5 65t86.5 167.5t62 211.5l44 224q-23 27 -78 27q-73 0 -138 -79.5t-102 -203.5t-37 -255z" />
<glyph unicode="A" horiz-adv-x="1376" d="M-139 7q0 8 1 18q4 28 14 46q23 0 81 23.5t76 47.5q41 54 102 155l653 1088q15 25 45.5 55t45.5 30q13 0 25.5 -5.5t14.5 -10.5l207 -1125q7 -38 14.5 -89t11.5 -71q5 -26 21 -45t33 -28.5t38.5 -15t32.5 -6.5t19 -1q2 -7 2 -17q0 -12 -2 -28q-6 -30 -13 -37 q-19 1 -119.5 9.5t-153.5 8.5q-42 0 -100.5 -3.5t-126.5 -8.5t-88 -6q-7 8 1 45t17 37q29 0 67 11t61 29q27 19 27 41q0 16 -13 90q-15 84 -31 164l-16 80q-4 9 -11 9q-39 3 -198 3q-142 0 -215 -3q-5 0 -10.5 -3.5t-7.5 -7.5q-75 -124 -111 -186q-25 -45 -48 -92.5 t-25 -58.5q-4 -20 15 -36t47.5 -24t50.5 -12t31 -4q4 -9 2 -26t-7.5 -34t-9.5 -22q-142 18 -220 18q-23 0 -46 -1t-37.5 -1.5t-39 -3t-33 -3.5t-36.5 -4.5t-34 -4.5q-4 4 -4 16zM437 622q0 -9 5 -9q60 -7 168 -7q103 0 167 4q2 0 4 3l4 6l1 3l-87 435z" />
<glyph unicode="B" horiz-adv-x="1307" d="M-20 8q0 11 2 26q6 30 16 41q125 11 140 38q16 30 27.5 76t27.5 133l160 817q2 11 7 38t7 37.5t5.5 31.5t4.5 31.5t2.5 25t0.5 25t-3 20.5q0 4 -4 8t-10.5 7.5t-13.5 6t-17.5 4t-18.5 3t-19 2.5t-17 2t-15 1.5t-11 0.5q-3 9 -1 25t7.5 33.5t11.5 23.5q91 -6 293 -6 q39 0 146 3t171 3q60 0 114.5 -11.5t105.5 -37.5t83 -67t47 -99q7 -28 7 -61q0 -35 -8 -75q-10 -50 -37.5 -97t-60 -79.5t-70 -60t-65.5 -42.5t-49 -22q-14 -8 -14 -14q32 -4 70 -21t77.5 -49.5t69 -74.5t43.5 -102q7 -31 7 -63q0 -31 -7 -63q-21 -107 -98 -201.5 t-188 -157.5q-49 -28 -106 -45t-110.5 -22t-113.5 -7q-30 -1 -58 -1t-56 1h-480q-2 5 -2 15zM457 138q0 -17 3 -25q12 -26 124 -26q38 0 77.5 16t79.5 49.5t72.5 95t47.5 143.5q11 52 13 100v12q0 41 -10 81q-10 46 -32.5 79.5t-63.5 53.5t-98 20h-106l-96 -495 q-11 -70 -11 -104zM582 824h106q79 0 140.5 67.5t86.5 189.5q14 73 14 128q0 167 -128 167q-43 0 -70.5 -5t-37.5 -21q-5 -8 -8.5 -17.5t-7.5 -24.5t-6 -24.5t-7 -34t-7 -35.5z" />
<glyph unicode="C" horiz-adv-x="1434" d="M115 613q0 134 37 256t101 215.5t149 169.5t182 125t199 75.5t200 26.5q149 0 433 -65q0 -18 -12.5 -158.5t-15.5 -160.5q-2 -11 -17 -21t-32 -10q-20 0 -27 8q-1 21 -5.5 45t-15.5 55t-27.5 59.5t-42.5 56.5t-58.5 49t-79 33.5t-100.5 12.5q-86 0 -168 -37 t-150.5 -107.5t-120 -165.5t-80.5 -219t-29 -261q0 -46 5.5 -93t18.5 -98t32 -97t49.5 -87.5t68 -71.5t89.5 -48t112 -18q76 0 145 26t122 70q46 37 94 103.5t72.5 111t30.5 60.5q46 0 69 -27q-5 -27 -67.5 -176.5t-83.5 -160.5q-96 -54 -200.5 -79.5t-243.5 -25.5 q-125 0 -231 37t-179 99t-124 143.5t-75 170t-24 179.5z" />
<glyph unicode="D" horiz-adv-x="1598" d="M-20 8q0 11 2 26q6 30 16 41q125 11 140 38q16 30 27.5 76t27.5 133l160 817q2 11 7 38t7 37.5t5.5 31.5t4.5 31.5t2.5 25t0.5 25t-3 20.5q0 4 -4 8t-10.5 7.5t-13.5 6t-17.5 4t-18.5 3t-19 2.5t-17 2t-15 1.5t-11 0.5q-3 9 -1 25t7.5 33.5t11.5 23.5q91 -6 293 -6 q49 0 163 2.5t154 3.5q142 0 259 -35.5t199.5 -101.5t134.5 -160t64 -210q3 -30 3 -62v-16q0 -83 -16 -176q-29 -152 -94 -273t-153.5 -202t-202 -134.5t-236 -77.5t-260.5 -24h-595q-2 5 -2 15zM462 160.5q0 -13.5 2 -22.5q2 -12 14 -21.5t28.5 -16t37 -10t40.5 -3.5 q255 0 401.5 144t208.5 466q22 112 22 207q0 42 -4 82q-14 126 -67.5 213t-141 132t-202.5 45q-43 0 -70.5 -5t-37.5 -21q-5 -8 -8.5 -17.5t-7.5 -24.5t-6 -24.5t-7 -34t-7 -35.5l-175 -901q0 -1 -2 -11t-4 -22t-5 -27.5t-4.5 -31.5t-3 -31.5t-1.5 -29z" />
<glyph unicode="E" horiz-adv-x="1269" d="M-20 8q0 11 2 26q6 30 16 41q125 11 140 38q16 30 27.5 76t27.5 133l160 817q2 11 7 38t7 37.5t5.5 31.5t4.5 31.5t2.5 25t0.5 25t-3 20.5q0 4 -4 8t-10.5 7.5t-13.5 6t-17.5 4t-18.5 3t-19 2.5t-17 2t-15 1.5t-11 0.5q-3 9 -1 25t7.5 33.5t11.5 23.5q91 -6 293 -6 q37 0 177.5 3t296 7t201.5 5q-5 -74 -5 -328q-5 -5 -21.5 -8.5t-29.5 -3.5q-25 0 -29 18q-7 41 -14.5 71t-21 60.5t-32 49.5t-47 31t-65.5 12h-171q-43 0 -70.5 -5t-37.5 -21q-5 -8 -8.5 -17.5t-7.5 -24.5t-6 -24.5t-7 -34t-7 -35.5l-78 -397q-1 -7 11 -12.5t32 -8.5t42 -3 h109q63 0 98 12.5t59.5 44t55.5 98.5q7 18 26 18q31 0 38 -11l-82 -427q-9 -9 -40 -9q-24 0 -24 18q-2 38 -7 64.5t-12 40.5t-13.5 20.5t-14.5 10.5q-31 15 -153 15q-150 0 -156 -31l-66 -344q0 -1 -2 -11t-4 -22t-5 -27.5t-4.5 -31.5t-3 -31.5t-1.5 -29t2 -22.5 q3 -15 23.5 -25.5t46.5 -15t54 -4.5h138q124 0 206 73q26 23 51 54.5t48 67.5t52 89q7 14 34 14q15 0 34.5 -4.5t22.5 -9.5q-4 -8 -37.5 -72.5t-46 -89t-37 -74t-39 -84t-24.5 -61.5h-724q-62 0 -126.5 -1t-107 -1.5t-50.5 -0.5q-2 5 -2 15z" />
<glyph unicode="F" horiz-adv-x="1165" d="M-22 4q0 12 4 28q6 30 16 41q124 11 140 40q16 30 27.5 76t27.5 133l160 817q2 11 7 38t7 37.5t5.5 31.5t4.5 31.5t2.5 25t0.5 25t-3 20.5q0 4 -4 8t-10.5 7.5t-13.5 6t-17.5 4t-18.5 3t-19 2.5t-17 2t-15 1.5t-11 0.5q-3 9 -1 25t7.5 33.5t11.5 23.5q91 -6 293 -6 q37 0 177.5 3t296 7t201.5 5q-5 -74 -5 -328q-5 -5 -21.5 -8.5t-29.5 -3.5q-25 0 -29 18q-7 41 -14.5 71t-21 60.5t-32 49.5t-47 31t-65.5 12h-171q-43 0 -70.5 -5t-37.5 -21q-5 -8 -8.5 -17.5t-7.5 -24.5t-6 -24.5t-7 -34t-7 -35.5l-80 -406q-1 -10 25 -17t60 -7h108 q63 0 98 12.5t60 44t55 98.5q8 18 27 18q30 0 38 -11l-82 -427q-9 -8 -40 -8q-25 0 -25 17q-2 50 -10.5 80.5t-16.5 40t-19 15.5q-31 15 -153 15q-151 0 -156 -31l-62 -326q-2 -12 -7 -39t-7 -37.5t-5.5 -31t-4.5 -31t-2.5 -25.5t-0.5 -25t3 -20q4 -28 142 -40 q5 -11 -1 -41.5t-15 -40.5q-136 16 -311 16q-151 0 -295 -16q-2 4 -2 13z" />
<glyph unicode="G" horiz-adv-x="1505" d="M115 613q0 134 37 256t101 215.5t149 169.5t182 125t199 75.5t200 26.5q149 0 433 -65q0 -18 -12.5 -158.5t-15.5 -160.5q-2 -11 -17 -21t-32 -10q-20 0 -27 8q-1 21 -6 45t-16 55t-27 59.5t-42.5 56.5t-59 49t-78.5 33.5t-100 12.5q-86 0 -168 -37t-150.5 -107.5 t-120 -165.5t-80.5 -219t-29 -261q0 -46 5.5 -93t18.5 -98t32 -97t49.5 -87.5t68 -71.5t89.5 -48t112 -18q86 0 127 29q16 12 22 38q3 14 11.5 61t21 115t20.5 110q6 28 7.5 38t4 34t-0.5 41q-1 20 -18 33t-42.5 18.5t-43 7t-31.5 1.5q-3 0 -4 7.5t0.5 18.5t4.5 22.5t7 21 t8 12.5q32 -1 100 -5t122.5 -6t101.5 -2q38 0 78.5 2.5t88.5 6t77 4.5v-7q0 -8 -1 -17q-2 -15 -5 -27.5t-6 -21.5t-6 -9q-14 0 -50 -9t-54 -20q-7 -4 -15 -18.5t-15.5 -35t-11.5 -41.5q-43 -227 -51 -266q-3 -11 -1.5 -36t1.5 -29q-3 -11 -17.5 -26.5t-32 -27.5t-33.5 -19 q-97 -48 -194.5 -72t-231.5 -24q-125 0 -231 37t-179 99t-124 143.5t-75 170t-24 179.5z" />
<glyph unicode="H" horiz-adv-x="1569" d="M-22 4q0 12 4 28q6 30 16 41q124 11 140 40q16 30 27.5 76t27.5 133l160 817q2 11 7 38t7 37.5t5.5 31.5t4.5 31.5t2.5 25t0.5 25t-3 20.5q-4 30 -124 40q-3 5 -2 17t3.5 24.5t6.5 24t8 16.5q136 -16 293 -16q149 0 293 16q5 -11 -0.5 -41t-15.5 -41q-124 -11 -140 -40 q-28 -52 -57 -209l-60 -315l2 -7q25 -1 74 -2.5t91 -3t83 -1.5q16 0 242 7q7 4 7 9l58 313q2 11 7 38t7 37.5t5.5 31.5t4.5 31.5t2 25t0.5 25t-2.5 20.5q-4 30 -124 40q-5 11 1 41t14 41q136 -16 294 -16q149 0 293 16q2 -7 2 -18q-1 -3 -1 -6q0 -15 -5.5 -33t-11.5 -25 q-124 -11 -140 -40q-28 -52 -58 -209l-157 -817q-2 -12 -7.5 -39t-7 -37.5t-5 -31t-4.5 -31t-2.5 -25.5t-0.5 -25l2 -20q5 -30 125 -40q5 -11 -1 -41.5t-15 -40.5q-136 16 -293 16q-149 0 -293 -16q-5 10 0.5 40.5t15.5 41.5q124 11 140 40q28 52 57 209l71 366l-2 11 q-151 5 -240 5q-239 0 -253 -9l-4 -9l-69 -364q-2 -12 -7 -39t-7 -37.5t-5.5 -31t-4.5 -31t-2.5 -25.5t-0.5 -25t3 -20q4 -30 124 -40q5 -11 -1 -41.5t-15 -40.5q-136 16 -293 16q-151 0 -295 -16q-2 4 -2 13z" />
<glyph unicode="I" horiz-adv-x="783" d="M-22 4q0 12 4 28q6 30 16 41q124 11 140 40q16 30 27.5 76t27.5 133l160 817q2 11 7 38t7 37.5t5.5 31.5t4.5 31.5t2.5 25t0.5 25t-3 20.5q-4 30 -124 40q-3 5 -2 17t3.5 24.5t6.5 24t8 16.5q136 -16 293 -16q149 0 293 16q2 -5 2 -15q-1 -11 -3 -26q-6 -30 -15 -41 q-124 -11 -140 -40q-28 -52 -57 -209l-158 -817q-2 -12 -7 -39t-7 -37.5t-5.5 -31t-4.5 -31t-2.5 -25.5t-0.5 -25t3 -20q4 -30 124 -40q5 -11 -1 -41.5t-15 -40.5q-136 16 -293 16q-151 0 -295 -16q-2 4 -2 13z" />
<glyph unicode="J" horiz-adv-x="745" d="M-242 -444q0 9 4 13q167 91 263.5 267.5t152.5 463.5l162 839q2 11 7 38t7 37.5t5.5 31.5t4.5 31.5t2 25t0.5 25t-2.5 20.5q-5 30 -124 40q-3 9 -1.5 25t6.5 33t10 24q136 -16 293 -16q150 0 293 16q3 -6 3 -17q0 -10 -2 -24q-6 -30 -16 -41q-124 -11 -140 -40 q-29 -52 -58 -209l-160 -822q-20 -104 -61.5 -201t-93.5 -172t-114.5 -141.5t-122 -114t-118 -84.5t-102 -57.5t-74.5 -30.5q-5 3 -10.5 10.5t-9.5 16t-4 13.5z" />
<glyph unicode="K" horiz-adv-x="1527" d="M-22 4q0 12 4 28q6 30 16 41q124 11 140 40q16 30 27.5 76t27.5 133l160 817q2 11 7 38t7 37.5t5.5 31.5t4.5 31.5t2.5 25t0.5 25t-3 20.5q-4 30 -124 40q-3 5 -2 17t3.5 24.5t6.5 24t8 16.5q136 -16 293 -16q149 0 293 16q5 -11 -0.5 -41t-15.5 -41q-124 -11 -140 -40 q-28 -52 -57 -209l-76 -391q164 120 253 202q27 24 79.5 71t72.5 65t55.5 51.5t63.5 62.5t60 65q30 33 35 74q3 11 -2 19.5t-15 14t-21.5 9t-25.5 5.5t-23.5 2.5t-18.5 0.5q-5 13 -1 38.5t12 41.5q23 -2 80.5 -6t105 -7t80.5 -3q122 0 258 16q1 -4 1 -8q-1 -14 -5 -34 q-6 -28 -14 -36q-19 -2 -38 -5.5t-61 -13.5t-83 -30.5t-71 -48.5q-311 -284 -499 -459q-21 -21 -12 -36q54 -85 104.5 -161t117.5 -173.5t103 -151.5q27 -41 55 -75.5t50.5 -59t46.5 -43.5t41 -30.5t36.5 -20t29.5 -12.5t23.5 -6t16.5 -2h9q4 -10 -1.5 -35.5t-9.5 -32.5 q-19 -2 -42 -4.5t-43.5 -3.5t-58.5 -1q-110 0 -184 21.5t-127 67t-109 128.5q-14 22 -41.5 64.5t-62 96.5t-67.5 106.5t-69 109.5t-57 89q-6 9 -20 9q-12 0 -22 -13l-67 -344q-2 -12 -7 -39t-7 -37.5t-5.5 -31t-4.5 -31t-2.5 -25.5t-0.5 -25t3 -20q4 -30 124 -40 q5 -11 -1 -41.5t-15 -40.5q-136 16 -293 16q-151 0 -295 -16q-2 4 -2 13z" />
<glyph unicode="L" horiz-adv-x="1214" d="M-20 8q0 11 2 26q6 30 16 41q125 11 140 38q16 30 27.5 76t27.5 133l160 817q2 11 7 38t7 37.5t5.5 31.5t4.5 31.5t2.5 25t0.5 25t-3 20.5q-4 30 -124 40q-3 5 -2 17t3.5 24.5t6.5 24t8 16.5q136 -16 293 -16q149 0 293 16q5 -11 -0.5 -41t-15.5 -41q-124 -11 -140 -40 q-28 -52 -57 -209l-160 -826q0 -1 -2 -11t-4 -22t-5 -27.5t-4.5 -31.5t-3 -31.5t-1.5 -29t2 -22.5q3 -15 23.5 -25.5t46.5 -15t54 -4.5h138q124 0 206 73q26 23 51 54.5t48 67.5t52 89q7 14 34 14q15 0 34.5 -4.5t22.5 -9.5q-4 -8 -37.5 -72.5t-46 -89t-37 -74t-39 -84 t-24.5 -61.5h-715q-64 0 -130.5 -1t-110 -1.5t-52.5 -0.5q-2 5 -2 15z" />
<glyph unicode="M" horiz-adv-x="1906" d="M-61 4q0 10 2 25q4 26 12 42q34 0 102 21.5t89 58.5q9 15 31 87t31 108q28 115 76.5 323t93 401.5t50.5 219.5q5 33 -2 49q-5 11 -28.5 23t-50.5 19t-45 7q-4 6 -2.5 19t5 26.5t7 24t5.5 12.5q36 -2 74.5 -5.5t72.5 -6t75 -2.5t116 6t102 8q53 -228 208 -942q5 -4 7 -4 q1 0 4 3t5 6t2 4q236 409 375 675q23 43 52 105t46 103l18 41q12 -2 100.5 -4.5t121.5 -2.5q41 0 129 7t115 9q5 -5 5 -27q-1 -6 -1 -12q-2 -33 -11 -46q-9 0 -30 -2.5t-46.5 -8.5t-36.5 -13q-20 -13 -30 -31t-16 -60q-4 -23 -65 -393.5t-86 -539.5q-18 -119 -18 -184 q0 -23 2 -40q4 -20 50 -30t72 -10q4 -14 0.5 -40t-11.5 -42q-17 1 -120.5 9.5t-156.5 8.5q-42 0 -101.5 -3.5t-126.5 -8t-101 -6.5q-5 6 0.5 37t12.5 45q31 0 83 11t68 31q7 9 14 23.5t12 29t8 25.5q2 10 5.5 34t8.5 55.5t8 46.5l131 774q1 4 2.5 12.5t3 19t-0.5 18.5t-7 8 q-4 0 -14 -15l-570 -1057q-13 -24 -47.5 -58.5t-59.5 -34.5q-4 0 -18 4l-235 1161q-49 -219 -100 -450.5t-93 -413.5q-8 -33 -15 -86t-7 -67q1 -21 40.5 -38.5t76 -25t49.5 -7.5q2 -13 -1.5 -39.5t-11.5 -42.5q-25 1 -111.5 9.5t-139.5 8.5q-41 0 -85 -3.5t-92 -8t-85 -6.5 q-1 5 -1 13z" />
<glyph unicode="N" horiz-adv-x="1587" d="M-42 1q0 7 2 20q2 9 4.5 18.5t5 17t5 12t3.5 4.5q32 0 95.5 16t79.5 42q15 25 36 93.5t33 130.5q23 121 50 257t53.5 272t49.5 257q15 87 15 124v5q-1 37 -15 71q-9 19 -55 33t-71 14q-5 2 -5 18t4.5 37t11.5 27q17 -2 61 -6t85.5 -7t84.5 -3q108 0 228 16 q16 -61 72 -175.5t112.5 -215t155 -272.5t144.5 -256q6 12 22 91l80 415q36 194 36 260q0 16 -2 24q-3 14 -24.5 24.5t-49.5 15t-49.5 7t-34.5 2.5q-2 2 -1 16.5t5.5 35.5t11.5 30q35 -2 115 -10t133 -8t146.5 8.5t117.5 9.5q1 -3 1 -7q0 -13 -5 -35q-6 -28 -18 -42 q-19 0 -49 -2.5t-74.5 -15.5t-56.5 -34q-11 -23 -37 -117.5t-38 -155.5l-147 -754q-17 -91 -51 -311q-9 -9 -53 -9q-26 0 -53 51l-626 1112l-156 -803q-11 -59 -17 -125q-4 -44 -4 -70q0 -13 1 -21q3 -19 41.5 -33t72 -19.5t46.5 -5.5q6 -14 0 -42t-13 -42q-23 1 -114 9.5 t-144 8.5t-135.5 -8t-119.5 -10q-2 4 -2 10z" />
<glyph unicode="O" horiz-adv-x="1565" d="M109 579q0 134 36 258.5t98 221.5t144.5 177.5t175 133.5t190 82t188.5 29q106 0 198.5 -36t159 -96t114 -138.5t71 -165t23.5 -173.5q0 -118 -27.5 -228t-76.5 -198t-115 -164t-143 -131.5t-160 -94.5t-167 -58.5t-163 -19.5q-114 0 -216 48.5t-174 130t-114 192 t-42 230.5zM428 542q0 -99 17 -181.5t51.5 -148t92.5 -102.5t135 -37q62 0 119.5 27t103.5 75t85 112.5t67.5 139.5t48.5 157t30 164.5t10 161.5q0 98 -18.5 182.5t-54 150.5t-93 104t-130.5 38q-74 0 -140 -37t-116 -100.5t-90 -146.5t-65.5 -178t-39 -192t-13.5 -189z" />
<glyph unicode="P" horiz-adv-x="1236" d="M-22 4q0 12 4 28q6 30 16 41q124 11 140 40q16 30 27.5 76t27.5 133l160 817q2 11 7 38t7 37.5t5.5 31.5t4.5 31.5t2.5 25t0.5 25t-3 20.5q0 4 -4 8t-10.5 7.5t-13.5 6t-17.5 4t-18.5 3t-19 2.5t-17 2t-15 1.5t-11 0.5q-3 9 -1 25t7.5 33.5t11.5 23.5q91 -6 293 -6 q39 0 146.5 3t172.5 3q95 0 176 -34.5t134 -92.5t75 -138q13 -46 13 -94q0 -36 -7 -74q-15 -77 -55 -143t-94 -112t-119.5 -78.5t-132 -48t-130.5 -15.5q-57 0 -104 33q-6 5 -14 24t-8 27q0 7 3.5 11.5t7.5 4.5q27 -9 67 -9q78 0 161.5 84t104.5 191q12 56 12 109 q0 17 -1 33q-5 68 -24 120t-56.5 82.5t-88.5 30.5q-43 0 -70.5 -5t-37.5 -21q-5 -8 -8.5 -17.5t-7.5 -24.5t-6 -24.5t-7 -34t-7 -35.5l-173 -892q-2 -12 -7 -39t-7 -37.5t-5.5 -31t-4.5 -31t-2.5 -25.5t-0.5 -25t3 -20q4 -30 124 -40q5 -11 -1 -41.5t-15 -40.5 q-136 16 -293 16q-151 0 -295 -16q-2 4 -2 13z" />
<glyph unicode="Q" horiz-adv-x="1567" d="M111 579q0 134 36 258.5t98 221.5t144.5 177.5t175.5 133.5t190 82t189 29q105 0 197.5 -36t159 -96t114.5 -138.5t71.5 -165t23.5 -173.5q0 -137 -36.5 -260t-95.5 -215t-139.5 -168t-164 -125.5t-173.5 -81.5q31 -17 81.5 -48t76.5 -46t69 -35.5t76.5 -30t80 -17 t98.5 -7.5q59 0 113 15q28 0 42 -22q-18 -15 -72.5 -46.5t-137.5 -63.5t-140 -32q-56 0 -113 14.5t-105 37t-104.5 54t-105.5 62t-114.5 65.5t-126.5 60q-95 40 -171.5 101t-129 137.5t-80 168t-27.5 190.5zM431 542q0 -99 16.5 -181.5t51 -148t92.5 -102.5t135 -37 q55 0 106 21t93 58.5t79.5 89t66 113t51.5 130t37.5 140.5t22.5 144t8 141q0 98 -18.5 182.5t-54 150.5t-93 104t-129.5 38q-75 0 -141 -37t-116 -100.5t-90 -146.5t-65.5 -178t-38.5 -192t-13 -189z" />
<glyph unicode="R" horiz-adv-x="1431" d="M-22 4q0 12 4 28q6 30 16 41q124 11 140 40q16 30 27.5 76t27.5 133l160 817q2 11 7 38t7 37.5t5.5 31.5t4.5 31.5t2.5 25t0.5 25t-3 20.5q0 4 -4 8t-10.5 7.5t-13.5 6t-17.5 4t-18.5 3t-19 2.5t-17 2t-15 1.5t-11 0.5q-3 9 -1 25t7.5 33.5t11.5 23.5q91 -6 293 -6 q39 0 146.5 3t172.5 3q96 0 173 -31.5t126 -89.5q50 -58 68 -141q8 -35 8 -73v-9q0 -49 -11 -104q-7 -40 -27 -77.5t-46.5 -66.5t-59 -55t-64.5 -45t-65 -34t-58.5 -24t-45.5 -13q28 -56 64.5 -131t51 -103.5t41.5 -75.5t63 -103q29 -46 63 -83.5t65.5 -61t61 -40.5 t55 -25.5t42 -12.5t26.5 -4q2 -8 2 -20q0 -10 -1 -20q-3 -26 -6 -31q-21 -1 -39 -3.5t-36 -4t-56 -1.5q-69 0 -128.5 9.5t-101 23.5t-78 36.5t-57.5 40.5t-41 46t-28 42t-20 38q0 1 -1 2l-211 410q-15 34 -31 34h-28l-67 -342q-2 -12 -7 -39t-7 -37.5t-5.5 -31t-4.5 -31 t-2.5 -25.5t-0.5 -25t3 -20q4 -30 124 -40q5 -11 -1 -41.5t-15 -40.5q-136 16 -293 16q-151 0 -295 -16q-2 4 -2 13zM566 750h96q92 0 165.5 61.5t107.5 183.5q13 49 19 101q3 28 3 56q0 23 -2 46q-5 51 -21 90.5t-50 63.5t-83 24q-43 0 -70.5 -5t-37.5 -21 q-5 -8 -8.5 -17.5t-7.5 -24.5t-6 -24.5t-7 -34t-7 -35.5z" />
<glyph unicode="S" horiz-adv-x="1096" d="M49 36v26q0 64 7 168q9 128 17 183q8 9 33 20t34 11q22 0 22 -18v-7q0 -33 8 -75q9 -46 30.5 -94.5t52 -88t76.5 -65t99 -25.5q41 0 78 12t70.5 36.5t58 67t35.5 99.5q4 20 4 41q0 29 -9 59q-15 50 -56 97.5t-69.5 74.5t-77.5 68q-19 15 -27 22q-6 5 -17 15 q-27 23 -41 34.5t-38 34.5t-36.5 37.5t-31 39t-27.5 44.5t-19 47.5t-12 55t-1 60.5t8 70q16 83 69.5 158.5t125.5 128t157.5 83.5t164.5 31q43 0 90 -6.5t75.5 -13t86.5 -21.5t83 -21q-18 -161 -49 -368q-13 -14 -26 -14q-58 0 -58 16q1 10 1 20q0 31 -5 63q-6 44 -21.5 89 t-39.5 81t-62 59t-84 23q-32 0 -63 -9.5t-62 -30.5t-54.5 -60.5t-33.5 -92.5q-3 -17 -3 -35q0 -32 10 -64q16 -50 59.5 -99t76 -80t88.5 -77q9 -8 27 -23q33 -26 49.5 -40t44.5 -42.5t42.5 -50t32 -56.5t23.5 -69t6 -80t-10 -97q-17 -88 -70.5 -166t-127 -131t-161 -83 t-171.5 -30q-164 0 -382 58z" />
<glyph unicode="T" horiz-adv-x="1323" d="M120 1086l133 408q13 7 27 7q11 0 27.5 -6.5t33.5 -14.5t55.5 -14.5t89.5 -6.5h322h364q51 0 92 6.5t61 14.5t39 14.5t30 6.5q15 0 25 -7l-25 -408q-5 -5 -26.5 -10.5t-35.5 -5.5q-18 0 -18 11q1 12 1 24q0 59 -17 112q-20 64 -60 104t-90 40h-193l-202 -1039 q-3 -12 -8 -39t-7 -37.5t-5.5 -31t-4.5 -31t-2 -25.5t-0.5 -25t2.5 -20q5 -30 124 -40q5 -11 -1 -41.5t-14 -40.5q-136 16 -291 16q-151 0 -295 -16q-3 9 -2 24t6 33t11 25q124 11 140 40q29 52 58 209l202 1039h-193q-51 0 -106.5 -40t-100 -104t-68.5 -136q-6 -11 -23 -11 q-8 0 -20.5 2.5t-22.5 6t-12 7.5z" />
<glyph unicode="U" horiz-adv-x="1536" d="M191 376q0 7 -0.5 14.5t0.5 14.5q0 111 30 263l91 471q2 11 7 38t7 37.5t5.5 31.5t4.5 31.5t2 25t0.5 25t-2.5 20.5q-4 30 -124 40q-3 9 -1.5 25t6.5 33t10 24q136 -16 293 -16q150 0 294 16q5 -11 -0.5 -41t-15.5 -41q-124 -11 -140 -40q-28 -52 -58 -209l-77 -406 q-13 -67 -19.5 -109t-11.5 -92q-3 -33 -3 -64v-29q2 -43 12 -86q43 -213 273 -213q50 0 101 19t102.5 61.5t95.5 105t81 155t59 205.5l73 377q10 50 17 103q8 54 10 100q1 18 0 32q0 23 -2 36q-9 42 -144 54q-5 11 1 41t14 41q167 -16 255 -16q53 0 136 7t109 9q2 -5 2 -15 q-1 -11 -3 -26q-6 -30 -15 -41q-1 -1 -11.5 -1.5t-17.5 -1t-20.5 -2t-23.5 -3.5t-23 -5t-23 -7t-20.5 -8.5t-17.5 -11t-12 -14.5q-18 -33 -43.5 -115.5t-38.5 -152.5l-84 -431q-26 -132 -77.5 -241.5t-119 -185t-149.5 -128t-169 -76.5t-178 -24q-88 0 -163.5 20.5 t-136.5 65t-97 109.5q-46 81 -50 201z" />
<glyph unicode="V" horiz-adv-x="1391" d="M127 1401q0 6 1 12q2 16 7.5 33t11.5 24q135 -16 290 -16q152 0 296 16q5 -10 -1.5 -40.5t-16.5 -41.5q-1 -1 -11 -1.5t-16 -1t-18 -2t-20 -3.5t-19.5 -5t-19 -7.5t-15.5 -10t-12.5 -13t-6.5 -16.5q-2 -11 -2 -25q0 -48 20 -142l162 -748q384 682 417 744q6 11 23 43.5 t25 50.5q9 19 19 43q13 33 13 43q0 37 -155 51q-5 11 2 41t16 41q12 -1 50.5 -5t50.5 -5t39.5 -3t50.5 -2.5t51 -0.5q52 0 128 7t105 9q2 -5 2 -15q0 -11 -2 -26q-6 -30 -16 -41q-2 -1 -12.5 -1.5t-18 -1t-20.5 -2t-23 -3.5t-22.5 -5t-21.5 -6.5t-18 -9t-15 -11.5 q-44 -50 -122 -185q-114 -199 -213 -369t-223.5 -382t-202.5 -345q-18 -30 -58.5 -60.5t-59.5 -30.5q-8 0 -11.5 3t-6.5 13.5t-4 14.5l-231 1125q-5 23 -13 63t-14.5 70t-10.5 49q-4 20 -20.5 35t-38 23t-37.5 11t-30 5q-2 5 -2 13z" />
<glyph unicode="W" horiz-adv-x="1946" d="M130 1403q0 10 4 26q6 30 15 41q136 -16 293 -16q149 0 293 16q3 -5 2.5 -16.5t-3 -24t-6.5 -24.5t-9 -17q-133 -12 -133 -87q0 -43 13 -140l85 -604q357 686 435 831q17 32 40.5 57t39.5 25q11 0 18 -36l166 -959q300 611 335 682q7 14 21.5 44.5t23.5 49.5t19 43 q13 32 12 43q0 38 -151 51q-3 9 -1 25t7.5 33t11.5 24q12 -1 50 -5t50.5 -5t40 -3t50.5 -2.5t51 -0.5q52 0 129.5 7t105.5 9q2 -4 2 -13q0 -11 -4 -27q-6 -30 -16 -42q-2 -1 -15 -1.5t-21.5 -1.5t-23.5 -3t-27 -4.5t-24.5 -6.5t-22.5 -10t-17 -13q-71 -79 -122 -185 q-174 -349 -546 -1074q-22 -43 -54 -78t-50 -35q-20 0 -34 31l-162 921q-260 -511 -424 -830q-19 -36 -49.5 -79t-45.5 -43q-20 0 -34 31l-153 1125q-3 34 -24 178q-3 20 -21 35.5t-42 24t-42.5 12.5t-32.5 6q-3 5 -3 15z" />
<glyph unicode="X" horiz-adv-x="1462" d="M-129 9q1 3 1 6q0 15 5.5 33t11.5 25q13 0 34.5 3t60.5 11.5t79.5 31.5t69.5 56l473 540l-195 477l-6 15q-16 39 -25.5 61t-24 49.5t-24.5 36.5q-16 15 -63 24.5t-73 9.5q-4 2 -3.5 18t7 37t12.5 27q29 -2 77 -4.5t83 -4.5t79.5 -3.5t80.5 -1.5q46 0 95.5 2t120 6.5 t83.5 5.5q1 -7 -1.5 -27t-8 -37.5t-10.5 -17.5q-30 0 -70.5 -12.5t-46.5 -34.5q-5 -27 6 -49l158 -373q37 40 123.5 130.5t142.5 152.5t76 94q9 12 9 23q1 3 1 5q0 24 -40 43q-44 21 -99 21q-5 2 -4.5 18t6 37t11.5 27q125 -16 271 -16q142 0 251 16q1 -4 1 -11 q0 -13 -4 -35q-7 -36 -15 -36q-9 0 -21.5 -1.5t-41.5 -8t-57.5 -18t-65 -35t-67.5 -55.5l-442 -451q89 -213 180 -417.5t109 -232.5q20 -36 62 -59t73 -30t52 -7q3 -15 -1.5 -42t-14.5 -40q-246 13 -329 13q-51 0 -105 -2t-118 -5.5t-105 -5.5q-7 8 2 45t18 37q26 0 75 18 t54 44q3 9 -3 25l-188 446q-303 -336 -367 -422q-21 -28 -24 -37q-4 -19 11 -34t40.5 -23t53 -12.5t53.5 -4.5q5 -11 2 -37.5t-11 -44.5q-200 13 -271 13q-48 0 -93 -2t-96 -5.5t-78 -5.5q-2 7 -2 18z" />
<glyph unicode="Y" horiz-adv-x="1278" d="M153 1401q0 11 3 28q6 30 15 41q136 -16 293 -16q149 0 293 16q5 -11 -0.5 -41t-15.5 -41q-1 -1 -11 -1.5t-15.5 -1t-17.5 -2t-20.5 -3.5t-19.5 -5t-18.5 -7.5t-15.5 -10t-12.5 -13t-6.5 -16.5q-1 -4 0 -9t4 -13.5t5 -13.5l151 -491q3 -3 39.5 43t97 130.5t109.5 154 t109 154.5q16 26 20 51q2 14 -14.5 24.5t-45.5 16.5t-46.5 8.5t-35.5 4.5q-5 11 1 41t14 41q21 -2 60.5 -6t56.5 -5.5t47.5 -3t64.5 -1.5q40 0 78.5 3t81 7t75.5 6q2 -6 2 -16t-2 -25q-5 -30 -15 -41q-1 -1 -13 -1.5t-18.5 -1.5t-21.5 -3t-25 -4t-24 -6.5t-24 -9.5 t-20.5 -13t-18.5 -17q-58 -71 -254 -327.5t-252 -342.5q-17 -24 -20 -43l-57 -297q-18 -85 -25 -132q-3 -24 -3 -44q0 -18 3 -33q5 -30 125 -40q2 -9 0.5 -25t-6.5 -33t-10 -24q-136 16 -293 16q-149 0 -293 -16q-5 10 0.5 40.5t14.5 41.5q124 11 140 40q12 21 23 57.5 t16 59.5t19 92l60 308q2 17 -4 45q-9 34 -28 100t-40.5 135.5t-42 134t-34.5 106.5l-13 41q-31 97 -40 122q-6 16 -18.5 29t-27 20.5t-31 13t-28.5 8t-22 3.5q-2 5 -2 13z" />
<glyph unicode="Z" horiz-adv-x="1349" d="M-49 44q0 3 2 5l1073 1305h-380q-32 0 -61.5 -5t-52.5 -12.5t-46.5 -22t-39 -26t-34 -34t-29.5 -36t-27 -41t-23 -40.5t-22.5 -43.5t-21.5 -41.5q-9 -13 -29 -13q-18 0 -36.5 3t-21.5 8q119 314 155 420q21 -6 126 -11t143 -5l289 2q230 3 484 23q6 -1 8 -29q1 -9 1 -18 q0 -16 -3 -27q-2 -5 -111.5 -140.5t-264.5 -326t-309.5 -380t-262.5 -321.5l-108 -133h446q123 0 211 78q40 36 72.5 79t73.5 116q7 14 31 14q16 0 36.5 -4.5t23.5 -9.5q-18 -39 -90 -179.5t-94 -195.5l-1061 -2q-13 0 -26 10q-12 10 -18 22q-3 7 -3 12z" />
<glyph unicode="[" horiz-adv-x="583" d="M9 -215l373 1880q8 20 20 20q235 0 361 13q12 -11 12 -26q0 -12 -6.5 -23.5t-16 -19.5t-20.5 -13q-68 -30 -226 -46q-6 0 -9 -3t-7 -11l-333 -1680q-2 -12 14 -16q2 0 38.5 -9t57.5 -15t54 -19t56 -28q36 -22 36 -44q0 -27 -18 -40q-288 54 -371 57q-7 0 -12 7.5t-3 15.5 z" />
<glyph unicode="\" horiz-adv-x="865" d="M273 1676q2 4 7 7.5t11.5 6t12.5 2.5q31 0 60 -30.5t33 -51.5l276 -1619q4 -25 -23.5 -52.5t-47.5 -27.5q-18 0 -27 7z" />
<glyph unicode="]" horiz-adv-x="577" d="M-133 -264q0 18 18.5 34.5t41.5 27.5q100 50 193 78q17 5 20 17l326 1654q4 17 -15 20q-144 18 -211 49q-34 18 -34 60q0 8 5 13.5t9 7t6 1.5q234 -20 367 -20q12 0 18 -8t4 -16l-366 -1869q-1 -1 -3 -4t-4.5 -6t-8 -6.5t-11.5 -3.5q-207 -19 -340 -60q-1 0 -2.5 1.5 t-3 3.5t-3.5 5t-3.5 6t-2 7t-0.5 8z" />
<glyph unicode="^" horiz-adv-x="717" d="M44 1108q5 8 43 41t86 75.5t113.5 118.5t117.5 160q2 4 5 10.5t4.5 8.5t4 5t5.5 4t8 1q15 0 22 -6t13.5 -23.5t12.5 -40t22.5 -66t40.5 -91.5q15 -28 47.5 -75t57.5 -81.5t26 -38.5q-4 -14 -17 -41.5t-23 -27.5q-27 0 -107 80.5t-133 170.5q-80 -88 -193.5 -169.5 t-141.5 -81.5q-14 0 -14 67z" />
<glyph unicode="_" horiz-adv-x="1052" d="M-78 -78q1 5 2.5 13t6.5 27.5t10.5 35t14 28t17.5 12.5h928q2 0 3 -1t1.5 -3t0.5 -4v-5v-5q0 -34 -34 -107q-3 -6 -8 -9t-8 -4h-4h-919q-2 0 -4 0.5t-5.5 6t-1.5 15.5z" />
<glyph unicode="`" horiz-adv-x="448" d="M22 1325q0 41 33.5 66t66.5 25q22 0 42 -4.5t27 -10.5q45 -42 126 -154t87 -133q-2 -15 -20 -26q-16 4 -72.5 30.5t-122 62t-116.5 76.5t-51 68z" />
<glyph unicode="a" horiz-adv-x="1085" d="M24 255q0 97 31 193t83 176.5t121.5 150.5t144.5 118.5t153.5 76t148.5 27.5q55 0 127 -13.5t111 -26.5l-138 -664q-2 -7 -5.5 -36t-3.5 -37q0 -18 8 -32.5t23 -14.5q31 0 89.5 57.5t68.5 78.5q10 0 20.5 -24t10.5 -36q-15 -28 -55 -72t-90.5 -88t-108 -75.5t-99.5 -31.5 q-61 0 -99.5 38t-38.5 109q0 11 5 42q1 13 8 42q-18 -33 -51.5 -71t-77 -74t-95.5 -60t-100 -24q-90 0 -140.5 76.5t-50.5 194.5zM304 337q0 -78 21 -117.5t59 -39.5q37 0 83 65t86 167.5t62 211.5l44 224q-23 27 -77 27q-73 0 -138 -79.5t-102.5 -203.5t-37.5 -255z" />
<glyph unicode="b" horiz-adv-x="1032" d="M78 238q0 59 13 122l173 883q20 90 20 118q0 42 -135 42q-5 7 -1.5 32.5t10.5 31.5q85 8 221.5 35.5t177.5 42.5q14 -8 14 -42q0 -28 -29 -167l-120 -590q32 50 92 107t132 100.5t122 43.5q63 0 108 -28t69.5 -84.5t24.5 -136.5q0 -101 -29.5 -201t-78.5 -182 t-114 -153.5t-135.5 -120.5t-142.5 -76.5t-135 -27.5q-108 0 -182.5 69.5t-74.5 181.5zM337 233q0 -27 2 -51q4 -42 21.5 -68.5t45.5 -26.5q30 0 60.5 21t57 57.5t51.5 84t44.5 102t34 110t22.5 109.5t8 99q0 131 -62 131q-48 0 -105.5 -66.5t-102 -166.5t-63.5 -197 q-10 -49 -13 -97q-1 -21 -1 -41z" />
<glyph unicode="c" horiz-adv-x="836" d="M33 291q0 101 32 205.5t88 193t126 158t151.5 109.5t160.5 40q61 0 116 -15t79 -34q33 -50 33 -111q0 -51 -37.5 -93t-86.5 -42q-70 0 -113 82q-2 2 -7.5 13t-8 15t-8 14.5t-9.5 15.5t-10.5 13.5t-12 12.5t-12.5 9t-14.5 7t-15.5 2q-40 0 -80 -78t-65.5 -197t-25.5 -234 q0 -56 9 -95.5t27 -64t43 -35.5t59 -11q14 0 30 3.5t30.5 10t30 15.5t28.5 18.5t26.5 20t24 20t20.5 19t16 16t10.5 12t5.5 5.5q11 0 20 -22t9 -36q-12 -18 -38.5 -47.5t-69.5 -68t-89.5 -72t-102 -56t-102.5 -22.5q-51 0 -97.5 18.5t-85 54.5t-61.5 96t-23 135z" />
<glyph unicode="d" horiz-adv-x="1081" d="M22 255q0 108 39 215t103.5 194t145.5 158t169.5 115.5t170.5 57.5q14 2 38 2l49 246q2 12 6 31.5t6.5 33.5t5 29t2.5 24q0 42 -135 42q-5 7 -1.5 32.5t9.5 31.5q86 8 222.5 35.5t177.5 42.5q13 -8 13 -42q0 -28 -28 -167l-211 -1043q-2 -7 -5.5 -36t-3.5 -37t1.5 -16 t5 -15t10 -11.5t14.5 -4.5q31 0 89 57.5t68 78.5q11 0 21.5 -24t10.5 -36q-15 -28 -55 -72t-90.5 -88t-108 -75.5t-99.5 -31.5q-75 0 -111 54q-27 39 -27 93q0 31 13 84q-18 -33 -52 -71t-77 -74t-95.5 -60t-99.5 -24q-90 0 -140.5 76.5t-50.5 194.5zM302 337 q0 -78 21 -117.5t59 -39.5q36 0 86 73.5t91 178t54 192.5q24 131 24 160q0 48 -14 69.5t-44 21.5q-54 0 -106 -47.5t-89 -123t-59.5 -173t-22.5 -194.5z" />
<glyph unicode="e" horiz-adv-x="874" d="M36 311q0 80 23.5 164.5t64 159.5t96 142t117 115t128.5 76.5t130 28.5q29 0 57.5 -4.5t56.5 -14t51.5 -25.5t42 -38t28.5 -53.5t10 -68.5q0 -55 -29 -107.5t-76.5 -92.5t-105.5 -74t-117 -55.5t-111 -34t-87 -12.5q-4 -13 -4 -55q0 -35 6 -65.5t19.5 -60.5t42 -47.5 t67.5 -17.5q15 0 30.5 4t30.5 10.5t30.5 15.5t29 19t27 21t24 20.5t20.5 19.5t16 16.5t11 12.5l5 5q14 0 24 -26t10 -40q-12 -20 -58 -62t-106.5 -87.5t-130 -79t-118.5 -33.5q-79 0 -136.5 37.5t-88 111t-30.5 175.5zM322 502q32 0 76 28.5t84 72.5t67.5 105.5t27.5 119.5 q0 87 -58 87q-30 0 -60 -32.5t-52.5 -81t-41 -105.5t-29.5 -107.5t-14 -86.5z" />
<glyph unicode="f" horiz-adv-x="705" d="M-313 -371q0 44 23.5 76.5t60.5 32.5q55 0 94 -53q1 -2 6.5 -10t7 -10.5t7 -9.5t8.5 -10l8.5 -8.5t10 -7.5t10 -5.5t11.5 -4.5t13 -1q50 0 74 69.5t63 277.5q18 98 29 155l125 719h-145q-4 0 -4 7q0 20 36 57.5t70 37.5h60q21 105 66 202t100.5 168t117.5 124.5 t119.5 80.5t102.5 27q36 0 70.5 -6.5t58 -15.5t36.5 -18q20 -32 20 -73q0 -44 -24 -76.5t-61 -32.5q-54 0 -93 53q-1 2 -6.5 10t-7.5 10.5t-7 9.5t-8 10l-8.5 8.5t-10 7.5t-10 5.5t-12 4.5t-12.5 1q-49 0 -83 -106t-90 -394h222q11 0 11 -26q0 -8 -2.5 -19t-6 -21 t-7.5 -19.5t-8 -16.5h-229q-69 -431 -122 -710q-26 -132 -83 -249t-127 -195t-146.5 -123.5t-143.5 -45.5q-52 0 -97.5 12.5t-66.5 27.5q-20 32 -20 73z" />
<glyph unicode="g" horiz-adv-x="985" d="M-127 -244q0 30 11 58t25.5 48.5t41 40.5t47 32.5t54.5 27t52 21t51 18.5q14 5 20 7q-84 38 -100 53q-3 3 -12 11t-11.5 11.5t-6 14t-3.5 25.5q0 26 58.5 69t134.5 78.5t129 48.5q-36 9 -68 22t-63.5 31t-56.5 42t-44.5 53t-30 66.5t-10.5 80.5q0 108 55.5 200.5 t148.5 147t200 54.5q40 0 82 -9.5t67.5 -19t61.5 -25.5q9 -3 49 4t87 18t55 12q28 -9 70.5 -36.5t42.5 -45.5q0 -8 -5 -17.5t-13.5 -16t-16.5 -6.5h-167q1 -1 5.5 -7.5t8 -12t10 -16.5t11 -21.5t10 -25.5t9 -30.5t6 -35.5t2.5 -40q0 -60 -22 -115t-54.5 -95t-76 -74.5 t-80.5 -55.5t-73 -35q-17 -7 -48 -16t-49.5 -15t-34 -18.5t-15.5 -28.5q0 -13 23.5 -26.5t60.5 -27.5t82 -30.5t90 -39t82.5 -49t60.5 -65.5t23 -84q0 -78 -44 -153t-119 -132.5t-182 -92.5t-225 -35q-179 0 -287.5 74t-108.5 184zM131 -186q0 -53 20.5 -93.5t55.5 -65.5 t79.5 -37.5t95.5 -12.5q47 0 97 15t89.5 49.5t39.5 79.5q0 32 -35.5 66.5t-93 63.5t-113 51t-111.5 39q-63 -33 -93.5 -69.5t-30.5 -85.5zM343 588q0 -27 3 -52q4 -36 14.5 -68t31 -51.5t50.5 -21.5h4q45 0 84 39q42 42 65.5 105.5t26.5 130.5v19q0 33 -2 66q-4 42 -14 82.5 t-32 66t-52 26.5h-4q-50 0 -88 -46q-41 -49 -61.5 -120t-24.5 -149q-1 -14 -1 -27z" />
<glyph unicode="h" horiz-adv-x="1118" d="M33 0q12 60 124 647t114 596q20 95 20 118q0 42 -136 42q-5 7 -1 32.5t10 31.5q86 8 222.5 35.5t177.5 42.5q13 -8 13 -42q0 -12 -11 -74t-18 -93q-122 -619 -126 -639q-3 -12 -6.5 -28.5t-7 -35t-4.5 -25.5q34 77 100.5 167t144.5 156t130 66q37 0 64.5 -8t45.5 -23.5 t29.5 -39.5t16 -53.5t4.5 -68.5q0 -22 -3 -52t-9.5 -67t-11 -62.5t-12 -62.5t-8.5 -43l-43 -224q-1 -7 -4.5 -36t-3.5 -37q0 -11 3 -21t10 -18t18 -8q31 0 89 57.5t68 78.5q11 0 21 -24t10 -36q-14 -28 -54 -72t-90.5 -88t-108 -75.5t-100.5 -31.5q-60 0 -99.5 39t-39.5 119 q0 14 4 43.5t8.5 54.5t7.5 35l51 264q5 22 15.5 87.5t10.5 81.5q0 18 -9 32.5t-26 14.5q-24 0 -65.5 -47.5t-85.5 -121.5t-85.5 -177.5t-63.5 -204.5l-44 -202q-16 -5 -60 -9t-64.5 -4t-66.5 4t-65 9z" />
<glyph unicode="i" horiz-adv-x="688" d="M24 730q15 28 53.5 72t87.5 88t105 75.5t99 31.5q68 0 108 -41.5t40 -116.5q0 -33 -20 -133l-82 -413q-2 -7 -5.5 -36t-3.5 -37t2 -16t5.5 -15t9.5 -11.5t14 -4.5q22 0 60.5 32t65.5 63t32 41q10 0 20.5 -24t10.5 -36q-12 -22 -39.5 -55t-66.5 -70t-81 -68.5t-87 -52.5 t-79 -21q-60 0 -100 39t-40 119q0 20 8 67.5t12 65.5l82 413l4 20t5 31.5t2 21.5q0 17 -8.5 32t-24.5 15q-31 0 -89 -57.5t-68 -78.5q-11 0 -21.5 24t-10.5 36zM300 1339q0 48 23.5 91t63.5 69t86 26q37 0 66.5 -18t46 -49.5t16.5 -69.5q0 -74 -52 -131.5t-122 -57.5 q-55 0 -91.5 40.5t-36.5 99.5z" />
<glyph unicode="j" horiz-adv-x="634" d="M-195 -435q70 54 121 106t88.5 106.5t65.5 123t48 142.5t41 179l89 464q2 8 6.5 37t4.5 36q0 17 -9 32t-25 15q-31 0 -89 -57.5t-68 -78.5q-11 0 -21 24t-10 36q15 28 53.5 72t87 88t105 75.5t98.5 31.5q68 0 108 -41.5t40 -116.5q0 -33 -20 -133q-51 -273 -84 -440 q-25 -132 -72 -232.5t-121 -199.5q-44 -59 -134.5 -133t-170.5 -125t-112 -60q-8 0 -14 16.5t-6 32.5zM351 1341q0 74 52 131.5t121 57.5q56 0 92.5 -40.5t36.5 -99.5q0 -74 -52 -131.5t-121 -57.5q-56 0 -92.5 40.5t-36.5 99.5z" />
<glyph unicode="k" horiz-adv-x="1116" d="M33 0q12 60 124 647t114 596q20 95 20 118q0 42 -136 42q-5 7 -1 32.5t10 31.5q86 8 222.5 35.5t177.5 42.5q13 -8 13 -42q0 -12 -11 -74t-18 -93l-108 -579q11 24 47.5 62.5t89 79t122.5 69.5t136 29q94 0 138 -40.5t44 -119.5q0 -42 -24 -84.5t-62.5 -77.5t-89.5 -67.5 t-102.5 -56t-103.5 -40.5q17 -48 39.5 -98t53.5 -105.5t67.5 -90.5t70.5 -35q18 0 42.5 15.5t47 38.5t37 40t24.5 30q14 0 22.5 -21.5t8.5 -35.5q-9 -24 -44 -66t-81.5 -85.5t-105 -75t-104.5 -31.5q-41 0 -80.5 23.5t-72 64.5t-60.5 88t-51.5 103.5t-39.5 101t-29 90.5 l-91 -462q-16 -5 -60 -9t-64.5 -4t-66.5 4t-65 9zM397 551q71 0 147 26t131 75.5t55 106.5q0 14 -4 29t-19 28.5t-39 13.5q-37 0 -78 -23.5t-74 -59.5t-60.5 -75t-43 -72t-15.5 -49z" />
<glyph unicode="l" horiz-adv-x="628" d="M69 140q0 20 7.5 67.5t12.5 65.5l189 970q2 14 7.5 41t8.5 46.5t3 30.5q0 42 -135 42q-5 7 -1.5 32.5t10.5 31.5q85 8 222 35.5t178 42.5q13 -8 13 -42q0 -28 -29 -167l-204 -1043q-9 -53 -9 -73q0 -5 0.5 -10.5t2.5 -10.5t4.5 -10t5.5 -8.5t8 -5.5t10 -2q31 0 89 57.5 t69 78.5q10 0 20.5 -24t10.5 -36q-15 -28 -55 -72t-90.5 -88t-108 -75.5t-99.5 -31.5q-39 0 -69.5 15.5t-50.5 52t-20 90.5z" />
<glyph unicode="m" horiz-adv-x="1676" d="M24 730q15 28 53.5 72t87.5 88t105 75.5t99 31.5q68 0 108 -41.5t40 -116.5q0 -33 -20 -133l-22 -98q34 77 100.5 167t144.5 156t130 66q37 0 64.5 -8t46 -23.5t29.5 -39.5t15.5 -53.5t4.5 -68.5q0 -51 -15 -145q31 57 75 116t92 108.5t96.5 81.5t84.5 32q90 0 125 -47 t35 -146q0 -20 -2.5 -46t-6.5 -51.5t-9 -55t-9.5 -51.5t-9.5 -46.5t-7 -36.5q-5 -21 -24 -105t-25 -119q-9 -44 -9 -73q0 -5 0.5 -10.5t2 -10.5t4.5 -10t6 -8.5t8 -5.5t10 -2q22 0 60 32t65.5 63t32.5 41q7 0 14.5 -12.5t12 -26.5t4.5 -21q-15 -28 -55 -72t-90.5 -88 t-108 -75.5t-99.5 -31.5q-61 0 -100.5 39t-39.5 119q0 20 7.5 67.5t12.5 65.5l57 264q6 22 16.5 87.5t10.5 81.5q0 9 -2 17t-6.5 14.5t-11.5 11t-15 4.5q-25 0 -66 -47.5t-85 -121.5t-85.5 -177.5t-63.5 -204.5l-45 -202q-15 -5 -59 -9t-65 -4t-66.5 4t-64.5 9l116 537 q5 22 15.5 87.5t10.5 81.5q0 18 -9 32.5t-26 14.5q-24 0 -65.5 -47.5t-85.5 -121.5t-85.5 -177.5t-63.5 -204.5l-44 -202q-16 -5 -60 -9t-64.5 -4t-66.5 4t-65 9l131 686l4 20t5 31.5t2 21.5q0 17 -8.5 32t-24.5 15q-31 0 -89 -57.5t-68 -78.5q-11 0 -21.5 24t-10.5 36z" />
<glyph unicode="n" horiz-adv-x="1189" d="M24 730q15 28 53.5 72t87.5 88t105 75.5t99 31.5q68 0 108 -41.5t40 -116.5q0 -33 -20 -133q-1 -8 -3.5 -20.5t-6 -26t-6 -25.5t-4.5 -19l-2 -7q34 77 100.5 167t144.5 156t130 66q37 0 64.5 -8t46 -23.5t29.5 -39.5t15.5 -53.5t4.5 -68.5q0 -22 -3 -52t-9.5 -67 t-11 -62.5t-12 -62.5t-8.5 -43l-42 -224q-2 -7 -5.5 -36t-3.5 -37t1.5 -16t5 -15t10 -11.5t14.5 -4.5q31 0 89 57.5t68 78.5q7 0 15 -12.5t12 -26.5t4 -21q-14 -28 -54 -72t-90.5 -88t-108 -75.5t-100.5 -31.5q-60 0 -99.5 39t-39.5 119q0 20 7.5 67.5t12.5 65.5l51 264 q5 22 15.5 87.5t10.5 81.5q0 18 -9 32.5t-26 14.5q-24 0 -65.5 -47.5t-85.5 -121.5t-85.5 -177.5t-63.5 -204.5l-44 -202q-16 -5 -60 -9t-64.5 -4t-66.5 4t-65 9l131 686l4 20t5 31.5t2 21.5q0 17 -8.5 32t-24.5 15q-31 0 -89 -57.5t-68 -78.5q-11 0 -21.5 24t-10.5 36z" />
<glyph unicode="o" horiz-adv-x="1010" d="M33 315q0 78 24 161.5t65 158t97.5 141.5t119.5 115.5t132.5 77t134.5 28.5q58 0 105.5 -9.5t90 -33.5t71 -61.5t45.5 -96.5t17 -137t-25 -160.5t-67.5 -156t-100 -139.5t-121.5 -113.5t-134.5 -75t-135.5 -27.5q-142 0 -230 86t-88 242zM311 278q0 -203 75 -203 q59 0 112 64t86.5 159.5t53 200.5t19.5 194v30.5t-1 33.5t-3 36.5t-5.5 34t-9 32t-13 24.5t-19 18t-24.5 6q-60 0 -112.5 -64t-86 -160.5t-53 -204.5t-19.5 -201z" />
<glyph unicode="p" horiz-adv-x="1101" d="M-122 -452q3 32 11 37q60 0 89 35q20 27 35 96l167 799l-107 -107q-6 8 -10.5 27.5t-4.5 32.5q0 17 10.5 35t22.5 28l113 106l67 349q16 4 63.5 7.5t71.5 3.5q25 0 69.5 -5.5t59.5 -12.5q-7 -44 -31 -151q54 60 148 114.5t172 54.5q103 0 160 -74.5t57 -194.5 q0 -90 -29 -183.5t-77.5 -174t-113.5 -151.5t-136 -121.5t-146 -79.5t-142 -29q-35 0 -60 11l-57 -280q-7 -30 -7 -62q0 -12 8 -29.5t23 -21.5q28 -7 104 -7q7 -1 3.5 -33t-11.5 -35q-15 0 -40.5 1t-37.5 1q-272 0 -437 -20q-7 2 -7 22v12zM395 201q0 -33 5 -56 q14 -58 60 -58q55 0 111.5 63.5t95.5 155t63.5 189.5t24.5 169q0 146 -87 146q-89 0 -182 -93l-78 -386q-13 -78 -13 -130z" />
<glyph unicode="q" horiz-adv-x="1007" d="M24 253q0 88 28.5 180t77 173t116 153.5t143 124.5t160.5 82.5t166 30.5q136 0 215 -49l-122 -639l-115 -604q-5 -31 -5 -47q0 -20 7.5 -32t33.5 -20t72 -8q9 0 2 -40q-4 -22 -10 -26q-16 0 -91 1t-89 1q-132 0 -338 -22q-4 3 -2 37t11 34q53 5 91.5 28.5t46.5 64.5 l97 510q-19 -31 -51 -64.5t-72.5 -65t-89.5 -52t-95 -20.5q-47 0 -84 24t-58.5 63t-33 85.5t-11.5 96.5zM304 349q0 -86 22 -127.5t54 -41.5q37 0 85 66t88.5 166.5t59.5 197.5q13 74 24 147q3 10 3 24v10q-2 20 -6 39t-17.5 32t-34.5 13q-72 0 -137 -78t-103 -200t-38 -248 z" />
<glyph unicode="r" horiz-adv-x="959" d="M24 730q15 28 53.5 72t87.5 88t105 75.5t99 31.5q68 0 108 -41.5t40 -116.5q0 -33 -20 -133q-1 -8 -4.5 -25.5t-8 -37t-8.5 -38t-7 -30.5t-3 -11q27 100 91.5 201.5t140.5 166.5t134 65q45 0 68 -6t55 -23q35 -44 35 -98q0 -74 -39.5 -117t-89.5 -43q-20 0 -37 6 t-39.5 19.5t-25.5 14.5q-4 3 -13 7.5t-12.5 6t-12.5 3t-22 1.5q-24 0 -64.5 -49.5t-83.5 -127t-84 -183t-63 -206.5l-44 -202q-16 -5 -60 -9t-64.5 -4t-66.5 4t-65 9l131 686l4 20t5 31.5t2 21.5q0 17 -8.5 32t-24.5 15q-31 0 -89 -57.5t-68 -78.5q-11 0 -21.5 24t-10.5 36z " />
<glyph unicode="s" horiz-adv-x="812" d="M-2 138q0 46 30 83t76 37q39 0 68 -24.5t66 -75.5q12 -19 21 -30t20.5 -22.5t22.5 -18t25 -10.5t30 -4q36 0 68 32.5t32 63.5q0 23 -11 48t-28.5 46.5t-43 47t-49 45.5t-51 46t-45.5 46q-4 4 -20.5 22.5t-20.5 23.5t-17.5 22t-17.5 26t-12.5 27.5t-11.5 34.5t-6 38t-3 46 q0 133 106.5 221t268.5 88q155 0 244 -69q13 -15 19 -42t6 -47q0 -41 -31 -77t-80 -36q-61 0 -131 102q-14 21 -22.5 32.5t-22.5 24.5t-29.5 19t-34.5 6q-37 0 -63 -29t-26 -73q0 -29 24 -64t51.5 -60.5t73.5 -66t66 -60.5q24 -23 34.5 -33.5t31.5 -37t31 -49t19 -58 t9 -75.5q0 -95 -57 -169.5t-149 -112.5t-200 -38q-65 0 -130.5 20t-103.5 49q-26 33 -26 85z" />
<glyph unicode="t" horiz-adv-x="728" d="M73 846q0 20 36 57.5t71 37.5h82l33 178q17 22 123.5 84t120.5 62q20 0 38 -13l-58 -311h196q9 0 9 -26q0 -17 -7 -39.5t-15 -36.5h-202l-107 -546q-9 -53 -9 -73q0 -11 3 -21t10.5 -18t17.5 -8q32 0 90 57.5t68 78.5q10 0 20.5 -24t10.5 -36q-15 -28 -55 -72t-90.5 -88 t-108 -75.5t-99.5 -31.5q-60 0 -100 39t-40 119q0 46 20 133l111 566h-164q-5 0 -5 7z" />
<glyph unicode="u" horiz-adv-x="1183" d="M16 730q14 28 52.5 72t87.5 88t105 75.5t99 31.5q68 0 108 -41.5t40 -116.5q0 -33 -20 -133l-51 -264q-26 -160 -26 -169q0 -12 3.5 -22t12 -17.5t19.5 -7.5q24 0 67 56.5t88.5 140.5t87.5 194.5t61 208.5l31 153q16 5 60 9t65 4q12 0 38 -1.5t53 -5t40 -6.5l-129 -686 q-9 -44 -9 -73q0 -11 3 -21t10.5 -18t17.5 -8q32 0 90 57.5t68 78.5q7 0 14.5 -12.5t12 -26.5t4.5 -21q-15 -28 -55 -72t-90.5 -88t-108 -75.5t-99.5 -31.5q-60 0 -100 39t-40 119q0 25 16 111q12 66 26 118q-41 -88 -115 -179t-150.5 -149.5t-122.5 -58.5q-82 0 -111 43 t-29 148q0 61 42 280q6 29 15.5 75.5t16 81.5t12.5 76q2 8 7 37t5 36q0 17 -9 32t-25 15q-31 0 -89 -57.5t-68 -78.5q-11 0 -21 24t-10 36z" />
<glyph unicode="v" horiz-adv-x="1032" d="M20 730q16 29 54.5 73t87 88t104.5 75t98 31q34 0 57 -9.5t34.5 -28t15.5 -39t4 -48.5v-71v-44q0 -171 17 -330.5t32 -177.5q37 26 71.5 59t67.5 74.5t56 85.5q54 102 54 214q0 41 -26 89t-68 81q0 58 51 101.5t96 43.5q33 0 62.5 -11t55 -34t40.5 -64t15 -95 q0 -68 -43 -157.5t-110.5 -177t-150.5 -173.5t-161.5 -151t-145.5 -105t-102 -40q-36 83 -59 266.5t-23 388.5v97q0 49 -24 49q-22 0 -71 -51t-58 -69q-10 0 -20.5 24t-10.5 36z" />
<glyph unicode="w" horiz-adv-x="1611" d="M18 730q16 29 54.5 73t87 88t104.5 75t98 31q34 0 57 -9.5t34.5 -28t15.5 -39t4 -48.5v-71v-44q0 -170 17 -320t32 -168q40 27 86.5 88.5t79.5 126.5q58 117 78 233q6 27 39.5 60.5t74 60t79.5 45t58 18.5q0 -155 29 -390q8 -67 18 -126t18 -95t12 -41q49 26 106.5 82.5 t98.5 125.5q53 92 53 213q0 49 -26 99t-67 83q0 58 50.5 101.5t95.5 43.5q34 0 63.5 -11t55 -34t40 -64t14.5 -95q0 -59 -30.5 -133.5t-82 -149.5t-116 -151t-134.5 -141.5t-136 -116.5t-122.5 -80.5t-90.5 -29.5q-38 51 -71 235q-21 115 -25 200q-34 -72 -118.5 -163 t-184.5 -167t-178 -107q-37 84 -62 269t-25 386v97q0 49 -24 49q-22 0 -71 -51t-58 -69q-11 0 -21 24t-10 36z" />
<glyph unicode="x" horiz-adv-x="1134" d="M-27 131q0 52 31.5 97t86.5 45q59 0 100 -64q1 -3 8 -13.5t10.5 -15.5t9.5 -12.5t11 -11t10 -3.5q18 0 36.5 16.5t43.5 61.5l104 189l-82 279q-30 91 -73 91q-22 0 -71 -51t-58 -69q-11 0 -21 24t-10 36q16 29 54.5 73t87 88t104.5 75t98 31q77 0 111 -125l60 -213 l89 173q89 165 213 165q27 0 59 -6t59.5 -17t41.5 -24q9 -16 17.5 -49t8.5 -57q0 -51 -33 -93.5t-89 -42.5q-59 0 -100 65q-33 55 -49 55t-32 -17.5t-39 -55.5l-115 -198l89 -295q8 -26 15 -42.5t21.5 -31.5t32.5 -15q31 0 89 57.5t68 78.5q11 0 21 -24t10 -36 q-15 -28 -55 -72t-91 -88t-109 -75.5t-100 -31.5q-23 0 -42 8.5t-32.5 21t-25.5 33t-20 39.5t-18 45q0 10 -53 188l-86 -168q-90 -165 -214 -165q-90 0 -148 40q-13 11 -23.5 41.5t-10.5 65.5z" />
<glyph unicode="y" horiz-adv-x="1112" d="M-169 -346q0 28 21 62.5t46 48.5q39 -24 102 -47.5t118 -23.5q38 0 70 7.5t50.5 18t32 23.5t18 21t6.5 14q4 11 7 25.5t5 34t3.5 36t2.5 42t1.5 40.5t0.5 44v39.5v40v33.5q0 101 -9.5 214t-28 219t-50 175t-69.5 69q-19 0 -43 -18t-40 -39t-31 -41.5t-15 -21.5 q-12 2 -23 27.5t-8 32.5q12 21 41.5 60.5t71.5 88t90.5 83.5t84.5 35q49 0 90 -25.5t70 -69t52.5 -102t37 -124.5t24.5 -136.5t14.5 -138.5t7.5 -129q2 -48 2 -88v-22v-45v-36v-23q33 40 71 105t76 148t63 180.5t25 183.5q0 57 -29 103.5t-64 73.5q0 55 49 100t100 45 q32 0 60.5 -11t54 -34t41 -64.5t15.5 -97.5q0 -124 -59 -273.5t-152.5 -287.5t-212 -270t-236.5 -228.5t-227.5 -155.5t-182.5 -59q-42 0 -73.5 14t-51.5 46t-20 78z" />
<glyph unicode="z" horiz-adv-x="979" d="M-36 58q0 15 169.5 177t340.5 320t172 160q-11 -5 -42.5 -11.5t-50.5 -6.5q-100 0 -167 33q-5 3 -16.5 8.5t-20 9.5t-21 9.5t-22.5 9.5t-21.5 7.5t-22 5t-20.5 1.5q-23 0 -46 -15.5t-36 -31t-28 -39t-17 -25.5q-15 0 -26 18.5t-14 35.5q18 35 49.5 79.5t72.5 89.5 t90 75.5t90 30.5q64 0 110.5 -12.5t100.5 -36.5q95 -42 185 -42q60 0 155 89q7 0 13 -1.5t10.5 -4.5t8 -6t5.5 -8t3.5 -8t2.5 -9.5t1.5 -9t1 -8.5t1.5 -7q0 -14 -168.5 -175.5t-340.5 -321t-173 -160.5q11 4 42.5 10.5t50.5 6.5q100 0 167 -33l24 -12t30.5 -14.5t28.5 -11.5 t33 -10t28 -3q23 0 46 15.5t36 31.5t28.5 39.5t16.5 24.5q15 0 26 -18.5t14 -34.5q-18 -36 -49.5 -80.5t-72.5 -89.5t-90 -75.5t-90 -30.5q-64 0 -110.5 12.5t-100.5 36.5q-95 42 -185 42q-60 0 -155 -88q-7 0 -13 1t-10.5 4t-8 6t-5.5 8t-3.5 8.5t-2.5 9.5t-1.5 8.5t-1 9 t-1.5 7.5z" />
<glyph unicode="{" horiz-adv-x="550" d="M59.5 -32.5q-10.5 59.5 1.5 125.5q5 25 12 48t19.5 49t19 38.5t22.5 42.5q2 3 10.5 18t11 19.5l10 18t10 20t8 18.5t8.5 20.5t6 19.5t5 21q16 82 -23 135t-106 76q-5 11 -2 25q5 17 11 24q76 23 136 76t75 135q4 22 4 46t-1.5 39.5t-5.5 44t-6 41.5q-15 86 -2 162 q10 53 36 105.5t60 95t73.5 80.5t78.5 64.5t73.5 44t60.5 23.5q10 0 16 -18t-1 -31q-26 -13 -57.5 -37t-64.5 -58t-58.5 -79t-34.5 -90q-8 -41 -8.5 -77t2.5 -52.5t11 -54.5q6 -34 8.5 -52t2 -56.5t-8.5 -78.5q-10 -48 -33.5 -94t-53.5 -80.5t-62.5 -62t-61 -42.5t-49.5 -18 q25 -5 53.5 -28t54.5 -62t36.5 -91.5t-0.5 -116.5q-18 -91 -73 -186q-2 -3 -9 -15.5t-9 -16.5t-8.5 -15.5t-9 -16.5l-8 -16t-8 -18t-7 -18.5t-7.5 -21t-6 -22t-6 -25.5q-7 -49 0.5 -91t27.5 -77.5t41.5 -59t41.5 -36.5q2 -13 -10.5 -31t-22.5 -18q-28 7 -62 30.5t-67.5 61 t-58.5 87t-35.5 109z" />
<glyph unicode="|" horiz-adv-x="444" d="M5 -255q223 1184 378 1936q28 20 69 20q15 0 26 -6t9 -17l-377 -1936q-28 -20 -78 -20q-14 0 -21 7.5t-6 15.5z" />
<glyph unicode="}" horiz-adv-x="550" d="M-88 -302q-4 18 3 31q26 13 56.5 37t63 58t57.5 79t34 90q6 31 8 56.5t0 48.5t-4.5 38.5t-7.5 38.5q-7 34 -9.5 52t-2 57t8.5 80q12 60 45.5 115.5t73.5 93t78.5 61t64.5 28.5q-24 4 -53.5 27.5t-55 61t-37.5 93.5t0 115q9 46 23 85t26 61t31 54q19 33 28.5 50.5 t22.5 50.5t20 70q7 49 0 91t-27 77.5t-41 59t-41 36.5q-2 13 9.5 31t21.5 18q28 -7 62 -30.5t67.5 -61t58.5 -87t36 -108.5t-2 -126q-15 -74 -69 -169q-2 -3 -14 -25t-15 -28.5t-12 -25t-13 -29t-9 -26.5t-8 -30q-15 -82 24 -135t105 -76q4 -8 0 -24q-5 -21 -9 -25 q-76 -23 -135.5 -76t-75.5 -135q-3 -16 -4 -34t-1 -31t2.5 -32.5t4 -29t5.5 -30.5q17 -102 2 -176q-12 -63 -46 -125.5t-77.5 -109.5t-92.5 -86t-92 -62t-74 -30q-10 0 -14 18z" />
<glyph unicode="~" horiz-adv-x="1194" d="M124 597q0 51 52.5 99t122.5 74.5t129 26.5q54 0 103.5 -12t89 -29.5t79.5 -34.5t89.5 -29.5t102.5 -12.5q70 0 155 60q10 7 52 38q9 -4 9 -33q0 -37 -29 -74.5t-72.5 -64.5t-97 -44t-101.5 -17q-54 0 -104 12t-90 29.5t-80 34.5t-90.5 29.5t-103.5 12.5 q-36 0 -72.5 -14.5t-58.5 -29t-64 -45.5l-12 -9q-9 4 -9 33z" />
<glyph unicode="&#xa1;" horiz-adv-x="523" d="M-62 -415q0 54 106 410t151 493q7 21 17.5 35t18.5 14q22 0 37.5 -17.5t15.5 -46.5q0 -33 -17 -231t-36 -393t-25 -226q-12 -69 -59 -110t-98 -41q-49 0 -80 30.5t-31 82.5zM149 779q0 81 62 142.5t131 61.5q52 0 85 -37.5t33 -95.5q0 -80 -59 -140t-132 -60 q-17 0 -33 4.5t-29 12.5t-24 19.5t-18.5 25.5t-11.5 31.5t-4 35.5z" />
<glyph unicode="&#xa2;" horiz-adv-x="901" d="M56 291q0 101 31.5 205.5t87.5 193t126 158t152 109.5t160 40q62 0 116.5 -15t78.5 -34q33 -50 33 -111q0 -25 -10 -49.5t-26.5 -43.5t-40 -30.5t-47.5 -11.5q-70 0 -113 82q-1 2 -7 13t-8 15t-8 14.5t-10 15.5t-10.5 13.5t-12 12.5t-12.5 9t-14.5 7t-15.5 2 q-30 0 -61 -47t-55 -119.5t-39.5 -164.5t-15.5 -178q0 -110 34.5 -158t103.5 -48q14 0 30 3.5t30.5 10t30 15.5t28.5 18.5t26.5 20t24 20t20.5 19t16 16t11 12l5 5.5q12 0 20.5 -22t8.5 -36q-12 -18 -38.5 -47.5t-69.5 -68t-89.5 -72t-101.5 -56t-103 -22.5 q-51 0 -97.5 18.5t-85 54.5t-61 96t-22.5 135zM233 -80l391 1132q8 0 19 -0.5t26 -2t24 -5.5t9 -9l-391 -1135q-23 0 -51 5t-27 15z" />
<glyph unicode="&#xa3;" horiz-adv-x="1054" d="M4 47q18 26 84.5 91.5t81.5 87.5q65 113 100 289q11 57 7 167h-146q-7 10 19.5 51.5t39.5 41.5h85q-4 66 2 93q23 113 70.5 207.5t105.5 157.5t126 107t133 63.5t124 19.5q22 0 38 -2.5t31 -10.5t20.5 -10.5t22 -16.5t17.5 -15q6 -12 6 -30t-4.5 -38t-14 -40t-22.5 -36 t-32 -26t-39 -10q-27 0 -47 11.5t-32 27.5t-24 32.5t-30 28t-43 11.5q-39 0 -72 -39t-54.5 -100t-35.5 -141q-3 -21 -5.5 -44t-3.5 -41.5t-1 -42.5t0.5 -38.5t1.5 -40t2 -37.5h328q16 -16 -3.5 -49.5t-36.5 -43.5h-286q-4 -54 -9 -83q-12 -59 -35.5 -113t-53 -95t-56 -69.5 t-53.5 -50.5q64 33 142 33q26 0 63.5 -15t70.5 -32.5t76 -32.5t79 -15q22 0 43 8.5t34.5 17.5t29.5 27.5t21 26t16 24.5q7 3 16.5 -2t14.5 -14q8 -11 3 -42q-13 -25 -33 -56t-53.5 -70.5t-70 -71t-83.5 -53.5t-93 -22q-33 0 -66 10t-59.5 24.5t-57.5 31.5t-58.5 31.5t-63 24 t-71.5 9.5q-6 0 -14 -2.5t-19.5 -9t-21 -12.5t-24 -17t-23 -17.5t-24.5 -19.5t-21.5 -17.5t-20.5 -17.5t-16 -13q-11 0 -18.5 22t-3.5 38z" />
<glyph unicode="&#xa4;" horiz-adv-x="1196" d="M120 342l133 113q-41 103 -18 227q31 149 129 257l-84 124q-6 6 4 20q9 13 26 27t38 26.5t40 17.5l85 -122q107 69 224 69q129 0 213 -91l144 122q8 8 25 -4q15 -12 27.5 -39.5t14.5 -53.5l-149 -125q39 -106 16 -228q-27 -135 -116 -240l87 -129q5 -5 -7 -24 q-6 -9 -17.5 -19.5t-24.5 -19.5t-28.5 -16.5t-29.5 -11.5l-84 122q-113 -78 -235 -78q-133 0 -218 89l-131 -111q-10 -7 -20 2q-15 13 -29 41t-15 55zM421.5 565.5q4.5 -66.5 23 -116t50.5 -77.5t71 -28q74 0 136 89.5t88 219.5q19 104 9 186.5t-46.5 133t-88.5 50.5 q-75 0 -140 -92.5t-91 -222.5q-16 -76 -11.5 -142.5z" />
<glyph unicode="&#xa5;" horiz-adv-x="1400" d="M216 1345q-5 12 0 41t13 39q132 -15 287 -15q144 0 284 15q5 -10 -0.5 -39t-15.5 -41q-1 0 -11 -0.5t-15.5 -1t-17 -2t-19.5 -3.5t-18.5 -5t-18 -7.5t-15 -9.5t-12 -12.5t-6.5 -15.5q-1 -3 0 -7.5t2 -7t3.5 -8.5t3.5 -11l144 -477q6 -7 118 146.5t229 321.5q13 23 17 49 q2 9 -5.5 17t-21.5 13t-28.5 9t-33 6.5t-28.5 3.5l-20 2q-5 12 1 41t14 39q21 -2 59 -6t54.5 -5.5t46 -2.5t62.5 -1q51 0 126 7t103 8q5 -10 -0.5 -39t-15.5 -41l-12 -0.5t-19 -1.5l-21 -3t-23.5 -4t-23.5 -6t-24 -9t-20 -12.5t-17 -16.5q-56 -69 -246 -318t-244 -332 q-18 -25 -20 -40l-56 -289q-33 -153 -22 -204q4 -28 120 -38q5 -11 -1 -40.5t-15 -39.5q-132 16 -284 16q-144 0 -284 -16q-3 8 -2 23t6 32.5t12 24.5q120 10 135 38q7 12 13 26.5t12 38.5t9 37.5t11 50.5t11 51l57 297q3 17 -4 45q-13 52 -51 177.5t-70 224.5l-32 100 q-9 26 -19.5 60.5t-18.5 56.5q-7 19 -23.5 33.5t-36 22t-35 11t-27.5 4.5zM265 304q0 46 33 82h688q7 0 7 -15q0 -56 -29 -82h-688q-11 0 -11 15zM302 502q0 45 34 82h688q7 0 7 -16q0 -56 -29 -82h-688q-12 0 -12 16z" />
<glyph unicode="&#xa6;" horiz-adv-x="452" d="M9 -255q18 72 162 826q28 20 69 20q15 0 26 -6t9 -17l-162 -826q-27 -20 -78 -20q-9 0 -16 4t-9.5 9t-0.5 10zM224 855q18 72 162 826q28 20 69 20q15 0 26 -6t9 -17l-162 -826q-27 -20 -77 -20q-14 0 -21.5 7.5t-5.5 15.5z" />
<glyph unicode="&#xa7;" horiz-adv-x="972" d="M56 -115q7 40 33.5 67.5t68.5 27.5q19 0 35.5 -9t24 -17t18.5 -23q18 -24 71 -24q35 0 71.5 11.5t68.5 40t40 68.5q5 24 -1.5 54.5t-23.5 65t-34.5 65t-45.5 68t-45 59.5t-43 54q-4 4 -11 12q-28 36 -42.5 54t-38 51.5t-34.5 56t-24.5 56.5t-17 64.5t-3.5 69.5t9 80 q11 61 60.5 140t111 147t118.5 120.5t94 76.5q-115 -101 -149 -220q-48 -61 -65 -144q-7 -39 -7 -76.5t5.5 -68.5t18 -64t25.5 -58t34 -55.5t36.5 -50.5t38.5 -49l36 -42q17 -20 26 -30.5t25.5 -31.5t26 -34t22.5 -34t20 -37t15 -37t10.5 -39.5t2.5 -40t-4 -43.5 q0 -2 -1 -5.5t-2 -6t-2 -6t-1 -6.5q-5 -5 -54 -60q-53 -49 -75 -89q-7 -11 -10 -21.5t-4.5 -24t-3.5 -22.5q-68 -60 -152 -94.5t-172 -34.5q-20 0 -49.5 10t-48.5 21q-7 26 -2 58zM358.5 1036.5q-0.5 21.5 3.5 42.5q2 3 3 11t2 11q15 20 55 60q54 51 76 91q7 11 9.5 21.5 t4 24.5t4.5 23q44 39 94.5 67t110 45t119.5 17q40 0 97 -29q8 -24 0 -67q-7 -40 -31 -64.5t-66 -24.5q-14 0 -25.5 3.5t-22.5 13.5t-14 12.5t-14 15.5q-25 29 -75 29q-35 0 -72 -12t-69 -40.5t-39 -67.5q-6 -29 6 -69t30 -75.5t50.5 -82.5t53.5 -73.5t53 -66.5q3 -4 10 -12 q29 -35 43.5 -53.5t38 -51.5t34.5 -55.5t24.5 -57t17 -64.5t3 -69t-8.5 -81q-12 -61 -61 -140t-110.5 -146.5t-119 -120.5t-93.5 -76q113 98 147 217q49 64 66 147q8 38 7.5 75.5t-5.5 68.5t-18.5 64.5t-26 57.5t-34 55.5t-36 50.5t-38.5 49q-11 14 -35 42l-27 31.5 t-25.5 31t-25.5 34t-22 34t-20 36.5t-15 37t-10.5 40t-3 40.5z" />
<glyph unicode="&#xa8;" horiz-adv-x="765" d="M55 1243q8 42 34 77t63 55.5t77 20.5q59 0 92 -44.5t21 -108t-63 -109.5t-110 -46q-60 0 -92.5 45.5t-21.5 109.5zM444 1243q4 21 13 41t21.5 36.5t29 31t34.5 24t38 15t39 5.5q60 0 92.5 -44.5t21.5 -108.5q-8 -41 -34.5 -77t-64.5 -57t-77 -21q-59 0 -92 45.5 t-21 109.5z" />
<glyph unicode="&#xa9;" horiz-adv-x="1367" d="M156 690q12 99 52 191.5t101 167t137 130.5t165.5 86.5t181.5 30.5q115 0 213.5 -47.5t164.5 -128.5t97 -193.5t15.5 -236t-74 -236t-144.5 -193.5t-196 -129t-224.5 -48t-213 48t-164 129t-96.5 193.5t-15 235.5zM247 688q-12 -103 13.5 -196.5t80.5 -161.5t137 -108 t177 -40q77 0 152 25.5t139 72.5t115 109t84 139.5t43 159.5q12 103 -13.5 197t-80 161.5t-137 107.5t-178 40t-187.5 -40t-163.5 -107.5t-120.5 -161.5t-61 -197zM424 677q12 96 65 173t128 118.5t156 41.5q25 0 55 -6t69.5 -16.5t50.5 -12.5q0 -3 6.5 -67.5t5.5 -70.5 q0 -3 -12.5 -8t-21.5 -5t-11 2q-1 11 -4 21.5t-8.5 26.5t-16.5 28.5t-25.5 24.5t-38 18.5t-51.5 6.5q-35 0 -65 -15t-52 -40.5t-39 -60t-27 -71.5t-15 -77q-9 -73 2 -133t47 -99t93 -39q72 0 114 38q17 16 35 43.5t27 45.5t11 24q32 0 38 -9q-4 -18 -23.5 -77.5t-28.5 -61.5 q-11 -5 -42.5 -17.5t-52 -20t-51.5 -14t-58 -6.5q-133 0 -205.5 85t-54.5 230z" />
<glyph unicode="&#xaa;" horiz-adv-x="885" d="M122 730q0 78 32 155t85 137.5t118 108t134.5 73.5t130.5 26q42 0 94.5 -9t78.5 -18l-98 -428q0 -4 -3.5 -25t-3.5 -24q0 -12 6.5 -21.5t18.5 -9.5q23 0 66 39t49 52q9 -5 15 -25t3 -35q-25 -46 -111 -113t-146 -67q-46 0 -75.5 22t-29.5 69q0 9 5 31q1 5 2 14t2 13 q-30 -50 -98 -98.5t-135 -48.5q-66 0 -103 51.5t-37 130.5zM326 786q0 -52 15.5 -79.5t42.5 -27.5t60.5 44t62.5 113t46 143l31 135q-18 18 -58 18q-54 0 -100.5 -49.5t-73 -129t-26.5 -167.5z" />
<glyph unicode="&#xab;" horiz-adv-x="1061" d="M60 551q3 16 19 33q49 28 97 58t88.5 56.5t78 53t68.5 50t57.5 43.5t47 37t34.5 28.5t23.5 19.5t9.5 9q7 -1 16.5 -6.5t19 -15.5t11.5 -20q-16 -20 -150.5 -157.5t-193.5 -188.5q27 -36 78.5 -120.5t89 -150t43.5 -76.5q-9 -15 -30.5 -27.5t-34.5 -14.5l-17.5 22.5 t-47 56.5t-71 77t-102 96.5t-126.5 102.5q-12 17 -8 34zM446 551q3 16 20 33q49 28 97 58t88 56.5t78 53t69 50t57 43.5t47 37t34.5 28.5t23 19.5t10.5 9q11 -2 27 -14.5t19 -27.5q-16 -20 -150.5 -157.5t-193.5 -188.5q27 -36 78.5 -121t88 -149.5t42.5 -76.5 q-3 -5 -8 -10.5t-11 -9.5l-12 -8t-12 -7t-11 -4.5t-8 -2.5l-18 22.5t-48 56.5t-71.5 77t-102.5 96.5t-127 102.5q-10 14 -6 34z" />
<glyph unicode="&#xac;" horiz-adv-x="1145" d="M133 724q0 58 31 95h866l-98 -499q-1 -5 -17 -13.5t-39 -15.5t-39 -7t-26.5 5.5t-9.5 12.5l78 404h-735q-11 0 -11 18z" />
<glyph unicode="&#xad;" horiz-adv-x="639" d="M142 462q0 23 18.5 76t34.5 55l504 26q14 0 14 -26q0 -25 -21.5 -82t-36.5 -58l-502 -25q-11 0 -11 34z" />
<glyph unicode="&#xae;" horiz-adv-x="1367" d="M176 804q12 99 52 191.5t101 167t137 130.5t165.5 86.5t181.5 30.5q115 0 214 -48t165.5 -129t97.5 -193.5t15.5 -236t-74.5 -235.5t-145 -193.5t-196.5 -129t-225 -47.5t-213 47.5t-164 129t-96.5 193.5t-15 236zM269 801q-12 -103 14 -196.5t80.5 -161.5t136.5 -108 t177.5 -40t188 40t164 108t120 161.5t61 197t-13.5 197t-80.5 161t-136.5 108t-178 40.5t-188 -40.5t-163.5 -108t-120.5 -161.5t-61 -197zM450 536.5q2 13.5 6 18.5q11 0 31.5 5t23.5 13q8 15 16 82l40 324q8 68 4 82q-3 13 -53 13q-2 6 0.5 20.5t5.5 17.5q38 -2 122 -2 q17 0 60 1t69 1q81 0 130 -43.5t39 -120.5q-6 -49 -54.5 -91.5t-87.5 -52.5q22 -39 48.5 -80t42.5 -63l15 -22q23 -33 49.5 -53t39.5 -24.5t20 -4.5q1 -3 0 -11.5t-2.5 -17t-1.5 -9.5q-49 -4 -93 -4q-46 0 -74 19t-53 61l-102 180q-7 13 -13 13h-14l-15 -133q-8 -68 -5 -82 q2 -8 22 -13t32 -5q1 -5 -0.5 -18.5t-4.5 -17.5q-50 7 -120 7q-72 0 -122 -7q-3 4 -1 17.5zM671 830h33q27 0 50.5 13.5t40 39t20.5 58.5q7 56 -11.5 92.5t-59.5 36.5q-38 0 -42 -9q-8 -20 -11 -55z" />
<glyph unicode="&#xaf;" horiz-adv-x="579" d="M27 1108q0 14 10.5 44.5t18.5 30.5h497q3 0 7 -4.5t4 -10.5q0 -14 -6.5 -40.5t-18.5 -39.5h-506q-6 6 -6 20z" />
<glyph unicode="&#xb0;" horiz-adv-x="623" d="M215 1192q20 102 100.5 173t175.5 71t148.5 -71t33.5 -173t-101.5 -175t-176 -73t-147.5 73t-33 175zM311 1192q-12 -60 18.5 -103t85.5 -43t103 43t59.5 103t-19 102t-85.5 42q-36 0 -70.5 -19t-59.5 -52.5t-32 -72.5z" />
<glyph unicode="&#xb1;" horiz-adv-x="1134" d="M20 42q0 52 33 96h868q7 0 7 -18q0 -64 -29 -96h-868q-11 0 -11 18zM149 699q0 52 33 96h371l73 379q3 19 44.5 27.5t64.5 8.5q12 0 17 -5t3 -13l-78 -397h373q7 0 7 -18q0 -64 -29 -95h-369l-77 -387q-3 -15 -34.5 -25t-61.5 -10q-16 0 -24.5 5t-6.5 13l80 404h-375 q-11 0 -11 17z" />
<glyph unicode="&#xb2;" horiz-adv-x="752" d="M93 595q97 93 156 153.5t151 159.5q146 161 146 284q0 55 -26 85.5t-78 30.5q-26 0 -51 -8.5t-44 -22t-33 -25.5t-25.5 -24t-13.5 -14q-4 0 -11 4.5t-13.5 14t-4.5 21.5q16 24 40 50t61 56.5t86 50t100 19.5q69 0 118.5 -30t72 -74.5t22.5 -97.5q0 -44 -21 -92t-56 -92.5 t-70.5 -80t-74.5 -68.5q-23 -19 -61 -52.5t-69.5 -58.5t-71.5 -51h204q14 0 26.5 3t23.5 10.5t19 14t17 19t14 20.5t14 22.5t13 21.5q7 11 20 11q24 0 31 -7q-18 -44 -70 -153t-63 -131h-469q-9 13 -9 31z" />
<glyph unicode="&#xb3;" horiz-adv-x="750" d="M107 662q6 32 31 60t60 28q12 0 22 -4t17.5 -10.5t14.5 -17.5t12.5 -21t11.5 -24q23 -60 77 -60q61 0 113 64.5t52 148.5q0 41 -10.5 76.5t-37 61.5t-66.5 26q-46 0 -68 -7q-5 14 -5 25q0 20 5 29q16 2 33 6t39 11.5t42 17t39.5 24.5t34 33t23 43t8.5 53q0 40 -23.5 67 t-76.5 27q-15 0 -31.5 -5t-31.5 -13.5t-28.5 -18t-26 -21t-20.5 -19.5t-15.5 -16.5t-8.5 -8.5q-10 2 -22 17t-6 29q56 75 132 121t149 46q25 0 48.5 -4.5t49 -16t45 -29.5t32 -49t12.5 -70q0 -31 -11 -59t-29.5 -49t-40 -38t-44 -28.5t-40 -18.5t-30.5 -9q17 -1 35 -4 t47 -15t50.5 -30t37.5 -53.5t16 -81.5q0 -64 -30 -119.5t-78 -93.5t-107 -65.5t-116.5 -40t-107.5 -12.5q-40 0 -76 8t-60 19t-35 24q-14 32 -7 67z" />
<glyph unicode="&#xb4;" horiz-adv-x="448" d="M44 1114q6 21 87 133t127 154q4 4 15 7.5t25 5.5t28 2q34 0 67 -25t33 -66q0 -27 -50.5 -68t-116 -76.5t-122 -62t-73.5 -30.5q-17 11 -20 26z" />
<glyph unicode="&#xb5;" horiz-adv-x="1174" d="M2 -282q0 56 60.5 292.5t121.5 442.5q7 30 19 111t15 98q1 6 55 284q10 13 50 28.5t59 15.5t67 -31.5t44 -50.5q-29 -142 -96 -317l-31 -96q-24 -131 -6.5 -213t68.5 -82q41 0 75.5 20t60 58t43.5 79.5t35 95.5l106 508q24 16 53 23.5t49 5.5q64 -5 101.5 -31.5 t31.5 -50.5q-6 -38 -35 -133.5t-80 -228.5l-20 -51q-10 -50 -16.5 -87.5t-11 -76.5t-3 -65.5t7.5 -48.5t20.5 -33t35.5 -11q23 0 52.5 13.5t50 28.5t31.5 27q6 0 17 -29q2 -7 1 -23t-3 -21q-34 -74 -96 -126t-119 -52q-45 1 -75.5 45t-41.5 109.5t-5 138.5 q-32 -56 -55 -92.5t-56 -80.5t-62.5 -69.5t-67.5 -43.5t-77 -18q-13 0 -24 3.5t-19 12t-14.5 16t-11.5 22.5t-8 24.5t-6 28.5t-4 27t-3 28.5t-3 26.5q-1 -9 -22 -94t-37.5 -168t-15 -181t34.5 -150q-14 -19 -55 -49.5t-65 -30.5q-36 0 -61.5 21.5t-37 58t-16.5 70.5t-5 72z " />
<glyph unicode="&#xb6;" horiz-adv-x="1243" d="M151 977q0 77 27 146.5t72.5 121.5t102.5 94.5t118.5 69t119.5 40.5t106 14q66 0 183.5 -4.5t151.5 -4.5q150 0 293 16q5 -11 0 -41t-15 -41q-124 -11 -140 -40q-29 -52 -58 -209l-135 -708q-26 -132 -83 -249t-127 -195t-146.5 -123.5t-143.5 -45.5q-52 0 -97.5 12.5 t-66.5 27.5q-20 32 -20 73q0 44 23.5 76.5t60.5 32.5q55 0 94 -53q1 -2 6.5 -10t7 -10.5t7 -10t8.5 -10t8.5 -8t10 -8t10 -5.5t11.5 -4t13 -1q50 0 74 69.5t63 277.5q18 98 29 155l147 770q27 136 22 167q-5 22 -42 22q-30 0 -63 -17t-65 -50t-58.5 -76.5t-42 -101.5 t-15.5 -119q0 -117 30.5 -189.5t104.5 -108.5q3 -1 6 -7.5t3 -9.5q0 -25 -36.5 -48t-83 -35.5t-82.5 -12.5q-78 0 -144.5 23.5t-111.5 61.5t-76.5 87t-46 99.5t-14.5 99.5z" />
<glyph unicode="&#xb7;" horiz-adv-x="526" d="M104 555q0 77 59 136t130 59q53 0 87.5 -36.5t34.5 -91.5q0 -75 -57.5 -140t-126.5 -65q-56 0 -91.5 40t-35.5 98z" />
<glyph unicode="&#xb8;" horiz-adv-x="901" d="M253 -320q0 26 12.5 44t29.5 18t34.5 -13t38.5 -26.5t47 -13.5q42 0 69 25.5t27 63.5q0 24 -10.5 42.5t-25 27t-29.5 8.5q-25 0 -64 -18q-5 0 -19 9.5t-14 17.5q0 4 12 17.5t39.5 44.5t52.5 64h64l-51 -55h38q44 0 82 -30t38 -75q0 -32 -14.5 -62t-40 -53.5t-59 -41 t-73 -27t-80.5 -9.5q-22 0 -53.5 7t-41.5 15q-9 9 -9 20z" />
<glyph unicode="&#xb9;" horiz-adv-x="626" d="M124 559q-4 6 1 32t10 26q16 0 54.5 9.5t49.5 21.5q9 9 25 54.5t20 67.5l71 364q8 45 3 75t-23 30q-22 0 -100 -36q-7 2 -12 17t-1 28q0 11 4 15q70 29 158 69.5t141 65.5t54 25h2q6 0 15.5 -19t9.5 -25q-39 -85 -60 -189l-82 -422q-18 -104 -5 -122q9 -13 43 -21t50 -8 q2 0 0 -14t-6 -28t-5 -16q-195 9 -206 9q-7 0 -211 -9z" />
<glyph unicode="&#xba;" horiz-adv-x="794" d="M127 775q0 77 38 159t97.5 145.5t135 104.5t146.5 41q53 0 94 -10t75 -34.5t52.5 -69t18.5 -108.5q0 -76 -39.5 -157.5t-100 -144.5t-137.5 -103.5t-147 -40.5q-68 0 -120 24.5t-82.5 74.5t-30.5 119zM331 750q0 -13 0.5 -26.5t4 -32.5t9 -33t16.5 -24t25 -10 q43 0 80.5 41t61.5 103t37.5 130.5t13.5 127.5q0 21 -2 42t-7.5 43t-16.5 36t-27 14q-43 0 -81 -41t-62 -103.5t-38 -133t-14 -133.5z" />
<glyph unicode="&#xbb;" horiz-adv-x="1061" d="M31 204q16 20 151 157.5t193 189.5q-27 35 -78 120t-88 149.5t-43 76.5q7 10 20 20t25 15.5t20 6.5l17.5 -22.5t47.5 -56.5t71 -77t101.5 -96.5t126.5 -102.5q10 -14 7 -33q-4 -17 -20 -34q-49 -28 -97 -57.5t-88 -56.5t-77.5 -53.5t-68.5 -49.5t-57 -43.5t-46.5 -37.5 t-34.5 -28.5t-23 -19.5t-10 -9q-11 2 -28.5 15t-20.5 27zM417 204q8 9 72 76t148 151t124 120q-26 35 -77.5 120t-88 149.5t-42.5 76.5q9 15 29.5 27.5t32.5 14.5q1 -1 8.5 -10.5t19 -24t30 -35.5t40.5 -45t51.5 -53t61.5 -58.5t72.5 -63.5t82.5 -65q11 -14 7 -33 q-3 -17 -20 -34q-49 -28 -97 -57.5t-88.5 -56.5t-78 -53.5t-68.5 -49.5t-57.5 -43.5t-47 -37.5t-34.5 -28.5t-23 -19.5t-10 -9q-11 2 -27.5 14.5t-19.5 27.5z" />
<glyph unicode="&#xbc;" horiz-adv-x="1565" d="M122 564q-4 5 1 28t10 23q10 0 30 3t43 10.5t29 17.5q11 19 20 73l80 409q1 7 4 21q6 31 8.5 44.5t3.5 29.5t-3 21.5t-13 5.5q-11 0 -113 -47q-6 3 -11 18.5t-5 23.5q0 5 7 12q80 41 215 104.5t153 72.5h5q5 0 8.5 -17.5t2.5 -31.5q-4 -8 -11.5 -25t-25 -75.5 t-30.5 -125.5l-73 -398q-13 -66 -13 -106q0 -13 15 -22t37.5 -12.5t36 -4.5t22.5 -1q2 -3 1 -14.5t-4 -21.5q-1 -2 -1.5 -5.5t-1 -6t-1.5 -3.5q-195 9 -220 9q-2 0 -206 -9zM348 9q0 4 5 13l1003 1423h3t8 -1t11 -2.5t11.5 -3.5t11 -5t7.5 -7.5t3 -9.5q0 -9 -2 -11 l-1001 -1423q-2 0 -6 0.5t-14.5 2t-18.5 4.5t-14.5 8t-6.5 12zM797 278l583 588q23 22 40 22q10 0 20.5 -13.5t8.5 -22.5l-100 -515h74q11 0 11 -22q0 -16 -8 -37t-17 -34h-80l-44 -237q-49 -9 -98 -9q-28 0 -55.5 3.5t-26.5 9.5l47 233h-344q-7 3 -10 14.5t-1 19.5z M943 337h224l54 289z" />
<glyph unicode="&#xbd;" horiz-adv-x="1658" d="M122 564q-4 5 1 28t10 23q10 0 30 3t43 10.5t29 17.5q11 19 20 73l80 409q1 7 4 21q6 31 8.5 44.5t3.5 29.5t-3 21.5t-13 5.5q-11 0 -113 -47q-6 3 -11 18.5t-5 23.5q0 5 7 12q80 41 215 104.5t153 72.5h5q5 0 8.5 -17.5t2.5 -31.5q-4 -8 -11.5 -25t-25 -75.5 t-30.5 -125.5l-73 -398q-13 -66 -13 -106q0 -13 15 -22t37.5 -12.5t36 -4.5t22.5 -1q2 -3 1 -14.5t-4 -21.5q-1 -2 -1.5 -5.5t-1 -6t-1.5 -3.5q-195 9 -220 9q-2 0 -206 -9zM348 9q0 4 5 13l1003 1423h3t8 -1t11 -2.5t11.5 -3.5t11 -5t7.5 -7.5t3 -9.5q0 -9 -2 -11 l-1001 -1423q-2 0 -6 0.5t-14.5 2t-18.5 4.5t-14.5 8t-6.5 12zM912 27q96 93 155.5 153.5t150.5 159.5q147 160 147 284q0 55 -26 85t-78 30q-26 0 -51 -8t-44 -21.5t-33 -25.5t-26 -24.5t-13 -13.5q-8 0 -20 11.5t-9 28.5q15 23 39.5 49.5t61 56.5t86 49.5t100.5 19.5 q52 0 93.5 -17t67 -45.5t39 -64t13.5 -75.5q0 -43 -21 -91t-56 -92.5t-70.5 -80.5t-74.5 -69q-23 -18 -61.5 -51.5t-70 -58.5t-70.5 -52h204q16 0 31 5.5t25 12t22 20.5t17 22t16.5 27t14.5 24q8 11 20 11q25 0 31 -6q-18 -44 -69.5 -153.5t-63.5 -130.5h-468q-9 13 -9 31z " />
<glyph unicode="&#xbe;" horiz-adv-x="1580" d="M96 662q6 32 31 60t60 28q27 0 44.5 -20t33.5 -57q23 -60 77 -60q60 0 112.5 64.5t52.5 148.5q0 41 -10.5 76.5t-37 61.5t-66.5 26q-46 0 -69 -7q-4 14 -4 25q0 20 4 29q24 3 49 9.5t57 21t56.5 34.5t41 52t16.5 71q0 40 -23.5 67t-76.5 27q-15 0 -31.5 -5t-31.5 -13.5 t-28.5 -18t-26 -21t-20.5 -19.5t-15.5 -16.5t-8.5 -8.5q-10 2 -22 17t-7 29q56 75 132.5 121t149.5 46q25 0 48.5 -4.5t49 -16t45 -29.5t32 -49t12.5 -70q0 -37 -16 -69.5t-39.5 -55t-51.5 -39.5t-50 -26t-39 -12q18 -1 36 -4t47 -15t50.5 -30t37.5 -53.5t16 -81.5 q0 -64 -30 -119.5t-78 -93.5t-107 -65.5t-116.5 -40t-108.5 -12.5q-57 0 -104.5 15.5t-66.5 35.5q-13 32 -6 67zM360 9q0 4 4 13l1004 1423h3t8 -1t11 -2.5t11.5 -3.5t11 -5t7.5 -7.5t3 -9.5q0 -9 -2 -11l-1001 -1423q-1 0 -3.5 0.5t-8.5 1t-11.5 1.5t-12.5 3t-12 5t-8.5 7 t-3.5 9zM817 278l584 588q22 22 40 22q10 0 20.5 -13.5t8.5 -22.5l-100 -515h73q11 0 11 -22q0 -16 -8 -37t-16 -34h-78l-46 -237q-49 -9 -98 -9q-28 0 -54.5 3.5t-25.5 9.5l45 233h-345q-6 3 -9.5 14.5t-1.5 19.5zM964 337h224l53 289z" />
<glyph unicode="&#xbf;" horiz-adv-x="808" d="M-44 -138q0 50 7 87.5t27.5 77.5t60 77.5t100.5 75.5q12 7 73 38.5t96 54.5q86 55 86 107q0 29 -16.5 56t-30.5 38.5t-28 20.5q0 6 5 15.5t11.5 17.5t12.5 11q16 0 46 -12t65 -35.5t66.5 -52t52 -65.5t20.5 -72q0 -21 -3.5 -41t-9 -36.5t-15 -32.5t-18.5 -28t-21.5 -24 t-23.5 -21t-24.5 -18.5t-23 -16t-22 -14.5t-18.5 -12q-21 -15 -112 -62t-133 -83q-35 -30 -51.5 -58.5t-16.5 -67.5q0 -27 8.5 -46t27.5 -30t46 -11q22 0 50 18t50.5 39t51 39t50.5 18q37 0 62.5 -18.5t36 -47t10 -62.5t-13.5 -66q-65 -82 -184 -82q-90 0 -173.5 46.5 t-133.5 122t-50 155.5zM415 839q8 41 32.5 77t60.5 58.5t74 22.5q59 0 92 -47.5t21 -110.5q-8 -40 -33 -74.5t-61.5 -54.5t-74.5 -20q-57 0 -89.5 44t-21.5 105z" />
<glyph unicode="&#xc0;" horiz-adv-x="1376" d="M-133.5 25q3.5 28 13.5 46q23 0 81 23.5t76 47.5q41 54 102 155l653 1088q15 25 45.5 55t45.5 30q13 0 25.5 -5.5t14.5 -10.5l207 -1125q7 -38 14.5 -89t11.5 -71q5 -26 21 -45t33 -28.5t38.5 -15t32.5 -6.5t19 -1q5 -14 -0.5 -44.5t-12.5 -37.5q-19 1 -119.5 9.5 t-153.5 8.5q-42 0 -100.5 -3.5t-126.5 -8.5t-88 -6q-7 8 1 45t17 37q29 0 67 11t61 29q24 17 27 38q2 9 -13 93.5t-31 163.5l-16 80q-4 9 -11 9q-39 3 -198 3q-142 0 -215 -3q-5 0 -10.5 -3.5t-7.5 -7.5q-75 -124 -111 -186q-25 -45 -48 -92.5t-25 -58.5q-4 -20 15 -36 t47.5 -24t50.5 -12t31 -4q4 -9 2 -26t-7.5 -34t-9.5 -22q-142 18 -220 18q-23 0 -46 -1t-37.5 -1.5t-39 -3t-33 -3.5t-36.5 -4.5t-34 -4.5q-6 6 -2.5 34zM441 622q0 -9 5 -9q60 -7 168 -7q103 0 167 4q2 0 4 3l4 6l1 3l-87 435zM470 1807q0 25 21.5 42t48 23t55.5 6 q25 0 56.5 -5t45.5 -13q60 -36 140.5 -114.5t94.5 -100.5q0 -14 -20 -29q-19 3 -84.5 20t-148 43.5t-146 61.5t-63.5 66z" />
<glyph unicode="&#xc1;" horiz-adv-x="1376" d="M-133.5 25q3.5 28 13.5 46q23 0 81 23.5t76 47.5q41 54 102 155l653 1088q15 25 45.5 55t45.5 30q13 0 25.5 -5.5t14.5 -10.5l207 -1125q7 -38 14.5 -89t11.5 -71q5 -26 21 -45t33 -28.5t38.5 -15t32.5 -6.5t19 -1q5 -14 -0.5 -44.5t-12.5 -37.5q-19 1 -119.5 9.5 t-153.5 8.5q-42 0 -100.5 -3.5t-126.5 -8.5t-88 -6q-7 8 1 45t17 37q29 0 67 11t61 29q24 17 27 38q2 9 -13 93.5t-31 163.5l-16 80q-4 9 -11 9q-39 3 -198 3q-142 0 -215 -3q-5 0 -10.5 -3.5t-7.5 -7.5q-75 -124 -111 -186q-25 -45 -48 -92.5t-25 -58.5q-4 -20 15 -36 t47.5 -24t50.5 -12t31 -4q4 -9 2 -26t-7.5 -34t-9.5 -22q-142 18 -220 18q-23 0 -46 -1t-37.5 -1.5t-39 -3t-33 -3.5t-36.5 -4.5t-34 -4.5q-6 6 -2.5 34zM441 622q0 -9 5 -9q60 -7 168 -7q103 0 167 4q2 0 4 3l4 6l1 3l-87 435zM850 1645q14 22 94.5 100.5t140.5 114.5 q14 8 45.5 13t56.5 5q29 0 55.5 -6t48 -23t21.5 -42q0 -31 -63.5 -66t-146.5 -61.5t-148 -43.5t-84 -20q-20 15 -20 29z" />
<glyph unicode="&#xc2;" horiz-adv-x="1376" d="M-133.5 25q3.5 28 13.5 46q23 0 81 23.5t76 47.5q41 54 102 155l653 1088q15 25 45.5 55t45.5 30q13 0 25.5 -5.5t14.5 -10.5l207 -1125q7 -38 14.5 -89t11.5 -71q5 -26 21 -45t33 -28.5t38.5 -15t32.5 -6.5t19 -1q5 -14 -0.5 -44.5t-12.5 -37.5q-19 1 -119.5 9.5 t-153.5 8.5q-42 0 -100.5 -3.5t-126.5 -8.5t-88 -6q-7 8 1 45t17 37q29 0 67 11t61 29q24 17 27 38q2 9 -13 93.5t-31 163.5l-16 80q-4 9 -11 9q-39 3 -198 3q-142 0 -215 -3q-5 0 -10.5 -3.5t-7.5 -7.5q-75 -124 -111 -186q-25 -45 -48 -92.5t-25 -58.5q-4 -20 15 -36 t47.5 -24t50.5 -12t31 -4q4 -9 2 -26t-7.5 -34t-9.5 -22q-142 18 -220 18q-23 0 -46 -1t-37.5 -1.5t-39 -3t-33 -3.5t-36.5 -4.5t-34 -4.5q-6 6 -2.5 34zM441 622q0 -9 5 -9q60 -7 168 -7q103 0 167 4q2 0 4 3l4 6l1 3l-87 435zM626 1656q44 35 93 74.5t90.5 74t74.5 62.5 t48 42q22 22 31 22q3 0 5 -1t5 -3.5t4.5 -4.5t5 -6.5t4.5 -6.5q25 -32 65.5 -81.5t82 -97.5t66.5 -74q-4 -28 -27 -35q-21 5 -111 53.5t-131 79.5q-56 -32 -159.5 -79t-131.5 -54q-7 3 -12 14t-3 21z" />
<glyph unicode="&#xc3;" horiz-adv-x="1376" d="M-133.5 25q3.5 28 13.5 46q23 0 81 23.5t76 47.5q41 54 102 155l653 1088q15 25 45.5 55t45.5 30q13 0 25.5 -5.5t14.5 -10.5l207 -1125q7 -38 14.5 -89t11.5 -71q5 -26 21 -45t33 -28.5t38.5 -15t32.5 -6.5t19 -1q5 -14 -0.5 -44.5t-12.5 -37.5q-19 1 -119.5 9.5 t-153.5 8.5q-42 0 -100.5 -3.5t-126.5 -8.5t-88 -6q-7 8 1 45t17 37q29 0 67 11t61 29q24 17 27 38q2 9 -13 93.5t-31 163.5l-16 80q-4 9 -11 9q-39 3 -198 3q-142 0 -215 -3q-5 0 -10.5 -3.5t-7.5 -7.5q-75 -124 -111 -186q-25 -45 -48 -92.5t-25 -58.5q-4 -20 15 -36 t47.5 -24t50.5 -12t31 -4q4 -9 2 -26t-7.5 -34t-9.5 -22q-142 18 -220 18q-23 0 -46 -1t-37.5 -1.5t-39 -3t-33 -3.5t-36.5 -4.5t-34 -4.5q-6 6 -2.5 34zM441 622q0 -9 5 -9q60 -7 168 -7q103 0 167 4q2 0 4 3l4 6l1 3l-87 435zM575 1647q0 44 42 91q28 30 57 48t58.5 26 t64.5 8q43 0 73.5 -7t65.5 -28q35 -20 51.5 -29t49.5 -19t66 -10q79 0 149 93q6 -2 13 -10.5t7 -20.5q0 -44 -43 -91q-42 -44 -85 -63t-94 -19q-44 0 -74.5 7.5t-65.5 28.5q-34 20 -51 29t-50 18.5t-66 9.5q-79 0 -148 -93q-4 1 -8.5 5t-8 11t-3.5 15z" />
<glyph unicode="&#xc4;" horiz-adv-x="1376" d="M-133.5 25q3.5 28 13.5 46q23 0 81 23.5t76 47.5q41 54 102 155l653 1088q15 25 45.5 55t45.5 30q13 0 25.5 -5.5t14.5 -10.5l207 -1125q7 -38 14.5 -89t11.5 -71q5 -26 21 -45t33 -28.5t38.5 -15t32.5 -6.5t19 -1q5 -14 -0.5 -44.5t-12.5 -37.5q-19 1 -119.5 9.5 t-153.5 8.5q-42 0 -100.5 -3.5t-126.5 -8.5t-88 -6q-7 8 1 45t17 37q29 0 67 11t61 29q24 17 27 38q2 9 -13 93.5t-31 163.5l-16 80q-4 9 -11 9q-39 3 -198 3q-142 0 -215 -3q-5 0 -10.5 -3.5t-7.5 -7.5q-75 -124 -111 -186q-25 -45 -48 -92.5t-25 -58.5q-4 -20 15 -36 t47.5 -24t50.5 -12t31 -4q4 -9 2 -26t-7.5 -34t-9.5 -22q-142 18 -220 18q-23 0 -46 -1t-37.5 -1.5t-39 -3t-33 -3.5t-36.5 -4.5t-34 -4.5q-6 6 -2.5 34zM441 622q0 -9 5 -9q60 -7 168 -7q103 0 167 4q2 0 4 3l4 6l1 3l-87 435zM603 1776q12 62 61.5 105.5t107.5 43.5 q57 0 90 -44t21 -105q-12 -63 -60.5 -110.5t-105.5 -47.5q-59 0 -92 47.5t-22 110.5zM1034 1776q8 40 33 74.5t61.5 54.5t74.5 20q57 0 89.5 -44t21.5 -105q-12 -63 -61 -110.5t-106 -47.5q-59 0 -92 47.5t-21 110.5z" />
<glyph unicode="&#xc5;" horiz-adv-x="1376" d="M-133.5 25q3.5 28 13.5 46q23 0 81 23.5t76 47.5q41 54 102 155l653 1088q15 25 45.5 55t45.5 30q13 0 25.5 -5.5t14.5 -10.5l207 -1125q7 -38 14.5 -89t11.5 -71q5 -26 21 -45t33 -28.5t38.5 -15t32.5 -6.5t19 -1q5 -14 -0.5 -44.5t-12.5 -37.5q-19 1 -119.5 9.5 t-153.5 8.5q-42 0 -100.5 -3.5t-126.5 -8.5t-88 -6q-7 8 1 45t17 37q29 0 67 11t61 29q24 17 27 38q2 9 -13 93.5t-31 163.5l-16 80q-4 9 -11 9q-39 3 -198 3q-142 0 -215 -3q-5 0 -10.5 -3.5t-7.5 -7.5q-75 -124 -111 -186q-25 -45 -48 -92.5t-25 -58.5q-4 -20 15 -36 t47.5 -24t50.5 -12t31 -4q4 -9 2 -26t-7.5 -34t-9.5 -22q-142 18 -220 18q-23 0 -46 -1t-37.5 -1.5t-39 -3t-33 -3.5t-36.5 -4.5t-34 -4.5q-6 6 -2.5 34zM441 622q0 -9 5 -9q60 -7 168 -7q103 0 167 4q2 0 4 3l4 6l1 3l-87 435zM726 1685q16 89 89 153.5t157 64.5 q83 0 131 -64t31 -154t-90 -155t-156 -65q-84 0 -131.5 65t-30.5 155zM821 1685q-10 -50 15 -85t71.5 -35t85 35t48.5 85t-15 85t-72 35q-30 0 -58.5 -16t-48 -43.5t-26.5 -60.5z" />
<glyph unicode="&#xc6;" horiz-adv-x="1918" d="M-144 25.5q-1 25.5 10 45.5q23 0 83.5 23.5t80.5 47.5q19 22 35 42.5t25.5 34t26.5 38t28 40.5l702 1013q18 29 18 40q0 14 -20.5 23.5t-35.5 9.5q-6 13 -1 42t12 40q91 -6 307 -6q49 0 343 7t331 8q4 -98 25 -328q-5 -5 -20.5 -8.5t-28.5 -3.5q-28 0 -31 18 q-11 41 -21 71t-26.5 60.5t-36.5 49.5t-49.5 31t-66.5 12h-171q-43 0 -70 -5t-36 -21q-14 -26 -25 -136l-40 -415q0 -6 12.5 -12t32.5 -9t42 -3h109q63 0 97 12.5t56 44t46 98.5q2 5 4 8t4.5 5.5t6.5 3.5t10 1q30 0 38 -11l-43 -426q-8 -9 -37 -9q-27 0 -27 17q-6 50 -18 81 t-21 40t-21 15q-31 15 -153 15q-151 0 -153 -31l-36 -326q-2 -11 -4 -41.5t-2 -72t6 -61.5q6 -22 45 -33.5t84 -11.5h138q123 0 199 73q35 34 64.5 82t66.5 129q7 14 31 14q16 0 36.5 -4.5t23.5 -9.5q-5 -13 -26 -61t-30.5 -70.5t-27 -65.5t-27.5 -70t-20.5 -59t-16.5 -55 h-724q-49 0 -100.5 -0.5t-85.5 -1t-62.5 -1t-35.5 -0.5q-7 10 -4.5 40.5t10.5 41.5q125 11 138 38q6 13 10.5 30.5t8 34t6.5 43.5t5 46t6 55l26 266q0 1 -1.5 3.5t-3.5 4t-4 1.5q-39 2 -177 2q-118 0 -191 -2q-5 0 -11.5 -3.5t-8.5 -7.5q-158 -224 -200 -286 q-28 -44 -55.5 -92t-31.5 -59q-3 -14 4 -26t21.5 -19.5t32 -14t34.5 -9.5t29 -5t17 -2q5 -11 2.5 -43t-9.5 -39q-142 18 -248 18q-23 0 -46 -1t-38 -1.5t-39 -3t-32.5 -3.5t-37 -4.5t-34.5 -4.5q-6 9 -7 34.5zM578 722q0 -9 5 -9q60 -7 142 -7q104 0 168 4q2 0 5 3t5 6l2 3 l44 417q3 31 9 120z" />
<glyph unicode="&#xc7;" horiz-adv-x="1434" d="M115 613q0 134 37 256t101 215.5t149 169.5t182 125t199 75.5t200 26.5q149 0 433 -65q0 -18 -12.5 -158.5t-15.5 -160.5q-2 -11 -17 -21t-32 -10q-20 0 -27 8q-1 21 -5.5 45t-15.5 55t-27.5 59.5t-42.5 56.5t-58.5 49t-79 33.5t-100.5 12.5q-86 0 -168 -37 t-150.5 -107.5t-120 -165.5t-80.5 -219t-29 -261q0 -46 5.5 -93t18.5 -98t32 -97t49.5 -87.5t68 -71.5t89.5 -48t112 -18q76 0 145 26t122 70q46 37 94 103.5t72.5 111t30.5 60.5q46 0 69 -27q-5 -27 -67.5 -176.5t-83.5 -160.5q-96 -54 -200.5 -79.5t-243.5 -25.5 q-125 0 -231 37t-179 99t-124 143.5t-75 170t-24 179.5zM484 -335q0 28 13 46t31 18q15 0 29.5 -8.5t25.5 -19t30 -19t42 -8.5q43 0 71.5 26.5t28.5 66.5q0 37 -20.5 59.5t-46.5 22.5t-69 -18q-4 0 -19.5 11t-15.5 18q0 5 13 19t42 46.5t56 67.5h69l-56 -57h40q47 0 88 -32 t41 -79q0 -43 -23.5 -81.5t-62.5 -65t-90.5 -42.5t-105.5 -16q-24 0 -58.5 7.5t-43.5 15.5t-9 22z" />
<glyph unicode="&#xc8;" horiz-adv-x="1269" d="M-13 -7q-5 11 0.5 41t15.5 41q125 11 140 38q16 30 27.5 76t27.5 133l160 817q2 11 7 38t7 37.5t5.5 31.5t4.5 31.5t2.5 25t0.5 25t-3 20.5q0 4 -4 8t-10.5 7.5t-13.5 6t-17.5 4t-18.5 3t-19 2.5t-17 2t-15 1.5t-11 0.5q-3 9 -1 25t7.5 33.5t11.5 23.5q91 -6 293 -6 q37 0 177.5 3t296 7t201.5 5q-5 -74 -5 -328q-5 -5 -21.5 -8.5t-29.5 -3.5q-25 0 -29 18q-7 41 -14.5 71t-21 60.5t-32 49.5t-47 31t-65.5 12h-171q-43 0 -70.5 -5t-37.5 -21q-5 -8 -8.5 -17.5t-7.5 -24.5t-6 -24.5t-7 -34t-7 -35.5l-78 -397q-1 -7 11 -12.5t32 -8.5t42 -3 h109q63 0 98 12.5t59.5 44t55.5 98.5q7 18 26 18q31 0 38 -11l-82 -427q-9 -9 -40 -9q-24 0 -24 18q-2 38 -7 64.5t-12 40.5t-13.5 20.5t-14.5 10.5q-31 15 -153 15q-150 0 -156 -31l-66 -344q0 -1 -2 -11t-4 -22t-5 -27.5t-4.5 -31.5t-3 -31.5t-1.5 -29t2 -22.5 q3 -15 23.5 -25.5t46.5 -15t54 -4.5h138q124 0 206 73q26 23 51 54.5t48 67.5t52 89q7 14 34 14q15 0 34.5 -4.5t22.5 -9.5q-4 -8 -37.5 -72.5t-46 -89t-37 -74t-39 -84t-24.5 -61.5h-724q-62 0 -126.5 -1t-107 -1.5t-50.5 -0.5zM496 1778q0 19 12 33.5t31 22.5t39.5 11.5 t41.5 3.5q16 0 35.5 -2t38.5 -6t28 -9q42 -26 98.5 -76t93 -89.5t43.5 -50.5q0 -14 -20 -29q-18 3 -83.5 20t-148.5 43.5t-146 62t-63 65.5z" />
<glyph unicode="&#xc9;" horiz-adv-x="1269" d="M-13 -7q-5 11 0.5 41t15.5 41q125 11 140 38q16 30 27.5 76t27.5 133l160 817q2 11 7 38t7 37.5t5.5 31.5t4.5 31.5t2.5 25t0.5 25t-3 20.5q0 4 -4 8t-10.5 7.5t-13.5 6t-17.5 4t-18.5 3t-19 2.5t-17 2t-15 1.5t-11 0.5q-3 9 -1 25t7.5 33.5t11.5 23.5q91 -6 293 -6 q37 0 177.5 3t296 7t201.5 5q-5 -74 -5 -328q-5 -5 -21.5 -8.5t-29.5 -3.5q-25 0 -29 18q-7 41 -14.5 71t-21 60.5t-32 49.5t-47 31t-65.5 12h-171q-43 0 -70.5 -5t-37.5 -21q-5 -8 -8.5 -17.5t-7.5 -24.5t-6 -24.5t-7 -34t-7 -35.5l-78 -397q-1 -7 11 -12.5t32 -8.5t42 -3 h109q63 0 98 12.5t59.5 44t55.5 98.5q7 18 26 18q31 0 38 -11l-82 -427q-9 -9 -40 -9q-24 0 -24 18q-2 38 -7 64.5t-12 40.5t-13.5 20.5t-14.5 10.5q-31 15 -153 15q-150 0 -156 -31l-66 -344q0 -1 -2 -11t-4 -22t-5 -27.5t-4.5 -31.5t-3 -31.5t-1.5 -29t2 -22.5 q3 -15 23.5 -25.5t46.5 -15t54 -4.5h138q124 0 206 73q26 23 51 54.5t48 67.5t52 89q7 14 34 14q15 0 34.5 -4.5t22.5 -9.5q-4 -8 -37.5 -72.5t-46 -89t-37 -74t-39 -84t-24.5 -61.5h-724q-62 0 -126.5 -1t-107 -1.5t-50.5 -0.5zM711 1616q7 11 43.5 50.5t93 89.5t98.5 76 q14 7 45.5 12t56.5 5q29 0 55.5 -6t48 -23t21.5 -42q0 -30 -63.5 -65.5t-146.5 -62t-148 -43.5t-84 -20q-20 15 -20 29z" />
<glyph unicode="&#xca;" horiz-adv-x="1269" d="M-13 -7q-5 11 0.5 41t15.5 41q125 11 140 38q16 30 27.5 76t27.5 133l160 817q2 11 7 38t7 37.5t5.5 31.5t4.5 31.5t2.5 25t0.5 25t-3 20.5q0 4 -4 8t-10.5 7.5t-13.5 6t-17.5 4t-18.5 3t-19 2.5t-17 2t-15 1.5t-11 0.5q-3 9 -1 25t7.5 33.5t11.5 23.5q91 -6 293 -6 q37 0 177.5 3t296 7t201.5 5q-5 -74 -5 -328q-5 -5 -21.5 -8.5t-29.5 -3.5q-25 0 -29 18q-7 41 -14.5 71t-21 60.5t-32 49.5t-47 31t-65.5 12h-171q-43 0 -70.5 -5t-37.5 -21q-5 -8 -8.5 -17.5t-7.5 -24.5t-6 -24.5t-7 -34t-7 -35.5l-78 -397q-1 -7 11 -12.5t32 -8.5t42 -3 h109q63 0 98 12.5t59.5 44t55.5 98.5q7 18 26 18q31 0 38 -11l-82 -427q-9 -9 -40 -9q-24 0 -24 18q-2 38 -7 64.5t-12 40.5t-13.5 20.5t-14.5 10.5q-31 15 -153 15q-150 0 -156 -31l-66 -344q0 -1 -2 -11t-4 -22t-5 -27.5t-4.5 -31.5t-3 -31.5t-1.5 -29t2 -22.5 q3 -15 23.5 -25.5t46.5 -15t54 -4.5h138q124 0 206 73q26 23 51 54.5t48 67.5t52 89q7 14 34 14q15 0 34.5 -4.5t22.5 -9.5q-4 -8 -37.5 -72.5t-46 -89t-37 -74t-39 -84t-24.5 -61.5h-724q-62 0 -126.5 -1t-107 -1.5t-50.5 -0.5zM520 1656q89 70 182 147t124 106 q23 22 31 22q3 0 5.5 -1t5 -3.5t4 -4.5t5 -6.5t5.5 -6.5q18 -24 46.5 -59.5t59 -71t60 -69.5t47.5 -53q-3 -28 -27 -35q-12 3 -58.5 26.5t-101 54.5t-82.5 52q-56 -32 -159.5 -79t-130.5 -54q-7 3 -12.5 14t-3.5 21z" />
<glyph unicode="&#xcb;" horiz-adv-x="1269" d="M-13 -7q-5 11 0.5 41t15.5 41q125 11 140 38q16 30 27.5 76t27.5 133l160 817q2 11 7 38t7 37.5t5.5 31.5t4.5 31.5t2.5 25t0.5 25t-3 20.5q0 4 -4 8t-10.5 7.5t-13.5 6t-17.5 4t-18.5 3t-19 2.5t-17 2t-15 1.5t-11 0.5q-3 9 -1 25t7.5 33.5t11.5 23.5q91 -6 293 -6 q37 0 177.5 3t296 7t201.5 5q-5 -74 -5 -328q-5 -5 -21.5 -8.5t-29.5 -3.5q-25 0 -29 18q-7 41 -14.5 71t-21 60.5t-32 49.5t-47 31t-65.5 12h-171q-43 0 -70.5 -5t-37.5 -21q-5 -8 -8.5 -17.5t-7.5 -24.5t-6 -24.5t-7 -34t-7 -35.5l-78 -397q-1 -7 11 -12.5t32 -8.5t42 -3 h109q63 0 98 12.5t59.5 44t55.5 98.5q7 18 26 18q31 0 38 -11l-82 -427q-9 -9 -40 -9q-24 0 -24 18q-2 38 -7 64.5t-12 40.5t-13.5 20.5t-14.5 10.5q-31 15 -153 15q-150 0 -156 -31l-66 -344q0 -1 -2 -11t-4 -22t-5 -27.5t-4.5 -31.5t-3 -31.5t-1.5 -29t2 -22.5 q3 -15 23.5 -25.5t46.5 -15t54 -4.5h138q124 0 206 73q26 23 51 54.5t48 67.5t52 89q7 14 34 14q15 0 34.5 -4.5t22.5 -9.5q-4 -8 -37.5 -72.5t-46 -89t-37 -74t-39 -84t-24.5 -61.5h-724q-62 0 -126.5 -1t-107 -1.5t-50.5 -0.5zM520 1776q12 62 61 105.5t108 43.5 q57 0 89.5 -44t21.5 -105q-12 -63 -61 -110.5t-106 -47.5q-59 0 -92 47.5t-21 110.5zM951 1776q11 62 60.5 105.5t107.5 43.5q57 0 90 -44t21 -105q-11 -63 -60 -110.5t-106 -47.5q-39 0 -68 22.5t-41 58.5t-4 77z" />
<glyph unicode="&#xcc;" horiz-adv-x="783" d="M-15 -9q-5 10 1.5 40.5t16.5 41.5q124 11 140 40q16 30 27.5 76t27.5 133l160 817q2 11 7 38t7 37.5t5.5 31.5t4.5 31.5t2.5 25t0.5 25t-3 20.5q-4 30 -124 40q-3 5 -2 17t3.5 24.5t6.5 24t8 16.5q136 -16 293 -16q149 0 293 16q5 -11 -0.5 -41t-15.5 -41 q-124 -11 -140 -40q-28 -52 -57 -209l-158 -817q-2 -12 -7 -39t-7 -37.5t-5.5 -31t-4.5 -31t-2.5 -25.5t-0.5 -25t3 -20q4 -30 124 -40q5 -11 -1 -41.5t-15 -40.5q-136 16 -293 16q-151 0 -295 -16zM291 1778q0 25 21.5 42t48 23t55.5 6q25 0 56.5 -5t45.5 -12 q60 -37 140.5 -115t94.5 -101q0 -14 -20 -29q-19 3 -84 20t-148 43.5t-146.5 62t-63.5 65.5z" />
<glyph unicode="&#xcd;" horiz-adv-x="783" d="M-15 -9q-5 10 1.5 40.5t16.5 41.5q124 11 140 40q16 30 27.5 76t27.5 133l160 817q2 11 7 38t7 37.5t5.5 31.5t4.5 31.5t2.5 25t0.5 25t-3 20.5q-4 30 -124 40q-3 5 -2 17t3.5 24.5t6.5 24t8 16.5q136 -16 293 -16q149 0 293 16q5 -11 -0.5 -41t-15.5 -41 q-124 -11 -140 -40q-28 -52 -57 -209l-158 -817q-2 -12 -7 -39t-7 -37.5t-5.5 -31t-4.5 -31t-2.5 -25.5t-0.5 -25t3 -20q4 -30 124 -40q5 -11 -1 -41.5t-15 -40.5q-136 16 -293 16q-151 0 -295 -16zM416 1616q14 23 94 101t141 115q14 7 45.5 12t56.5 5q29 0 55.5 -6 t47.5 -23t21 -42t-42.5 -53t-103 -51t-126 -43t-111 -31t-58.5 -13q-20 15 -20 29z" />
<glyph unicode="&#xce;" horiz-adv-x="783" d="M-15 -9q-5 10 1.5 40.5t16.5 41.5q124 11 140 40q16 30 27.5 76t27.5 133l160 817q2 11 7 38t7 37.5t5.5 31.5t4.5 31.5t2.5 25t0.5 25t-3 20.5q-4 30 -124 40q-3 5 -2 17t3.5 24.5t6.5 24t8 16.5q136 -16 293 -16q149 0 293 16q5 -11 -0.5 -41t-15.5 -41 q-124 -11 -140 -40q-28 -52 -57 -209l-158 -817q-2 -12 -7 -39t-7 -37.5t-5.5 -31t-4.5 -31t-2.5 -25.5t-0.5 -25t3 -20q4 -30 124 -40q5 -11 -1 -41.5t-15 -40.5q-136 16 -293 16q-151 0 -295 -16zM305 1656q59 46 123.5 99t113.5 94t69 60q22 22 31 22q3 0 5 -1t5 -3.5 t4.5 -4.5t5 -6.5t5.5 -6.5q18 -24 46.5 -59.5t58.5 -71t59.5 -69.5t48.5 -53q-4 -28 -27 -35q-21 5 -110.5 53.5t-131.5 79.5q-37 -21 -100.5 -51.5t-118 -54t-72.5 -27.5q-7 3 -12 14t-3 21z" />
<glyph unicode="&#xcf;" horiz-adv-x="783" d="M-15 -9q-5 10 1.5 40.5t16.5 41.5q124 11 140 40q16 30 27.5 76t27.5 133l160 817q2 11 7 38t7 37.5t5.5 31.5t4.5 31.5t2.5 25t0.5 25t-3 20.5q-4 30 -124 40q-3 5 -2 17t3.5 24.5t6.5 24t8 16.5q136 -16 293 -16q149 0 293 16q5 -11 -0.5 -41t-15.5 -41 q-124 -11 -140 -40q-28 -52 -57 -209l-158 -817q-2 -12 -7 -39t-7 -37.5t-5.5 -31t-4.5 -31t-2.5 -25.5t-0.5 -25t3 -20q4 -30 124 -40q5 -11 -1 -41.5t-15 -40.5q-136 16 -293 16q-151 0 -295 -16zM283 1776q11 62 60.5 105.5t107.5 43.5q57 0 90 -44t21 -105 q-12 -63 -60.5 -110.5t-105.5 -47.5q-59 0 -92 47.5t-21 110.5zM713 1776q12 62 61.5 105.5t107.5 43.5q57 0 90 -44t21 -105q-12 -63 -60.5 -110.5t-106.5 -47.5q-59 0 -92 47.5t-21 110.5z" />
<glyph unicode="&#xd0;" horiz-adv-x="1600" d="M-11 -7q-5 11 0.5 41t15.5 41q125 11 140 38q16 30 27.5 76t27.5 133l160 817q2 11 7.5 38t7 37.5t5 31.5t4.5 31.5t2.5 25t0.5 25t-2 20.5q-1 4 -5 8t-10.5 7.5t-13.5 6t-17.5 4t-18 3t-19 2.5t-17.5 2t-15 1.5t-11 0.5q-5 11 2 41.5t16 40.5q91 -6 293 -6q49 0 163 2.5 t154 3.5q142 0 259 -35.5t199.5 -101.5t135 -160t64 -210.5t-13.5 -253.5q-29 -152 -94 -273t-153 -202t-202 -134.5t-236.5 -77.5t-260.5 -24h-595zM115.5 684q-1.5 9 0.5 15q10 50 22 62h733q6 0 9.5 -5t1.5 -12q-10 -48 -25 -69h-734q-6 0 -7.5 9zM469 160.5 q0 -13.5 2 -22.5q5 -23 41.5 -37t78.5 -14q255 0 401.5 144t209.5 466q31 163 17 289.5t-67 213t-140.5 131.5t-202.5 45q-44 0 -71.5 -5t-37.5 -21q-5 -8 -8.5 -17.5t-7.5 -24.5t-6 -24.5t-6.5 -34t-7.5 -35.5l-175 -901q0 -1 -2 -11t-4 -22t-4.5 -27.5t-4.5 -31.5 t-3.5 -31.5t-1.5 -29z" />
<glyph unicode="&#xd1;" horiz-adv-x="1587" d="M-40.5 4q0.5 8 2 17t4 18.5t5 17t5 12t3.5 4.5q32 0 95.5 16t79.5 42q15 25 36 93.5t33 130.5q23 121 50 257t53.5 272t49.5 257q16 92 15 129t-15 71q-9 19 -55 33t-71 14q-5 2 -5 18t4.5 37t11.5 27q17 -2 61 -6t85.5 -7t84.5 -3q108 0 228 16q16 -61 72 -175.5 t112.5 -215t155 -272.5t144.5 -256q6 12 22 91l80 415q45 242 34 284q-3 14 -24.5 24.5t-49.5 15t-49.5 7t-34.5 2.5q-2 2 -1 16.5t5.5 35.5t11.5 30q35 -2 115 -10t133 -8t146.5 8.5t117.5 9.5q2 -13 -4 -41.5t-18 -42.5q-19 0 -49 -2.5t-74.5 -15.5t-56.5 -34 q-11 -23 -37 -117.5t-38 -155.5l-147 -754q-17 -91 -51 -311q-9 -9 -53 -9q-26 0 -53 51l-626 1112l-156 -803q-11 -59 -17 -125.5t-3 -90.5q3 -19 41.5 -33t72 -19.5t46.5 -5.5q6 -14 0 -42t-13 -42q-23 1 -114 9.5t-144 8.5t-135.5 -8t-119.5 -10q-2 5 -1.5 13zM618 1647 q0 44 42 91q43 44 86 63t94 19q44 0 74.5 -7t65.5 -28q34 -20 51 -29t49.5 -19t66.5 -10q78 0 148 93q7 -2 13.5 -10.5t6.5 -20.5q0 -44 -42 -91q-42 -44 -85 -63t-95 -19q-43 0 -73.5 7.5t-66.5 28.5q-34 20 -51 29t-49.5 18.5t-65.5 9.5q-79 0 -149 -93q-4 1 -8 5t-8 11 t-4 15z" />
<glyph unicode="&#xd2;" horiz-adv-x="1565" d="M109 579q0 134 36 258.5t98 221.5t144.5 177.5t175 133.5t190 82t188.5 29q106 0 198.5 -36t159 -96t114 -138.5t71 -165t23.5 -173.5q0 -118 -27.5 -228t-76.5 -198t-115 -164t-143 -131.5t-160 -94.5t-167 -58.5t-163 -19.5q-114 0 -216 48.5t-174 130t-114 192 t-42 230.5zM428 542q0 -99 17 -181.5t51.5 -148t92.5 -102.5t135 -37q62 0 119.5 27t103.5 75t85 112.5t67.5 139.5t48.5 157t30 164.5t10 161.5q0 98 -18.5 182.5t-54 150.5t-93 104t-130.5 38q-74 0 -140 -37t-116 -100.5t-90 -146.5t-65.5 -178t-39 -192t-13.5 -189z M551 1778q0 25 21 42t47.5 23t55.5 6q26 0 57 -5t45 -12q61 -37 141 -115t94 -101q0 -14 -20 -29q-18 3 -83.5 20t-148.5 43.5t-146 62t-63 65.5z" />
<glyph unicode="&#xd3;" horiz-adv-x="1565" d="M109 579q0 134 36 258.5t98 221.5t144.5 177.5t175 133.5t190 82t188.5 29q106 0 198.5 -36t159 -96t114 -138.5t71 -165t23.5 -173.5q0 -118 -27.5 -228t-76.5 -198t-115 -164t-143 -131.5t-160 -94.5t-167 -58.5t-163 -19.5q-114 0 -216 48.5t-174 130t-114 192 t-42 230.5zM428 542q0 -99 17 -181.5t51.5 -148t92.5 -102.5t135 -37q62 0 119.5 27t103.5 75t85 112.5t67.5 139.5t48.5 157t30 164.5t10 161.5q0 98 -18.5 182.5t-54 150.5t-93 104t-130.5 38q-74 0 -140 -37t-116 -100.5t-90 -146.5t-65.5 -178t-39 -192t-13.5 -189z M826 1616q14 23 94.5 101t140.5 115q7 3 20 6.5t27 6t28.5 3.5t26.5 1q29 0 55.5 -6t48 -23t21.5 -42q0 -16 -18 -33.5t-47 -33t-66.5 -31.5t-77.5 -29t-78.5 -24.5t-71.5 -20t-54.5 -13.5t-28.5 -6q-20 15 -20 29z" />
<glyph unicode="&#xd4;" horiz-adv-x="1565" d="M109 579q0 134 36 258.5t98 221.5t144.5 177.5t175 133.5t190 82t188.5 29q106 0 198.5 -36t159 -96t114 -138.5t71 -165t23.5 -173.5q0 -118 -27.5 -228t-76.5 -198t-115 -164t-143 -131.5t-160 -94.5t-167 -58.5t-163 -19.5q-114 0 -216 48.5t-174 130t-114 192 t-42 230.5zM428 542q0 -99 17 -181.5t51.5 -148t92.5 -102.5t135 -37q62 0 119.5 27t103.5 75t85 112.5t67.5 139.5t48.5 157t30 164.5t10 161.5q0 98 -18.5 182.5t-54 150.5t-93 104t-130.5 38q-74 0 -140 -37t-116 -100.5t-90 -146.5t-65.5 -178t-39 -192t-13.5 -189z M639 1656q89 70 182.5 147t124.5 106q22 22 31 22q2 0 4.5 -1t5.5 -3.5t4.5 -4.5t5 -6.5t4.5 -6.5q38 -50 107 -132t106 -121q-3 -28 -26 -35q-21 5 -111 53.5t-131 79.5q-57 -32 -160 -79t-131 -54q-7 3 -12 14t-4 21z" />
<glyph unicode="&#xd5;" horiz-adv-x="1565" d="M109 579q0 134 36 258.5t98 221.5t144.5 177.5t175 133.5t190 82t188.5 29q106 0 198.5 -36t159 -96t114 -138.5t71 -165t23.5 -173.5q0 -118 -27.5 -228t-76.5 -198t-115 -164t-143 -131.5t-160 -94.5t-167 -58.5t-163 -19.5q-114 0 -216 48.5t-174 130t-114 192 t-42 230.5zM428 542q0 -99 17 -181.5t51.5 -148t92.5 -102.5t135 -37q62 0 119.5 27t103.5 75t85 112.5t67.5 139.5t48.5 157t30 164.5t10 161.5q0 98 -18.5 182.5t-54 150.5t-93 104t-130.5 38q-74 0 -140 -37t-116 -100.5t-90 -146.5t-65.5 -178t-39 -192t-13.5 -189z M602 1647q0 44 42 91q28 30 57.5 48t59 26t63.5 8q43 0 73.5 -7t65.5 -28q27 -16 39 -22.5t35 -16.5t45.5 -14.5t47.5 -4.5q79 0 149 93q6 -2 13 -10.5t7 -20.5q0 -44 -42 -91q-43 -44 -86 -63t-94 -19q-44 0 -74.5 7.5t-65.5 28.5q-34 20 -51 29t-50 18.5t-66 9.5 q-78 0 -148 -93q-4 1 -8.5 5t-8 11t-3.5 15z" />
<glyph unicode="&#xd6;" horiz-adv-x="1565" d="M109 579q0 134 36 258.5t98 221.5t144.5 177.5t175 133.5t190 82t188.5 29q106 0 198.5 -36t159 -96t114 -138.5t71 -165t23.5 -173.5q0 -118 -27.5 -228t-76.5 -198t-115 -164t-143 -131.5t-160 -94.5t-167 -58.5t-163 -19.5q-114 0 -216 48.5t-174 130t-114 192 t-42 230.5zM428 542q0 -99 17 -181.5t51.5 -148t92.5 -102.5t135 -37q62 0 119.5 27t103.5 75t85 112.5t67.5 139.5t48.5 157t30 164.5t10 161.5q0 98 -18.5 182.5t-54 150.5t-93 104t-130.5 38q-74 0 -140 -37t-116 -100.5t-90 -146.5t-65.5 -178t-39 -192t-13.5 -189z M646 1776q12 62 61 105.5t108 43.5q57 0 89.5 -44t21.5 -105q-12 -63 -61 -110.5t-106 -47.5q-39 0 -68 22.5t-41 58.5t-4 77zM1077 1776q11 62 60.5 105.5t107.5 43.5q57 0 90 -44t21 -105q-11 -63 -60 -110.5t-106 -47.5q-59 0 -92 47.5t-21 110.5z" />
<glyph unicode="&#xd7;" horiz-adv-x="967" d="M53 251l342 300q5 4 5 6q0 9 -3 11l-224 304q0 21 30 50.5t41 29.5q4 0 5 -1t1.5 -3.5t2.5 -3.5l231 -314q4 -4 9 -4l4 2l351 313q7 7 13 7q12 0 23 -33.5t11 -64.5l-340 -302l-4 -4q0 -2 2 -5l222 -301q0 -22 -23.5 -52.5t-36.5 -30.5q-12 0 -16 7l-228 311q-5 4 -7 4 q-4 0 -9 -4l-357 -311q-7 -7 -11 -7q-10 0 -22 34.5t-12 61.5z" />
<glyph unicode="&#xd8;" horiz-adv-x="1565" d="M109 579q0 134 36 258.5t98 221.5t144.5 177.5t175 133.5t190 82t188.5 29q106 0 198.5 -36t159 -96t114 -138.5t71 -165t23.5 -173.5q0 -118 -27.5 -228t-76.5 -198t-115 -164t-143 -131.5t-160 -94.5t-167 -58.5t-163 -19.5q-114 0 -216 48.5t-174 130t-114 192 t-42 230.5zM178 27l1145 1458q16 -4 39.5 -24t16.5 -29l-1148 -1461q-17 6 -39 26.5t-14 29.5zM428 542q0 -99 17 -181.5t51.5 -148t92.5 -102.5t135 -37q62 0 119.5 27t103.5 75t85 112.5t67.5 139.5t48.5 157t30 164.5t10 161.5q0 98 -18.5 182.5t-54 150.5t-93 104 t-130.5 38q-74 0 -140 -37t-116 -100.5t-90 -146.5t-65.5 -178t-39 -192t-13.5 -189z" />
<glyph unicode="&#xd9;" horiz-adv-x="1536" d="M194.5 376q-4.5 120 29.5 292l91 471q2 11 7 38t7 37.5t5.5 31.5t4.5 31.5t2 25t0.5 25t-2.5 20.5q-4 30 -124 40q-3 9 -1.5 25t6.5 33t10 24q136 -16 293 -16q150 0 294 16q5 -11 -0.5 -41t-15.5 -41q-124 -11 -140 -40q-28 -52 -58 -209l-77 -406q-13 -67 -19.5 -109 t-11.5 -92t-2.5 -93t11.5 -86q43 -213 273 -213q50 0 101 19t102.5 61.5t95.5 105t81 155t59 205.5l73 377q10 50 17 103t9.5 99.5t-1.5 68.5q-9 42 -144 54q-5 11 1 41t14 41q167 -16 255 -16q53 0 136 7t109 9q5 -11 -0.5 -41t-15.5 -41q-1 -1 -11.5 -1.5t-17.5 -1 t-20.5 -2t-23.5 -3.5t-23 -5t-23 -7t-20.5 -8.5t-17.5 -11t-12 -14.5q-18 -33 -43.5 -115.5t-38.5 -152.5l-84 -431q-26 -132 -77.5 -241.5t-119 -185t-149.5 -128t-169 -76.5t-178 -24q-88 0 -163.5 20.5t-136.5 65t-97 109.5q-45 81 -49.5 201zM672 1778q0 25 21.5 42 t48 23t55.5 6q25 0 56.5 -5t45.5 -12q60 -37 140.5 -115t94.5 -101q0 -14 -20 -29q-19 3 -84 20t-148 43.5t-146.5 62t-63.5 65.5z" />
<glyph unicode="&#xda;" horiz-adv-x="1536" d="M194.5 376q-4.5 120 29.5 292l91 471q2 11 7 38t7 37.5t5.5 31.5t4.5 31.5t2 25t0.5 25t-2.5 20.5q-4 30 -124 40q-3 9 -1.5 25t6.5 33t10 24q136 -16 293 -16q150 0 294 16q5 -11 -0.5 -41t-15.5 -41q-124 -11 -140 -40q-28 -52 -58 -209l-77 -406q-13 -67 -19.5 -109 t-11.5 -92t-2.5 -93t11.5 -86q43 -213 273 -213q50 0 101 19t102.5 61.5t95.5 105t81 155t59 205.5l73 377q10 50 17 103t9.5 99.5t-1.5 68.5q-9 42 -144 54q-5 11 1 41t14 41q167 -16 255 -16q53 0 136 7t109 9q5 -11 -0.5 -41t-15.5 -41q-1 -1 -11.5 -1.5t-17.5 -1 t-20.5 -2t-23.5 -3.5t-23 -5t-23 -7t-20.5 -8.5t-17.5 -11t-12 -14.5q-18 -33 -43.5 -115.5t-38.5 -152.5l-84 -431q-26 -132 -77.5 -241.5t-119 -185t-149.5 -128t-169 -76.5t-178 -24q-88 0 -163.5 20.5t-136.5 65t-97 109.5q-45 81 -49.5 201zM952 1616q14 23 94.5 101 t140.5 115q14 7 45.5 12t56.5 5q29 0 55.5 -6t48 -23t21.5 -42t-43 -53t-103.5 -51t-126 -43t-111 -31t-58.5 -13q-20 15 -20 29z" />
<glyph unicode="&#xdb;" horiz-adv-x="1536" d="M194.5 376q-4.5 120 29.5 292l91 471q2 11 7 38t7 37.5t5.5 31.5t4.5 31.5t2 25t0.5 25t-2.5 20.5q-4 30 -124 40q-3 9 -1.5 25t6.5 33t10 24q136 -16 293 -16q150 0 294 16q5 -11 -0.5 -41t-15.5 -41q-124 -11 -140 -40q-28 -52 -58 -209l-77 -406q-13 -67 -19.5 -109 t-11.5 -92t-2.5 -93t11.5 -86q43 -213 273 -213q50 0 101 19t102.5 61.5t95.5 105t81 155t59 205.5l73 377q10 50 17 103t9.5 99.5t-1.5 68.5q-9 42 -144 54q-5 11 1 41t14 41q167 -16 255 -16q53 0 136 7t109 9q5 -11 -0.5 -41t-15.5 -41q-1 -1 -11.5 -1.5t-17.5 -1 t-20.5 -2t-23.5 -3.5t-23 -5t-23 -7t-20.5 -8.5t-17.5 -11t-12 -14.5q-18 -33 -43.5 -115.5t-38.5 -152.5l-84 -431q-26 -132 -77.5 -241.5t-119 -185t-149.5 -128t-169 -76.5t-178 -24q-88 0 -163.5 20.5t-136.5 65t-97 109.5q-45 81 -49.5 201zM723 1656q89 70 182.5 147 t124.5 106q22 22 31 22q2 0 4.5 -1t5 -3.5l4.5 -4.5t5.5 -6.5t4.5 -6.5q18 -24 47 -59.5t59 -71t59.5 -69.5t47.5 -53q-3 -28 -26 -35q-21 5 -111 53.5t-131 79.5q-37 -21 -100.5 -51.5t-118.5 -54t-72 -27.5q-7 3 -12 14t-4 21z" />
<glyph unicode="&#xdc;" horiz-adv-x="1536" d="M194.5 376q-4.5 120 29.5 292l91 471q2 11 7 38t7 37.5t5.5 31.5t4.5 31.5t2 25t0.5 25t-2.5 20.5q-4 30 -124 40q-3 9 -1.5 25t6.5 33t10 24q136 -16 293 -16q150 0 294 16q5 -11 -0.5 -41t-15.5 -41q-124 -11 -140 -40q-28 -52 -58 -209l-77 -406q-13 -67 -19.5 -109 t-11.5 -92t-2.5 -93t11.5 -86q43 -213 273 -213q50 0 101 19t102.5 61.5t95.5 105t81 155t59 205.5l73 377q10 50 17 103t9.5 99.5t-1.5 68.5q-9 42 -144 54q-5 11 1 41t14 41q167 -16 255 -16q53 0 136 7t109 9q5 -11 -0.5 -41t-15.5 -41q-1 -1 -11.5 -1.5t-17.5 -1 t-20.5 -2t-23.5 -3.5t-23 -5t-23 -7t-20.5 -8.5t-17.5 -11t-12 -14.5q-18 -33 -43.5 -115.5t-38.5 -152.5l-84 -431q-26 -132 -77.5 -241.5t-119 -185t-149.5 -128t-169 -76.5t-178 -24q-88 0 -163.5 20.5t-136.5 65t-97 109.5q-45 81 -49.5 201zM708 1776q7 40 32.5 74.5 t61.5 54.5t74 20q57 0 90 -44t21 -105q-11 -63 -60 -110.5t-106 -47.5q-59 0 -92 47.5t-21 110.5zM1138 1776q6 30 22.5 57.5t39 47.5t51 32t56.5 12q57 0 90 -44t21 -105q-12 -63 -60.5 -110.5t-105.5 -47.5q-59 0 -92 47.5t-22 110.5z" />
<glyph unicode="&#xdd;" horiz-adv-x="1278" d="M159 1388q-4 11 1.5 41t14.5 41q136 -16 293 -16q149 0 293 16q5 -11 -0.5 -41t-15.5 -41q-1 -1 -11 -1.5t-15.5 -1t-17.5 -2t-20.5 -3.5t-19.5 -5t-18.5 -7.5t-15.5 -10t-12.5 -13t-6.5 -16.5q-1 -4 0 -9t4 -13.5t5 -13.5l151 -491q3 -3 39.5 43t97 130.5t109.5 154 t109 154.5q16 26 20 51q2 14 -14.5 24.5t-45.5 16.5t-46.5 8.5t-35.5 4.5q-5 11 1 41t14 41q21 -2 60.5 -6t56.5 -5.5t47.5 -3t64.5 -1.5q40 0 78.5 3t81 7t75.5 6q5 -11 0 -41t-15 -41q-1 -1 -13 -1.5t-18.5 -1.5t-21.5 -3t-25 -4t-24 -6.5t-24 -9.5t-20.5 -13t-18.5 -17 q-58 -71 -254 -327.5t-252 -342.5q-17 -24 -20 -43l-57 -297q-18 -85 -24.5 -131.5t-0.5 -77.5q5 -30 125 -40q2 -9 0.5 -25t-6.5 -33t-10 -24q-136 16 -293 16q-149 0 -293 -16q-5 10 0.5 40.5t14.5 41.5q124 11 140 40q12 21 23 57.5t16 59.5t19 92l60 308q2 17 -4 45 q-9 34 -28 100t-40.5 135.5t-42 134t-34.5 106.5l-13 41q-31 97 -40 122q-6 16 -18.5 29t-27 20.5t-31 13t-28.5 8t-22 3.5zM823 1616q14 23 94.5 101t140.5 115q15 7 46 12t57 5q28 0 55 -6t48 -23t21 -42t-43 -53t-103 -51t-126 -43t-111.5 -31t-58.5 -13q-20 15 -20 29z " />
<glyph unicode="&#xde;" horiz-adv-x="1234" d="M-15 -9q-5 10 1.5 40.5t16.5 41.5q124 11 140 40q16 30 27.5 76t27.5 133l160 817q2 11 7 38t7 37.5t5.5 31.5t4.5 31.5t2.5 25t0.5 25t-3 20.5q0 4 -4 8t-10.5 7.5t-13.5 6t-17.5 4t-18.5 3t-19 2.5t-17 2t-15 1.5t-11 0.5q-3 9 -1 25t7.5 33.5t11.5 23.5q91 -6 293 -6 q149 0 293 15q5 -10 -0.5 -40.5t-15.5 -41.5q-124 -10 -140 -40q-26 -47 -53 -198q0 -24 4 -24q3 0 6 1t6 1q31 7 146 7q97 0 180 -35t137 -93.5t77 -139t6 -167.5q-13 -65 -43 -122.5t-71.5 -101t-92 -78.5t-105.5 -57t-110.5 -33.5t-108.5 -11.5q-83 0 -113 42q-3 4 -6 14 t-4 19.5t-1 15.5t2.5 10.5t6.5 4.5q26 -9 66 -9q79 0 162 84t105 192q15 74 10 142t-23.5 119.5t-56.5 82.5t-88 31q-80 0 -107 -36q-11 -15 -17.5 -38t-16.5 -73q-1 -4 -1.5 -5.5t-1 -4.5t-0.5 -5l-109 -564q-2 -12 -7 -39t-7 -37.5t-5.5 -31t-4.5 -31t-2.5 -25.5t-0.5 -25 t3 -20q4 -30 124 -40q5 -11 -1 -41.5t-15 -40.5q-136 16 -293 16q-151 0 -295 -16z" />
<glyph unicode="&#xdf;" horiz-adv-x="1169" d="M-315 -371q0 44 23.5 76.5t60.5 32.5q54 0 93 -53q1 -2 7 -10t7.5 -10.5t7 -9.5t8.5 -10l8.5 -8.5t9.5 -7.5t10 -5.5t12 -4.5t12 -1q52 0 77 72.5t65 288.5q17 90 27 141l125 719h-145q-4 0 -4 7q0 20 36 57.5t70 37.5h60q21 105 69 202t109 168t130 124.5t134.5 80.5 t119.5 27q55 0 110 -19.5t99.5 -54t72 -88t27.5 -116.5q0 -41 -10 -80t-25.5 -70t-39 -61.5t-45 -52.5t-49.5 -45t-47.5 -36.5t-43 -29.5t-31.5 -22q-36 -25 -36 -67q0 -21 9.5 -46.5t30.5 -59.5t32.5 -50.5t38.5 -53.5q73 -100 106.5 -168t33.5 -141q0 -76 -47.5 -143.5 t-125.5 -107.5t-164 -40q-96 0 -134 7t-68 26q-38 32 -38 91q0 30 16 53.5t39 35t47 11.5q22 0 39 -15t29 -37t25 -44t35 -37t52 -15q32 0 62.5 26.5t30.5 75.5q0 24 -19 60.5t-37.5 62.5t-56.5 74t-49 62q-55 74 -81 131.5t-26 128.5q0 20 5.5 40.5t14 38t21.5 36 t26.5 33.5t30 32t30.5 30.5t30 29t27 27.5q124 132 124 279q0 12 -1 26.5t-4 42t-11.5 52t-20.5 48t-33 37.5t-48 14q-175 0 -259 -513q-100 -591 -142 -812q-26 -132 -83.5 -249t-127 -195t-146 -123.5t-143.5 -45.5q-52 0 -97.5 12.5t-66.5 27.5q-20 32 -20 73z" />
<glyph unicode="&#xe0;" horiz-adv-x="1085" d="M24 255q0 97 31 193t83 176.5t121.5 150.5t144.5 118.5t153.5 76t148.5 27.5q55 0 127 -13.5t111 -26.5l-138 -664q-2 -7 -5.5 -36t-3.5 -37q0 -18 8 -32.5t23 -14.5q31 0 89.5 57.5t68.5 78.5q10 0 20.5 -24t10.5 -36q-15 -28 -55 -72t-90.5 -88t-108 -75.5t-99.5 -31.5 q-61 0 -99.5 38t-38.5 109q0 11 5 42q1 13 8 42q-18 -33 -51.5 -71t-77 -74t-95.5 -60t-100 -24q-90 0 -140.5 76.5t-50.5 194.5zM304 337q0 -78 21 -117.5t59 -39.5q37 0 83 65t86 167.5t62 211.5l44 224q-23 27 -77 27q-73 0 -138 -79.5t-102.5 -203.5t-37.5 -255z M468 1348q0 41 33.5 66t66.5 25q22 0 42.5 -4.5t26.5 -11.5q45 -42 126 -154t87 -132q-2 -15 -20 -27q-12 3 -51.5 20.5t-92 45t-101.5 57.5t-83 61.5t-34 53.5z" />
<glyph unicode="&#xe1;" horiz-adv-x="1085" d="M24 255q0 97 31 193t83 176.5t121.5 150.5t144.5 118.5t153.5 76t148.5 27.5q55 0 127 -13.5t111 -26.5l-138 -664q-2 -7 -5.5 -36t-3.5 -37q0 -18 8 -32.5t23 -14.5q31 0 89.5 57.5t68.5 78.5q10 0 20.5 -24t10.5 -36q-15 -28 -55 -72t-90.5 -88t-108 -75.5t-99.5 -31.5 q-61 0 -99.5 38t-38.5 109q0 11 5 42q1 13 8 42q-18 -33 -51.5 -71t-77 -74t-95.5 -60t-100 -24q-90 0 -140.5 76.5t-50.5 194.5zM304 337q0 -78 21 -117.5t59 -39.5q37 0 83 65t86 167.5t62 211.5l44 224q-23 27 -77 27q-73 0 -138 -79.5t-102.5 -203.5t-37.5 -255z M624 1137q6 20 87 132t126 154q7 7 27 11.5t42 4.5q20 0 42.5 -10t40 -31.5t17.5 -49.5q0 -19 -24.5 -44.5t-61.5 -50.5t-81 -50t-84.5 -45t-70.5 -33t-40 -15q-18 12 -20 27z" />
<glyph unicode="&#xe2;" horiz-adv-x="1085" d="M24 255q0 97 31 193t83 176.5t121.5 150.5t144.5 118.5t153.5 76t148.5 27.5q55 0 127 -13.5t111 -26.5l-138 -664q-2 -7 -5.5 -36t-3.5 -37q0 -18 8 -32.5t23 -14.5q31 0 89.5 57.5t68.5 78.5q10 0 20.5 -24t10.5 -36q-15 -28 -55 -72t-90.5 -88t-108 -75.5t-99.5 -31.5 q-61 0 -99.5 38t-38.5 109q0 11 5 42q1 13 8 42q-18 -33 -51.5 -71t-77 -74t-95.5 -60t-100 -24q-90 0 -140.5 76.5t-50.5 194.5zM304 337q0 -78 21 -117.5t59 -39.5q37 0 83 65t86 167.5t62 211.5l44 224q-23 27 -77 27q-73 0 -138 -79.5t-102.5 -203.5t-37.5 -255z M463.5 1148.5q-2.5 15.5 0.5 32.5q14 14 57.5 61t106 116t109.5 123l5 5l5 5l4 4t4 3.5t3.5 2.5t3.5 1.5t4 0.5q13 0 24 -22q32 -61 68.5 -127.5t64 -115t32.5 -57.5q-3 -11 -7 -22t-9.5 -19t-10.5 -10q-133 109 -195 178q-53 -41 -138.5 -99.5t-121.5 -78.5q-7 3 -9.5 18.5 z" />
<glyph unicode="&#xe3;" horiz-adv-x="1085" d="M24 255q0 97 31 193t83 176.5t121.5 150.5t144.5 118.5t153.5 76t148.5 27.5q55 0 127 -13.5t111 -26.5l-138 -664q-2 -7 -5.5 -36t-3.5 -37q0 -18 8 -32.5t23 -14.5q31 0 89.5 57.5t68.5 78.5q10 0 20.5 -24t10.5 -36q-15 -28 -55 -72t-90.5 -88t-108 -75.5t-99.5 -31.5 q-61 0 -99.5 38t-38.5 109q0 11 5 42q1 13 8 42q-18 -33 -51.5 -71t-77 -74t-95.5 -60t-100 -24q-90 0 -140.5 76.5t-50.5 194.5zM304 337q0 -78 21 -117.5t59 -39.5q37 0 83 65t86 167.5t62 211.5l44 224q-23 27 -77 27q-73 0 -138 -79.5t-102.5 -203.5t-37.5 -255z M340 1166q6 48 46 93q82 84 180 84q62 0 129 -35q10 -5 22.5 -13t22 -14t22 -12.5t24 -11t27 -7t31.5 -2.5q10 0 21 2t20.5 5.5t19.5 9.5t18 11t16.5 12.5t14.5 13t13 13t10.5 11.5t8.5 10t6 7q18 -6 16 -27q-6 -47 -49 -95q-81 -84 -178 -84q-37 0 -65 8.5t-61 26.5 q-7 4 -32 19t-37.5 21.5t-36.5 13t-47 6.5q-12 0 -24 -2.5t-23 -7.5t-21 -10.5t-19.5 -13.5t-17 -14t-15.5 -15t-12 -13t-10.5 -11.5l-6.5 -7.5q-16 5 -13 29z" />
<glyph unicode="&#xe4;" horiz-adv-x="1085" d="M24 255q0 97 31 193t83 176.5t121.5 150.5t144.5 118.5t153.5 76t148.5 27.5q55 0 127 -13.5t111 -26.5l-138 -664q-2 -7 -5.5 -36t-3.5 -37q0 -18 8 -32.5t23 -14.5q31 0 89.5 57.5t68.5 78.5q10 0 20.5 -24t10.5 -36q-15 -28 -55 -72t-90.5 -88t-108 -75.5t-99.5 -31.5 q-61 0 -99.5 38t-38.5 109q0 11 5 42q1 13 8 42q-18 -33 -51.5 -71t-77 -74t-95.5 -60t-100 -24q-90 0 -140.5 76.5t-50.5 194.5zM304 337q0 -78 21 -117.5t59 -39.5q37 0 83 65t86 167.5t62 211.5l44 224q-23 27 -77 27q-73 0 -138 -79.5t-102.5 -203.5t-37.5 -255z M333 1292q12 63 62.5 108t110.5 45t92.5 -44.5t21 -108.5t-62.5 -109.5t-111 -45.5q-59 0 -92 45.5t-21 109.5zM722 1292q11 63 63 108t112 45q59 0 92 -44.5t21 -108.5q-8 -41 -34 -77t-64 -57t-77 -21q-60 0 -92.5 45.5t-20.5 109.5z" />
<glyph unicode="&#xe5;" horiz-adv-x="1085" d="M24 255q0 97 31 193t83 176.5t121.5 150.5t144.5 118.5t153.5 76t148.5 27.5q55 0 127 -13.5t111 -26.5l-138 -664q-2 -7 -5.5 -36t-3.5 -37q0 -18 8 -32.5t23 -14.5q31 0 89.5 57.5t68.5 78.5q10 0 20.5 -24t10.5 -36q-15 -28 -55 -72t-90.5 -88t-108 -75.5t-99.5 -31.5 q-61 0 -99.5 38t-38.5 109q0 11 5 42q1 13 8 42q-18 -33 -51.5 -71t-77 -74t-95.5 -60t-100 -24q-90 0 -140.5 76.5t-50.5 194.5zM304 337q0 -78 21 -117.5t59 -39.5q37 0 83 65t86 167.5t62 211.5l44 224q-23 27 -77 27q-73 0 -138 -79.5t-102.5 -203.5t-37.5 -255z M435 1321q11 59 49 109t91.5 79t108.5 29q83 0 129.5 -63.5t30.5 -153.5q-11 -59 -48.5 -110t-90.5 -80.5t-108 -29.5q-83 0 -131 65t-31 155zM531 1321q-7 -33 2 -60.5t31.5 -43.5t52.5 -16q47 0 85 35t48 85t-15 85t-71.5 35t-84.5 -35t-48 -85z" />
<glyph unicode="&#xe6;" horiz-adv-x="1347" d="M25 253q13 62 53.5 113t82.5 65q40 13 382 122q8 3 10.5 9t4.5 22l7 106q2 18 2 56q0 166 -73 166q-22 0 -40.5 -10.5t-32 -25t-28.5 -43t-24 -49t-24 -58.5q-38 -98 -124 -98q-40 0 -66.5 31t-18.5 76q9 38 47 91q15 14 53.5 39.5t94.5 56.5t126.5 53t129.5 22 q71 0 126 -34t85 -95q147 129 286 129q36 0 69.5 -6t66.5 -21.5t57 -38t39 -58.5t15 -80q0 -48 -22 -93.5t-58.5 -81.5t-83.5 -68.5t-97.5 -56.5t-100.5 -41t-92 -26t-72 -9q-5 -13 -5 -55q0 -35 6 -65.5t20 -60.5t42 -47.5t68 -17.5q14 0 30 4t30.5 10.5t30 15.5t29 19 t27 21t24 20.5t20.5 19.5l16.5 16.5t11 12t5.5 5.5q5 0 10.5 -5.5t9.5 -14t7 -18t4.5 -17t1.5 -11.5q-12 -20 -58 -62t-106 -87.5t-130 -79t-119 -33.5q-155 0 -220 140q-35 -26 -163 -85.5t-172 -59.5q-70 0 -121 40.5t-71 102.5t-8 128zM295.5 213.5q5.5 -25.5 20 -42.5 t32.5 -25t37 -8q30 0 79.5 23.5t71.5 40.5q-6 23 -3.5 124.5t12.5 137.5q-34 -7 -89.5 -27.5t-72.5 -32.5q-28 -18 -55 -56t-32 -73q-6 -36 -0.5 -61.5zM811 502q26 0 60 17.5t68 50t62.5 72.5t46.5 89.5t18 96.5q0 87 -57 87q-38 0 -74 -48t-61 -117t-41.5 -135.5 t-21.5 -112.5z" />
<glyph unicode="&#xe7;" horiz-adv-x="836" d="M33 291q0 101 32 205.5t88 193t126 158t151.5 109.5t160.5 40q61 0 116 -15t79 -34q33 -50 33 -111q0 -51 -37.5 -93t-86.5 -42q-70 0 -113 82q-2 2 -7.5 13t-8 15t-8 14.5t-9.5 15.5t-10.5 13.5t-12 12.5t-12.5 9t-14.5 7t-15.5 2q-40 0 -80 -78t-65.5 -197t-25.5 -234 q0 -56 9 -95.5t27 -64t43 -35.5t59 -11q14 0 30 3.5t30.5 10t30 15.5t28.5 18.5t26.5 20t24 20t20.5 19t16 16t10.5 12t5.5 5.5q11 0 20 -22t9 -36q-12 -18 -38.5 -47.5t-69.5 -68t-89.5 -72t-102 -56t-102.5 -22.5q-51 0 -97.5 18.5t-85 54.5t-61.5 96t-23 135zM53 -320 q0 26 12.5 44t29.5 18t34.5 -13t38.5 -26.5t47 -13.5q42 0 69 25.5t27 63.5q0 24 -10.5 42.5t-24.5 27t-30 8.5q-25 0 -64 -18q-5 0 -19 9.5t-14 17.5q0 4 12.5 17.5t39.5 44.5t52 64h64l-51 -55h38q45 0 82.5 -30t37.5 -75q0 -54 -38 -98.5t-99 -69.5t-129 -25 q-23 0 -54.5 7t-41.5 15q-9 9 -9 20z" />
<glyph unicode="&#xe8;" horiz-adv-x="874" d="M36 311q0 80 23.5 164.5t64 159.5t96 142t117 115t128.5 76.5t130 28.5q29 0 57.5 -4.5t56.5 -14t51.5 -25.5t42 -38t28.5 -53.5t10 -68.5q0 -55 -29 -107.5t-76.5 -92.5t-105.5 -74t-117 -55.5t-111 -34t-87 -12.5q-4 -13 -4 -55q0 -35 6 -65.5t19.5 -60.5t42 -47.5 t67.5 -17.5q15 0 30.5 4t30.5 10.5t30.5 15.5t29 19t27 21t24 20.5t20.5 19.5t16 16.5t11 12l5 5.5q14 0 24 -26t10 -40q-12 -20 -58 -62t-106.5 -87.5t-130 -79t-118.5 -33.5q-79 0 -136.5 37.5t-88 111t-30.5 175.5zM322 502q32 0 76 28.5t84 72.5t67.5 105.5t27.5 119.5 q0 87 -58 87q-30 0 -60 -32.5t-52.5 -81t-41 -105.5t-29.5 -107.5t-14 -86.5zM344 1348q0 28 17.5 49.5t40 31.5t42.5 10q14 0 28.5 -2t25 -6t15.5 -8q45 -42 126 -154t87 -132q-3 -15 -20 -27q-12 3 -52 20.5t-92 45t-101 57.5t-83 61.5t-34 53.5z" />
<glyph unicode="&#xe9;" horiz-adv-x="874" d="M36 311q0 80 23.5 164.5t64 159.5t96 142t117 115t128.5 76.5t130 28.5q29 0 57.5 -4.5t56.5 -14t51.5 -25.5t42 -38t28.5 -53.5t10 -68.5q0 -55 -29 -107.5t-76.5 -92.5t-105.5 -74t-117 -55.5t-111 -34t-87 -12.5q-4 -13 -4 -55q0 -35 6 -65.5t19.5 -60.5t42 -47.5 t67.5 -17.5q15 0 30.5 4t30.5 10.5t30.5 15.5t29 19t27 21t24 20.5t20.5 19.5t16 16.5t11 12l5 5.5q14 0 24 -26t10 -40q-12 -20 -58 -62t-106.5 -87.5t-130 -79t-118.5 -33.5q-79 0 -136.5 37.5t-88 111t-30.5 175.5zM322 502q32 0 76 28.5t84 72.5t67.5 105.5t27.5 119.5 q0 87 -58 87q-30 0 -60 -32.5t-52.5 -81t-41 -105.5t-29.5 -107.5t-14 -86.5zM508 1137q4 11 42.5 68t89.5 123t82 95q6 7 26 11.5t42 4.5q34 0 67 -25t33 -66q0 -27 -50.5 -68.5t-116 -77t-122 -62t-73.5 -30.5q-17 12 -20 27z" />
<glyph unicode="&#xea;" horiz-adv-x="874" d="M36 311q0 80 23.5 164.5t64 159.5t96 142t117 115t128.5 76.5t130 28.5q29 0 57.5 -4.5t56.5 -14t51.5 -25.5t42 -38t28.5 -53.5t10 -68.5q0 -55 -29 -107.5t-76.5 -92.5t-105.5 -74t-117 -55.5t-111 -34t-87 -12.5q-4 -13 -4 -55q0 -35 6 -65.5t19.5 -60.5t42 -47.5 t67.5 -17.5q15 0 30.5 4t30.5 10.5t30.5 15.5t29 19t27 21t24 20.5t20.5 19.5t16 16.5t11 12l5 5.5q14 0 24 -26t10 -40q-12 -20 -58 -62t-106.5 -87.5t-130 -79t-118.5 -33.5q-79 0 -136.5 37.5t-88 111t-30.5 175.5zM322 502q32 0 76 28.5t84 72.5t67.5 105.5t27.5 119.5 q0 87 -58 87q-30 0 -60 -32.5t-52.5 -81t-41 -105.5t-29.5 -107.5t-14 -86.5zM354.5 1108.5q-2.5 15.5 0.5 32.5q24 24 114.5 122.5t158.5 177.5q3 2 7.5 7t6.5 6.5t5 4t5.5 3.5t4.5 1q13 0 25 -22q24 -47 52.5 -100t49 -89.5t39 -69t23.5 -41.5q-4 -17 -11.5 -32.5 t-15.5 -18.5q-133 109 -195 178q-53 -41 -138.5 -99.5t-121.5 -78.5q-7 3 -9.5 18.5z" />
<glyph unicode="&#xeb;" horiz-adv-x="874" d="M36 311q0 80 23.5 164.5t64 159.5t96 142t117 115t128.5 76.5t130 28.5q29 0 57.5 -4.5t56.5 -14t51.5 -25.5t42 -38t28.5 -53.5t10 -68.5q0 -55 -29 -107.5t-76.5 -92.5t-105.5 -74t-117 -55.5t-111 -34t-87 -12.5q-4 -13 -4 -55q0 -35 6 -65.5t19.5 -60.5t42 -47.5 t67.5 -17.5q15 0 30.5 4t30.5 10.5t30.5 15.5t29 19t27 21t24 20.5t20.5 19.5t16 16.5t11 12l5 5.5q14 0 24 -26t10 -40q-12 -20 -58 -62t-106.5 -87.5t-130 -79t-118.5 -33.5q-79 0 -136.5 37.5t-88 111t-30.5 175.5zM242 1292q8 42 33.5 77t63 55.5t76.5 20.5 q60 0 92.5 -44.5t21 -108.5t-62.5 -109.5t-111 -45.5q-59 0 -92 45.5t-21 109.5zM322 502q32 0 76 28.5t84 72.5t67.5 105.5t27.5 119.5q0 87 -58 87q-30 0 -60 -32.5t-52.5 -81t-41 -105.5t-29.5 -107.5t-14 -86.5zM630 1292q12 63 64 108t112 45q59 0 92 -44.5t21 -108.5 q-8 -41 -34 -77t-64 -57t-77 -21q-60 0 -92.5 45.5t-21.5 109.5z" />
<glyph unicode="&#xec;" horiz-adv-x="688" d="M42 730q15 28 53.5 72t87.5 88t105 75.5t98 31.5q68 0 108.5 -41.5t40.5 -116.5q0 -33 -20 -133l-82 -413q-1 -4 -3 -20l-4 -32t-2 -21q0 -11 3 -21t10.5 -18t17.5 -8q31 0 89.5 57.5t68.5 78.5q10 0 20.5 -24t10.5 -36q-15 -28 -55 -72t-90.5 -88t-108 -75.5 t-99.5 -31.5q-60 0 -100 39t-40 119q0 20 7.5 67.5t12.5 65.5l82 413q2 8 6.5 37t4.5 36q0 17 -9 32t-24 15q-31 0 -89.5 -57.5t-68.5 -78.5q-10 0 -20.5 24t-10.5 36zM173 1348q0 41 33.5 66t66.5 25q14 0 28.5 -2t25.5 -6t15 -8q45 -42 126 -154t87 -132q-2 -15 -20 -27 q-12 3 -51.5 20.5t-92 45t-101.5 57.5t-83 61.5t-34 53.5z" />
<glyph unicode="&#xed;" horiz-adv-x="688" d="M42 730q15 28 53.5 72t87.5 88t105 75.5t98 31.5q68 0 108.5 -41.5t40.5 -116.5q0 -33 -20 -133l-82 -413q-1 -4 -3 -20l-4 -32t-2 -21q0 -11 3 -21t10.5 -18t17.5 -8q31 0 89.5 57.5t68.5 78.5q10 0 20.5 -24t10.5 -36q-15 -28 -55 -72t-90.5 -88t-108 -75.5 t-99.5 -31.5q-60 0 -100 39t-40 119q0 20 7.5 67.5t12.5 65.5l82 413q2 8 6.5 37t4.5 36q0 17 -9 32t-24 15q-31 0 -89.5 -57.5t-68.5 -78.5q-10 0 -20.5 24t-10.5 36zM291 1137q6 20 87 132t126 154q7 7 27 11.5t42 4.5q20 0 42.5 -10t40 -31.5t17.5 -49.5q0 -27 -51 -68.5 t-116.5 -77t-122 -62t-72.5 -30.5q-18 12 -20 27z" />
<glyph unicode="&#xee;" horiz-adv-x="688" d="M42 730q15 28 53.5 72t87.5 88t105 75.5t98 31.5q68 0 108.5 -41.5t40.5 -116.5q0 -33 -20 -133l-82 -413q-1 -4 -3 -20l-4 -32t-2 -21q0 -11 3 -21t10.5 -18t17.5 -8q31 0 89.5 57.5t68.5 78.5q10 0 20.5 -24t10.5 -36q-15 -28 -55 -72t-90.5 -88t-108 -75.5 t-99.5 -31.5q-60 0 -100 39t-40 119q0 20 7.5 67.5t12.5 65.5l82 413q2 8 6.5 37t4.5 36q0 17 -9 32t-24 15q-31 0 -89.5 -57.5t-68.5 -78.5q-10 0 -20.5 24t-10.5 36zM159.5 1108.5q-2.5 15.5 0.5 32.5q24 24 114.5 122.5t158.5 177.5l7 7l6.5 6.5t5 4t5.5 3.5t5 1 q13 0 24 -22q32 -61 68.5 -127.5t64 -115t31.5 -57.5q-2 -11 -6 -22t-9.5 -19t-10.5 -10q-133 109 -196 178q-52 -41 -137.5 -99.5t-121.5 -78.5q-7 3 -9.5 18.5z" />
<glyph unicode="&#xef;" horiz-adv-x="688" d="M42 730q15 28 53.5 72t87.5 88t105 75.5t98 31.5q68 0 108.5 -41.5t40.5 -116.5q0 -33 -20 -133l-82 -413q-1 -4 -3 -20l-4 -32t-2 -21q0 -11 3 -21t10.5 -18t17.5 -8q31 0 89.5 57.5t68.5 78.5q10 0 20.5 -24t10.5 -36q-15 -28 -55 -72t-90.5 -88t-108 -75.5 t-99.5 -31.5q-60 0 -100 39t-40 119q0 20 7.5 67.5t12.5 65.5l82 413q2 8 6.5 37t4.5 36q0 17 -9 32t-24 15q-31 0 -89.5 -57.5t-68.5 -78.5q-10 0 -20.5 24t-10.5 36zM129 1290q11 61 60.5 105t107.5 44q57 0 90 -44t21 -105q-7 -41 -31.5 -77t-60.5 -58.5t-74 -22.5 q-59 0 -92 47.5t-21 110.5zM524 1290q12 61 61 105t108 44q37 0 65 -20t40.5 -54.5t5.5 -74.5q-8 -41 -32.5 -77t-60.5 -58.5t-74 -22.5q-39 0 -68 22.5t-41 58.5t-4 77z" />
<glyph unicode="&#xf0;" horiz-adv-x="1027" d="M36.5 333.5q0.5 57.5 12.5 119.5q14 71 52.5 148.5t95 147t122 125.5t140 89.5t143.5 33.5q44 0 91 -7q0 159 -91 282l-218 -142q-33 58 -20 71l191 127q-87 94 -233 168q2 15 10 31t19 16q157 -42 297 -155l271 177q11 -16 20.5 -38.5t1.5 -30.5l-237 -155 q44 -43 80.5 -91t67.5 -104t52 -119.5t32 -133t8.5 -148.5t-18.5 -161q-23 -119 -88.5 -232t-147.5 -192t-172.5 -127.5t-164.5 -48.5q-66 0 -119.5 18t-90 50t-61.5 75t-35.5 96t-10 110.5zM312 189q14 -114 72 -114q54 0 104 57t86.5 148t58.5 202q19 97 34 206t10 131 q-20 89 -100 89q-48 0 -89.5 -39t-71.5 -105t-51.5 -140t-35.5 -158q-31 -163 -17 -277z" />
<glyph unicode="&#xf1;" horiz-adv-x="1189" d="M24 730q15 28 53.5 72t87.5 88t105 75.5t99 31.5q68 0 108 -41.5t40 -116.5q0 -33 -20 -133q-1 -8 -3.5 -20.5t-6 -26t-6 -25.5t-4.5 -19l-2 -7q34 77 100.5 167t144.5 156t130 66q37 0 64.5 -8t46 -23.5t29.5 -39.5t15.5 -53.5t4.5 -68.5q0 -22 -3 -52t-9.5 -67 t-11 -62.5t-12 -62.5t-8.5 -43l-42 -224q-2 -7 -5.5 -36t-3.5 -37t1.5 -16t5 -15t10 -11.5t14.5 -4.5q31 0 89 57.5t68 78.5q7 0 15 -12.5t12 -26.5t4 -21q-14 -28 -54 -72t-90.5 -88t-108 -75.5t-100.5 -31.5q-60 0 -99.5 39t-39.5 119q0 20 7.5 67.5t12.5 65.5l51 264 q5 22 15.5 87.5t10.5 81.5q0 18 -9 32.5t-26 14.5q-24 0 -65.5 -47.5t-85.5 -121.5t-85.5 -177.5t-63.5 -204.5l-44 -202q-16 -5 -60 -9t-64.5 -4t-66.5 4t-65 9l131 686l4 20t5 31.5t2 21.5q0 17 -8.5 32t-24.5 15q-31 0 -89 -57.5t-68 -78.5q-11 0 -21.5 24t-10.5 36z M349 1166q6 48 46 93q82 84 180 84q62 0 129 -35q11 -6 32.5 -19.5t35 -20.5t35.5 -13.5t45 -6.5q12 0 24 2.5t23 7.5t21 10.5t20 13.5t17 14t15.5 14.5t12 13t10 12l6.5 7.5q18 -6 16 -27q-6 -47 -49 -95q-81 -84 -178 -84q-37 0 -65 8.5t-61 26.5q-9 5 -22.5 13 t-22.5 13.5t-23 12.5t-26 11t-27.5 7t-31.5 3q-11 0 -22 -2t-20.5 -6t-19.5 -9.5t-18 -11t-16.5 -12.5t-14.5 -13t-13 -13.5t-10.5 -11.5t-8.5 -9.5t-6 -6.5q-16 5 -13 29z" />
<glyph unicode="&#xf2;" horiz-adv-x="1010" d="M33 315q0 78 24 161.5t65 158t97.5 141.5t119.5 115.5t132.5 77t134.5 28.5q58 0 105.5 -9.5t90 -33.5t71 -61.5t45.5 -96.5t17 -137t-25 -160.5t-67.5 -156t-100 -139.5t-121.5 -113.5t-134.5 -75t-135.5 -27.5q-142 0 -230 86t-88 242zM311 278q0 -203 75 -203 q59 0 112 64t86.5 159.5t53 200.5t19.5 194v30.5t-1 33.5t-3 36.5t-5.5 34t-9 32t-13 24.5t-19 18t-24.5 6q-60 0 -112.5 -64t-86 -160.5t-53 -204.5t-19.5 -201zM349 1348q0 28 17.5 49.5t39.5 31.5t42 10q22 0 42.5 -4.5t26.5 -11.5q45 -42 126 -154t87 -132 q-2 -15 -20 -27q-12 3 -51.5 20.5t-92 45t-101.5 57.5t-82.5 61.5t-33.5 53.5z" />
<glyph unicode="&#xf3;" horiz-adv-x="1010" d="M33 315q0 78 24 161.5t65 158t97.5 141.5t119.5 115.5t132.5 77t134.5 28.5q58 0 105.5 -9.5t90 -33.5t71 -61.5t45.5 -96.5t17 -137t-25 -160.5t-67.5 -156t-100 -139.5t-121.5 -113.5t-134.5 -75t-135.5 -27.5q-142 0 -230 86t-88 242zM311 278q0 -203 75 -203 q59 0 112 64t86.5 159.5t53 200.5t19.5 194v30.5t-1 33.5t-3 36.5t-5.5 34t-9 32t-13 24.5t-19 18t-24.5 6q-60 0 -112.5 -64t-86 -160.5t-53 -204.5t-19.5 -201zM519 1137q7 20 87.5 132t126.5 154q6 7 26 11.5t42 4.5q21 0 43 -10t39.5 -31.5t17.5 -49.5 q0 -27 -50.5 -68.5t-116 -77t-122 -62t-73.5 -30.5q-17 12 -20 27z" />
<glyph unicode="&#xf4;" horiz-adv-x="1010" d="M33 315q0 78 24 161.5t65 158t97.5 141.5t119.5 115.5t132.5 77t134.5 28.5q58 0 105.5 -9.5t90 -33.5t71 -61.5t45.5 -96.5t17 -137t-25 -160.5t-67.5 -156t-100 -139.5t-121.5 -113.5t-134.5 -75t-135.5 -27.5q-142 0 -230 86t-88 242zM311 278q0 -203 75 -203 q59 0 112 64t86.5 159.5t53 200.5t19.5 194v30.5t-1 33.5t-3 36.5t-5.5 34t-9 32t-13 24.5t-19 18t-24.5 6q-60 0 -112.5 -64t-86 -160.5t-53 -204.5t-19.5 -201zM410 1108.5q-3 15.5 1 32.5q24 24 114.5 122.5t158.5 177.5l7 7l6.5 6.5t4.5 4t5.5 3.5t5.5 1q13 0 24 -22 q24 -47 53 -100t49.5 -89.5t38.5 -69t23 -41.5q-3 -17 -10.5 -32.5t-15.5 -18.5q-133 109 -196 178q-52 -41 -137.5 -99.5t-121.5 -78.5q-7 3 -10 18.5z" />
<glyph unicode="&#xf5;" horiz-adv-x="1010" d="M33 315q0 78 24 161.5t65 158t97.5 141.5t119.5 115.5t132.5 77t134.5 28.5q58 0 105.5 -9.5t90 -33.5t71 -61.5t45.5 -96.5t17 -137t-25 -160.5t-67.5 -156t-100 -139.5t-121.5 -113.5t-134.5 -75t-135.5 -27.5q-142 0 -230 86t-88 242zM302 1166q6 48 47 93 q81 84 179 84q62 0 129 -35q12 -6 33 -19.5t34.5 -20.5t36 -13.5t45.5 -6.5q12 0 23.5 2.5t23 7.5t21 10.5t19.5 13.5t17 14t15.5 14.5t12.5 13t10 12t7 7.5q18 -6 15 -27q-6 -47 -49 -95q-81 -84 -177 -84q-38 0 -66 8.5t-61 26.5q-7 4 -32 19t-37.5 21.5t-36.5 13t-47 6.5 q-12 0 -24 -2.5t-23 -7.5t-20.5 -10.5t-19.5 -13.5t-17 -14t-15.5 -15t-12.5 -13t-10 -11.5t-7 -7.5q-16 5 -13 29zM311 278q0 -203 75 -203q59 0 112 64t86.5 159.5t53 200.5t19.5 194v30.5t-1 33.5t-3 36.5t-5.5 34t-9 32t-13 24.5t-19 18t-24.5 6q-60 0 -112.5 -64 t-86 -160.5t-53 -204.5t-19.5 -201z" />
<glyph unicode="&#xf6;" horiz-adv-x="1010" d="M33 315q0 78 24 161.5t65 158t97.5 141.5t119.5 115.5t132.5 77t134.5 28.5q58 0 105.5 -9.5t90 -33.5t71 -61.5t45.5 -96.5t17 -137t-25 -160.5t-67.5 -156t-100 -139.5t-121.5 -113.5t-134.5 -75t-135.5 -27.5q-142 0 -230 86t-88 242zM242 1292q8 42 33.5 77t63 55.5 t76.5 20.5q60 0 92.5 -44.5t21 -108.5t-62.5 -109.5t-111 -45.5q-59 0 -92 45.5t-21 109.5zM311 278q0 -203 75 -203q59 0 112 64t86.5 159.5t53 200.5t19.5 194v30.5t-1 33.5t-3 36.5t-5.5 34t-9 32t-13 24.5t-19 18t-24.5 6q-60 0 -112.5 -64t-86 -160.5t-53 -204.5 t-19.5 -201zM630 1292q12 63 64 108t112 45q59 0 92 -44.5t21 -108.5q-8 -41 -34 -77t-64 -57t-77 -21q-60 0 -92.5 45.5t-21.5 109.5z" />
<glyph unicode="&#xf7;" horiz-adv-x="1187" d="M102 513q0 52 33 95h928q7 0 7 -17q0 -64 -29 -96h-928q-11 0 -11 18zM397 107q0 56 38.5 99t92.5 43q44 0 72 -30t28 -75q0 -56 -39.5 -100t-93.5 -44q-43 0 -70.5 30.5t-27.5 76.5zM559 961q0 27 10.5 53t28 45.5t42 31.5t50.5 12q44 0 72 -29.5t28 -74.5 q0 -56 -39.5 -100t-93.5 -44q-43 0 -70.5 30.5t-27.5 75.5z" />
<glyph unicode="&#xf8;" horiz-adv-x="1010" d="M33 315q0 78 24 161.5t65 158t97.5 141.5t119.5 115.5t132.5 77t134.5 28.5q58 0 105.5 -9.5t90 -33.5t71 -61.5t45.5 -96.5t17 -137t-25 -160.5t-67.5 -156t-100 -139.5t-121.5 -113.5t-134.5 -75t-135.5 -27.5q-142 0 -230 86t-88 242zM182 -18l559 1037 q14 0 37.5 -6.5t25.5 -15.5l-560 -1039q-12 -2 -34 5t-28 19zM311 278q0 -203 75 -203q59 0 112 64t86.5 159.5t53 200.5t19.5 194v30.5t-1 33.5t-3 36.5t-5.5 34t-9 32t-13 24.5t-19 18t-24.5 6q-60 0 -112.5 -64t-86 -160.5t-53 -204.5t-19.5 -201z" />
<glyph unicode="&#xf9;" horiz-adv-x="1183" d="M16 730q14 28 52.5 72t87.5 88t105 75.5t99 31.5q68 0 108 -41.5t40 -116.5q0 -33 -20 -133l-51 -264q-26 -160 -26 -169q0 -12 3.5 -22t12 -17.5t19.5 -7.5q24 0 67 56.5t88.5 140.5t87.5 194.5t61 208.5l31 153q16 5 60 9t65 4q12 0 38 -1.5t53 -5t40 -6.5l-129 -686 q-9 -44 -9 -73q0 -11 3 -21t10.5 -18t17.5 -8q32 0 90 57.5t68 78.5q7 0 14.5 -12.5t12 -26.5t4.5 -21q-15 -28 -55 -72t-90.5 -88t-108 -75.5t-99.5 -31.5q-60 0 -100 39t-40 119q0 25 16 111q12 66 26 118q-41 -88 -115 -179t-150.5 -149.5t-122.5 -58.5q-82 0 -111 43 t-29 148q0 61 42 280q6 29 15.5 75.5t16 81.5t12.5 76q2 8 7 37t5 36q0 17 -9 32t-25 15q-31 0 -89 -57.5t-68 -78.5q-11 0 -21 24t-10 36zM393 1348q0 41 33 66t67 25q14 0 28.5 -2t25 -6t15.5 -8q45 -42 126 -154t87 -132q-3 -15 -20 -27q-17 4 -73 30.5t-121.5 62 t-116.5 77t-51 68.5z" />
<glyph unicode="&#xfa;" horiz-adv-x="1183" d="M16 730q14 28 52.5 72t87.5 88t105 75.5t99 31.5q68 0 108 -41.5t40 -116.5q0 -33 -20 -133l-51 -264q-26 -160 -26 -169q0 -12 3.5 -22t12 -17.5t19.5 -7.5q24 0 67 56.5t88.5 140.5t87.5 194.5t61 208.5l31 153q16 5 60 9t65 4q12 0 38 -1.5t53 -5t40 -6.5l-129 -686 q-9 -44 -9 -73q0 -11 3 -21t10.5 -18t17.5 -8q32 0 90 57.5t68 78.5q7 0 14.5 -12.5t12 -26.5t4.5 -21q-15 -28 -55 -72t-90.5 -88t-108 -75.5t-99.5 -31.5q-60 0 -100 39t-40 119q0 25 16 111q12 66 26 118q-41 -88 -115 -179t-150.5 -149.5t-122.5 -58.5q-82 0 -111 43 t-29 148q0 61 42 280q6 29 15.5 75.5t16 81.5t12.5 76q2 8 7 37t5 36q0 17 -9 32t-25 15q-31 0 -89 -57.5t-68 -78.5q-11 0 -21 24t-10 36zM584 1137q6 20 87 132t126 154q7 7 27 11.5t42 4.5q20 0 42.5 -10t40 -31.5t17.5 -49.5q0 -19 -24.5 -44.5t-61.5 -50.5t-81 -50 t-84.5 -45t-70.5 -33t-40 -15q-18 12 -20 27z" />
<glyph unicode="&#xfb;" horiz-adv-x="1183" d="M16 730q14 28 52.5 72t87.5 88t105 75.5t99 31.5q68 0 108 -41.5t40 -116.5q0 -33 -20 -133l-51 -264q-26 -160 -26 -169q0 -12 3.5 -22t12 -17.5t19.5 -7.5q24 0 67 56.5t88.5 140.5t87.5 194.5t61 208.5l31 153q16 5 60 9t65 4q12 0 38 -1.5t53 -5t40 -6.5l-129 -686 q-9 -44 -9 -73q0 -11 3 -21t10.5 -18t17.5 -8q32 0 90 57.5t68 78.5q7 0 14.5 -12.5t12 -26.5t4.5 -21q-15 -28 -55 -72t-90.5 -88t-108 -75.5t-99.5 -31.5q-60 0 -100 39t-40 119q0 25 16 111q12 66 26 118q-41 -88 -115 -179t-150.5 -149.5t-122.5 -58.5q-82 0 -111 43 t-29 148q0 61 42 280q6 29 15.5 75.5t16 81.5t12.5 76q2 8 7 37t5 36q0 17 -9 32t-25 15q-31 0 -89 -57.5t-68 -78.5q-11 0 -21 24t-10 36zM410 1108.5q-3 15.5 1 32.5q24 24 114.5 122.5t158.5 177.5l7 7l6.5 6.5t4.5 4t5.5 3.5t5.5 1q13 0 24 -22q24 -47 53 -100 t49.5 -89.5t38.5 -69t23 -41.5q-3 -17 -10.5 -32.5t-15.5 -18.5q-133 109 -196 178q-52 -41 -137.5 -99.5t-121.5 -78.5q-7 3 -10 18.5z" />
<glyph unicode="&#xfc;" horiz-adv-x="1183" d="M16 730q14 28 52.5 72t87.5 88t105 75.5t99 31.5q68 0 108 -41.5t40 -116.5q0 -33 -20 -133l-51 -264q-26 -160 -26 -169q0 -12 3.5 -22t12 -17.5t19.5 -7.5q24 0 67 56.5t88.5 140.5t87.5 194.5t61 208.5l31 153q16 5 60 9t65 4q12 0 38 -1.5t53 -5t40 -6.5l-129 -686 q-9 -44 -9 -73q0 -11 3 -21t10.5 -18t17.5 -8q32 0 90 57.5t68 78.5q7 0 14.5 -12.5t12 -26.5t4.5 -21q-15 -28 -55 -72t-90.5 -88t-108 -75.5t-99.5 -31.5q-60 0 -100 39t-40 119q0 25 16 111q12 66 26 118q-41 -88 -115 -179t-150.5 -149.5t-122.5 -58.5q-82 0 -111 43 t-29 148q0 61 42 280q6 29 15.5 75.5t16 81.5t12.5 76q2 8 7 37t5 36q0 17 -9 32t-25 15q-31 0 -89 -57.5t-68 -78.5q-11 0 -21 24t-10 36zM317 1292q12 63 63 108t111 45q59 0 92 -44.5t21 -108.5t-63 -109.5t-110 -45.5q-60 0 -92.5 45.5t-21.5 109.5zM706 1292 q12 63 63.5 108t111.5 45t92.5 -44.5t21.5 -108.5q-8 -41 -34.5 -77t-64.5 -57t-77 -21q-59 0 -92 45.5t-21 109.5z" />
<glyph unicode="&#xfd;" horiz-adv-x="1112" d="M-169 -346q0 28 21 62.5t46 48.5q39 -24 102 -47.5t118 -23.5q38 0 70 7.5t50.5 18t32 23.5t18 21t6.5 14q4 11 7 25.5t5 34t3.5 36t2.5 42t1.5 40.5t0.5 44v39.5v40v33.5q0 101 -9.5 214t-28 219t-50 175t-69.5 69q-19 0 -43 -18t-40 -39t-31 -41.5t-15 -21.5 q-12 2 -23 27.5t-8 32.5q12 21 41.5 60.5t71.5 88t90.5 83.5t84.5 35q49 0 90 -25.5t70 -69t52.5 -102t37 -124.5t24.5 -136.5t14.5 -138.5t7 -129.5t2.5 -110t0 -80.5v-23q33 40 71 105t76 148t63 180.5t25 183.5q0 57 -29 103.5t-64 73.5q0 55 49 100t100 45 q32 0 60.5 -11t54 -34t41 -64.5t15.5 -97.5q0 -124 -59 -273.5t-152.5 -287.5t-212 -270t-236.5 -228.5t-227.5 -155.5t-182.5 -59q-42 0 -73.5 14t-51.5 46t-20 78zM577 1137q6 20 87 132t126 154q7 7 27 11.5t42 4.5q21 0 43 -10t39.5 -31.5t17.5 -49.5q0 -19 -24 -44.5 t-61.5 -50.5t-81.5 -50t-84.5 -45t-70.5 -33t-40 -15q-17 12 -20 27z" />
<glyph unicode="&#xfe;" horiz-adv-x="1103" d="M-117 -452q2 32 10 37q60 0 89 35q21 27 36 96l166 799l-107 -107q-6 8 -10.5 27.5t-4.5 32.5q0 17 10.5 35t22.5 28l113 106l125 608q20 90 20 118q0 42 -136 42q-5 7 -1 32.5t10 32.5q85 7 222 34.5t178 42.5q13 -8 13 -42q0 -28 -29 -166q-4 -27 -50.5 -258.5 t-51.5 -252.5q55 60 148.5 114.5t171.5 54.5q104 0 160.5 -74.5t56.5 -194.5q0 -90 -29 -183.5t-77.5 -174t-113.5 -151.5t-136 -121.5t-146 -79.5t-141 -29q-35 0 -60 11l-58 -280q-7 -30 -7 -62q0 -7 3 -17t10.5 -20.5t17.5 -13.5q29 -7 105 -7q7 -1 3 -33t-12 -35 q-15 0 -40.5 1t-37.5 1q-272 0 -437 -20q-8 2 -6 34zM404 145q14 -58 60 -58q56 0 112 63.5t95 155t63.5 189.5t24.5 169q0 146 -87 146q-88 0 -182 -93l-77 -386q-23 -128 -9 -186z" />
<glyph unicode="&#xff;" horiz-adv-x="1112" d="M-169 -346q0 28 21 62.5t46 48.5q39 -24 102 -47.5t118 -23.5q38 0 70 7.5t50.5 18t32 23.5t18 21t6.5 14q4 11 7 25.5t5 34t3.5 36t2.5 42t1.5 40.5t0.5 44v39.5v40v33.5q0 101 -9.5 214t-28 219t-50 175t-69.5 69q-19 0 -43 -18t-40 -39t-31 -41.5t-15 -21.5 q-12 2 -23 27.5t-8 32.5q12 21 41.5 60.5t71.5 88t90.5 83.5t84.5 35q49 0 90 -25.5t70 -69t52.5 -102t37 -124.5t24.5 -136.5t14.5 -138.5t7 -129.5t2.5 -110t0 -80.5v-23q33 40 71 105t76 148t63 180.5t25 183.5q0 57 -29 103.5t-64 73.5q0 55 49 100t100 45 q32 0 60.5 -11t54 -34t41 -64.5t15.5 -97.5q0 -124 -59 -273.5t-152.5 -287.5t-212 -270t-236.5 -228.5t-227.5 -155.5t-182.5 -59q-42 0 -73.5 14t-51.5 46t-20 78zM293 1292q12 63 62.5 108t110.5 45t92.5 -44.5t21 -108.5t-62.5 -109.5t-111 -45.5q-59 0 -92 45.5 t-21 109.5zM682 1292q11 63 63 108t112 45t92.5 -44.5t20.5 -108.5q-7 -41 -33.5 -77t-64.5 -57t-77 -21q-60 0 -92.5 45.5t-20.5 109.5z" />
<glyph unicode="&#x152;" horiz-adv-x="2173" d="M113 579q0 136 31.5 259t88 221t136.5 178t176.5 133t208 82t229.5 29t239.5 -11t191.5 -11q38 0 189.5 3t321 7t213.5 5q-5 -80 -5 -120q-1 -32 -1 -68t0.5 -78t0.5 -62q-4 -5 -20.5 -8.5t-30.5 -3.5q-25 0 -28 18q-7 41 -14.5 71t-21.5 60.5t-32 49.5t-46.5 31 t-65.5 12h-171q-44 0 -71.5 -5t-37.5 -21q-5 -8 -8.5 -17.5t-7 -24.5t-6 -24.5t-7 -34t-7.5 -35.5l-77 -397q-2 -10 24 -17t60 -7h109q48 0 77 5.5t53.5 24t42 46.5t40.5 79q7 18 27 18q30 0 37 -11l-82 -427q-9 -9 -40 -9q-24 0 -24 18q-2 50 -10.5 80.5t-16.5 40t-20 15.5 q-31 15 -153 15q-150 0 -155 -31l-67 -344q0 -1 -2 -11t-4 -22t-4.5 -27.5t-4.5 -31.5t-3.5 -31.5t-1.5 -29t2 -22.5q3 -12 15 -20.5t30 -13.5t38.5 -8t41.5 -3h137q124 0 207 73q38 34 72 82.5t79 128.5q6 14 33 14q16 0 35 -4.5t23 -9.5q-9 -16 -32.5 -61.5t-36 -70 t-34 -66t-34 -69.5t-26.5 -59.5t-22 -54.5h-672q-114 0 -271 -9q-164 -9 -289 -9q-114 0 -216 48.5t-174 130t-114 192t-42 230.5zM433 542q0 -99 16.5 -181.5t49.5 -148t89.5 -102.5t130.5 -37q91 0 160 18.5t112 51.5t67.5 74t33.5 92q96 491 145 739q14 73 -3 142.5 t-66 117.5q-81 77 -233 77q-75 0 -144 -37t-123 -100t-99 -147t-74.5 -178t-45.5 -192t-16 -189z" />
<glyph unicode="&#x153;" horiz-adv-x="1454" d="M33 315q0 78 24 161.5t65 158t97.5 141.5t119.5 115.5t132.5 77t134.5 28.5q204 0 282 -129q151 129 286 129q30 0 58 -4.5t56.5 -14t52 -25.5t41.5 -38t28.5 -53.5t10.5 -68.5q0 -48 -22 -93.5t-58.5 -81.5t-83.5 -68.5t-97.5 -56.5t-100 -41t-92 -26t-72.5 -9 q-5 -13 -5 -55q0 -35 6 -65.5t20 -60.5t42 -47.5t68 -17.5q14 0 30 4t30.5 10.5t30 15.5t29 19t27 21t24 20.5t20.5 19.5l16.5 16.5t11.5 12l5 5.5q13 0 23 -26t10 -40q-12 -20 -58 -62t-106 -87.5t-130 -79t-119 -33.5q-73 0 -128 33.5t-87 97.5q-74 -62 -152.5 -96.5 t-151.5 -34.5q-142 0 -230 86t-88 242zM311 278q0 -203 75 -203q59 0 112 64t86.5 159.5t53 200.5t19.5 194v30.5t-1 33.5t-3 36.5t-5.5 34t-9 32t-13 24.5t-19 18t-24.5 6q-60 0 -112.5 -64t-86 -160.5t-53 -204.5t-19.5 -201zM901 502q33 0 77 28.5t83.5 72.5t67.5 105.5 t28 119.5q0 87 -58 87q-38 0 -74 -48t-61 -117t-41.5 -135.5t-21.5 -112.5z" />
<glyph unicode="&#x178;" horiz-adv-x="1278" d="M159 1388q-4 11 1.5 41t14.5 41q136 -16 293 -16q149 0 293 16q5 -11 -0.5 -41t-15.5 -41q-1 -1 -11 -1.5t-15.5 -1t-17.5 -2t-20.5 -3.5t-19.5 -5t-18.5 -7.5t-15.5 -10t-12.5 -13t-6.5 -16.5q-1 -4 0 -9t4 -13.5t5 -13.5l151 -491q3 -3 39.5 43t97 130.5t109.5 154 t109 154.5q16 26 20 51q2 14 -14.5 24.5t-45.5 16.5t-46.5 8.5t-35.5 4.5q-5 11 1 41t14 41q21 -2 60.5 -6t56.5 -5.5t47.5 -3t64.5 -1.5q40 0 78.5 3t81 7t75.5 6q5 -11 0 -41t-15 -41q-1 -1 -13 -1.5t-18.5 -1.5t-21.5 -3t-25 -4t-24 -6.5t-24 -9.5t-20.5 -13t-18.5 -17 q-58 -71 -254 -327.5t-252 -342.5q-17 -24 -20 -43l-57 -297q-18 -85 -24.5 -131.5t-0.5 -77.5q5 -30 125 -40q2 -9 0.5 -25t-6.5 -33t-10 -24q-136 16 -293 16q-149 0 -293 -16q-5 10 0.5 40.5t14.5 41.5q124 11 140 40q12 21 23 57.5t16 59.5t19 92l60 308q2 17 -4 45 q-9 34 -28 100t-40.5 135.5t-42 134t-34.5 106.5l-13 41q-31 97 -40 122q-6 16 -18.5 29t-27 20.5t-31 13t-28.5 8t-22 3.5zM563 1774q12 61 61.5 105t107.5 44q57 0 90 -44t21 -105q-12 -63 -60.5 -110.5t-105.5 -47.5q-59 0 -92 47.5t-22 110.5zM994 1774q12 61 61.5 105 t107.5 44q37 0 65.5 -20t40.5 -54.5t5 -74.5q-12 -63 -60.5 -110.5t-106.5 -47.5q-59 0 -92 47.5t-21 110.5z" />
<glyph unicode="&#x2c6;" horiz-adv-x="546" d="M34.5 1106.5q-2.5 15.5 0.5 32.5q24 24 114.5 122.5t158.5 177.5q3 2 6.5 6t5.5 5.5t4.5 4t4.5 3.5l4 2t4 1q14 0 25 -22q31 -61 67.5 -127.5t64 -115t32.5 -57.5q-4 -18 -11.5 -33t-15.5 -18q-133 109 -195 177q-53 -40 -138.5 -99t-121.5 -78q-7 3 -9.5 18.5z" />
<glyph unicode="&#x2dc;" horiz-adv-x="757" d="M47 1117q6 48 47 93q81 84 180 84q62 0 129 -35q11 -6 32.5 -19.5t35 -20.5t35.5 -13.5t45 -6.5q12 0 24 2.5t23 7.5t21 10.5t20 13.5t17 14t15 15t12 13t10.5 11.5l6.5 7.5q18 -6 16 -26q-6 -48 -49 -96q-82 -84 -178 -84q-26 0 -48 4.5t-39 11.5t-39 19q-8 4 -32.5 19 t-37.5 21.5t-36.5 13t-47.5 6.5q-11 0 -23 -2.5t-23 -7.5t-21 -10.5t-20 -13.5t-17 -14t-15.5 -15t-12 -13t-10 -11.5l-6.5 -7.5q-17 5 -14 29z" />
<glyph unicode="&#x2000;" horiz-adv-x="965" />
<glyph unicode="&#x2001;" horiz-adv-x="1931" />
<glyph unicode="&#x2002;" horiz-adv-x="965" />
<glyph unicode="&#x2003;" horiz-adv-x="1931" />
<glyph unicode="&#x2004;" horiz-adv-x="643" />
<glyph unicode="&#x2005;" horiz-adv-x="482" />
<glyph unicode="&#x2006;" horiz-adv-x="321" />
<glyph unicode="&#x2007;" horiz-adv-x="321" />
<glyph unicode="&#x2008;" horiz-adv-x="241" />
<glyph unicode="&#x2009;" horiz-adv-x="386" />
<glyph unicode="&#x200a;" horiz-adv-x="107" />
<glyph unicode="&#x2010;" horiz-adv-x="810" d="M107 462q0 23 18 76t35 55l504 26q13 0 13 -26q0 -25 -21 -82t-37 -58l-501 -25q-11 0 -11 34z" />
<glyph unicode="&#x2011;" horiz-adv-x="810" d="M107 462q0 23 18 76t35 55l504 26q13 0 13 -26q0 -25 -21 -82t-37 -58l-501 -25q-11 0 -11 34z" />
<glyph unicode="&#x2012;" horiz-adv-x="810" d="M107 462q0 23 18 76t35 55l504 26q13 0 13 -26q0 -25 -21 -82t-37 -58l-501 -25q-11 0 -11 34z" />
<glyph unicode="&#x2013;" horiz-adv-x="1025" d="M138 466q0 33 18.5 75t29.5 54h857q16 0 16 -36q0 -22 -10 -51.5t-21 -50t-18 -26.5h-857q-15 0 -15 35z" />
<glyph unicode="&#x2014;" horiz-adv-x="1829" d="M138 466q0 33 18.5 75t29.5 54h1641q16 0 16 -36q0 -22 -10.5 -51.5t-21.5 -50t-17 -26.5h-1641q-15 0 -15 35z" />
<glyph unicode="&#x2018;" horiz-adv-x="372" d="M336 1077q-21 47 0 155q8 43 27.5 84.5t44.5 73.5t54 61.5t56 50t50.5 35.5t39 22.5t19.5 7.5q12 0 22 -11t14 -29q-40 -22 -70 -46t-44.5 -40t-25 -35t-12 -25.5t-4.5 -17.5q-13 -67 18 -120q3 -5 7.5 -12t7.5 -11t7 -10.5t5.5 -10.5t3.5 -11t1.5 -12t-1.5 -13 q-9 -41 -54.5 -76t-94.5 -35q-8 0 -21.5 3t-28 8.5t-21.5 13.5z" />
<glyph unicode="&#x2019;" horiz-adv-x="388" d="M282 1092q40 23 69.5 46.5t44.5 40t25 35t12 25.5t4 18q13 67 -17 119q-4 6 -9.5 14.5t-8.5 13t-7 12.5t-5 12.5t-2.5 13t0.5 14.5q9 41 54.5 76t94.5 35q14 0 37.5 -7t33.5 -17q22 -47 0 -155q-11 -59 -43.5 -115t-71 -94.5t-77.5 -68t-65.5 -44t-33.5 -14.5 q-12 0 -22 11t-13 29z" />
<glyph unicode="&#x201a;" horiz-adv-x="399" d="M2 -198q40 23 69.5 46.5t44.5 40t25 35.5t12 25.5t5 17.5q12 64 -20 120q-2 2 -7 9.5t-6.5 10.5t-5 9.5t-4.5 9.5l-3 9t-2.5 10t0 10t1.5 11q9 42 53.5 77t93.5 35q14 0 37 -7t34 -18q10 -22 11 -63.5t-9 -91.5q-11 -59 -44 -115t-71.5 -94t-78 -68t-66.5 -44.5 t-33 -14.5q-12 0 -22.5 11.5t-13.5 28.5z" />
<glyph unicode="&#x201c;" horiz-adv-x="677" d="M336 1077q-21 47 0 155q8 43 27.5 84.5t44.5 73.5t54 61.5t56 50t50.5 35.5t39 22.5t19.5 7.5q12 0 22 -11t14 -29q-40 -22 -70 -46t-44.5 -40t-25 -35t-12 -25.5t-4.5 -17.5q-13 -67 18 -120q3 -5 7.5 -12t7.5 -11t7 -10.5t5.5 -10.5t3.5 -11t1.5 -12t-1.5 -13 q-9 -41 -54.5 -76t-94.5 -35q-8 0 -21.5 3t-28 8.5t-21.5 13.5zM631.5 1140.5q-0.5 41.5 8.5 91.5q10 50 34.5 97.5t55.5 82.5t65 65.5t63.5 49.5t49.5 29.5t25 10.5q8 0 15.5 -4.5t13 -14t7.5 -21.5q-40 -22 -69.5 -46t-44.5 -40t-25 -35t-12 -25.5t-4 -17.5 q-13 -67 17 -120q3 -4 7.5 -11.5t7.5 -11.5t6.5 -10.5t5 -11t3 -10.5t1.5 -12t-2 -13q-8 -41 -53 -76t-93 -35q-9 0 -22 3t-27.5 8.5t-21.5 13.5q-11 22 -11.5 63.5z" />
<glyph unicode="&#x201d;" horiz-adv-x="694" d="M282 1092q40 23 69.5 46.5t44.5 40t25 35t12 25.5t4 18q13 67 -17 119q-4 6 -9.5 14.5t-8.5 13t-7 12.5t-5 12.5t-2.5 13t0.5 14.5q9 41 54.5 76t94.5 35q14 0 37.5 -7t33.5 -17q22 -47 0 -155q-11 -59 -43.5 -115t-71 -94.5t-77.5 -68t-65.5 -44t-33.5 -14.5 q-12 0 -22 11t-13 29zM586 1092q40 23 69.5 46.5t44.5 40t25 35t12 25.5t4 18q13 67 -17 119q-3 5 -7 11t-6.5 10t-5.5 9.5t-5 9.5t-3.5 9t-2.5 10t-0.5 10.5t1.5 10.5q5 27 27 52.5t54.5 42t64.5 16.5q15 0 39 -7t35 -17q21 -47 0 -155q-12 -59 -44.5 -115t-71 -94.5 t-78 -68t-66.5 -44t-33 -14.5q-12 0 -22.5 11t-13.5 29z" />
<glyph unicode="&#x201e;" horiz-adv-x="708" d="M4 -200q40 23 70 46.5t44.5 40t25 35t12 25t4.5 17.5q12 65 -20 120q-3 5 -7.5 12t-7 11.5t-6 10.5t-5.5 11t-3.5 11t-1 12t1.5 12q9 41 54.5 76t94.5 35q14 0 37 -7t34 -17q21 -47 0 -156q-11 -58 -43.5 -114t-71 -94.5t-77.5 -68t-65.5 -44t-33.5 -14.5q-6 0 -11.5 3 t-10.5 8t-8.5 12.5t-5.5 16.5zM309 -200q39 23 69 46.5t44.5 40t25 35t12.5 25t4 17.5q12 65 -20 120q-2 3 -6.5 10.5l-6 10t-5 9t-5 10t-3.5 9.5t-2 10v10t1 11q6 27 28 52.5t54.5 42t64.5 16.5q8 0 22 -2.5t29 -8.5t22 -13q22 -47 0 -156q-8 -42 -27.5 -83.5t-44.5 -74 t-54 -61.5t-56.5 -49.5t-51.5 -36t-39.5 -23t-19.5 -7.5q-12 0 -22 11t-13 29z" />
<glyph unicode="&#x2022;" horiz-adv-x="836" d="M257 584q25 128 128 220.5t223 92.5q58 0 107 -25t78.5 -67.5t42 -99.5t-1.5 -121q-25 -129 -127 -220t-222 -91q-78 0 -136.5 42t-83.5 113.5t-8 155.5z" />
<glyph unicode="&#x2026;" horiz-adv-x="1547" d="M130 133q11 62 60.5 105.5t107.5 43.5q57 0 90 -43.5t21 -105.5q-12 -63 -60.5 -110t-105.5 -47q-59 0 -92 47.5t-21 109.5zM689 133q12 62 61.5 105.5t107.5 43.5q57 0 89.5 -43.5t21.5 -105.5q-12 -63 -60.5 -110t-106.5 -47q-59 0 -92 47.5t-21 109.5zM1249 133 q7 41 32.5 75t61.5 54t74 20q57 0 90 -43.5t21 -105.5q-12 -63 -60.5 -110t-105.5 -47q-59 0 -92 47.5t-21 109.5z" />
<glyph unicode="&#x202f;" horiz-adv-x="386" />
<glyph unicode="&#x2039;" horiz-adv-x="743" d="M242 551q3 16 20 33q48 28 96 58t88.5 56.5t78 53t68.5 50t57.5 43.5t47 37t34.5 28.5t23.5 19.5t9.5 9q12 -2 28 -14.5t19 -27.5q-16 -20 -150.5 -157.5t-193.5 -188.5q27 -36 78 -121t88 -149.5t43 -76.5q-9 -15 -29.5 -27.5t-33.5 -14.5l-17.5 22.5t-47.5 56.5 t-71.5 77t-102.5 96.5t-127 102.5q-10 14 -6 34z" />
<glyph unicode="&#x203a;" horiz-adv-x="1023" d="M511 204q16 20 150.5 157.5t193.5 189.5q-27 35 -78.5 120t-88 149.5t-42.5 76.5q9 15 29.5 27.5t32.5 14.5l18 -22.5t48 -56.5t71.5 -77t102.5 -96.5t126 -102.5q11 -14 7 -33q-3 -17 -20 -34q-49 -28 -97 -57.5t-88 -56.5t-78 -53.5t-69 -49.5t-57 -43.5t-47 -37.5 t-34.5 -28.5t-23 -19.5t-10.5 -9q-11 2 -27 14.5t-19 27.5z" />
<glyph unicode="&#x205f;" horiz-adv-x="482" />
<glyph unicode="&#x20ac;" horiz-adv-x="1360" d="M49 573q0 14 9 41t20 36h80q3 73 15 129h-82q-9 0 -9 18q0 8 4 23.5t11 32t14 22.5h84q30 95 81 180t115 150.5t139 118.5t154.5 87t160 52t156.5 18q149 0 433 -65q0 -11 -6 -85t-13.5 -148t-9.5 -86q-1 -7 -8 -14t-18 -12t-23 -5q-20 0 -26 8q-1 21 -6 45t-16 55 t-27 59.5t-42 56.5t-58.5 49t-79 33.5t-100.5 12.5q-110 0 -208.5 -62.5t-172.5 -178.5t-112 -269h353q7 0 7 -18q0 -14 -7 -39.5t-20 -38.5h-350q-11 -70 -11 -129h348q7 0 7 -17q0 -14 -7 -39.5t-20 -38.5h-331q4 -64 16.5 -127t39.5 -126.5t64.5 -111.5t95 -78t126.5 -30 q158 0 275 98q46 38 92.5 104.5t68 108.5t28.5 60q46 0 69 -27q-1 -7 -14 -42t-32 -82t-39.5 -93.5t-38.5 -80.5t-27 -39q-97 -54 -201 -79.5t-243 -25.5q-109 0 -203.5 32.5t-162.5 87.5t-118.5 128.5t-78 155t-34.5 167.5h-102q-9 0 -9 18z" />
<glyph unicode="&#x25fc;" horiz-adv-x="995" d="M0 0v995h995v-995h-995z" />
<glyph unicode="&#xfb01;" horiz-adv-x="1283" d="M-313 -371q0 44 23.5 76.5t60.5 32.5q55 0 94 -53q1 -2 6.5 -10t7 -10.5t7 -9.5t8.5 -10l8.5 -8.5t10 -7.5t10 -5.5t11.5 -4.5t13 -1q50 0 74 69.5t63 277.5q18 98 29 155l118 684h-144q-5 0 -5 6q0 21 36 58.5t71 37.5h60q29 179 115 318t211.5 215t270.5 77 q64 0 129 -18.5t96 -35t50 -30.5q20 -32 20 -73q0 -48 -15.5 -85t-48.5 -46q-40 -13 -83 5.5t-64 47.5q-11 17 -21 37t-15.5 33.5t-14 27t-19 21.5t-29 13.5t-45.5 5.5q-93 0 -165.5 -135t-114.5 -378q75 1 153.5 5t133 7.5t126.5 6.5t142 3q8 0 30.5 -23t22.5 -37 q0 -38 -16.5 -132.5t-48.5 -250.5t-39 -192q-2 -7 -5.5 -36t-3.5 -37t2 -16t5.5 -15t9.5 -11.5t14 -4.5q32 0 90 57.5t68 78.5q7 0 14.5 -12.5t12 -26.5t4.5 -21q-15 -28 -55 -72t-90 -88t-108 -75.5t-100 -31.5q-60 0 -100 39t-40 119q0 20 8 67.5t12 65.5l69 346 q1 6 4.5 26t5 31.5t2.5 32t-1 33t-8 28.5t-16.5 25t-28.5 15t-42 5l-247 -11q-62 -396 -115 -675q-26 -132 -83 -249t-127 -195t-146.5 -123.5t-143.5 -45.5q-52 0 -97.5 12.5t-66.5 27.5q-20 32 -20 73z" />
<glyph unicode="&#xfb02;" horiz-adv-x="1334" d="M-313 -371q0 44 23.5 76.5t60.5 32.5q55 0 94 -53q1 -2 6.5 -10t7 -10.5t7 -9.5t8.5 -10l8.5 -8.5t10 -7.5t10 -5.5t11.5 -4.5t13 -1q50 0 74 69.5t63 277.5q18 98 29 155l125 719h-145q-4 0 -4 7q0 20 36 57.5t70 37.5h60q21 107 64 199.5t101 161t127 117t145 73 t154 24.5q87 0 160 -31q90 14 184 36t131 35q13 -8 13 -42q0 -7 -33.5 -77.5t-39.5 -100.5l-204 -1043q-9 -53 -9 -73q0 -8 1.5 -16t5.5 -15t10 -11.5t14 -4.5q31 0 89 57.5t69 78.5q7 0 14.5 -12.5t12 -26.5t4.5 -21q-15 -28 -55 -72t-90.5 -88t-108 -75.5t-99.5 -31.5 q-39 0 -69.5 15.5t-50.5 52t-20 90.5q0 20 7.5 67.5t12.5 65.5l188 970q2 5 3 15t2 14q-29 68 -85 107.5t-117 39.5q-87 1 -157 -121t-116 -357h222q11 0 11 -26q0 -8 -2.5 -19t-6 -21t-7.5 -19.5t-8 -16.5h-229q-69 -431 -122 -710q-26 -132 -83 -249t-127 -195 t-146.5 -123.5t-143.5 -45.5q-52 0 -97.5 12.5t-66.5 27.5q-20 32 -20 73z" />
<glyph unicode="&#xfb03;" horiz-adv-x="1904" d="M-313 -371q0 44 23.5 76.5t60.5 32.5q55 0 94 -53q1 -2 6.5 -10t7 -10.5t7 -9.5t8.5 -10l8.5 -8.5t10 -7.5t10 -5.5t11.5 -4.5t13 -1q50 0 74 69.5t63 277.5q18 98 29 155l118 684h-144q-5 0 -5 6q0 21 36 58.5t71 37.5h60q20 118 64 218.5t102.5 172t129.5 121.5t147 74 t154 24q64 0 123.5 -18.5t99.5 -47t57 -60.5q154 126 341 126q65 0 129.5 -18.5t95.5 -35t51 -30.5q20 -32 20 -73q0 -48 -15.5 -85t-49.5 -46q-40 -13 -82.5 5.5t-63.5 47.5q-13 19 -24.5 43.5t-18 39t-18 28.5t-32 20.5t-52.5 6.5q-92 0 -164.5 -135t-114.5 -378 q75 1 153.5 5t132.5 7.5t126.5 6.5t142.5 3q8 0 30.5 -23t22.5 -37q0 -38 -16.5 -132.5t-48.5 -250.5t-39 -192q-2 -7 -5.5 -36t-3.5 -37q0 -5 0.5 -10.5t2 -10.5t4.5 -10t6 -8.5t8 -5.5t10 -2q22 0 60 32t65.5 63t32.5 41q7 0 14.5 -12.5t12 -26.5t4.5 -21q-15 -28 -55 -72 t-90.5 -88t-108 -75.5t-99.5 -31.5q-61 0 -100.5 39t-39.5 119q0 20 7.5 67.5t12.5 65.5l69 346q0 6 3 22.5t4.5 27.5t3.5 28.5t1 30t-3.5 27.5t-10 25t-18 18.5t-27 12.5t-38.5 4l-246 -11q-62 -396 -116 -675q-25 -132 -82.5 -249t-127.5 -195t-146 -123.5t-143 -45.5 q-27 0 -54 3.5t-48 9.5t-37 13t-25 14q-20 32 -20 73q0 44 23.5 76.5t60.5 32.5q54 0 93 -53q1 -2 6.5 -10t7.5 -10.5t7.5 -9.5t8.5 -10l8.5 -8.5t9.5 -7.5t10 -5.5t12 -4.5t12 -1q51 0 75 69.5t63 277.5q18 98 29 155l117 684h-366q-62 -396 -115 -675q-26 -132 -83 -249 t-127 -195t-146.5 -123.5t-143.5 -45.5q-52 0 -97.5 12.5t-66.5 27.5q-20 32 -20 73zM506 906h364q34 199 129 342q-40 81 -95 125t-118 46q-88 1 -161 -131t-119 -382z" />
<glyph unicode="&#xfb04;" horiz-adv-x="1955" d="M-313 -371q0 44 23.5 76.5t60.5 32.5q55 0 94 -53q1 -2 6.5 -10t7 -10.5t7 -9.5t8.5 -10l8.5 -8.5t10 -7.5t10 -5.5t11.5 -4.5t13 -1q50 0 74 69.5t63 277.5q18 98 29 155l125 719h-145q-4 0 -4 7q0 20 36 57.5t70 37.5h60q21 107 64 199.5t101 161t127 117t145 73 t154 24.5q95 0 176 -39.5t106 -88.5q156 128 339 128q88 0 160 -31q63 9 133 24t115.5 27.5t66.5 19.5q14 -8 14 -42q0 -7 -33.5 -77.5t-39.5 -100.5l-205 -1043q-9 -53 -9 -73q0 -18 8 -32.5t24 -14.5q31 0 89 57.5t68 78.5q7 0 14.5 -12.5t12 -26.5t4.5 -21 q-15 -28 -55 -72t-90 -88t-108 -75.5t-100 -31.5q-60 0 -100 39t-40 119q0 20 8 67.5t12 65.5l189 970q1 5 2 15t3 14q-30 68 -85.5 107.5t-117.5 39.5q-57 1 -107.5 -53t-92.5 -161.5t-73 -263.5h222q12 0 12 -26q0 -16 -8 -38.5t-17 -37.5h-229q-68 -431 -122 -710 q-25 -132 -82.5 -249t-127.5 -195t-146 -123.5t-143 -45.5q-27 0 -54 3.5t-48 9.5t-37 13t-25 14q-20 32 -20 73q0 44 23.5 76.5t60.5 32.5q54 0 93 -53q1 -2 6.5 -10t7.5 -10.5t7.5 -9.5t8.5 -10l8.5 -8.5t9.5 -7.5t10 -5.5t12 -4.5t12 -1q51 0 75 69.5t63 277.5 q18 98 29 155l124 719h-366q-69 -431 -122 -710q-26 -132 -83 -249t-127 -195t-146.5 -123.5t-143.5 -45.5q-52 0 -97.5 12.5t-66.5 27.5q-20 32 -20 73zM513 941h364q32 169 124 304q-40 82 -95.5 127t-119.5 47q-87 1 -157 -121t-116 -357z" />
</font>
</defs>
</svg>
