<?xml version="1.0" standalone="no"?>
<!DOCTYPE svg PUBLIC "-//W3C//DTD SVG 1.1//EN" "http://www.w3.org/Graphics/SVG/1.1/DTD/svg11.dtd" >
<svg xmlns="http://www.w3.org/2000/svg">
<metadata></metadata>
<defs>
<font id="crimson_textsemibold" horiz-adv-x="1110" >
<font-face units-per-em="2048" ascent="1484" descent="-564" />
<missing-glyph horiz-adv-x="492" />
<glyph horiz-adv-x="2048" />
<glyph horiz-adv-x="2048" />
<glyph unicode="&#xd;" horiz-adv-x="2048" />
<glyph unicode=" "  horiz-adv-x="492" />
<glyph unicode="&#x09;" horiz-adv-x="492" />
<glyph unicode="&#xa0;" horiz-adv-x="492" />
<glyph unicode="!" horiz-adv-x="581" d="M141 128q0 59 43.5 101t105.5 42q61 0 104.5 -44t43.5 -104t-42.5 -104t-103.5 -44q-62 0 -106.5 45.5t-44.5 107.5zM166 1322q0 61 37.5 101.5t95.5 40.5q52 0 86.5 -42.5t34.5 -101.5q0 -18 -5.5 -76t-15 -150.5t-19.5 -188.5t-23.5 -227.5t-23.5 -230.5 q-8 -20 -16.5 -30t-24.5 -13q-6 1 -13.5 5t-15.5 11t-12 15q-4 35 -19 175.5t-23.5 222t-19.5 196t-17 187.5t-6 106z" />
<glyph unicode="&#x22;" horiz-adv-x="699" d="M87 1420q0 27 9 57t25.5 57t41.5 44.5t54 17.5q41 0 66 -34q0 -52 -13 -214.5t-24 -269.5q-3 -5 -9 -11.5t-12.5 -13.5t-14 -13t-14.5 -9q-15 0 -23 16q-86 293 -86 373zM406 1420q0 27 9 57t25.5 57t41.5 44.5t54 17.5q41 0 66 -34q0 -52 -12.5 -214.5t-24.5 -269.5 q-4 -7 -12 -16t-18.5 -18t-19.5 -13q-15 0 -23 16q-86 293 -86 373z" />
<glyph unicode="#" horiz-adv-x="1092" d="M115 404q1 28 14 62t27 38h141l48 303h-155q-12 5 -11.5 32.5t13 61.5t26.5 38h150l39 242q5 17 15.5 23.5t41.5 6.5q19 0 29 -7l-43 -265h285l39 242q6 17 16 23.5t41 6.5q19 0 30 -7l-41 -265h141q15 0 15.5 -30t-10.5 -62.5t-26 -39.5h-143l-48 -303h150q22 0 13 -56 q-9 -57 -32 -74q-2 -2 -3 -2h-149l-38 -244q-2 -8 -21.5 -18t-42.5 -10q-10 0 -16.5 2.5t-7.5 4.5l-1 2l43 263h-285l-39 -244q-2 -9 -20 -18.5t-41 -9.5q-7 0 -12 1t-7.5 2.5t-4 3t-1.5 2.5l43 263h-151q-12 4 -11 32zM382 504h282l48 303h-282z" />
<glyph unicode="$" horiz-adv-x="1158" d="M121 392q5 10 26 19t33 9q27 0 30 -19t10.5 -42t19.5 -52t30 -58t39.5 -56.5t51.5 -52.5t63 -42l89 531q-5 5 -14 9l-24 15q-63 40 -96 62t-85 65t-78 80.5t-47 92.5t-21 116q0 48 13 93.5t36.5 84t56 72t72 59t83 44t91.5 28t95 9.5q37 0 55 -2l13 84q10 0 22 -0.5 t27 -2t25.5 -5.5t10.5 -10l-14 -77q23 -4 50 -10t49.5 -11.5t55 -13.5t57.5 -13q7 -41 11.5 -93t6 -79.5t4.5 -92.5t3 -73q-5 -11 -25 -11l-6.5 -0.5t-11.5 -0.5t-13 1t-13 2.5t-9.5 5t-5.5 8.5q-10 71 -55 150.5t-114 120.5l-82 -488q8 -4 59 -36q16 -10 45 -27.5t48 -29 t47 -30t46.5 -33t42.5 -36.5t40 -42t32.5 -47t26 -55t15.5 -62t6 -72q0 -87 -39.5 -163.5t-105 -127.5t-149.5 -80.5t-173 -29.5q-25 0 -85 5l-13 -87q-14 0 -31.5 1.5t-35.5 6.5t-18 13l12 75q-80 11 -233 45q-17 78 -33.5 197t-18.5 159zM381 1161q0 -75 47 -136.5 t131 -121.5l75 465q-23 5 -39 5q-101 0 -157.5 -58.5t-56.5 -153.5zM508 68q37 -4 60 -4q43 0 83.5 13t75.5 40t56.5 74.5t21.5 109.5q0 40 -12.5 76t-31 62.5t-48.5 54t-56.5 46t-63.5 41.5z" />
<glyph unicode="%" horiz-adv-x="1543" d="M91 1108q0 97 45 179t125.5 130.5t178.5 48.5q100 0 180 -47.5t123.5 -128t43.5 -177.5q0 -70 -26 -135t-70.5 -114.5t-110 -79t-140.5 -29.5q-98 0 -178.5 47t-125.5 128t-45 178zM132 -9l1138 1441q11 11 30 19t38 8q21 0 32 -3t14 -6.5t9 -13.5l-1140 -1441 q-7 -10 -33 -20.5t-49 -10.5q-14 0 -24 6.5t-12.5 12t-2.5 8.5zM274 1135q0 -75 21 -146.5t64 -120.5t97 -49q26 0 47 8.5t36 23t27 35.5t19 44t11.5 50.5t6 52.5t1.5 52q0 75 -19.5 146.5t-61.5 122t-97 50.5q-44 0 -75.5 -23.5t-47.5 -65t-22.5 -85.5t-6.5 -95zM759 344.5 q0 97.5 45 179.5t125.5 131.5t178.5 49.5q100 0 179.5 -47.5t122 -128t42.5 -178.5q0 -94 -42.5 -176t-122.5 -133t-179 -51q-98 0 -178.5 47t-125.5 128t-45 178.5zM942 374q0 -75 21 -147t64 -122t97 -50q30 0 53.5 11.5t39 32t26.5 46t16.5 57t8 60.5t2.5 62 q0 75 -19 146t-60.5 122t-96.5 51q-44 0 -75.5 -24t-47.5 -65t-22.5 -85t-6.5 -95z" />
<glyph unicode="&#x26;" horiz-adv-x="1570" d="M123 358q0 50 11.5 96t29.5 82t47.5 71t56.5 60t66.5 52t68 44t69.5 40q-7 12 -24 39t-26.5 43t-24 43t-23 49t-17.5 50.5t-13 59t-4 62.5q0 143 97.5 238t248.5 95q164 0 267 -70t103 -190q0 -59 -20.5 -112.5t-51.5 -93t-78 -77t-88.5 -62.5t-94.5 -52 q58 -89 157.5 -223t170.5 -219q55 77 93.5 141.5t38.5 81.5q0 23 -21 31.5t-51.5 9t-32.5 1.5q-6 10 -6 34t6 29h169q62 0 271 9q7 -3 6 -34t-8 -36q-28 0 -83 -11t-76 -26q-10 -6 -48 -57.5t-95 -126.5t-99 -123q7 -8 26.5 -29.5t29.5 -32t28.5 -29.5t31.5 -29.5t28 -22 t28 -17t24 -5.5q36 0 73.5 39t58.5 75q11 0 23 -6.5t21 -16t11 -18.5q-4 -9 -18 -31t-41.5 -55t-60 -62t-77.5 -50t-90 -21q-35 0 -70 12.5t-60 27.5t-52.5 39.5t-39.5 37.5t-28 32q-4 5 -6 6q-80 -73 -187.5 -116t-218.5 -43q-85 0 -162 25.5t-136 71.5t-93.5 116 t-34.5 154zM369 447q0 -91 39 -163.5t110.5 -114t163.5 -41.5q61 0 118 24.5t96 64.5q-46 52 -126 162t-154.5 217t-84.5 120q-37 -28 -62.5 -51t-50 -56t-37 -73.5t-12.5 -88.5zM554 1218q0 -41 10 -83t30 -85.5t36 -73t43 -73.5q95 54 141 120t46 167q0 34 -9.5 69.5 t-26.5 67.5t-46.5 52.5t-66.5 20.5q-67 0 -112 -51.5t-45 -130.5z" />
<glyph unicode="'" horiz-adv-x="394" d="M84 1432q0 65 40.5 120t101.5 55q47 0 73 -38q-5 -97 -16 -238.5t-25 -233.5q-8 -12 -23.5 -24.5t-31.5 -19.5q-16 0 -23 14q-36 106 -49.5 148.5t-30 109t-16.5 107.5z" />
<glyph unicode="(" horiz-adv-x="631" d="M80 672.5q0 152.5 31.5 293t81.5 246t118 198t134 154t136 107.5q10 -6 22 -27t10 -25q-58 -51 -114 -143t-103.5 -212.5t-76.5 -276t-29 -314.5t29 -314.5t76.5 -276.5t103.5 -213t114 -143q2 -3 -10 -25.5t-22 -28.5q-70 46 -136 108t-134 154.5t-118 198.5 t-81.5 246.5t-31.5 293z" />
<glyph unicode=")" horiz-adv-x="631" d="M20 -274q58 51 114.5 143t104 213t76.5 276.5t29 314.5t-29 314.5t-76.5 276t-104 212.5t-114.5 143q-2 4 10.5 25t21.5 27q71 -46 137 -107.5t134 -154t118 -198t81.5 -246t31.5 -293t-31.5 -293t-81.5 -246.5t-118 -198.5t-134 -154.5t-137 -108q-9 6 -21.5 28.5 t-10.5 25.5z" />
<glyph unicode="*" horiz-adv-x="1010" d="M89 1044q-7 39 17.5 70t71.5 40q45 7 90.5 -1t88 -17.5t79.5 -4.5q22 4 27 16q5 10 -7 29q-18 31 -47 58t-61 58t-56 71q-23 42 -16 83t39 59q33 18 71 4.5t61 -54.5q21 -42 27 -87.5t10 -88.5t20 -75q11 -23 23 -25q14 0 25 11q20 21 35 49t23.5 51.5t26.5 55t43 58.5 q31 37 75 42.5t68 -19.5q28 -26 26.5 -68t-35.5 -75q-33 -33 -74.5 -52.5t-81 -36t-65.5 -41.5q-14 -21 -14 -32q0 -13 21 -21q37 -17 114 -25t130 -32q43 -18 62.5 -56t3.5 -71q-18 -35 -56 -46t-83 9q-33 16 -61 41t-44 46t-39.5 44.5t-49.5 37.5q-3 1 -6.5 2.5t-13 4.5 t-12.5 0q-8 -4 -11 -21v-4q-5 -41 10.5 -115t9.5 -132q-5 -46 -35 -75t-65 -25q-39 7 -61.5 39.5t-16.5 79.5q6 36 20.5 70.5t30 56.5t30 51.5t20.5 58.5q4 22 -5 32q-5 7 -25 4q-39 -8 -106.5 -47t-123.5 -51q-47 -10 -84 10.5t-44 55.5z" />
<glyph unicode="+" horiz-adv-x="1235" d="M71 524q0 15 8 51.5t21 51.5h449q3 431 3 454q21 12 51.5 18.5t46.5 6.5q32 0 32 -16v-463h465q5 0 9.5 -4t6.5 -11t2 -15q0 -64 -32 -100h-451v-456q-19 -12 -50.5 -19.5t-52.5 -7.5q-10 0 -18.5 6.5t-8.5 13.5v463h-468q-13 0 -13 27z" />
<glyph unicode="," horiz-adv-x="485" d="M41 -287q22 15 44 35t49 52t43.5 74t16.5 87q0 18 -7 33t-17 26t-22 25.5t-22 28.5t-16.5 37t-6.5 51q0 17 8.5 39t26 44.5t49 38t71.5 15.5t77 -25q37 -64 37 -155q0 -84 -44 -178t-110.5 -168t-135.5 -110q-14 3 -27.5 20.5t-13.5 29.5z" />
<glyph unicode="-" horiz-adv-x="857" d="M130 479q0 55 32 123q474 25 549 27q8 0 12 -4t4 -16q0 -62 -32 -130q-46 -3 -549 -25q-9 0 -12.5 5t-3.5 20z" />
<glyph unicode="." horiz-adv-x="503" d="M103 128q0 59 44 101t106 42q30 0 57.5 -12t46.5 -32t30.5 -47t11.5 -57q0 -60 -42.5 -104t-103.5 -44t-105.5 45.5t-44.5 107.5z" />
<glyph unicode="/" horiz-adv-x="950" d="M66 -64l680 1756q4 13 31.5 28t68.5 15q31 0 36 -20l-672 -1745q-5 -16 -32 -33t-71 -17q-15 0 -25.5 4t-12.5 8z" />
<glyph unicode="0" d="M55 718q0 148 37.5 281t103.5 231.5t160.5 157t202.5 58.5q146 0 259.5 -93t175.5 -258.5t62 -376.5q0 -147 -37 -280t-101.5 -231t-158 -156t-200.5 -58q-145 0 -260 91.5t-179.5 257.5t-64.5 376zM303 709q0 -176 33 -319.5t90.5 -224.5t127.5 -81q64 0 113.5 52.5 t79.5 144t45 208.5t15 254q0 178 -29.5 317t-85 216.5t-127.5 77.5q-81 0 -141.5 -87t-90.5 -232t-30 -326z" />
<glyph unicode="1" d="M235 1238q0 19 4 21q92 40 211.5 93.5t183 82.5t66.5 29h5q9 0 15.5 -13t9.5 -26q-21 -73 -21 -217v-912q0 -143 16 -191q6 -18 59.5 -28.5t86.5 -10.5q7 -10 7 -37.5t-7 -37.5q-182 14 -283 14q-96 0 -278 -14q-7 10 -7 37.5t7 37.5q35 0 87.5 10.5t58.5 28.5 q16 48 16 191v846q0 60 -10.5 81.5t-37.5 21.5q-21 0 -76 -16.5t-86 -31.5q-7 5 -13 11.5t-10 14.5t-4 15z" />
<glyph unicode="2" d="M73 36q11 12 32 36q113 126 174 195.5t148.5 180t151.5 209.5q70 104 96.5 193.5t26.5 180.5q0 114 -73.5 191.5t-177.5 77.5q-164 0 -291 -178q-12 0 -29 15t-17 30q9 25 32 59.5t63.5 76.5t89.5 77.5t116 59.5t137 24q108 0 199 -49.5t144 -138t53 -195.5 q0 -184 -155 -370q-109 -134 -236.5 -275.5t-223.5 -234.5h424q33 0 61 10t47 26t37 42t29.5 50t26.5 59q6 16 32 16q31 0 45 -14q-21 -63 -74.5 -220.5t-57.5 -169.5h-812q-7 7 -12.5 18.5t-5.5 17.5z" />
<glyph unicode="3" d="M105 148q0 47 29.5 81.5t75.5 34.5q18 0 34.5 -6t31 -19t24.5 -24t25 -29.5t22 -25.5q31 -35 78 -57.5t90 -22.5q106 0 174 86.5t68 253.5q0 65 -22 125t-58.5 103.5t-87 69t-106.5 25.5q-45 0 -127 -23q-19 23 -19 51q0 16 5 22q50 11 96 26t93 40.5t81 56.5t55.5 75.5 t21.5 96.5q0 64 -27 116.5t-77.5 83t-114.5 30.5q-124 0 -256 -132q-10 1 -18.5 19.5t-8.5 34.5q31 44 70 82t88.5 71t111 52t127.5 19q36 0 77.5 -10t85.5 -33.5t79.5 -56t58 -83t22.5 -109.5q0 -40 -12 -79t-33 -70t-45 -57.5t-52 -48t-49 -35.5t-41 -25q28 0 68 -14.5 t86.5 -45t86 -71t66 -100.5t26.5 -127q0 -92 -34.5 -174.5t-93.5 -143t-135 -105.5t-162 -67.5t-173 -22.5q-75 0 -148 20t-121 49q-11 11 -23.5 41.5t-12.5 51.5z" />
<glyph unicode="4" d="M46 447q73 91 391.5 500t371.5 476q35 45 55 45q14 0 31 -17.5t17 -34.5v-878h121q5 0 10.5 -8t10.5 -21t8 -32t3 -39q0 -10 -2 -17.5t-4 -11.5t-5 -8l-3 -4h-139v-392q-34 -19 -125 -19q-108 0 -108 25v386h-611q-22 11 -22 50zM221 538h458v591z" />
<glyph unicode="5" d="M107 148q0 47 29.5 81.5t75.5 34.5q18 0 34.5 -6t31.5 -19t25 -24t24.5 -29.5t21.5 -25.5q20 -23 47.5 -41t58.5 -28.5t60 -10.5q51 0 94.5 20.5t77.5 61t53 106.5t19 152t-43.5 164.5t-123.5 128t-175 49.5q-65 0 -119 -11t-81 -24q-6 0 -10 7t-6.5 16t-2.5 16 q41 196 128 684h374q44 0 92 4.5t76.5 9t38.5 7.5l7 -3.5l7 -3.5t6 -3.5t5.5 -5t3 -6.5t1.5 -8q0 -21 -28.5 -90.5t-48.5 -98.5q-122 -12 -301 -16h-174q-61 -308 -68 -340q48 15 119 27t123 12q68 0 135 -23t122 -64t97.5 -94t66 -116.5t23.5 -126.5q0 -93 -33.5 -176.5 t-91.5 -146t-133 -108.5t-160.5 -70t-171.5 -24q-75 0 -148.5 20t-120.5 49q-7 7 -15.5 23t-15 36t-6.5 34z" />
<glyph unicode="6" d="M91 527q0 174 66 332t176 276q84 91 195 164t210.5 113.5t191.5 60.5q13 -5 18 -26t3 -38q-76 -29 -144 -64.5t-137 -87t-123.5 -111.5t-100 -141t-70.5 -173q51 37 112.5 58.5t113.5 21.5q98 0 178 -35t132 -95.5t79.5 -141t27.5 -173.5q0 -95 -38.5 -184t-103 -154 t-151 -104t-179.5 -39q-77 0 -148.5 30t-126.5 82.5t-96 120.5t-63 147.5t-22 160.5zM337 524q0 -78 14 -154.5t40.5 -144.5t73 -110t105.5 -42q88 0 145.5 96t57.5 248q0 50 -6 95.5t-19 87.5t-33.5 76t-48 59.5t-65 39.5t-81.5 14q-101 0 -167 -69q-16 -111 -16 -196z" />
<glyph unicode="7" d="M73 1067q16 59 96 379l675 2q30 0 72 1.5t74 3.5t36 2q14 0 14 -28q0 -11 -8 -29.5t-27.5 -57t-28.5 -59.5l-611 -1292q-14 -7 -32 -7q-28 0 -64 13t-36 35q106 160 310.5 556t332.5 663h-557q-25 0 -46 -5.5t-37 -18.5t-28 -27.5t-23 -37t-18 -43t-17 -50.5 q-6 -14 -27 -14q-36 0 -50 14z" />
<glyph unicode="8" d="M100 351q0 56 20 108t50 89.5t71 71t77 54t74 37.5q9 9 0 14q-25 18 -41.5 31t-44.5 37.5t-47.5 46t-42.5 53t-37 62t-23.5 69t-9.5 77.5q0 95 59.5 177.5t154 129.5t196.5 47q78 0 149 -22.5t126.5 -63.5t88.5 -105t33 -142q0 -57 -22 -109t-59.5 -92.5t-79 -70.5 t-90.5 -54q-7 -4 0 -12q37 -21 74.5 -48.5t80.5 -68t75.5 -83.5t54 -96.5t21.5 -106.5q0 -87 -39.5 -162.5t-104.5 -126.5t-149 -80.5t-172 -29.5q-92 0 -171.5 23.5t-140.5 68.5t-96 116t-35 161zM342 356q0 -122 60 -203.5t154 -81.5q98 0 154 61.5t56 159.5 q0 174 -265 352l-9 6q-13 7 -18 7q-1 0 -4.5 1.5t-4.5 -1.5q-123 -101 -123 -301zM378 1151q0 -47 17 -90.5t39 -73t55.5 -58.5t56 -43.5t51.5 -30.5q7 -7 19 -7q9 0 13 5q101 90 101 255q0 62 -20.5 120t-63.5 99t-99 41q-71 0 -120 -63.5t-49 -153.5z" />
<glyph unicode="9" d="M91 992q0 95 39 184t104 154t152 104t179 39q97 0 182.5 -46.5t144.5 -122t93 -173t34 -198.5q0 -175 -65 -333t-174 -276q-85 -91 -195.5 -164t-210 -113.5t-192.5 -60.5q-12 5 -18 26.5t-4 37.5q76 29 143.5 64.5t137 87t124.5 111.5t100.5 141t70.5 173 q-50 -37 -111.5 -58.5t-113.5 -21.5q-99 0 -179 35t-132.5 95.5t-80.5 141t-28 173.5zM337 1042q0 -75 15 -140t44.5 -118t80 -83.5t116.5 -30.5q101 0 166 69q14 85 14 196q0 78 -13.5 154.5t-40 144.5t-72.5 110t-104 42q-89 0 -147.5 -96t-58.5 -248z" />
<glyph unicode=":" horiz-adv-x="524" d="M114 109q0 60 44.5 102t105.5 42t103.5 -44t42.5 -104.5t-42.5 -104t-103.5 -43.5t-105.5 45.5t-44.5 106.5zM114 862q0 59 44.5 101t105.5 42t103.5 -43.5t42.5 -104.5q0 -39 -19 -73t-52.5 -54.5t-74.5 -20.5q-61 0 -105.5 45.5t-44.5 107.5z" />
<glyph unicode=";" horiz-adv-x="556" d="M89 -287q22 15 44 35t49 52t43.5 74t16.5 87q0 21 -10 38t-23.5 31.5t-27.5 30.5t-23.5 42t-9.5 59q0 17 9 39t26.5 44.5t49 38t70.5 15.5q45 0 82 -25q35 -60 35 -155q0 -84 -44.5 -178t-110.5 -168t-135 -110q-14 3 -27.5 20.5t-13.5 29.5zM125 839q0 39 20.5 72 t55 52.5t75.5 19.5q60 0 100.5 -42t40.5 -102q0 -61 -40.5 -107t-100.5 -46q-61 0 -106 46.5t-45 106.5z" />
<glyph unicode="&#x3c;" horiz-adv-x="1126" d="M68 495q0 34 41 54l844 427q9 4 14 4q14 0 36 -118q1 -6 0 -11t-3 -8l-1 -2l-735 -364l739 -372q9 -2 9 -14q0 -17 -13.5 -71t-22.5 -54q-5 0 -14 4l-853 434q-41 21 -41 91z" />
<glyph unicode="=" horiz-adv-x="1279" d="M163 649q2 27 17 60t30 39h918q22 0 11 -54q-12 -55 -36 -74l-4 -2h-926q-12 4 -10 31zM167 343q15 59 39 75l4 2h918q22 0 11 -54q-12 -56 -36 -74l-4 -2h-926q-19 0 -6 53z" />
<glyph unicode="&#x3e;" horiz-adv-x="1126" d="M114 91q0 4 1.5 7.5t3.5 4.5l2 2l741 372l-734 364q-5 7 -5 21q7 46 18.5 82t18.5 36q2 0 11 -4l846 -427q41 -20 41 -54q0 -70 -41 -91l-853 -434q-9 -4 -14 -4q-9 0 -22.5 53.5t-13.5 71.5z" />
<glyph unicode="?" horiz-adv-x="859" d="M123 1347q0 27 8.5 55t18.5 39q55 27 160 27q34 0 79 -10.5t97 -30.5t102 -54.5t91.5 -78t66.5 -105t25 -131.5q0 -52 -14 -97t-35 -78.5t-57 -66.5t-70.5 -56.5t-83.5 -52.5q-149 -88 -183 -139q-5 -9 -8 -20.5t-4 -27.5t-1.5 -26.5t0 -29.5t0.5 -24q-15 -34 -37 -34 q-24 4 -41 25q-11 34 -21.5 98t-10.5 119q0 31 7 59.5t15.5 50t27 44t30.5 36t37 32.5t35.5 26.5t36.5 24.5q41 26 68 44.5t59 44.5t50.5 48.5t31.5 50t13 54.5q0 62 -41.5 104t-104.5 42q-34 0 -66.5 -14.5t-54 -32.5t-49.5 -32.5t-54 -14.5q-46 0 -84.5 39t-38.5 93z M146 128q0 60 43.5 101.5t102.5 41.5q40 0 73.5 -18.5t53 -51.5t19.5 -73q0 -63 -41 -108t-101 -45q-59 0 -104.5 44.5t-45.5 108.5z" />
<glyph unicode="@" horiz-adv-x="1723" d="M107 383q0 111 28.5 224t80.5 217t130.5 194t173.5 156.5t214.5 105t248.5 38.5q109 0 203.5 -25.5t166.5 -71.5t128 -109t91 -139.5t53.5 -160.5t18.5 -174q0 -128 -39 -248.5t-104.5 -209.5t-156 -142.5t-188.5 -53.5q-90 0 -147.5 48.5t-57.5 147.5q0 17 4 44t9 40 q-18 -35 -50 -79t-75.5 -89.5t-96.5 -76t-101 -30.5q-100 0 -159.5 76t-59.5 220q0 81 28 168t75.5 165.5t114 149t140 122t156.5 81.5t161 30q58 0 117 -8.5t92 -21.5l-134 -707q-7 -27 -7 -54q0 -45 20 -76t62 -31q48 0 101 42.5t97.5 112t73.5 168t29 201.5 q0 94 -20.5 180.5t-65 163.5t-109 133.5t-160 89.5t-210.5 33q-114 0 -219 -35t-189 -95t-154 -141.5t-116.5 -174.5t-72 -194t-25.5 -199q0 -97 24.5 -187t67.5 -161t97 -126t117 -92q38 -22 73.5 -35.5t52.5 -17.5t47 -8q0 -14 -31 -29t-55 -15q-49 0 -96 19 q-79 29 -150.5 89t-126.5 142.5t-87.5 190.5t-32.5 225zM645 342q0 -56 12.5 -96t36 -60t56.5 -20q51 0 109 65.5t104.5 171.5t69.5 222l45 232q-26 30 -77 30q-67 0 -132.5 -48.5t-114 -125.5t-79 -176t-30.5 -195z" />
<glyph unicode="A" horiz-adv-x="1488" d="M-28 29q0 23 5 37q26 0 78.5 18t67.5 39q45 67 94 187q394 947 462 1124q7 16 23 33.5t33.5 29.5t28.5 12q23 0 32 -9l465 -1188q11 -26 21.5 -53t17 -44.5t13 -34t9.5 -25.5q11 -25 36.5 -44t53 -27t47.5 -12t30 -4q9 -12 9 -42v-5q0 -25 -5 -30q-19 1 -119 8.5 t-159 7.5q-62 0 -177.5 -8t-125.5 -8q-9 8 -9 41t9 36q29 0 71.5 9.5t60.5 25.5q14 13 14 34q0 20 -36 119t-72 188l-36 90q-7 9 -13 9q-33 2 -74.5 2t-88 -1t-63.5 -1q-146 0 -237 -5q-3 0 -8.5 -3.5t-5.5 -5.5q-62 -146 -93 -233q-18 -48 -29.5 -94.5t-11.5 -64.5 q0 -20 22 -34.5t53.5 -21.5t54.5 -10t34 -3q6 -7 6 -37t-4 -40q-19 1 -40 3t-36.5 4t-34.5 3.5t-36 2.5t-39.5 2t-46.5 1q-47 0 -84 -2.5t-84.5 -7t-75.5 -6.5q-7 7 -7 38zM472 661q0 -9 5 -9q78 -7 193 -7q81 0 187 7q2 0 4 3t2 6l1 2l-191 491z" />
<glyph unicode="B" horiz-adv-x="1388" d="M91 30.5q0 27.5 7 37.5q36 0 90.5 9.5t60.5 27.5q15 48 15 191v908q0 143 -15 191q-5 13 -38 22t-63.5 12t-49.5 3q-7 10 -7 37.5t7 37.5q196 -9 296 -9q41 0 154 3.5t184 3.5q66 0 128.5 -11t123.5 -37.5t106.5 -65.5t73.5 -100.5t28 -136.5q0 -51 -18 -98.5t-45 -81.5 t-61 -63t-62.5 -46t-52.5 -26q-5 -2 -7.5 -5t-2 -5t2.5 -4q36 -2 80.5 -19.5t92.5 -50.5t87.5 -76.5t65 -104.5t25.5 -127q0 -104 -58.5 -202.5t-150.5 -157.5q-60 -39 -140 -60.5t-151.5 -27.5t-171.5 -6h-527q-7 10 -7 37.5zM524 260q0 -123 19 -146q18 -22 56.5 -28 t105.5 -6q44 0 84 8.5t80.5 31t70 58t47.5 93t18 130.5q0 55 -9 103.5t-33.5 96.5t-63.5 82t-102 55t-145 21h-128v-499zM524 846h174q102 0 161.5 74.5t59.5 189.5q0 153 -72 230.5t-199 77.5q-104 0 -114 -25q-3 -6 -4.5 -13.5t-2.5 -17.5t-1.5 -19t-1 -24t-0.5 -24.5v-28 v-28.5v-392z" />
<glyph unicode="C" horiz-adv-x="1541" d="M103 734q0 160 60 305.5t163 251t248.5 168t307.5 62.5q264 0 479 -46q1 -2 18 -84t32.5 -163t15.5 -93q0 -13 -17.5 -24.5t-36.5 -11.5q-24 0 -32 11q-5 23 -12 43.5t-23 54.5t-36.5 62t-55.5 58.5t-77.5 52t-104 35.5t-134.5 14q-80 0 -150.5 -25t-124.5 -69.5 t-97 -104.5t-70.5 -131t-42 -148.5t-14.5 -158.5q0 -108 20.5 -210.5t64 -194.5t106 -161t152.5 -109t197 -40q180 0 292 100q43 37 78 97t51 103t22 73q22 0 46 -7.5t31 -14.5q0 -20 -15 -97t-37 -154t-37 -87q-110 -50 -228.5 -77.5t-265.5 -27.5q-163 0 -306.5 58.5 t-246 158.5t-161.5 238.5t-59 292.5z" />
<glyph unicode="D" horiz-adv-x="1678" d="M91 30.5q0 27.5 7 37.5q36 0 90.5 9.5t60.5 27.5q15 48 15 191v908q0 143 -15 191q-5 13 -38 22t-63.5 12t-49.5 3q-7 10 -7 37.5t7 37.5q196 -9 296 -9q43 0 160 2.5t180 2.5q190 0 347 -53.5t265.5 -149.5t167.5 -233.5t59 -302.5q0 -174 -55.5 -315t-162 -243 t-270.5 -157.5t-374 -55.5h-613q-7 10 -7 37.5zM524 296q0 -19 1 -49t5 -70.5t10 -53.5q12 -20 59.5 -31.5t105.5 -11.5q131 0 235.5 39t181 117.5t117 203t40.5 287.5q0 141 -31.5 256.5t-87 195.5t-132.5 134.5t-166.5 79.5t-191.5 25q-44 0 -86 -6t-48 -21 q-12 -32 -12 -153v-942z" />
<glyph unicode="E" horiz-adv-x="1358" d="M91 30.5q0 27.5 7 37.5q36 0 90.5 9.5t60.5 27.5q15 48 15 191v908q0 143 -15 191q-4 10 -24 18t-45.5 12t-47.5 6.5t-34 2.5q-7 10 -7 37.5t7 37.5q182 -13 296 -13q73 0 356 9t383 9q10 -68 37 -190t29 -134q-11 -11 -48 -11q-27 0 -34 16q-37 116 -97.5 167.5 t-157.5 51.5h-192q-126 0 -136 -25q-3 -8 -5 -19t-3 -20t-1.5 -25.5t-0.5 -25.5v-30.5v-30.5v-413q0 -9 28 -14.5t68 -5.5h121q28 0 48.5 0.5t39.5 3t32 4.5t25.5 8t20.5 11.5t16 16.5t12.5 20t10.5 26.5t10 32t11 39.5q3 18 32 18q27 0 41 -14v-433q-9 -9 -39 -9 q-27 0 -34 18q-15 56 -29 88t-22.5 41.5t-21.5 16.5q-32 16 -208 16q-162 0 -162 -25v-388q0 -149 14 -173q16 -19 53 -25q32 -6 85 -6h17h141q161 0 240 63q81 67 132 223q4 14 32 14q18 0 38.5 -4t25.5 -10q-8 -21 -34 -94t-39 -110.5t-29 -91.5t-21 -89q-59 0 -335 2.5 t-447 2.5q-77 0 -178 -2.5t-121 -2.5q-7 10 -7 37.5z" />
<glyph unicode="F" horiz-adv-x="1238" d="M91 28.5q0 27.5 7 37.5q18 0 49.5 3.5t64 13t37.5 22.5q15 48 15 191v908q0 143 -15 191q-5 13 -38 22t-63.5 12t-49.5 3q-7 10 -7 37.5t7 37.5q245 -11 296 -11q73 0 356 9t383 9q10 -68 37 -190t29 -134q-11 -11 -48 -11q-27 0 -34 16q-37 116 -97.5 167.5t-157.5 51.5 h-192q-126 0 -136 -25q-3 -8 -5 -19t-3 -20t-1.5 -25.5t-0.5 -25.5v-30.5v-30.5v-417q0 -10 28 -15.5t68 -5.5h121q28 0 48.5 0.5t39.5 3t32 5t25.5 8.5t20.5 11t16 16t12.5 20.5t10.5 27t10 32t11 38.5q3 18 32 18q27 0 41 -13v-433q-9 -10 -39 -10q-27 0 -34 19 q-15 55 -29 87.5t-22.5 41.5t-21.5 17q-32 16 -208 16q-162 0 -162 -26v-383q0 -150 14 -191q6 -18 71 -28.5t102 -10.5q7 -10 7 -37.5t-7 -37.5q-182 14 -319 14q-45 0 -94.5 -2.5t-112.5 -6.5t-87 -5q-7 10 -7 37.5z" />
<glyph unicode="G" horiz-adv-x="1646" d="M100 734q0 158 60.5 302.5t163.5 251t248.5 170t307.5 63.5q264 0 479 -46q0 -2 16.5 -84.5t32 -163t15.5 -92.5q0 -13 -17 -24.5t-36 -11.5q-23 0 -32 11q-5 23 -11.5 43.5t-22 54.5t-36 62t-55.5 59t-77 52t-103.5 35t-134.5 14q-70 0 -133.5 -19t-113.5 -53t-91.5 -81 t-71.5 -103.5t-50.5 -120t-30.5 -130.5t-10 -136q0 -90 15 -176.5t43.5 -166t74 -146t103.5 -116t135 -77t165 -27.5q127 0 228 50q18 7 18 32v248v27v27t-0.5 22t-2 24.5t-3.5 20.5t-6 23q-5 18 -41 30t-66 15t-52 3q-7 3 -9 34.5t6 40.5q35 -2 100 -5.5t117.5 -6 t97.5 -2.5q41 0 85.5 2.5t98.5 6t85 5.5q7 -16 7 -44t-7 -31q-25 0 -75.5 -10.5t-61.5 -24.5q-18 -30 -18 -132v-203q0 -19 9 -45.5t9 -34.5q0 -20 -63 -50q-46 -20 -76.5 -33t-83 -30t-100.5 -26.5t-115 -17t-141 -7.5q-163 0 -307 58.5t-246 158.5t-161 238.5t-59 292.5z " />
<glyph unicode="H" horiz-adv-x="1678" d="M91 29.5q0 28.5 7 38.5q33 0 89 12t62 29q15 48 15 192v898q0 144 -15 192q-6 18 -62 29.5t-89 11.5q-7 10 -7 38.5t7 38.5q182 -13 296 -13q112 0 295 13q6 -10 6 -38.5t-6 -38.5q-18 0 -49.5 -4.5t-64.5 -14.5t-37 -22q-14 -41 -14 -192v-360l3 -7q301 -7 317 -7 q34 0 307 7q5 5 5 9v358q0 144 -16 192q-6 18 -62 29.5t-88 11.5q-7 10 -7 38.5t7 38.5q182 -13 296 -13q112 0 294 13q7 -10 7 -38.5t-7 -38.5q-32 0 -88 -11.5t-62 -29.5q-14 -41 -14 -192v-898q0 -151 14 -192q6 -17 62 -29t88 -12q7 -10 7 -38.5t-7 -38.5 q-182 14 -296 14q-112 0 -294 -14q-7 10 -7 38.5t7 38.5q32 0 88 12t62 29q16 48 16 192v415q0 2 -1 4.5t-2 3.5l-2 1q-287 7 -307 7q-297 0 -320 -12v-6v-413q0 -151 14 -192q6 -17 62 -29t89 -12q6 -10 6 -38.5t-6 -38.5q-183 14 -297 14q-112 0 -294 -14q-7 10 -7 38.5z " />
<glyph unicode="I" horiz-adv-x="786" d="M91 28.5q0 27.5 7 37.5q18 0 49.5 3.5t64 13t37.5 22.5q15 48 15 191v908q0 143 -15 191q-4 10 -24 18t-45.5 12t-47.5 6.5t-34 2.5q-7 10 -7 37.5t7 37.5q182 -13 296 -13q112 0 295 13q6 -10 6 -37.5t-6 -37.5q-34 0 -89.5 -10.5t-61.5 -28.5q-14 -41 -14 -191v-908 q0 -150 14 -191q6 -18 61.5 -28.5t89.5 -10.5q6 -10 6 -37.5t-6 -37.5q-183 14 -297 14q-112 0 -294 -14q-7 10 -7 37.5z" />
<glyph unicode="J" horiz-adv-x="754" d="M-262 -392q0 56 37 98.5t90 42.5q31 0 58 -18.5t61 -51.5q62 -62 100 -62q83 0 124 162.5t41 507.5v917q0 150 -14 191q-6 18 -62.5 28.5t-90.5 10.5q-7 10 -7 37.5t7 37.5q182 -13 299 -13q109 0 292 13q6 -10 6 -37.5t-6 -37.5q-34 0 -89.5 -10.5t-61.5 -28.5 q-14 -41 -14 -191v-908q0 -246 -73 -427.5t-210 -278t-323 -96.5q-33 0 -76 13.5t-61 27.5q-27 36 -27 73z" />
<glyph unicode="K" horiz-adv-x="1573" d="M91 29.5q0 28.5 7 38.5q33 0 89 12t62 29q15 48 15 192v898q0 144 -15 192q-6 18 -62 29.5t-89 11.5q-7 10 -7 38.5t7 38.5q182 -13 296 -13q112 0 295 13q6 -10 6 -38.5t-6 -38.5q-18 0 -49.5 -4.5t-64.5 -14.5t-37 -22q-14 -41 -14 -192v-424q119 89 247 217l67.5 67.5 l56.5 56.5t41.5 42.5t42 45.5t37 45t46.5 60q13 16 20.5 37t7.5 36q0 50 -128 50q-6 11 -6.5 36.5t4.5 40.5q23 -1 66.5 -3.5t74.5 -4.5t70.5 -3.5t68.5 -1.5q92 0 265 13q4 -9 3.5 -39.5t-8.5 -35.5h-5q-22 -3 -41.5 -6t-58 -12.5t-74.5 -29t-62 -45.5q-43 -47 -118.5 -123 t-182 -180.5t-176.5 -175.5q-16 -16 0 -37q20 -25 111.5 -139.5t124.5 -155.5t96 -118t99.5 -117.5t61.5 -64.5q129 -150 312 -162q5 -10 5 -30v-12q-2 -29 -5 -35q-56 -1 -103 -1q-134 0 -209 10q-75 3 -139 40t-112 95q-23 26 -97.5 117t-181 221t-180.5 218q-4 7 -20 7 q-11 0 -21 -9v-388q0 -151 14 -192q6 -17 62 -29t89 -12q6 -10 6 -38.5t-6 -38.5q-183 14 -297 14q-112 0 -294 -14q-7 10 -7 38.5z" />
<glyph unicode="L" horiz-adv-x="1304" d="M91 30.5q0 27.5 7 37.5q36 0 90.5 9.5t60.5 27.5q15 48 15 191v908q0 143 -15 191q-4 10 -24 18t-45.5 12t-47.5 6.5t-34 2.5q-7 10 -7 37.5t7 37.5q182 -13 296 -13q112 0 295 13q6 -10 6 -37.5t-6 -37.5q-34 0 -89.5 -10.5t-61.5 -28.5q-14 -41 -14 -191v-908 q0 -149 14 -173q16 -19 53 -25q32 -6 85 -6h17h141q161 0 240 63q81 67 132 223q4 14 32 14q18 0 38.5 -4t25.5 -10q-8 -21 -34 -94t-39 -110.5t-29 -91.5t-21 -89q-59 0 -335 2.5t-447 2.5q-77 0 -178 -2.5t-121 -2.5q-7 10 -7 37.5z" />
<glyph unicode="M" horiz-adv-x="2070" d="M48 26q0 23 7 38q37 0 105.5 17t83.5 47q9 18 17 69t10 88q5 96 9 212t7.5 218.5t7 208.5t5.5 180.5t3.5 135.5t2.5 73v13.5t-0.5 17t-1 14t-2.5 16t-6 12.5q-9 19 -66 33.5t-89 14.5q-6 8 -5 39.5t5 35.5q38 -1 110.5 -7t131.5 -6q18 0 37.5 0.5t36 1.5t35 2.5t34 3 t34.5 3t35 2.5q24 -63 99.5 -239t183 -425.5t173.5 -406.5q0 -5 9 -5q1 0 4 2t5.5 4.5t2.5 5.5q138 350 307 795q8 21 17.5 46.5t17.5 50t16.5 49.5t15 46t12 37.5t7.5 26.5l3 9q92 -9 212 -9q44 0 263 13q3 -7 6.5 -39t-0.5 -38q-25 0 -76 -10t-63 -22q-20 -24 -20 -91 q1 -49 6.5 -244t11 -398.5t9.5 -333.5q1 -13 2 -43t2 -43.5t3 -37.5t4.5 -38.5t6.5 -32t10 -31.5q8 -20 63.5 -29.5t88.5 -9.5q7 -14 8 -41v-10q0 -19 -3 -26q-13 1 -123 8.5t-169 7.5q-61 0 -174.5 -7.5t-140.5 -8.5q-5 5 -6.5 34t4.5 43q32 0 85 8.5t68 23.5 q9 10 14.5 37.5t5.5 51.5q0 13 -2 64t-2 71q-23 839 -25 887q0 4 -1 11t-2.5 17t-5.5 17t-10 7q-5 0 -11 -16q-49 -123 -225.5 -583.5t-216.5 -563.5q-11 -25 -41 -64t-50 -41q-7 0 -21 5l-533 1263q-27 -928 -30 -1026q0 -77 9 -114q9 -26 81.5 -40.5t107.5 -14.5 q7 -9 8 -38.5t-3 -38.5q-25 1 -114.5 8.5t-147.5 7.5q-60 0 -149.5 -7.5t-126.5 -8.5q-7 7 -7 35z" />
<glyph unicode="N" horiz-adv-x="1753" d="M75 29.5q0 26.5 7 36.5q34 0 101 15t79 38q25 47 25 193v899q0 130 -32 180q-12 18 -73 31.5t-91 13.5q-8 10 -8.5 38.5t6.5 37.5q23 -2 76.5 -5t92 -5t79.5 -2q105 0 210 9q35 -61 134.5 -190.5t208.5 -261.5t247.5 -302.5t223.5 -282.5q2 9 2 112v579q0 175 -25 226 q-10 20 -75 33.5t-102 13.5q-7 7 -8 34.5t5 41.5q31 -2 120.5 -9t148.5 -7t148.5 7t120.5 9q6 -18 6 -38q0 -18 -8 -38q-35 0 -104 -13t-81 -37q-22 -45 -22 -219v-850q0 -82 9 -319q-9 -9 -50 -9q-16 0 -36.5 14t-36.5 38l-960 1199v-930q0 -146 22 -189q9 -21 78.5 -37 t102.5 -16q9 -12 9 -37.5t-5 -39.5q-21 1 -118 8.5t-155 7.5q-60 0 -143 -7t-122 -9q-7 12 -7 38.5z" />
<glyph unicode="O" horiz-adv-x="1714" d="M100 748q0 104 28.5 204.5t78.5 185t121 156.5t154.5 121.5t179.5 77.5t195 28q85 0 168.5 -19.5t158 -57t141 -89.5t119.5 -118.5t92 -142.5t60 -164.5t21 -181.5q0 -105 -29 -205t-79.5 -184.5t-121.5 -155.5t-154.5 -120.5t-180 -77.5t-195.5 -28t-195 27t-179.5 75.5 t-154 119t-121 154.5t-79 185.5t-28.5 209.5zM397 812q0 -90 13.5 -177.5t39.5 -171.5t68.5 -155t97 -125t127.5 -84.5t158 -30.5q88 0 160 36.5t119.5 96.5t79.5 140.5t46 166t14 176.5q0 89 -13.5 177t-40 172t-69.5 155.5t-97.5 125.5t-128 85t-157.5 31 q-88 0 -160 -36.5t-119 -97t-79 -141.5t-45.5 -166.5t-13.5 -176.5z" />
<glyph unicode="P" horiz-adv-x="1292" d="M91 28.5q0 27.5 7 37.5q18 0 49.5 3.5t64 13t37.5 22.5q15 48 15 191v908q0 143 -15 191q-5 13 -38 22t-63.5 12t-49.5 3q-7 10 -7 37.5t7 37.5q196 -9 301 -9q40 0 152.5 3.5t184.5 3.5q75 0 147 -16.5t135.5 -50.5t112 -81t77 -112.5t28.5 -140.5q0 -106 -37 -194 t-101 -147t-151 -92t-185 -33q-82 0 -130 37q-7 7 -17.5 25.5t-10.5 29.5q0 6 3 12t6 6q31 -9 89 -9q113 0 186.5 87t73.5 234q0 77 -21 142t-60 113t-99 75.5t-134 27.5q-104 0 -114 -25q-3 -6 -4.5 -13.5t-2.5 -17.5t-1.5 -19t-1 -24t-0.5 -24.5v-28v-28.5v-942 q0 -150 14 -191q6 -18 61.5 -28.5t89.5 -10.5q6 -10 6 -37.5t-6 -37.5q-183 14 -297 14q-112 0 -294 -14q-7 10 -7 37.5z" />
<glyph unicode="Q" horiz-adv-x="1716" d="M100 748q0 104 28.5 204.5t78.5 185t121 156.5t154.5 121.5t179.5 77.5t195 28q85 0 168.5 -19.5t158 -57t141 -89.5t119.5 -118.5t92 -142.5t60 -164.5t21 -181.5q0 -127 -42 -246.5t-114.5 -214t-171 -166t-211.5 -107.5q53 -26 111.5 -60t94.5 -54t82 -40t99 -29 t120 -9q31 0 61 2.5t46.5 5.5t33 6.5t18.5 3.5q12 0 27 -6.5t21 -15.5q2 -5 2 -10q-242 -127 -421 -127q-69 0 -139.5 25.5t-135.5 65.5t-128.5 82.5t-141 84t-151.5 61.5q-121 31 -226.5 100t-183 165.5t-122.5 221.5t-45 261zM397 812q0 -90 13.5 -177.5t39.5 -171.5 t68.5 -155t97 -125t127.5 -84.5t158 -30.5q88 0 160 36.5t119.5 96.5t79.5 140.5t46 166t14 176.5q0 89 -13.5 177t-40 172t-69.5 155.5t-97.5 125.5t-128 85t-157.5 31q-88 0 -160 -36.5t-119 -97t-79 -141.5t-45.5 -166.5t-13.5 -176.5z" />
<glyph unicode="R" horiz-adv-x="1502" d="M91 28.5q0 27.5 7 37.5q18 0 49.5 3.5t64 13t37.5 22.5q15 48 15 191v908q0 143 -15 191q-5 13 -38 22t-63.5 12t-49.5 3q-7 10 -7 37.5t7 37.5q196 -9 301 -9q40 0 152.5 3.5t184.5 3.5q47 0 92 -6.5t87 -19.5t80.5 -32.5t71.5 -44.5t60 -57.5t46 -69.5t29.5 -82 t10.5 -94q0 -63 -30 -125.5t-77 -110t-100.5 -83t-104.5 -50.5q40 -61 82 -120t83.5 -116t68.5 -92.5t67.5 -89.5l49.5 -66q132 -168 319 -180q5 -10 5 -26q0 -7 -1 -15q-3 -27 -6 -34q-47 -1 -89 -1q-135 0 -210 10q-75 3 -140 41t-109 96q-19 24 -168.5 234t-198.5 283 q-7 10 -22.5 20t-31.5 10h-76v-388q0 -150 14 -191q6 -18 61.5 -28.5t89.5 -10.5q6 -10 6 -37.5t-6 -37.5q-183 14 -297 14q-112 0 -294 -14q-7 10 -7 37.5zM524 764h112q81 0 150 37t111 105.5t42 153.5q0 60 -9 111.5t-30.5 97.5t-54.5 78.5t-83.5 51.5t-113.5 19 q-104 0 -114 -25q-3 -6 -4.5 -13.5t-2.5 -17.5t-1.5 -19t-1 -24t-0.5 -24.5v-28v-28.5v-474z" />
<glyph unicode="S" horiz-adv-x="1167" d="M109 410q5 9 29 19.5t35 10.5q24 0 28 -20q6 -36 21 -77.5t45.5 -91.5t71 -89.5t102.5 -66.5t134 -27q32 0 62 7t58 20t50.5 33.5t39.5 47t26.5 62t9.5 77.5q0 28 -6 54.5t-19.5 50.5t-26.5 44t-36.5 41t-41 35.5t-47 34t-47 30.5t-49.5 30.5t-46 27.5q-6 4 -16 10 q-37 23 -56.5 35.5t-54.5 36.5t-54.5 40t-48.5 42t-45.5 47t-36 50.5t-29.5 58t-17 63t-7 71.5q0 86 40 163t105 129.5t149 83t171 30.5q48 0 96.5 -6t80 -13t91 -22t97.5 -23q15 -130 25 -351q-3 -16 -25 -16q-60 0 -64 21q-5 37 -20.5 79t-42.5 85t-61 77.5t-81 56 t-98 21.5q-107 0 -164.5 -60t-57.5 -161q0 -24 6 -47.5t13.5 -42.5t24 -41t28.5 -37t36.5 -36l38.5 -33t43.5 -33t43 -29.5t46.5 -30t44 -28.5q15 -10 47 -30q29 -18 44.5 -28t44 -29.5t45 -33t41.5 -34.5t40 -39t34 -41.5t30 -47.5t21.5 -51.5t15 -58t4.5 -63.5 q0 -91 -41 -171t-109 -133.5t-155.5 -84.5t-179.5 -31q-68 0 -155.5 12.5t-129.5 21t-139 30.5q-17 79 -32.5 202t-18.5 167z" />
<glyph unicode="T" horiz-adv-x="1434" d="M23 1135q17 77 61 406q7 4 16 4q1 -1 2 -1q10 0 21 -3q9 -2 37 -13t64.5 -19.5t81.5 -8.5h823q44 0 81.5 8.5t66.5 19.5t39 13q12 2 21 2.5t15 -2.5q47 -353 59 -406q-5 -5 -22.5 -11.5t-31.5 -6.5q-21 0 -28 14q-10 58 -31.5 108.5t-51 88.5t-67.5 59.5t-80 21.5h-249 v-1113q0 -150 14 -191q6 -18 61.5 -28.5t89.5 -10.5q6 -10 6 -37.5t-6 -37.5q-183 14 -297 14t-296 -14q-7 10 -7 37.5t7 37.5q34 0 90.5 10.5t62.5 28.5q16 48 16 191v1113h-256q-83 0 -146 -79t-84 -199q-7 -14 -25 -14q-15 0 -33.5 6.5t-23.5 11.5z" />
<glyph unicode="U" horiz-adv-x="1659" d="M55 1471.5q0 27.5 7 37.5q182 -13 298 -13q112 0 294 13q7 -10 7 -37.5t-7 -37.5q-34 0 -90 -10.5t-62 -28.5q-14 -41 -14 -191v-490q0 -136 19 -232t65 -172q96 -175 329 -175q65 0 122 16.5t109.5 56t90 99.5t60 151.5t23.5 207.5v501q0 165 -27 219q-7 15 -42.5 27 t-70 17.5t-53.5 5.5q-8 12 -8 37t5 36q19 -1 67.5 -4.5t69.5 -5t58.5 -2.5t73.5 -1q60 0 144.5 6t113.5 7q8 -11 8 -36q0 -22 -8 -37q-37 0 -101.5 -13t-76.5 -37q-27 -61 -27 -216v-529q0 -135 -31 -244.5t-85.5 -185.5t-132 -127t-168 -74.5t-194.5 -23.5 q-137 0 -252.5 44t-192.5 130q-148 162 -148 469v575v26.5v26.5v23.5t-0.5 23.5t-1 21.5t-1.5 20.5t-2.5 17.5t-3.5 17.5t-5 14q-6 18 -62 28.5t-90 10.5q-7 10 -7 37.5z" />
<glyph unicode="V" horiz-adv-x="1511" d="M-12 1472q0 31 5 37q192 -13 294 -13q121 0 304 13q5 -10 4.5 -39t-7.5 -36q-12 0 -31.5 -2.5t-45.5 -9t-44 -21.5t-18 -35q0 -38 48 -162q43 -108 127.5 -320.5t145 -365t62.5 -155.5q3 6 30 71t68.5 167.5t86 211.5t86.5 214t64 163q46 122 46 173q0 20 -21.5 35 t-52 22.5t-54.5 10.5t-38 3q-9 7 -8.5 36t8.5 39q17 -1 63.5 -4.5t66.5 -5t55.5 -2.5t69.5 -1q60 0 138 6t101 7q6 -9 6 -32v-7q-1 -29 -8 -36q-32 0 -82 -12t-71 -38q-40 -48 -102 -210q-139 -342 -459 -1103q-11 -24 -29 -44t-36.5 -30.5t-32.5 -10.5q-6 0 -10 4.5 t-9.5 14.5t-7.5 13q-44 114 -238 590t-227 559q-63 153 -91 203q-18 32 -68.5 48t-82.5 16q-5 7 -5 38z" />
<glyph unicode="W" horiz-adv-x="2115" d="M-9 1468q0 33 7 41q196 -13 301 -13q102 0 285 13q5 -10 4.5 -39t-7.5 -36q-9 0 -23 -1.5t-35 -5.5t-38.5 -11t-30 -20.5t-12.5 -29.5q0 -7 2.5 -18.5t7.5 -28.5t10 -32t13 -39.5t13 -41.5q23 -71 62 -190.5t68.5 -211.5t61 -190t47.5 -153q25 79 88 271t139.5 420.5 t92.5 277.5q10 31 33 55t42 24q14 0 27 -36q72 -190 202 -545.5t183 -512.5q20 68 68 224.5t94.5 311.5t70.5 239q36 130 36 173q0 20 -21.5 35t-52 22.5t-54.5 10.5t-38 3q-8 7 -7.5 36t7.5 39q192 -13 258 -13q60 0 138 6t101 7q6 -9 6 -32v-7q-1 -29 -8 -36 q-27 0 -78 -13t-75 -37q-47 -53 -87 -180q-106 -346 -353 -1122q-12 -37 -40 -66.5t-49 -29.5q-18 0 -34 32q-38 112 -190 518t-189 513q-27 -90 -79 -248.5t-119 -362.5t-114 -351q-8 -28 -35.5 -64.5t-46.5 -36.5q-18 0 -34 32q-33 105 -192.5 581.5t-195.5 588.5 q-42 133 -80 185q-19 30 -65.5 45.5t-77.5 15.5q-7 7 -7 34z" />
<glyph unicode="X" horiz-adv-x="1573" d="M-19 19q1 6 1 11q2 28 7 36q9 0 25 1.5t46.5 7t59 15.5t59 29.5t49.5 44.5q52 66 241.5 322.5t191.5 259.5l-321 490q-40 63 -72 103t-65 61q-25 15 -70 24.5t-71 9.5q-9 0 -9 33.5t9 41.5q39 -1 102.5 -5t116.5 -6t102 -2q50 0 102.5 2t119 6t88.5 5q4 -10 3.5 -42.5 t-7.5 -32.5q-11 0 -26 -2t-33.5 -6.5t-34 -11.5t-26 -18t-10.5 -23q0 -26 22 -60l260 -394q24 30 61.5 79t64.5 84t60 78.5t55.5 74.5t41.5 60t27 46q1 3 3.5 9t4.5 11t2 9q0 23 -45 42.5t-117 19.5q-7 0 -9.5 33.5t4.5 43.5q130 -13 273.5 -13t262.5 13q6 -12 6.5 -41 t-8.5 -36q-14 0 -33.5 -3t-55.5 -11.5t-73.5 -32t-65.5 -58.5q-31 -39 -194 -236t-210 -259q53 -81 154 -232.5t195 -290.5t102 -147q26 -34 70.5 -57t83 -31t70.5 -8q8 -12 8 -43q0 -24 -6 -32q-24 1 -91 5t-117.5 6.5t-92.5 2.5q-75 0 -196 -6.5t-150 -7.5q-9 8 -8 41.5 t10 33.5q10 0 31 5t43.5 13t39 21t16.5 27q0 12 -9 25l-324 495q-83 -110 -197 -267.5t-147 -215.5q-16 -32 -16 -37q0 -26 53.5 -46t126.5 -20q6 -10 8.5 -37t-1.5 -38q-240 14 -281 14q-53 0 -100.5 -2.5t-101.5 -6.5t-83 -5q-5 9 -5 28z" />
<glyph unicode="Y" horiz-adv-x="1393" d="M-17 1467q0 31 8 42q201 -13 305 -13q126 0 308 13q6 -11 6 -39.5t-8 -35.5q-17 0 -36 -2t-44.5 -8.5t-42 -20.5t-16.5 -35q0 -17 23 -55l291 -520q29 45 88.5 153t116 214.5t90.5 173.5q9 27 9 43q0 20 -54 37.5t-113 17.5q-6 6 -6.5 38.5t4.5 38.5q23 -1 63.5 -4.5 t61.5 -5t54 -2.5t67 -1q49 0 90 2t86 6t77 5q6 -9 6 -36q0 -2 -1 -5q0 -30 -7 -36q-141 0 -185 -73q-84 -139 -210 -355t-180 -320q-11 -21 -11 -59v-329q0 -150 14 -191q3 -10 23 -18t45.5 -12t47.5 -6.5t34 -2.5q7 -10 7 -37.5t-7 -37.5q-182 14 -296 14q-112 0 -294 -14 q-7 10 -7 37.5t7 37.5q34 0 89 10.5t61 28.5q16 48 16 191v333q0 19 -16 55q-42 81 -101 188.5t-120 216.5t-82 147q-20 36 -37.5 60.5t-33.5 41.5t-41 39q-24 27 -68.5 42t-72.5 15q-8 7 -8 33z" />
<glyph unicode="Z" horiz-adv-x="1450" d="M60 36q0 3 2 5l934 1366h-485q-49 0 -89 -11t-70.5 -32.5t-54.5 -47.5t-43.5 -63t-33.5 -71.5t-28 -80.5q-8 -11 -30 -11q-17 0 -37 4t-25 10q50 183 78 414q28 -6 116 -12t128 -6h381q90 0 179.5 3.5t143.5 7t180 12.5q8 -2 20 -24.5t12 -37.5q-1 -5 -97 -147.5 t-231.5 -342t-271.5 -398.5t-230 -338l-95 -139h542q135 0 217 82q27 27 49.5 63t36.5 67.5t32 81.5q4 11 32 11q17 0 36 -5.5t26 -12.5q-14 -46 -34 -107t-33.5 -102t-27 -89t-21.5 -85h-1156q-20 0 -38 16q-14 12 -14 20z" />
<glyph unicode="[" horiz-adv-x="645" d="M176 -244v1888q0 17 9.5 34.5t33.5 17.5q74 0 145.5 3t123 6.5t87 8t52.5 7.5q1 0 3 -2t4 -7t2 -11q0 -11 -4 -21.5t-9 -17.5t-10 -9q-34 -14 -89.5 -26.5t-111 -21t-59.5 -9.5v-1792q8 -2 43.5 -7.5t70.5 -11.5t77.5 -16.5t68.5 -21.5q8 -4 15.5 -18t7.5 -30 q0 -6 -2 -11t-4 -7t-3 -2q-38 8 -152 16.5t-256 8.5q-24 0 -33.5 17.5t-9.5 34.5z" />
<glyph unicode="\" horiz-adv-x="934" d="M66 1715q13 16 43 16t50 -11t26 -26q679 -1731 679 -1744q-1 -4 -6 -8t-13 -7t-19 -5.5t-21 -2.5q-15 0 -33 10.5t-24 26.5q-95 243 -330.5 850t-351.5 901z" />
<glyph unicode="]" horiz-adv-x="645" d="M9 -301q0 16 7.5 30t15.5 18q34 14 89.5 26t111 21t59.5 10v1792q-4 1 -59.5 9.5t-111 21t-89.5 26.5q-5 2 -10 9t-9 17.5t-4 21.5q0 6 2 11t4 7t3 2q39 -8 153 -16.5t255 -8.5q24 0 34 -17.5t10 -34.5v-1888q0 -17 -10 -34.5t-34 -17.5q-141 0 -255 -8.5t-153 -16.5 q-1 0 -3 2t-4 7t-2 11z" />
<glyph unicode="^" horiz-adv-x="889" d="M114 999q162 269 271 469q5 9 11.5 16t13.5 10.5t14 3.5t14.5 -3.5t15 -10.5t11.5 -16q134 -243 269 -469q0 -9 -3.5 -16t-9.5 -12t-13 -8t-13 -3q-52 52 -120 127.5t-109 125.5l-42 50q-151 -187 -269 -303q-13 0 -27 11.5t-14 27.5z" />
<glyph unicode="_" horiz-adv-x="1140" d="M27 -75q12 105 35 105h1023q9 0 9 -12q0 -19 -22 -102q-2 -6 -5.5 -9.5t-6.5 -4.5h-2h-1015q-1 0 -4 0.5t-7.5 6.5t-4.5 16z" />
<glyph unicode="`" horiz-adv-x="672" d="M173 1505q0 6 4.5 15t14.5 19.5t30.5 17.5t48.5 7q60 0 78 -18q38 -45 90.5 -120.5t87 -132t34.5 -62.5q0 -7 -4.5 -15.5t-12 -14.5t-15.5 -6q-9 0 -65 36t-121 85t-117.5 103.5t-52.5 85.5z" />
<glyph unicode="a" horiz-adv-x="1030" d="M75 251q0 64 37 115.5t82 66.5q191 65 410 153q14 16 14 52v60q0 85 -48.5 154t-118.5 69q-57 0 -85.5 -41.5t-44.5 -122.5q-22 -105 -116 -105q-41 0 -69.5 29.5t-28.5 70.5q0 15 6.5 37t16.5 39q22 21 63.5 48.5t99 58.5t128.5 52t135 21q80 0 147.5 -41.5 t108.5 -117.5t41 -170v-449q0 -47 15.5 -73.5t45.5 -26.5q13 0 25.5 3.5t20 7t16 9t9.5 5.5q11 -3 11 -27t-9 -39q-34 -32 -94.5 -67.5t-108.5 -35.5q-51 0 -97 41t-60 92q-28 -29 -122 -83t-147 -54q-119 0 -201 80.5t-82 188.5zM324 274q0 -66 45 -108.5t103 -42.5 q32 0 67.5 14t57 30.5t21.5 26.5v314q-13 -4 -57.5 -20t-75 -28t-50.5 -22q-54 -27 -82.5 -70t-28.5 -94z" />
<glyph unicode="b" horiz-adv-x="1185" d="M0 1450v9.5v8.5q0 10 2 17t5 8q123 13 226.5 39.5t154.5 49.5q9 0 19 -12.5t10 -23.5q-25 -87 -25 -214v-411q0 -6 0.5 -10t1.5 -11t4 -6.5t8 2.5q40 32 118.5 73t132.5 41q78 0 149 -26t124.5 -71.5t93 -105.5t60 -130.5t20.5 -142.5q0 -98 -31.5 -185.5t-87 -153.5 t-129 -114.5t-161 -73.5t-180.5 -25q-45 0 -129.5 22t-98.5 23q-27 5 -43.5 6.5t-36.5 0t-36 -8.5q-7 0 -24 21.5t-17 31.5q27 64 27 221v973q0 82 -13 114q-10 20 -53.5 30.5t-85.5 10.5q-2 0 -3.5 6.5t-1.5 16.5zM392 223q0 -42 25 -77.5t67 -55t91 -19.5q74 0 137 56.5 t97.5 142t34.5 175.5q0 207 -81.5 311t-217.5 104q-42 0 -84 -18.5t-60 -38.5q-9 -10 -9 -23v-557z" />
<glyph unicode="c" horiz-adv-x="989" d="M80 449q0 111 51 216t132.5 179.5t185 120t205.5 45.5q147 0 219 -48q32 -37 32 -86q0 -54 -32 -90t-77 -36q-25 0 -47 14t-51 44.5t-35 35.5q-34 29 -67.5 43t-75.5 14q-40 0 -78.5 -28.5t-66.5 -75t-45.5 -111.5t-17.5 -134q0 -61 10.5 -114t28.5 -93t43.5 -72.5 t55.5 -54.5t65 -37t71.5 -21.5t74.5 -6.5q147 0 249 114q7 -2 15 -13.5t8 -23.5q0 -25 -10 -43q-13 -22 -35 -46.5t-57.5 -53.5t-76 -51.5t-95 -38t-110.5 -15.5q-130 0 -237.5 60t-169.5 167.5t-62 239.5z" />
<glyph unicode="d" horiz-adv-x="1215" d="M82 463q0 71 21 137.5t56.5 120t82.5 100t99.5 80.5t107.5 58.5t107 36.5t96 12q64 0 125 -14q12 0 12 50v228q0 82 -14 114q-9 20 -52 30.5t-85 10.5q-1 0 -2.5 6.5t-2 16t-0.5 19t1.5 16.5t3.5 8q124 13 228.5 40t154.5 49q7 0 13.5 -6t10.5 -14.5t4 -15.5 q-23 -87 -23 -214v-1022q0 -41 0.5 -63.5t5 -50.5t12.5 -41q18 -32 119 -32q4 -4 4 -30q0 -8 -3.5 -21t-9.5 -17q-56 -4 -139 -22.5t-143 -34.5t-65 -16q-8 0 -13 15t-5 35v59q0 14 -5 13q-1 0 -2 -1q-40 -36 -128.5 -78.5t-163.5 -42.5q-79 0 -153.5 37t-130.5 100.5 t-90 153.5t-34 190zM340 538q0 -87 19 -162.5t53.5 -131t87 -87.5t116.5 -32q58 0 115.5 32t57.5 57v579q0 37 -65 73.5t-145 36.5q-76 0 -132 -53t-81.5 -134t-25.5 -178z" />
<glyph unicode="e" horiz-adv-x="1014" d="M82 456q0 108 42.5 211t109.5 177t154 119t173 45q69 0 127 -16.5t97 -44t68 -61t45.5 -71t24 -70.5t7.5 -63q0 -46 -14.5 -73.5t-42.5 -29.5q-131 -10 -563 -20v-10q0 -69 14 -127q14 -62 40.5 -105.5t60.5 -76.5t74 -52t79 -28.5t79 -9.5q45 0 87 12t74.5 31t54.5 37 t39 37q7 -2 15 -13.5t8 -23.5q0 -20 -12 -43q-18 -28 -49 -59.5t-77.5 -66.5t-111 -57t-133.5 -22q-131 0 -238 59t-169.5 168t-62.5 247zM319 645q33 0 170.5 3t162.5 6q20 0 30.5 12.5t10.5 33.5q0 33 -9 69t-27 71t-51.5 58t-76.5 23q-46 0 -84.5 -25t-61 -61t-38 -76 t-21.5 -70t-5 -44z" />
<glyph unicode="f" horiz-adv-x="756" d="M57 28.5q0 27.5 7 37.5q18 0 48 3.5t62 13t36 22.5q13 41 13 191v584h-145q-12 3 -12 25q12 21 66 75h91v23q0 67 16 134t43.5 124t63 108.5t76 91.5t81.5 69.5t81 45t73 15.5q48 0 73 -6t54 -21q22 -13 38.5 -34.5t16.5 -47.5q0 -37 -15 -66.5t-38 -44t-50 -14.5 q-16 0 -32 6t-26 13t-26.5 19.5t-24.5 18.5q-38 27 -78 27q-42 0 -70 -55t-28 -146q0 -187 5 -260h269q11 0 11 -27q0 -16 -12 -37.5t-29 -35.5h-234v-584q0 -150 13 -191q6 -18 61.5 -28.5t89.5 -10.5q7 -10 7 -37.5t-7 -37.5q-183 14 -283 14q-96 0 -278 -14 q-7 10 -7 37.5z" />
<glyph unicode="g" horiz-adv-x="1073" d="M52 -237q0 34 22 69.5t57.5 65.5t70 52.5t69.5 40.5q-62 18 -112 81t-50 138q9 20 44.5 52t75.5 60t74 47q-91 43 -145.5 123.5t-54.5 170.5q0 69 30.5 132t82.5 110t126.5 75t156.5 28q132 0 228 -55q8 -4 13.5 -6.5t7 -3.5t4 -2t7.5 -2l265 32q23 -9 23 -23 q0 -9 -9 -31.5t-22.5 -44.5t-23.5 -28q-19 1 -50.5 3.5t-52.5 4t-34 3.5q-14 0 -14 -7q57 -80 57 -182q0 -65 -30.5 -127t-82.5 -109.5t-127.5 -76.5t-158.5 -29q-64 0 -123 18q-68 -49 -68 -87q0 -22 36 -45t87 -23q191 0 283 -2q70 -2 133 -26t104.5 -59.5t66 -77.5 t24.5 -81q0 -69 -32 -136t-89.5 -122.5t-132 -98t-165 -66.5t-183.5 -24q-104 0 -191 31t-142 93t-55 145zM267 -153q0 -112 79 -178t213 -66q67 0 125.5 19.5t97 50.5t60.5 69t22 76q0 66 -74 113.5t-204 47.5q-186 0 -230 -6q-34 -23 -61.5 -56t-27.5 -70zM328 684 q0 -69 20 -132t64.5 -107t105.5 -44q44 0 75.5 21.5t48 58.5t24 77.5t7.5 86.5q0 52 -11 101t-31.5 91t-57 67.5t-83.5 25.5q-44 0 -76.5 -21.5t-50.5 -58.5t-26.5 -78t-8.5 -88z" />
<glyph unicode="h" horiz-adv-x="1260" d="M39 28.5q0 27.5 7 37.5q33 0 85 10.5t58 28.5q16 48 16 191v976q0 82 -13 114q-10 20 -53.5 30.5t-86.5 10.5q-2 0 -3 15.5t0.5 32t5.5 18.5q85 9 168.5 26.5t133 33.5t78.5 29q10 0 20 -12.5t10 -23.5q-23 -105 -23 -214v-493q0 -1 -0.5 -4t0.5 -4t3 -1t11 9 q49 55 145 112t170 57q75 0 128.5 -21t87.5 -58.5t53 -102.5t26.5 -142t7.5 -187v-201q0 -150 14 -191q5 -18 58.5 -28.5t86.5 -10.5q7 -10 7 -37.5t-7 -37.5q-182 14 -278 14q-82 0 -264 -14q-7 10 -7 37.5t7 37.5q31 0 78.5 10.5t53.5 28.5q14 41 14 191v206q0 70 -5 122 t-17.5 96t-33.5 71t-54 42t-77 15q-41 0 -91.5 -24.5t-83.5 -54.5t-33 -46v-427q0 -150 14 -191q6 -18 55.5 -28.5t81.5 -10.5q7 -10 7 -37.5t-7 -37.5q-183 14 -272 14q-93 0 -275 -14q-7 10 -7 37.5z" />
<glyph unicode="i" horiz-adv-x="670" d="M65 880q0 20 6 23q103 10 207.5 41t177.5 68q10 -1 21 -16t11 -22q-4 -16 -11 -69.5t-7 -72.5v-109v-427q0 -150 13 -191q6 -18 55.5 -28.5t81.5 -10.5q7 -10 7 -37.5t-7 -37.5q-182 14 -271 14q-94 0 -276 -14q-7 10 -7 37.5t7 37.5q18 0 47.5 3.5t60.5 13t36 22.5 q5 15 8.5 34t5 48t2 49t0.5 60v347q0 121 -16 153q-12 23 -63.5 33t-82.5 10q-3 4 -5 32q0 5 -1 9zM192 1377q0 58 40.5 99.5t98.5 41.5t99.5 -41.5t41.5 -99.5t-41.5 -97.5t-99.5 -39.5q-59 0 -99 39.5t-40 97.5z" />
<glyph unicode="j" horiz-adv-x="599" d="M-32 -461q2 2 7 5q22 16 35.5 27t40.5 38.5t45 55t40.5 74.5t36 99t23 126t9.5 159v520q0 115 -16 153q-11 23 -63 33t-83 10q-1 1 -2 7.5t-1.5 15.5t0 17.5t2 15.5t4.5 8q103 10 207.5 41t177.5 68q9 -1 20.5 -16t11.5 -22q-5 -19 -13 -69.5t-8 -72.5v-112v-506 q0 -76 -9.5 -146.5t-27.5 -128.5t-41 -108t-51.5 -91.5t-57.5 -73.5t-61 -58q-51 -42 -117.5 -72.5t-94.5 -30.5q-14 10 -14 34zM157 1377q0 58 42 99.5t100 41.5t99.5 -41.5t41.5 -99.5t-41.5 -99.5t-99.5 -41.5t-100 41.5t-42 99.5z" />
<glyph unicode="k" horiz-adv-x="1263" d="M39 28.5q0 27.5 7 37.5q33 0 85 10.5t58 28.5q16 48 16 191v976q0 82 -13 114q-10 20 -53.5 30.5t-86.5 10.5q-2 0 -3 15.5t0.5 32t5.5 18.5q85 9 168.5 26.5t133 33.5t78.5 29q10 0 20 -12.5t10 -23.5q-23 -105 -23 -214l-2 -794q55 20 178 128q119 101 162 142.5 t43 60.5q0 34 -128 43q-7 14 -5 42t10 31q23 -3 108.5 -6t151.5 -3q71 0 226 9q8 -14 6.5 -40t-9.5 -33q-28 -3 -61.5 -9.5t-73.5 -19.5t-65 -30q-32 -24 -137 -110.5t-198 -167.5q216 -243 367 -402q61 -62 118 -82t121 -20q6 -11 6 -32.5t-4 -29.5q-22 -7 -79.5 -13.5 t-109.5 -6.5q-94 0 -175 34t-121 82q-178 192 -299 333q-4 6 -11.5 11.5t-12.5 8.5l-6 3v-165q0 -150 14 -191q6 -18 58.5 -28.5t85.5 -10.5q6 -10 6 -37.5t-6 -37.5q-183 14 -279 14q-93 0 -275 -14q-7 10 -7 37.5z" />
<glyph unicode="l" horiz-adv-x="645" d="M39 28.5q0 27.5 7 37.5q33 0 85 10.5t58 28.5q16 48 16 191v976q0 82 -13 114q-10 20 -53.5 30.5t-86.5 10.5q-2 0 -3 15.5t0.5 32t5.5 18.5q85 9 168.5 26.5t133 33.5t78.5 29q10 0 20 -12.5t10 -23.5q-23 -105 -23 -214v-1036q0 -150 14 -191q6 -18 58.5 -28.5 t85.5 -10.5q6 -10 6 -37.5t-6 -37.5q-183 14 -279 14q-93 0 -275 -14q-7 10 -7 37.5z" />
<glyph unicode="m" horiz-adv-x="1910" d="M65 880q0 20 6 23q103 10 207.5 41t177.5 68q10 -1 21 -16t11 -22q-3 -13 -10.5 -65.5t-7.5 -60.5q0 -11 4.5 -11t11.5 7q35 35 81 69.5t111 64.5t118 30q108 0 171.5 -44t97.5 -148q82 79 181 135.5t174.5 56.5t128.5 -21t87.5 -58.5t53.5 -102.5t26.5 -142t7.5 -187 v-201q0 -150 13 -191q5 -13 36 -22.5t60.5 -13t47.5 -3.5q7 -10 7 -37.5t-7 -37.5q-182 14 -278 14q-80 0 -262 -14q-7 10 -7 37.5t7 37.5q7 0 18 1t25 3t28.5 5.5t26.5 7.5t20.5 9.5t11.5 12.5q16 48 16 191v215q0 63 -4.5 111t-17 92t-32.5 72.5t-53 45t-78 16.5 q-35 0 -76 -15.5t-71.5 -36.5t-51 -42t-20.5 -34q0 -2 1 -10t1 -10q9 -109 9 -189v-215q0 -150 14 -191q6 -18 58.5 -28.5t85.5 -10.5q7 -10 7 -37.5t-7 -37.5q-183 14 -276 14q-85 0 -267 -14q-7 10 -7 37.5t7 37.5q32 0 80.5 10.5t54.5 28.5q13 41 13 191v208 q0 175 -40.5 259.5t-141.5 84.5q-45 0 -94.5 -24t-80 -53.5t-30.5 -47.5v-427q0 -150 13 -191q6 -18 55.5 -28.5t81.5 -10.5q7 -10 7 -37.5t-7 -37.5q-182 14 -271 14q-94 0 -276 -14q-7 10 -7 37.5t7 37.5q18 0 47.5 3.5t60.5 13t36 22.5q5 15 8.5 34t5 48t2 49t0.5 60v340 q0 128 -16 160q-12 23 -63.5 33t-82.5 10q-3 4 -5 32q0 5 -1 9z" />
<glyph unicode="n" horiz-adv-x="1288" d="M65 880q0 20 6 23q103 10 207.5 41t177.5 68q6 0 14 -7t13 -16.5t5 -14.5q-3 -13 -10.5 -68t-7.5 -62q0 -14 4 -14q3 0 12 9q29 34 80 71.5t116.5 67.5t115.5 30q76 0 129 -21t87 -58.5t53.5 -102.5t26.5 -142t7 -187v-201q0 -150 14 -191q6 -18 59 -28.5t87 -10.5 q7 -10 7 -37.5t-7 -37.5q-183 14 -278 14q-82 0 -265 -14q-7 10 -7 37.5t7 37.5q32 0 79 10.5t53 28.5q14 41 14 191v206q0 70 -5 122t-17.5 96t-33.5 71t-53.5 42t-77.5 15q-40 0 -90.5 -24.5t-83.5 -54.5t-33 -46v-427q0 -150 13 -191q6 -18 55.5 -28.5t81.5 -10.5 q7 -10 7 -37.5t-7 -37.5q-182 14 -271 14q-94 0 -276 -14q-7 10 -7 37.5t7 37.5q18 0 47.5 3.5t60.5 13t36 22.5q5 15 8.5 34t5 48t2 49t0.5 60v347q0 121 -16 153q-12 23 -63.5 33t-82.5 10q-3 4 -5 32q0 5 -1 9z" />
<glyph unicode="o" horiz-adv-x="1185" d="M82 490q0 108 39 204.5t106 165.5t161 109.5t200 40.5q114 0 210 -38t162.5 -105t103.5 -159.5t37 -199.5t-39 -204t-106.5 -167.5t-162 -111.5t-200.5 -41q-114 0 -210.5 39t-162 106.5t-102 160.5t-36.5 200zM342 536q0 -65 10.5 -129.5t32.5 -125t53.5 -107.5 t77.5 -75t100 -28q52 0 92 23t65 60.5t40.5 89.5t21.5 103.5t6 108.5q0 65 -10.5 130.5t-33.5 126.5t-54.5 108.5t-77.5 76t-100 28.5q-52 0 -92 -23.5t-64.5 -61t-40 -90t-21 -104.5t-5.5 -111z" />
<glyph unicode="p" horiz-adv-x="1212" d="M27 871v6q0 22 7 26q105 10 211 38.5t175 63.5q9 -1 20 -12.5t11 -18.5q-18 -55 -18 -87q0 -15 7 -11q15 14 45.5 36t68 44.5t78.5 38t70 15.5q81 0 151.5 -28.5t120.5 -76t86 -109t53.5 -129.5t17.5 -136q0 -93 -32 -180t-87 -152.5t-124.5 -115.5t-147.5 -75.5 t-154 -25.5q-21 0 -46 3t-41 6.5t-35.5 8t-23.5 5.5q-7 0 -7 -32v-174q0 -150 14 -191q6 -18 58 -28.5t86 -10.5q6 -10 6 -37.5t-6 -37.5q-183 14 -279 14q-93 0 -276 -14q-8 10 -8 37.5t8 37.5q12 0 33.5 2.5t45.5 6.5t43 12t22 18q16 48 16 191v844q0 115 -16 153 q-11 23 -63 33t-83 10q-6 4 -7 32zM433 223q0 -49 30 -84.5t70 -50.5t83 -15q102 0 178.5 106.5t76.5 269.5q0 191 -74 301t-206 110q-61 0 -109.5 -27.5t-48.5 -48.5v-561z" />
<glyph unicode="q" horiz-adv-x="1178" d="M80 447q0 97 35.5 186.5t95 156t135 116.5t159 76t163.5 26q39 0 136 -27.5t133 -27.5q30 0 64 11q6 -1 16.5 -11t18.5 -22t8 -19q-25 -57 -25 -214v-899q0 -150 14 -191q6 -18 58 -28.5t85 -10.5q7 -10 7 -37.5t-7 -37.5q-182 14 -278 14q-93 0 -276 -14q-6 10 -6 37.5 t6 37.5q12 0 33.5 2.5t45.5 6.5t43 12t22 18q16 48 16 191v265q0 14 -3.5 23.5t-12.5 3.5q-40 -32 -122 -70.5t-149 -38.5q-72 0 -137.5 26.5t-115.5 72.5t-87 105.5t-56 126.5t-19 134zM337 545q0 -86 19.5 -162t55 -134t90 -92t120.5 -34q41 0 79.5 13.5t59.5 30.5t21 29 v575q0 47 -57 91.5t-134 44.5q-54 0 -98 -23t-72.5 -60.5t-47.5 -86t-27.5 -97t-8.5 -95.5z" />
<glyph unicode="r" horiz-adv-x="946" d="M65 880q0 20 6 23q103 10 207.5 41t177.5 68q10 -1 21 -16t11 -22q-2 -9 -6.5 -52t-8 -87t-3.5 -58q0 -8 7 -9q3 0 4 3q21 40 48 78.5t62 76t78.5 60t87.5 22.5q45 0 84 -14.5t57 -38.5q19 -36 19 -86q0 -60 -34 -104.5t-74 -44.5q-16 0 -31 7.5t-34.5 23.5t-25.5 20 q-1 1 -8 6.5t-8.5 6.5t-8 6t-9.5 6t-9.5 4t-11.5 4t-12 2t-15 1q-23 0 -45.5 -11t-40 -28.5t-33 -39.5t-26 -44t-16 -41t-5.5 -32v-315q0 -150 13 -191q6 -18 75 -28.5t108 -10.5q7 -10 7 -37.5t-7 -37.5q-183 14 -310 14q-101 0 -283 -14q-7 10 -7 37.5t7 37.5 q18 0 47.5 3.5t60.5 13t36 22.5q5 15 8.5 34t5 48t2 49t0.5 60v347q0 121 -16 153q-12 23 -63.5 33t-82.5 10q-3 4 -5 32q0 5 -1 9z" />
<glyph unicode="s" horiz-adv-x="882" d="M100 292q3 6 15 10t22 4q26 0 36 -14q22 -106 93 -169.5t154 -63.5q42 0 75.5 19t51.5 52t18 75q0 31 -11 57.5t-27.5 44.5t-45 37t-52 31t-60 31t-59.5 32q-48 27 -81 51t-65 57t-48 74.5t-16 90.5q0 48 16 91t44 75t64.5 58t79 42t87 24.5t88.5 8.5q43 0 82.5 -6.5 t85.5 -17t76 -15.5q14 -56 26.5 -138.5t12.5 -125.5q0 -7 -10.5 -10.5t-21.5 -3.5q-21 0 -41 14q-10 38 -27 74.5t-43 70.5t-65 55t-84 21q-68 0 -107 -36.5t-39 -98.5q0 -21 5.5 -40.5t14 -34t22.5 -28.5t28 -24t34 -21.5t36 -19.5t38.5 -19.5t37.5 -19.5q7 -4 20 -11 q31 -16 47.5 -25t45 -27.5t45 -33t37 -37t31.5 -45t19 -52.5t8 -63q0 -75 -32.5 -135.5t-88 -99t-127 -59.5t-151.5 -21q-46 0 -90 7t-103 21.5t-73 17.5q-10 34 -19 132.5t-9 136.5z" />
<glyph unicode="t" horiz-adv-x="747" d="M30 905q11 21 66 75h93v133q22 21 51.5 51.5t51.5 54t49 52.5t35 38q9 6 21 9q7 2 13 2q4 0 8 -1q8 -2 8 -8v-331h274q14 0 14 -27q0 -10 -5.5 -23.5t-15 -27t-20.5 -22.5h-247v-581q0 -180 135 -180q21 0 44.5 6.5t42.5 17t29.5 18l17.5 12.5q12 -11 12 -25q0 -9 -5 -22 t-9 -17q-15 -16 -34 -32.5t-51.5 -40t-73.5 -38t-80 -14.5q-41 0 -77 8t-71 29t-60.5 53t-41 83t-15.5 117v606h-148q-11 3 -11 25z" />
<glyph unicode="u" horiz-adv-x="1228" d="M25 900q0 25 7 28q101 6 204 30.5t174 53.5q10 -1 21 -18t11 -25q-4 -9 -8.5 -33.5t-7 -55t-2.5 -55.5v-123v-219q0 -187 45.5 -275.5t155.5 -88.5q61 0 119.5 35t58.5 69v440q0 121 -19 156q-9 16 -39.5 27t-55.5 14.5t-41 3.5q-6 3 -5.5 32t7.5 32q101 6 203.5 30.5 t174.5 53.5q10 -1 21 -18t11 -25q-4 -9 -9 -33.5t-8 -55t-3 -55.5v-125v-417q0 -85 18 -128q16 -32 118 -32q7 -7 7 -27q0 -8 -4.5 -22.5t-11.5 -18.5q-56 -4 -138 -22.5t-141.5 -34.5t-64.5 -16q-7 0 -13.5 13.5t-6.5 31.5v73q0 8 -1 9.5t-4 -0.5q-47 -42 -139 -82.5 t-185 -40.5q-67 0 -118.5 26t-83 67t-51 99t-27 116t-7.5 123v246q0 117 -21 156q-13 23 -58.5 34t-75.5 11q-7 5 -7 36z" />
<glyph unicode="v" horiz-adv-x="1144" d="M-5 957q0 26 7 39q25 -1 79.5 -5.5t102 -7.5t88 -3t86 3t97 7.5t74.5 5.5q7 -10 5.5 -40t-10.5 -35q-30 0 -76.5 -13t-46.5 -37q0 -18 3 -23q18 -35 79 -168.5t113 -249.5l52 -115q109 269 191 460q18 40 18 78q0 17 -15.5 31t-39.5 21.5t-47.5 11.5t-43.5 4 q-8 3 -8.5 34t6.5 41q16 -1 48 -4.5t51 -5.5t50 -4t63 -2q41 0 81 3t82.5 7.5t62.5 5.5q5 -8 5 -26q0 -6 -1 -13q-2 -29 -9 -36q-18 0 -46.5 -5t-66.5 -24.5t-51 -47.5q-25 -59 -167 -376t-179 -409q-14 -26 -28.5 -45.5t-28 -29t-23.5 -9.5q-12 0 -25 14 q-50 110 -126.5 283.5t-139.5 313.5t-124 267q-10 20 -29 35t-40.5 21.5t-37.5 9t-28 2.5q-7 10 -7 36z" />
<glyph unicode="w" horiz-adv-x="1721" d="M-5 959.5q0 26.5 7 36.5q2 0 104 -8t156 -8q41 0 88 3t101 7.5t76 5.5q6 -10 5 -39t-8 -36q-10 0 -28.5 -3.5t-40.5 -10t-38 -18.5t-16 -27q0 -16 7 -32q154 -328 228 -502q13 32 65.5 157.5t78 191t25.5 78.5q0 15 -12.5 47t-26.5 53q-13 23 -39 39t-47 21.5t-35 5.5 q-9 10 -9 37t7 38q160 -16 258 -16q31 0 69.5 2t67.5 4.5t66.5 5.5t58.5 4q7 -10 7 -38t-7 -37q-27 0 -55 -7t-49.5 -23.5t-21.5 -37.5q0 -19 5 -30q13 -32 88.5 -209.5t112.5 -271.5q117 288 177 440q19 50 19 71q0 11 -4.5 20t-14.5 16t-18 12t-24.5 8.5t-24 5.5 t-25.5 3.5t-20.5 1.5t-17.5 1q-6 7 -7.5 36t5.5 39q25 -2 68.5 -6.5t76.5 -7t74 -2.5t78.5 3t76 7.5t59.5 5.5q5 -5 5 -35.5t-9 -39.5q-13 0 -31 -2.5t-44 -10t-48.5 -24.5t-31.5 -40q-213 -509 -333 -787q-16 -38 -40 -60t-40 -22q-14 0 -27 14q-217 558 -253 647 l-237 -577q-15 -34 -41 -59t-44 -25q-11 0 -25 14q-8 19 -46.5 107.5t-46 106t-39 89.5t-41.5 94.5t-37 83t-42 93.5t-39.5 86.5t-46.5 101.5t-47 102q-10 20 -29 35t-40.5 21.5t-37.5 9t-28 2.5q-7 12 -7 38.5z" />
<glyph unicode="x" horiz-adv-x="1183" d="M17 24q0 31 8 42q138 11 203 84q31 30 129.5 155.5t125.5 155.5q-30 40 -138.5 197t-141.5 199q-24 32 -73 48t-82 16q-7 7 -7 36t7 39q144 -16 269 -16q68 0 260 16q6 -7 6 -36t-8 -39q-20 0 -41 -3.5t-40.5 -14.5t-19.5 -27q0 -10 16 -30l148 -212q15 19 41.5 51.5 t46.5 57t40 51t30.5 45t10.5 27.5q0 18 -19 30t-47.5 17t-47 6.5t-30.5 1.5q-6 5 -7.5 35t5.5 40q22 -1 57.5 -4.5t57.5 -5.5t55 -4t65 -2q111 0 230 16q4 -10 4 -39.5t-6 -35.5q-45 0 -98.5 -14.5t-83.5 -49.5q-33 -40 -120.5 -150t-123.5 -153q32 -43 148.5 -204.5 t149.5 -203.5q31 -43 77.5 -61.5t87.5 -18.5q6 -7 6 -37t-6 -38q-130 14 -267 14q-43 0 -88.5 -2.5t-106.5 -6.5t-77 -5q-6 10 -5 40t8 35q29 0 65.5 13.5t36.5 34.5q0 2 -1.5 4.5t-3.5 5t-4.5 6.5t-3.5 7q-140 196 -171 241q-10 -11 -38.5 -46t-46.5 -57t-42.5 -54.5 t-41.5 -58.5q-16 -22 -16 -39q0 -48 139 -57h5q6 -3 6 -34t-6 -41q-155 14 -228 14q-67 0 -251 -14q-6 9 -6 33z" />
<glyph unicode="y" horiz-adv-x="1142" d="M-2 955q0 33 7 41q183 -16 266 -16q90 0 258 16q7 -10 5.5 -40t-10.5 -35q-30 0 -76.5 -13t-46.5 -37q0 -14 5 -23q18 -35 77.5 -168.5t109.5 -249.5l50 -115q110 269 191 460q21 45 21 78q0 17 -16 31t-40.5 21.5t-48 11.5t-43.5 4q-8 4 -7.5 34.5t7.5 40.5 q117 -16 221 -16q71 0 214 16q6 -9 6 -32v-7q-1 -29 -8 -36q-18 0 -46.5 -5t-66.5 -24.5t-51 -47.5q-29 -67 -88 -200t-136 -305.5t-134 -302.5q-7 -14 -26.5 -58.5t-27 -61t-24.5 -53t-27.5 -57t-26.5 -50t-31.5 -54t-32.5 -49.5q-38 -50 -80.5 -87t-82.5 -55.5t-74 -18.5 q-37 0 -65.5 11.5t-46.5 37t-18 60.5q0 50 41 87q112 0 184.5 33t132.5 119q9 14 19.5 32.5t18 33.5t17.5 37.5t14.5 33.5t13.5 34t10 25q-150 354 -367 817q-9 20 -28.5 35t-41 21.5t-37.5 9t-27 2.5q-7 7 -7 34z" />
<glyph unicode="z" horiz-adv-x="1032" d="M71 41q0 21 7 27l549 817q-242 4 -278 4q-22 0 -42 -6t-34.5 -14t-29 -24t-22.5 -26.5t-18 -31.5t-13.5 -30t-11.5 -30.5t-9 -24.5q-3 -4 -11 -8.5t-19.5 -7t-22.5 -2.5q-25 0 -25 7q9 33 21.5 128t17.5 177q128 -16 210 -16h303q135 0 285 19q9 -15 9 -55 q-579 -848 -579 -853h287q50 0 94 21t73.5 54.5t49.5 70.5t29 73q3 14 23 14q11 0 24 -4t22.5 -9t13.5 -10q-42 -139 -98 -301h-776q-8 2 -18.5 15.5t-10.5 25.5z" />
<glyph unicode="{" horiz-adv-x="590" d="M46 679.5q0 18.5 6 25.5q37 10 68.5 28t59 44t43.5 63.5t16 80.5q0 18 -2.5 36t-7.5 37t-10 32.5t-13 36t-12 34.5q-39 94 -39 166q0 65 24.5 129t62.5 112.5t83.5 88.5t87.5 63.5t75 30.5q11 0 21.5 -18.5t5.5 -31.5q-26 -13 -55.5 -38t-58 -59.5t-47.5 -81t-19 -92.5 q0 -17 1.5 -32.5t2.5 -26.5t5 -26.5t5 -21.5t7.5 -22.5t7.5 -19t8.5 -21.5t8.5 -20q41 -95 41 -191q0 -50 -16.5 -97t-42 -82.5t-56 -63.5t-59 -43.5t-50.5 -19.5q28 -4 65 -28.5t73 -62.5t61 -95.5t25 -118.5q0 -96 -41 -192q-2 -4 -6 -14q-14 -32 -20.5 -50.5t-13 -52.5 t-6.5 -72q0 -47 19 -93t47.5 -80.5t58 -59.5t55.5 -38q5 -13 -5.5 -31.5t-21.5 -18.5q-27 6 -61 23.5t-71.5 45t-73 66.5t-64 82.5t-46 97.5t-17.5 109q0 25 3 48.5t11.5 51t12.5 39t16 43.5q2 4 4 11q13 32 19 49.5t12 45.5t6 54q0 43 -16 80t-43.5 63.5t-59 44t-68.5 28.5 q-6 7 -6 25.5z" />
<glyph unicode="|" horiz-adv-x="465" d="M173.5 -268.5q0.5 5.5 0.5 6.5v1988q-2 14 12 18q46 14 86 14q9 0 14 -3.5t5 -6.5v-4l2 -1988q0 -12 -48 -24t-59 -12q-6 0 -9 1.5t-3.5 3t0 7z" />
<glyph unicode="}" horiz-adv-x="590" d="M85 -278q25 13 54 38t57.5 59.5t47.5 80.5t19 93q0 41 -7 77t-14.5 56t-22.5 54q-13 32 -20.5 52.5t-15 59.5t-7.5 82q0 61 25 118.5t61.5 95.5t74 62.5t65.5 28.5q-28 5 -65.5 29.5t-74 62.5t-61.5 95.5t-25 118.5q0 47 7.5 88t15 61.5t23.5 55.5q1 3 3 8q13 31 19 49 t12.5 50.5t6.5 68.5q0 46 -19 92.5t-47.5 81t-57.5 59.5t-54 38q-5 13 4.5 31.5t20.5 18.5q33 -7 75 -30.5t87.5 -63.5t83.5 -88.5t62.5 -112.5t24.5 -129q0 -74 -39 -173q-1 -4 -8.5 -23t-9.5 -24.5t-7.5 -22t-7.5 -25t-5 -22.5t-4 -26.5t-1 -25.5q0 -43 16 -80.5 t43.5 -63.5t59 -44t68.5 -28q4 -5 4 -25.5t-4 -25.5q-37 -11 -68.5 -28.5t-59 -44t-43.5 -63.5t-16 -80q0 -28 7 -59t13 -48.5t21 -54.5q13 -35 20 -57.5t14 -56.5t7 -66q0 -47 -13 -94t-35 -86t-50.5 -75.5t-59.5 -64.5t-63 -50t-60.5 -35.5t-51.5 -18.5q-11 0 -20.5 18.5 t-4.5 31.5z" />
<glyph unicode="~" horiz-adv-x="1272" d="M116 620q0 42 45 89.5t113 79.5t130 32q49 0 105 -12.5t84 -22.5t89 -34q54 -22 83.5 -33t83 -23t102.5 -12q59 0 106.5 29.5t93.5 75.5q19 -9 19 -30q0 -40 -42 -88t-110 -81.5t-133 -33.5q-18 0 -35.5 1.5t-35.5 4.5t-31.5 5.5t-33.5 8t-29.5 8.5t-31 11t-28 10 t-29.5 11t-27 11q-53 21 -84.5 32.5t-84 22.5t-100.5 11q-103 0 -200 -102q-19 9 -19 29z" />
<glyph unicode="&#xa1;" horiz-adv-x="526" d="M116 848q0 40 19.5 73.5t53 53t73.5 19.5q62 0 106.5 -44.5t44.5 -105.5q0 -60 -44.5 -103t-106.5 -43q-61 0 -103.5 44.5t-42.5 105.5zM135 -351q0 28 11.5 150t36.5 358t38 365q8 20 16.5 30t24.5 13q10 -2 22.5 -10.5t18.5 -20.5q4 -40 19 -176t23.5 -220.5 t19.5 -196.5t17 -185.5t6 -106.5q0 -60 -38.5 -100.5t-96.5 -40.5q-52 0 -85 41t-33 100z" />
<glyph unicode="&#xa2;" horiz-adv-x="1057" d="M100 449q0 111 51.5 216t132.5 179.5t185 120t206 45.5q147 0 219 -48q32 -37 32 -86q0 -54 -32.5 -90t-77.5 -36q-24 0 -46.5 14t-51 44.5t-34.5 35.5q-34 29 -67.5 43t-76.5 14q-54 0 -101.5 -47.5t-76.5 -128.5t-29 -173q0 -71 13.5 -131t38 -103t57 -75t72 -51.5 t81.5 -29t87 -9.5q146 0 248 114q8 -2 15.5 -13.5t7.5 -23.5q0 -25 -9 -43q-14 -22 -35.5 -46.5t-57.5 -53.5t-76.5 -51.5t-94.5 -38t-110 -15.5q-131 0 -238.5 60t-169.5 167.5t-62 239.5zM440 -78l192 1163h9h13.5h13.5t14 -1t11 -2.5t9 -4t3 -5.5l-192 -1168 q-21 0 -45.5 4.5t-27.5 13.5z" />
<glyph unicode="&#xa3;" horiz-adv-x="1083" d="M100 36q0 14 4.5 29t13 29.5t17.5 28t21 27.5t21.5 24.5t20.5 22.5t16 17q44 47 72.5 138t28.5 177q0 36 -28 169h-173q-10 10 12.5 49.5t37.5 39.5h105q-16 79 -16 107q-2 112 40 217t109 178t150.5 117t163.5 44q54 0 86.5 -12t77.5 -40q7 -7 14 -29.5t7 -39.5 q0 -39 -14.5 -67t-36 -41t-47.5 -13q-25 0 -48 11.5t-34.5 22t-30.5 31.5l-6 6l-5 5q-19 19 -28 27t-24.5 15.5t-31.5 7.5q-134 0 -134 -287q0 -25 2 -50t4.5 -44.5t8 -45t9 -41t10 -41.5l9.5 -38h365q15 -13 11.5 -32.5t-13.5 -35.5t-19 -21h-324q5 -41 5 -64 q0 -60 -19.5 -123.5t-49.5 -114t-58.5 -87t-52.5 -58.5q50 25 114 25q34 0 71.5 -16t67 -35.5t78 -35.5t102.5 -16q30 0 58 12t47 28.5t37 39t26.5 37t16.5 29.5q2 1 9 -3t14 -11t9 -13q6 -15 2 -37q-9 -24 -26 -56t-46.5 -71t-64.5 -71t-83.5 -53.5t-98.5 -21.5 q-49 0 -94 13.5t-80 33t-68 39t-72 33t-78 13.5q-29 0 -56.5 -22t-57.5 -59.5t-39 -46.5q-13 0 -25 17t-12 33z" />
<glyph unicode="&#xa4;" horiz-adv-x="1297" d="M173 351l123 116q-68 108 -68 233q0 149 87 264l-119 128q-9 9 5 28.5t41.5 38.5t53.5 27l119 -126q102 71 233 71q143 0 255 -94l137 126q8 9 27 -5t37.5 -41.5t26.5 -54.5l-137 -127q66 -110 66 -235q0 -135 -75 -246l123 -133q9 -8 -5 -27.5t-41.5 -38.5t-53.5 -27 l-119 125q-109 -79 -241 -79q-147 0 -260 91l-119 -114q-9 -9 -29 5t-39.5 41.5t-27.5 53.5zM417 727q0 -102 34.5 -188t91.5 -134.5t123 -48.5q62 0 110 43t72.5 114t24.5 157q0 103 -33 190.5t-89.5 138t-121.5 50.5q-62 0 -111 -45t-75 -118t-26 -159z" />
<glyph unicode="&#xa5;" horiz-adv-x="1552" d="M60.5 1422.5q0.5 28.5 7.5 38.5q168 -11 306 -11q153 0 305 11q6 -9 6 -38.5t-8 -36.5q-16 0 -35 -2t-44 -8t-41.5 -20.5t-16.5 -35.5q0 -18 21 -52l294 -520q43 67 141.5 248.5t152.5 289.5q9 27 9 46q0 20 -54.5 37t-113.5 17q-7 7 -7.5 38t4.5 37q24 -1 64 -4.5t61 -5 t54.5 -2.5t66.5 -1q49 0 90 2t86 6t78 5q5 -10 4.5 -39t-7.5 -36q-141 0 -184 -73q-71 -117 -203 -346t-185 -333q-9 -15 -9 -32h216q12 -9 12.5 -23.5t-6.5 -28.5t-15 -24.5t-13 -14.5h-196v-91h218q12 -9 12.5 -23.5t-6.5 -28.5t-15 -25t-13 -15h-199v-32q0 -150 14 -191 q6 -18 62 -28.5t91 -10.5q7 -10 7 -37.5t-7 -37.5q-183 14 -297 14t-296 -14q-7 10 -7 37.5t7 37.5q12 0 34.5 2.5t48.5 6.5t46.5 12t23.5 18q13 41 13 191v32h-223q-10 11 10 51.5t36 40.5h177v91h-223q-7 6 0.5 28.5t21.5 42.5t24 20h175q-4 18 -9 27q-94 183 -308 561 q-30 53 -52 81.5t-57 60.5q-24 27 -68.5 40.5t-73.5 13.5q-8 8 -7.5 36.5z" />
<glyph unicode="&#xa6;" horiz-adv-x="481" d="M184 -262v830q-2 13 12 18q39 11 89 11q9 0 13.5 -3t4.5 -7v-3v-830q0 -12 -47.5 -23t-59.5 -11q-6 0 -8.5 1.5t-3 3t-0.5 7v6.5zM184 890v6v830q-2 14 12 18q39 12 89 12q9 0 13.5 -3.5t4.5 -7.5v-3v-830q0 -12 -47.5 -23t-59.5 -11q-6 0 -8.5 2t-3 3.5t-0.5 6.5z" />
<glyph unicode="&#xa7;" horiz-adv-x="1035" d="M84 880q0 57 32 131t79 140.5t95 121t86 86.5q-85 -89 -96 -198q-28 -43 -41 -78.5t-13 -88.5q0 -55 15.5 -109t39 -97t60 -89t68 -79t74.5 -73q14 -12 43 -38t46.5 -42t45 -42.5t44.5 -47t37 -48.5t31 -52.5t19 -54t8 -58.5q0 -23 -2 -34q-3 -4 -6.5 -9.5t-7 -10 t-7 -9.5t-7 -10.5t-7.5 -10.5q-54 -46 -72 -87q-8 -14 -8 -34t-2 -37l7.5 5.5t13.5 8.5q-61 -60 -147 -95t-188 -35q-51 0 -105 25q-14 28 -14 60t25.5 61.5t61.5 29.5q12 0 22.5 -2.5t21.5 -8t16 -8.5t17.5 -12t13.5 -10q27 -21 78 -21q38 0 77 12t69.5 41.5t30.5 69.5 q0 116 -285 377q-40 38 -66 63.5t-61.5 64.5t-57 73t-43 76t-31.5 88t-10 95zM278 1131q0 20 2 30q4 5 16.5 23.5t20.5 28.5q52 48 71 89q8 15 8 39.5t1 31.5q-3 -2 -6.5 -5t-7 -5t-7.5 -4q40 39 90 68t113 45.5t132 16.5q47 0 105 -25q14 -28 14 -64q0 -33 -24 -60t-60 -27 q-15 0 -29.5 4.5t-21.5 8.5t-21.5 13t-16.5 11q-34 25 -80 25q-39 0 -78.5 -12t-70.5 -41.5t-31 -69.5q0 -114 287 -376q49 -46 79.5 -77t70 -79.5t62.5 -91t39 -98.5t16 -115q0 -57 -32 -131t-79 -140.5t-94.5 -121t-86.5 -86.5q82 90 96 194q28 42 41 79.5t13 91.5 q0 55 -15.5 109t-38.5 97t-60 89.5t-68.5 79t-74.5 72.5q-14 12 -43 38t-46.5 42t-45 42.5t-44.5 47t-37 48.5t-31 52.5t-19 54t-8 58.5z" />
<glyph unicode="&#xa8;" horiz-adv-x="848" d="M66 1176q0 55 39.5 92.5t95.5 37.5q55 0 94.5 -38.5t39.5 -93t-39.5 -93.5t-94.5 -39t-95 40t-40 94zM515 1176q0 55 40 92.5t95 37.5t94.5 -38.5t39.5 -93.5q0 -35 -18.5 -66t-50 -48.5t-67.5 -17.5t-66.5 18.5t-48.5 49.5t-18 66z" />
<glyph unicode="&#xa9;" horiz-adv-x="1495" d="M125 743q0 127 49 242.5t132 198.5t198 132.5t242 49.5q101 0 196.5 -31.5t172 -89t134.5 -134t89.5 -171.5t31.5 -197q0 -126 -49.5 -241t-133 -198t-199.5 -132t-242.5 -49t-241.5 49t-198 132t-132 197.5t-49 241.5zM214 743.5q0 -109.5 42 -208.5t113.5 -170 t170.5 -113t208 -42q73 0 142.5 19t128 53t108 83.5t84 108t54 127.5t19.5 142q0 109 -42.5 208.5t-114 171t-171 114t-208.5 42.5t-208 -42.5t-170.5 -114t-113.5 -170.5t-42 -208.5zM422 730q0 93 45 171.5t121.5 123t166.5 44.5q46 0 109.5 -11t115.5 -27 q0 -2 17.5 -69.5t17.5 -72.5q0 -6 -13 -12t-24 -6q-9 0 -14 5q-3 12 -9 25t-21 32t-34.5 33t-53.5 24.5t-75 10.5q-62 0 -109 -37t-70.5 -94t-23.5 -122q0 -121 64 -198.5t155 -77.5q94 0 141 43q14 14 25.5 37t17.5 40.5t7 18.5q5 0 15 -1.5t19.5 -3.5t11.5 -4 q0 -12 -17.5 -75t-26.5 -66q-44 -17 -70.5 -26t-71.5 -18t-88 -9q-143 0 -235.5 89.5t-92.5 232.5z" />
<glyph unicode="&#xaa;" horiz-adv-x="834" d="M103 752q0 43 25.5 78.5t56.5 47.5q256 93 292 107q6 7 7.5 11t1.5 19v43q0 58 -32 99.5t-85 41.5q-21 0 -36.5 -7t-26 -21.5t-16.5 -32t-12 -44.5q-14 -70 -84 -70q-30 0 -50.5 21t-20.5 49q0 27 16 51q22 20 64 46t110.5 51.5t128.5 25.5q87 0 149.5 -65t62.5 -161 v-306q0 -30 11.5 -48t32.5 -18q7 0 14.5 2t13.5 5l11 5.5t8.5 5t4.5 3.5q3 0 7.5 -7.5t4.5 -13.5q0 -16 -10 -29q-13 -12 -35.5 -27t-55.5 -29.5t-57 -14.5q-36 0 -68.5 27t-43.5 60q-31 -24 -91.5 -58t-97.5 -34q-83 0 -141.5 57t-58.5 130zM280 766q0 -46 31.5 -75.5 t71.5 -29.5q31 0 67 23.5t36 35.5v197q-12 -5 -31.5 -11t-36 -11.5t-34 -12t-28.5 -11.5q-76 -38 -76 -105z" />
<glyph unicode="&#xab;" horiz-adv-x="1117" d="M52 563q0 18 14 39q84 50 163 105.5t133.5 99.5t96 79.5t64 56.5l22.5 21q43 -11 55 -34q-9 -25 -129.5 -163.5t-190.5 -201.5q46 -41 121 -123.5t134 -154t65 -86.5q-6 -11 -21.5 -21.5t-33.5 -15.5l-22.5 21.5t-64 57.5t-96 80t-133.5 100t-163 106q-14 18 -14 34z M472 563q0 18 14 39q83 50 162.5 105.5t134 99.5t95.5 79.5t63.5 56.5l22.5 21q44 -11 55 -34q-5 -15 -64.5 -86.5t-135.5 -154t-121 -124.5q70 -63 191 -201.5t130 -162.5q-5 -11 -20.5 -21.5t-34.5 -15.5l-22.5 21.5t-63.5 57.5t-95.5 80t-134 100t-162.5 106 q-14 18 -14 34z" />
<glyph unicode="&#xac;" horiz-adv-x="1340" d="M105 850q9 108 32 108h1044v-573q-1 0 -9 -3t-21 -7t-28 -8t-32 -6.5t-31 -2.5q-8 0 -17 5t-12 11v454h-912h-2t-3.5 1t-4 3.5t-3 7t-1.5 10.5z" />
<glyph unicode="&#xad;" horiz-adv-x="722" d="M71 472q0 31 2 55.5t5 38t7 22t7.5 11.5t5.5 3h2l550 27h2q14 0 14 -20q0 -50 -7.5 -84t-14.5 -44l-8 -9l-549 -25l-2 -0.5t-4 1t-4.5 3.5t-4 7.5t-1.5 13.5z" />
<glyph unicode="&#xae;" horiz-adv-x="1491" d="M123 875.5q0 126.5 49 242t132 199t197.5 132.5t241.5 49t242.5 -49t199.5 -132.5t133.5 -199t49.5 -242t-49.5 -242t-133.5 -198.5t-199.5 -132.5t-242.5 -49.5t-241.5 49t-197.5 132.5t-132 199t-49 242zM212 875.5q0 -109.5 42 -208.5t113.5 -171t170 -114t208 -42 t208.5 42t171 114t114 171t42 208.5t-42 208t-114 170t-171 113.5t-208.5 42t-208 -42t-170 -113.5t-113.5 -170t-42 -208zM459 593q0 13 4 18q13 0 37 5.5t27 12.5q2 5 3 11t1.5 14t0.5 14.5t-0.5 19t-0.5 19.5v367q0 7 0.5 19t0.5 18.5t-0.5 15t-1.5 14.5t-3 10 q-3 8 -26.5 12t-37.5 4q-4 5 -4 18t4 17q41 -3 134 -3q18 0 64 1.5t75 1.5q52 0 98.5 -19t78 -58.5t31.5 -91.5q0 -50 -42.5 -93.5t-89.5 -59.5q52 -76 152 -198q56 -64 119 -69q2 -2 2 -8t-0.5 -11.5l-1 -11l-0.5 -5.5q-73 0 -128 4q-62 4 -107 62q-113 151 -148 207 q-2 4 -9.5 9t-13.5 5h-25v-157q0 -62 7 -78q2 -5 15.5 -9.5t26.5 -6.5t19 -2q4 -5 4 -18t-4 -16q-116 7 -125 7q-16 0 -132 -7q-4 3 -4 16zM652 907h41q27 0 49.5 7.5t39.5 21.5t27 35t10 48q0 65 -27.5 103.5t-86.5 38.5q-44 0 -48 -10q-5 -11 -5 -66v-178z" />
<glyph unicode="&#xaf;" horiz-adv-x="1085" d="M1275 1272q0 5 0.5 16t3 28.5t8.5 30t15 12.5h481q2 0 3.5 -0.5t3.5 -1.5t3 -4t1 -8q0 -36 -11 -77q-2 -6 -6.5 -11t-8.5 -6l-3 -2h-477q-1 0 -3.5 1t-6 6.5t-3.5 15.5z" />
<glyph unicode="&#xb0;" horiz-adv-x="647" d="M84 1222q0 99 71.5 169t170.5 70q65 0 119.5 -32t86 -87t31.5 -120q0 -99 -69 -169t-168 -70q-65 0 -120.5 32t-88.5 87t-33 120zM180 1222q0 -60 43 -102t103 -42t100.5 42t40.5 102q0 40 -18.5 73.5t-51 53t-71.5 19.5q-60 0 -103 -43t-43 -103z" />
<glyph unicode="&#xb1;" horiz-adv-x="1333" d="M116 46q0 14 8.5 51t21.5 51h1044q9 0 16 -9t7 -20q0 -60 -37 -101h-1046q-14 0 -14 28zM116 725q0 14 8.5 51t21.5 52h451v453q21 12 51 18.5t45 6.5q34 0 34 -16v-462h463q6 0 11 -4t8.5 -11t3.5 -15q0 -59 -37 -100h-449v-456q-12 -9 -33 -15.5t-39 -9.5t-30 -3 q-10 0 -19 7t-9 14v463h-467q-14 0 -14 27z" />
<glyph unicode="&#xb2;" horiz-adv-x="807" d="M87 609q22 24 71.5 77.5t77.5 83.5t69.5 78.5t77.5 95.5q107 142 107 260q0 69 -41.5 112t-106.5 43q-24 0 -46.5 -7t-38 -15t-33.5 -23.5t-25.5 -24t-21.5 -25.5t-15 -19q-7 -4 -22 9.5t-15 26.5q16 30 42.5 61t62.5 61t82.5 49t93.5 19q121 0 194 -65t73 -177 q0 -69 -38 -133t-106 -136q-61 -66 -251 -237h265q19 0 36 7t28.5 16.5t22 25.5t16 27t13 27.5t9.5 21.5q5 9 18 9q21 0 32 -11q-70 -228 -86 -267h-523q-7 4 -14.5 13.5t-7.5 16.5z" />
<glyph unicode="&#xb3;" horiz-adv-x="747" d="M84 661q0 31 21.5 54.5t51.5 23.5q11 0 21 -3.5t19.5 -12t15 -15t16 -19.5t15.5 -19q33 -43 96 -43q70 0 110 49.5t40 146.5q0 82 -48.5 140t-115.5 58q-36 0 -82 -11q-11 17 -11 30q0 20 2 25q37 6 71 19.5t66 34.5t51 54.5t19 73.5q0 52 -35.5 89t-89.5 37 q-28 0 -55.5 -10.5t-48.5 -26.5t-32.5 -26.5t-18.5 -19.5q-5 3 -11.5 9.5t-11 15t-2.5 14.5q22 33 57.5 63t88.5 53t107 23q35 0 70 -11t66.5 -32t51 -57t19.5 -82q0 -42 -15.5 -76.5t-40 -56t-47 -34.5t-45.5 -20q12 0 28.5 -4t37.5 -13.5t41.5 -22t40.5 -32t35 -41.5 t24.5 -52t9.5 -63q0 -72 -34 -132t-89 -97.5t-123 -58t-140 -20.5q-52 0 -102 12t-69 29q0 1 -3 5t-5 7.5t-5.5 9.5t-5.5 11t-4 11.5t-2 12.5z" />
<glyph unicode="&#xb4;" horiz-adv-x="825" d="M625 1231q0 12 79 130.5t135 184.5q18 18 78 18q27 0 47.5 -7t30 -17.5t13.5 -19.5t4 -15q0 -31 -51.5 -85.5t-116 -103.5t-120.5 -85t-65 -36q-12 0 -23 12.5t-11 23.5z" />
<glyph unicode="&#xb5;" horiz-adv-x="1203" d="M144 -415q0 67 16 404.5t34 489.5q0 27 -11.5 147.5t-11.5 146.5q0 12 2.5 84t2.5 101q20 50 54 50q12 0 48.5 -16t69.5 -38t33 -35q0 -89 -41 -287q-4 -23 -9.5 -46t-10.5 -46t-8 -34q3 -55 12 -105t25.5 -96t44.5 -73t64 -27q69 0 132.5 46.5t104.5 114.5t55 140 q-7 82 -7 210q0 155 -2 242q31 50 62 50q21 0 88 -34.5t67 -54.5q0 -26 -8 -68.5t-24 -118.5t-25 -130q-30 -119 -39 -157q0 -123 40 -187t99 -64q79 0 137 93q6 0 17 -14.5t15 -26.5q2 -4 2 -11t-1 -15.5t-1 -9.5q-18 -53 -45.5 -101t-69 -83t-84.5 -35q-38 1 -70 33.5 t-51.5 84t-31.5 99t-18 93.5q-22 -63 -52.5 -118t-69.5 -101t-87.5 -73t-100.5 -27q-37 0 -72.5 30t-60 75.5t-41 94t-22.5 89.5q0 -1 4 -144t16.5 -309t34.5 -285q-11 -18 -33 -34.5t-45 -16.5q-24 0 -75.5 40.5t-51.5 62.5z" />
<glyph unicode="&#xb6;" horiz-adv-x="1151" d="M75 1069q0 82 25.5 152t67.5 118t96.5 82t112.5 50t115 16q68 0 117 -5t116 -5q43 0 87 1.5t76 3t58 3t39 3.5l14 1q8 -9 8 -39.5t-8 -35.5q-19 0 -43.5 -5.5t-47.5 -16.5t-28 -24q-7 -24 -7 -146v-445q5 -1 33 6.5t54 15.5l25 8q16 0 16 -18q-2 -17 -24.5 -48t-34.5 -36 q-43 -20 -71 -23v-418q0 -46 0.5 -66t3 -42.5t7.5 -39.5q8 -22 68 -37t90 -15q6 -8 6 -36.5t-4 -36.5q-39 1 -99 5t-114.5 6.5t-117.5 2.5q-55 0 -110.5 -2t-137 -7t-89.5 -5q-7 14 -5 41.5t9 31.5q28 0 84 14.5t65 35.5q3 8 5 16.5t3 19.5t2 19.5t1 23v22v25v24.5v390 q-85 0 -159.5 22.5t-129.5 61.5t-94.5 91.5t-59.5 113.5t-20 126zM638 267q0 -117 12 -160q3 -14 54.5 -14t54.5 12q12 36 12 155q-3 328 -3 406q-112 -8 -130 -9v-390zM638 752q9 0 38 2t60 5.5t35 6.5v607q-12 11 -66 11q-53 0 -67 -14v-618z" />
<glyph unicode="&#xb7;" horiz-adv-x="533" d="M116 602q0 61 44.5 105.5t106 44.5t106 -44.5t44.5 -105.5q0 -41 -19.5 -76t-54 -56t-74.5 -21q-63 0 -108 45.5t-45 107.5z" />
<glyph unicode="&#xb8;" horiz-adv-x="1078" d="M903 -274q0 14 4 14q64 -32 114 -32q26 0 45.5 6.5t30.5 17t16.5 23t5.5 26.5q0 33 -18.5 54t-47.5 21q-19 0 -59 -16q-2 0 -8.5 5.5t-12 13.5t-4.5 13q19 32 38.5 66t29.5 55h62q-32 -43 -37 -52q5 0 28 1t27 1q44 0 75.5 -33.5t31.5 -78.5q0 -53 -26.5 -94.5t-73 -64.5 t-105.5 -23q-31 0 -60.5 11t-41.5 23q-14 27 -14 43z" />
<glyph unicode="&#xb9;" horiz-adv-x="663" d="M87 1290q0 16 4 19q56 23 112 49t96 45.5t72 35.5t49 25t18 9h4q8 0 18.5 -19t13.5 -29q-6 -19 -15.5 -75.5t-9.5 -113.5v-454q0 -81 21 -116q9 -12 53 -22t61 -10q3 0 3 -28t-3 -31q-24 0 -103 4.5t-121 4.5t-125 -4.5t-105 -4.5q-7 5 -7 32t7 27q23 0 67 10t52 22 q7 15 12.5 53.5t5.5 60.5v392q0 114 -44 114q-6 0 -16 -2t-24 -7t-23.5 -8.5t-27 -10t-23.5 -9.5q-9 4 -15.5 16.5t-6.5 24.5z" />
<glyph unicode="&#xba;" horiz-adv-x="907" d="M84 912q0 95 48.5 175t133.5 127t188 47q158 0 263.5 -98t105.5 -242q0 -95 -48.5 -176t-134 -129t-186.5 -48q-104 0 -189 46t-133 124.5t-48 173.5zM280 939q0 -43 7 -86t22 -83t36.5 -70.5t54 -49t72.5 -18.5q44 0 76 23t48 62.5t23.5 82t7.5 89.5q0 56 -11.5 109 t-33.5 99t-60 74t-87 28q-36 0 -64.5 -16t-45 -41t-27 -60.5t-14.5 -69.5t-4 -73z" />
<glyph unicode="&#xbb;" horiz-adv-x="1117" d="M98 201q9 24 130.5 162.5t191.5 201.5q-70 64 -191.5 202.5t-130.5 162.5q11 23 55 34q1 0 12.5 -11.5t33 -31t51 -45t70.5 -58t87 -66.5t105 -73.5t120 -76.5q13 -21 13 -39q0 -16 -13 -34q-84 -50 -163 -106t-134 -100t-96 -80t-63.5 -57.5l-22.5 -21.5 q-12 3 -23.5 9.5t-20 13.5t-11.5 14zM518 201q8 25 128.5 163.5t190.5 200.5q-70 63 -190.5 201.5t-128.5 163.5q11 23 54 34l23 -21t64 -56.5t95.5 -79.5t133.5 -99.5t163 -105.5q14 -21 14 -39q0 -16 -14 -34q-84 -50 -163 -106t-133.5 -100t-95.5 -80t-64 -57.5 l-23 -21.5q-12 3 -23.5 9.5t-19.5 13.5t-11 14z" />
<glyph unicode="&#xbc;" horiz-adv-x="1637" d="M80 1286q156 73 333 173q7 -2 20.5 -17.5t13.5 -23.5q-3 -9 -8.5 -36.5t-11 -74.5t-5.5 -87v-443q0 -76 23 -118q5 -8 30 -15.5t47.5 -11t31.5 -3.5q6 -5 4.5 -27t-4.5 -27q-25 0 -66.5 2t-76 3t-67.5 1q-4 0 -223 -6q-7 5 -7 28t7 26q22 0 64 10t50 22q8 16 13 54t5 60 v401q0 40 -11 66t-30 26q-8 0 -22 -4t-24.5 -8t-30.5 -12t-28 -11q-9 4 -18 24t-9 29zM433 -32l794 1514q8 12 28 22t47 10q8 0 14.5 -2.5t10 -7t5.5 -8.5l-787 -1505q-7 -14 -29.5 -28.5t-48.5 -14.5q-13 0 -21.5 5t-10.5 10zM910 264q51 61 259.5 329.5t223.5 286.5 q18 23 37 23q9 0 21.5 -11t12.5 -23v-545h66q19 -18 24.5 -44.5t-6.5 -53.5h-82v-224q-1 -1 -12 -3t-32 -4t-43 -2q-31 0 -54.5 4.5t-27.5 11.5v217h-364q-23 9 -23 38zM1051 331h246v317q-32 -41 -77.5 -99.5t-97 -125t-71.5 -92.5z" />
<glyph unicode="&#xbd;" horiz-adv-x="1707" d="M82 1286q156 73 333 173q11 -7 21.5 -20t10.5 -21q-6 -16 -14.5 -78t-8.5 -120v-443q0 -85 18 -118q8 -12 51 -21t61 -9q6 -5 5.5 -27t-3.5 -27q-25 0 -68 2t-78.5 3t-67.5 1q-25 0 -55 -0.5t-53.5 -1.5t-56 -2.5t-54.5 -1.5q-7 5 -7 28t7 26q22 0 62 10t48 22 q8 16 15 55.5t7 58.5v401q0 40 -11 66t-30 26q-4 0 -10.5 -1.5t-14 -3.5t-15 -4.5t-17 -6t-17 -6.5t-17.5 -6.5t-16 -6.5q-9 4 -17 22.5t-8 30.5zM406 -32l793 1514q8 12 28.5 22t47.5 10q11 0 19 -5.5t10 -12.5l-786 -1505q-7 -14 -29.5 -28.5t-48.5 -14.5q-8 0 -14.5 2 t-10 5t-6 6t-3.5 5v2zM999 27q28 31 89 95.5t107 115.5t91 109q118 150 118 273q0 70 -42 112.5t-108 42.5q-21 0 -40 -4t-35 -12.5t-28.5 -17t-25 -21t-19.5 -20.5t-17 -20.5t-13 -16.5q-7 -3 -23 9.5t-16 25.5q16 29 42.5 60.5t62.5 61t82.5 48.5t93.5 19q121 0 195 -64 t74 -175q0 -69 -38.5 -132.5t-107.5 -137.5q-75 -80 -251 -239h265q23 0 42 8.5t33 26.5t21 29.5t17.5 35t11.5 25.5q5 10 18 10q23 0 32 -10q-5 -16 -24.5 -81.5t-35 -115t-24.5 -72.5h-525q-7 4 -14.5 15t-7.5 17z" />
<glyph unicode="&#xbe;" horiz-adv-x="1639" d="M78 661q0 32 20 55t50 23q11 0 21 -3.5t19 -12t15 -15t16.5 -19.5t15.5 -19q33 -43 96 -43q70 0 111 50t41 146q0 82 -48.5 140t-115.5 58q-36 0 -82 -11q-14 21 -14 30q0 20 3 25q37 6 71 19.5t66 34.5t51 54.5t19 73.5q0 52 -36.5 89t-90.5 37q-28 0 -55 -10.5 t-47.5 -26.5t-30.5 -26t-18 -20q-9 5 -19.5 17.5t-7.5 21.5q36 53 104.5 96t145.5 43q35 0 71 -11t67.5 -32t51.5 -57.5t20 -81.5q0 -42 -15.5 -76.5t-41 -56t-48.5 -34.5t-45 -20q17 0 43 -8t57.5 -26.5t58 -44t44.5 -65t18 -84.5q0 -58 -22.5 -108.5t-60.5 -86.5 t-87.5 -62t-105 -38.5t-112.5 -12.5q-53 0 -102.5 12t-68.5 29q-22 34 -22 57zM449 -32l791 1514q8 12 29.5 22t48.5 10q11 0 19.5 -5.5t9.5 -12.5l-786 -1505q-7 -13 -30.5 -28t-49.5 -15q-8 0 -14.5 2t-9.5 5t-5 6t-2 5zM907 264q38 45 141.5 177.5t210 269.5t132.5 169 q18 23 36 23q10 0 22 -11t12 -23v-545h67q19 -18 24 -44.5t-6 -53.5h-82v-224q-2 -1 -12.5 -3t-31.5 -4t-43 -2q-31 0 -55 4.5t-27 11.5v217h-365q-23 9 -23 38zM1049 331h246v317q-32 -41 -77.5 -99.5t-97 -125t-71.5 -92.5z" />
<glyph unicode="&#xbf;" horiz-adv-x="836" d="M82 -87q0 44 8.5 82t26.5 69.5t39 58t52.5 52t61 45.5t70.5 44q148 88 182 140q5 8 8.5 20t4.5 28t1.5 26.5t0 29.5t-0.5 23q14 34 36 34q24 -4 41 -25q12 -34 22 -98t10 -118q0 -31 -7 -60t-15.5 -50t-26.5 -44t-30 -36t-37 -32.5t-36 -26.5t-37 -25q-40 -25 -67.5 -44 t-58.5 -45t-49.5 -48.5t-31 -49.5t-12.5 -55q0 -62 40.5 -103.5t103.5 -41.5q33 0 66 14.5t54.5 32t49.5 32t53 14.5q47 0 85 -39t38 -93q0 -27 -8.5 -55t-18.5 -39q-55 -27 -160 -27q-33 0 -78 10.5t-97 31t-101.5 55t-90.5 77.5t-66 105t-25 131zM410 844q0 62 42.5 107 t101.5 45t103.5 -44.5t44.5 -107.5q0 -61 -42 -102.5t-101 -41.5q-62 0 -105.5 41t-43.5 103z" />
<glyph unicode="&#xc0;" horiz-adv-x="1488" d="M-26.5 24.5q-0.5 26.5 4.5 41.5q26 0 78.5 18t67.5 39q45 67 94 187q394 947 462 1124q7 16 23 33.5t33.5 29.5t28.5 12q23 0 32 -9l465 -1188q11 -26 21.5 -53t17 -44.5t13 -34t9.5 -25.5q11 -25 36.5 -44t53 -27t47.5 -12t30 -4q8 -12 8.5 -42t-4.5 -35q-19 1 -119 8.5 t-159 7.5q-62 0 -177.5 -8t-125.5 -8q-9 8 -9 41t9 36q29 0 71.5 9.5t60.5 25.5q14 13 14 34q0 20 -36 119t-72 188l-36 90q-7 9 -13 9q-33 2 -74.5 2t-88 -1t-63.5 -1q-146 0 -237 -5q-3 0 -8.5 -3.5t-5.5 -5.5q-62 -146 -93 -233q-18 -48 -29.5 -94.5t-11.5 -64.5 q0 -20 22 -34.5t53.5 -21.5t54.5 -10t34 -3q6 -7 6 -37t-4 -40q-19 1 -40 3t-36.5 4t-34.5 3.5t-36 2.5t-39.5 2t-46.5 1q-47 0 -84 -2.5t-84.5 -7t-75.5 -6.5q-6 7 -6.5 33.5zM425 1897q0 33 36.5 54t86.5 21q28 0 41 -7q67 -50 170.5 -151t103.5 -115t-9.5 -26.5 t-20.5 -12.5q-8 0 -34 8.5t-63 24t-79 35t-83 42t-74.5 44.5t-54 44t-20.5 39zM473 661q0 -9 5 -9q78 -7 193 -7q81 0 187 7q2 0 4 3t2 6l1 2l-191 491z" />
<glyph unicode="&#xc1;" horiz-adv-x="1488" d="M-26.5 24.5q-0.5 26.5 4.5 41.5q26 0 78.5 18t67.5 39q45 67 94 187q394 947 462 1124q7 16 23 33.5t33.5 29.5t28.5 12q23 0 32 -9l465 -1188q11 -26 21.5 -53t17 -44.5t13 -34t9.5 -25.5q11 -25 36.5 -44t53 -27t47.5 -12t30 -4q8 -12 8.5 -42t-4.5 -35q-19 1 -119 8.5 t-159 7.5q-62 0 -177.5 -8t-125.5 -8q-9 8 -9 41t9 36q29 0 71.5 9.5t60.5 25.5q14 13 14 34q0 20 -36 119t-72 188l-36 90q-7 9 -13 9q-33 2 -74.5 2t-88 -1t-63.5 -1q-146 0 -237 -5q-3 0 -8.5 -3.5t-5.5 -5.5q-62 -146 -93 -233q-18 -48 -29.5 -94.5t-11.5 -64.5 q0 -20 22 -34.5t53.5 -21.5t54.5 -10t34 -3q6 -7 6 -37t-4 -40q-19 1 -40 3t-36.5 4t-34.5 3.5t-36 2.5t-39.5 2t-46.5 1q-47 0 -84 -2.5t-84.5 -7t-75.5 -6.5q-6 7 -6.5 33.5zM473 661q0 -9 5 -9q78 -7 193 -7q81 0 187 7q2 0 4 3t2 6l1 2l-191 491zM696 1699 q0 14 102.5 115t169.5 151q13 7 41 7q50 0 87.5 -21t37.5 -54q0 -29 -58.5 -71.5t-133 -78t-139.5 -61.5t-79 -26q-10 0 -19 12.5t-9 26.5z" />
<glyph unicode="&#xc2;" horiz-adv-x="1488" d="M-26.5 24.5q-0.5 26.5 4.5 41.5q26 0 78.5 18t67.5 39q45 67 94 187q394 947 462 1124q7 16 23 33.5t33.5 29.5t28.5 12q23 0 32 -9l465 -1188q11 -26 21.5 -53t17 -44.5t13 -34t9.5 -25.5q11 -25 36.5 -44t53 -27t47.5 -12t30 -4q8 -12 8.5 -42t-4.5 -35q-19 1 -119 8.5 t-159 7.5q-62 0 -177.5 -8t-125.5 -8q-9 8 -9 41t9 36q29 0 71.5 9.5t60.5 25.5q14 13 14 34q0 20 -36 119t-72 188l-36 90q-7 9 -13 9q-33 2 -74.5 2t-88 -1t-63.5 -1q-146 0 -237 -5q-3 0 -8.5 -3.5t-5.5 -5.5q-62 -146 -93 -233q-18 -48 -29.5 -94.5t-11.5 -64.5 q0 -20 22 -34.5t53.5 -21.5t54.5 -10t34 -3q6 -7 6 -37t-4 -40q-19 1 -40 3t-36.5 4t-34.5 3.5t-36 2.5t-39.5 2t-46.5 1q-47 0 -84 -2.5t-84.5 -7t-75.5 -6.5q-6 7 -6.5 33.5zM468 1703q6 6 27.5 24t55.5 48.5t70 66.5q67 64 98 107q1 2 3.5 4.5t3.5 4t3 3.5l2.5 2.5l2 2 t2.5 2t2.5 1.5t3 1h2.5q14 0 30 -21q8 -9 25 -30t32.5 -38.5t33.5 -35.5q21 -21 41.5 -40.5t36.5 -33.5t31 -26.5t25 -20t17 -13.5t9 -8q0 -7 -2 -14.5t-4.5 -14t-7 -10.5t-9.5 -4q-19 0 -105 47.5t-150 89.5q-56 -40 -146 -88.5t-110 -48.5q-10 0 -16.5 15t-6.5 28z M473 661q0 -9 5 -9q78 -7 193 -7q81 0 187 7q2 0 4 3t2 6l1 2l-191 491z" />
<glyph unicode="&#xc3;" horiz-adv-x="1488" d="M-26.5 24.5q-0.5 26.5 4.5 41.5q26 0 78.5 18t67.5 39q45 67 94 187q394 947 462 1124q7 16 23 33.5t33.5 29.5t28.5 12q23 0 32 -9l465 -1188q11 -26 21.5 -53t17 -44.5t13 -34t9.5 -25.5q11 -25 36.5 -44t53 -27t47.5 -12t30 -4q8 -12 8.5 -42t-4.5 -35q-19 1 -119 8.5 t-159 7.5q-62 0 -177.5 -8t-125.5 -8q-9 8 -9 41t9 36q29 0 71.5 9.5t60.5 25.5q14 13 14 34q0 20 -36 119t-72 188l-36 90q-7 9 -13 9q-33 2 -74.5 2t-88 -1t-63.5 -1q-146 0 -237 -5q-3 0 -8.5 -3.5t-5.5 -5.5q-62 -146 -93 -233q-18 -48 -29.5 -94.5t-11.5 -64.5 q0 -20 22 -34.5t53.5 -21.5t54.5 -10t34 -3q6 -7 6 -37t-4 -40q-19 1 -40 3t-36.5 4t-34.5 3.5t-36 2.5t-39.5 2t-46.5 1q-47 0 -84 -2.5t-84.5 -7t-75.5 -6.5q-6 7 -6.5 33.5zM389 1708q0 24 10.5 50.5t25.5 44.5q78 96 185 96q34 0 68 -9t55.5 -19t56.5 -29 q114 -64 164 -64q37 0 69 15t49 32t32.5 34t20.5 20q6 0 12 -10t6 -18q0 -47 -38 -95q-79 -96 -185 -96q-34 0 -68 9t-54 18.5t-56 29.5q-4 2 -21 11.5t-22 12.5t-20 10.5t-21.5 10.5t-19.5 8t-21.5 7t-19.5 4t-21 2q-37 0 -69 -15.5t-49.5 -33.5t-32.5 -36t-20 -20 q-7 0 -11.5 11t-4.5 19zM473 661q0 -9 5 -9q78 -7 193 -7q81 0 187 7q2 0 4 3t2 6l1 2l-191 491z" />
<glyph unicode="&#xc4;" horiz-adv-x="1488" d="M-26.5 24.5q-0.5 26.5 4.5 41.5q26 0 78.5 18t67.5 39q45 67 94 187q394 947 462 1124q7 16 23 33.5t33.5 29.5t28.5 12q23 0 32 -9l465 -1188q11 -26 21.5 -53t17 -44.5t13 -34t9.5 -25.5q11 -25 36.5 -44t53 -27t47.5 -12t30 -4q8 -12 8.5 -42t-4.5 -35q-19 1 -119 8.5 t-159 7.5q-62 0 -177.5 -8t-125.5 -8q-9 8 -9 41t9 36q29 0 71.5 9.5t60.5 25.5q14 13 14 34q0 20 -36 119t-72 188l-36 90q-7 9 -13 9q-33 2 -74.5 2t-88 -1t-63.5 -1q-146 0 -237 -5q-3 0 -8.5 -3.5t-5.5 -5.5q-62 -146 -93 -233q-18 -48 -29.5 -94.5t-11.5 -64.5 q0 -20 22 -34.5t53.5 -21.5t54.5 -10t34 -3q6 -7 6 -37t-4 -40q-19 1 -40 3t-36.5 4t-34.5 3.5t-36 2.5t-39.5 2t-46.5 1q-47 0 -84 -2.5t-84.5 -7t-75.5 -6.5q-6 7 -6.5 33.5zM389 1792.5q0 54.5 39.5 93t94.5 38.5t95 -38.5t40 -93t-40 -93.5t-95 -39t-94.5 39t-39.5 93.5 zM473 661q0 -9 5 -9q78 -7 193 -7q81 0 187 7q2 0 4 3t2 6l1 2l-191 491zM874 1792q0 55 40 93.5t95 38.5t94.5 -38.5t39.5 -93.5q0 -54 -40.5 -93t-96.5 -39q-54 0 -93 38.5t-39 93.5z" />
<glyph unicode="&#xc5;" horiz-adv-x="1488" d="M-26.5 24.5q-0.5 26.5 4.5 41.5q26 0 78.5 18t67.5 39q45 67 94 187q394 947 462 1124q7 16 23 33.5t33.5 29.5t28.5 12q23 0 32 -9l465 -1188q11 -26 21.5 -53t17 -44.5t13 -34t9.5 -25.5q11 -25 36.5 -44t53 -27t47.5 -12t30 -4q8 -12 8.5 -42t-4.5 -35q-19 1 -119 8.5 t-159 7.5q-62 0 -177.5 -8t-125.5 -8q-9 8 -9 41t9 36q29 0 71.5 9.5t60.5 25.5q14 13 14 34q0 20 -36 119t-72 188l-36 90q-7 9 -13 9q-33 2 -74.5 2t-88 -1t-63.5 -1q-146 0 -237 -5q-3 0 -8.5 -3.5t-5.5 -5.5q-62 -146 -93 -233q-18 -48 -29.5 -94.5t-11.5 -64.5 q0 -20 22 -34.5t53.5 -21.5t54.5 -10t34 -3q6 -7 6 -37t-4 -40q-19 1 -40 3t-36.5 4t-34.5 3.5t-36 2.5t-39.5 2t-46.5 1q-47 0 -84 -2.5t-84.5 -7t-75.5 -6.5q-6 7 -6.5 33.5zM473 661q0 -9 5 -9q78 -7 193 -7q81 0 187 7q2 0 4 3t2 6l1 2l-191 491zM553 1724q0 88 63 150 t151 62t150 -62t62 -150q0 -89 -62.5 -153t-149.5 -64t-150.5 64t-63.5 153zM644 1724q0 -52 36 -89t87 -37t87 37t36 89q0 51 -36 87t-87 36t-87 -36t-36 -87z" />
<glyph unicode="&#xc6;" horiz-adv-x="2022" d="M-62 32q14 7 46 30t43 41q11 8 38 29t47 38t36 35q17 12 181.5 266.5t238.5 372.5l314 515q-1 8 -9.5 15t-18.5 10.5t-21 8t-14 7.5q-3 18 -21.5 38t-31.5 30q7 1 64 9t117.5 13.5t114.5 5.5q73 0 355 9t382 9q9 -67 36.5 -183.5t31.5 -140.5q-11 -11 -48 -11 q-27 0 -34 16q-37 116 -97.5 167.5t-157.5 51.5h-194q-124 0 -134 -25q-14 -39 -14 -151v-413q0 -9 29.5 -14.5t70.5 -5.5h121q35 0 59 1t46 5t35 7.5t25.5 14.5t19.5 20t15 29t13 37t13 48q3 18 29 18q12 0 25 -4t19 -10v-433q-9 -9 -41 -9q-27 0 -35 18q-15 56 -28 88 t-21.5 41.5t-20.5 16.5q-32 16 -208 16q-166 0 -166 -25v-392q0 -20 1 -49t5.5 -68.5t11.5 -51.5q16 -19 53 -25.5t102 -6.5h130q45 0 90 7t87.5 21.5t71.5 35.5q37 30 72.5 87t61.5 136q4 14 32 14q17 0 37 -4t25 -10q-8 -21 -34.5 -94t-39.5 -110.5t-28.5 -91.5t-20.5 -89 q-90 0 -481.5 3.5t-462.5 3.5q-24 2 -46 5.5t-38.5 7.5t-28.5 8.5t-17.5 8.5t-4.5 6q3 2 20 12.5t33 21.5t20 17l9.5 9.5t12.5 12t13.5 13.5t14 16.5t12 18t11 20t8 21.5t3.5 23q5 18 7.5 87t2.5 102q-16 0 -34 34.5t-33.5 68.5t-24.5 34h-212q-29 0 -67.5 -5t-55.5 -6 q-1 0 -14 -19t-29.5 -44t-24.5 -40q-39 -58 -126 -210q-5 -13 -7 -26t-0.5 -24.5t4 -21.5t8 -19.5t9 -15t8.5 -12.5t6 -8q1 -13 13 -26t24.5 -21.5t24.5 -15.5t13 -8q-19 0 -60.5 -11t-64.5 -14q-130 3 -235 -2q-32 2 -65.5 16t-51.5 18zM575 661q-3 -9 2 -9q52 -4 175 -4 q126 0 178 4v581z" />
<glyph unicode="&#xc7;" horiz-adv-x="1541" d="M103 734q0 160 60 305.5t163 251t248.5 168t307.5 62.5q264 0 479 -46q1 -2 18 -84t32.5 -163t15.5 -93q0 -13 -17.5 -24.5t-36.5 -11.5q-24 0 -32 11q-5 23 -12 43.5t-23 54.5t-36.5 62t-55.5 58.5t-77.5 52t-104 35.5t-134.5 14q-80 0 -150.5 -25t-124.5 -69.5 t-97 -104.5t-70.5 -131t-42 -148.5t-14.5 -158.5q0 -108 20.5 -210.5t64 -194.5t106 -161t152.5 -109t197 -40q180 0 292 100q43 37 78 97t51 103t22 73q22 0 46 -7.5t31 -14.5q0 -20 -15 -97t-37 -154t-37 -87q-110 -50 -228.5 -77.5t-265.5 -27.5q-163 0 -306.5 58.5 t-246 158.5t-161.5 238.5t-59 292.5zM716 -315q0 12 7.5 20t15.5 8q5 -1 41 -17.5t64 -16.5q55 0 84.5 23t29.5 56q0 38 -20.5 62.5t-52.5 24.5q-8 0 -17 -2t-15 -3.5t-18 -6t-19 -6.5q-4 0 -16.5 13.5t-10.5 22.5q68 116 77 135h67q-37 -48 -42 -60q5 0 30.5 1.5t31.5 1.5 q51 0 86 -37t35 -89q0 -58 -31 -104.5t-86.5 -72.5t-126.5 -26q-21 0 -42.5 5t-37 11.5t-25.5 13.5q-9 18 -9 43z" />
<glyph unicode="&#xc8;" horiz-adv-x="1358" d="M91 30.5q0 27.5 7 37.5q36 0 90.5 9.5t60.5 27.5q15 48 15 191v908q0 143 -15 191q-4 10 -24 18t-45.5 12t-47.5 6.5t-34 2.5q-7 10 -7 37.5t7 37.5q182 -13 296 -13q73 0 356 9t383 9q10 -68 37 -190t29 -134q-11 -11 -48 -11q-27 0 -34 16q-37 116 -97.5 167.5 t-157.5 51.5h-192q-126 0 -136 -25q-3 -8 -5 -19t-3 -20t-1.5 -25.5t-0.5 -25.5v-30.5v-30.5v-413q0 -9 28 -14.5t68 -5.5h121q28 0 48.5 0.5t39.5 3t32 4.5t25.5 8t20.5 11.5t16 16.5t12.5 20t10.5 26.5t10 32t11 39.5q3 18 32 18q27 0 41 -14v-433q-9 -9 -39 -9 q-27 0 -34 18q-15 56 -29 88t-22.5 41.5t-21.5 16.5q-32 16 -208 16q-162 0 -162 -25v-388q0 -149 14 -173q16 -19 53 -25.5t102 -6.5h141q161 0 240 64q81 67 132 223q4 14 32 14q18 0 38.5 -4t25.5 -10q-8 -21 -34 -94t-39 -110.5t-29 -91.5t-21 -89q-59 0 -335 2.5 t-447 2.5q-77 0 -178 -2.5t-121 -2.5q-7 10 -7 37.5zM376 1897q0 33 37 54t86 21q28 0 41 -7q67 -50 170.5 -151t103.5 -115t-9.5 -26.5t-20.5 -12.5q-8 0 -34 8.5t-62.5 24t-79 35t-83.5 42t-74.5 44.5t-54 44t-20.5 39z" />
<glyph unicode="&#xc9;" horiz-adv-x="1358" d="M91 30.5q0 27.5 7 37.5q36 0 90.5 9.5t60.5 27.5q15 48 15 191v908q0 143 -15 191q-4 10 -24 18t-45.5 12t-47.5 6.5t-34 2.5q-7 10 -7 37.5t7 37.5q182 -13 296 -13q73 0 356 9t383 9q10 -68 37 -190t29 -134q-11 -11 -48 -11q-27 0 -34 16q-37 116 -97.5 167.5 t-157.5 51.5h-192q-126 0 -136 -25q-3 -8 -5 -19t-3 -20t-1.5 -25.5t-0.5 -25.5v-30.5v-30.5v-413q0 -9 28 -14.5t68 -5.5h121q28 0 48.5 0.5t39.5 3t32 4.5t25.5 8t20.5 11.5t16 16.5t12.5 20t10.5 26.5t10 32t11 39.5q3 18 32 18q27 0 41 -14v-433q-9 -9 -39 -9 q-27 0 -34 18q-15 56 -29 88t-22.5 41.5t-21.5 16.5q-32 16 -208 16q-162 0 -162 -25v-388q0 -149 14 -173q16 -19 53 -25.5t102 -6.5h141q161 0 240 64q81 67 132 223q4 14 32 14q18 0 38.5 -4t25.5 -10q-8 -21 -34 -94t-39 -110.5t-29 -91.5t-21 -89q-59 0 -335 2.5 t-447 2.5q-77 0 -178 -2.5t-121 -2.5q-7 10 -7 37.5zM563 1699q0 14 102.5 115t168.5 151q14 7 42 7q50 0 87.5 -21t37.5 -54q0 -29 -59 -71.5t-133 -78t-139 -61.5t-79 -26q-11 0 -19.5 12.5t-8.5 26.5z" />
<glyph unicode="&#xca;" horiz-adv-x="1358" d="M91 30.5q0 27.5 7 37.5q36 0 90.5 9.5t60.5 27.5q15 48 15 191v908q0 143 -15 191q-4 10 -24 18t-45.5 12t-47.5 6.5t-34 2.5q-7 10 -7 37.5t7 37.5q182 -13 296 -13q73 0 356 9t383 9q10 -68 37 -190t29 -134q-11 -11 -48 -11q-27 0 -34 16q-37 116 -97.5 167.5 t-157.5 51.5h-192q-126 0 -136 -25q-3 -8 -5 -19t-3 -20t-1.5 -25.5t-0.5 -25.5v-30.5v-30.5v-413q0 -9 28 -14.5t68 -5.5h121q28 0 48.5 0.5t39.5 3t32 4.5t25.5 8t20.5 11.5t16 16.5t12.5 20t10.5 26.5t10 32t11 39.5q3 18 32 18q27 0 41 -14v-433q-9 -9 -39 -9 q-27 0 -34 18q-15 56 -29 88t-22.5 41.5t-21.5 16.5q-32 16 -208 16q-162 0 -162 -25v-388q0 -149 14 -173q16 -19 53 -25.5t102 -6.5h141q161 0 240 64q81 67 132 223q4 14 32 14q18 0 38.5 -4t25.5 -10q-8 -21 -34 -94t-39 -110.5t-29 -91.5t-21 -89q-59 0 -335 2.5 t-447 2.5q-77 0 -178 -2.5t-121 -2.5q-7 10 -7 37.5zM408 1703q1 1 52.5 45.5t100.5 93.5q67 64 98 107q1 2 3.5 4.5t3.5 4t2.5 3.5t2.5 2.5t2.5 2t2.5 2t2.5 1.5t2.5 1h3q13 0 30 -21q7 -9 19 -23.5t21 -25.5t23 -26t28 -29q38 -39 75.5 -72t60 -50.5t23.5 -19.5 q0 -15 -6.5 -29t-16 -14t-41 15t-70.5 36.5t-77.5 44.5t-66.5 41q-55 -40 -145 -88.5t-110 -48.5q-11 0 -17 15t-6 28z" />
<glyph unicode="&#xcb;" horiz-adv-x="1358" d="M91 30.5q0 27.5 7 37.5q36 0 90.5 9.5t60.5 27.5q15 48 15 191v908q0 143 -15 191q-4 10 -24 18t-45.5 12t-47.5 6.5t-34 2.5q-7 10 -7 37.5t7 37.5q182 -13 296 -13q73 0 356 9t383 9q10 -68 37 -190t29 -134q-11 -11 -48 -11q-27 0 -34 16q-37 116 -97.5 167.5 t-157.5 51.5h-192q-126 0 -136 -25q-3 -8 -5 -19t-3 -20t-1.5 -25.5t-0.5 -25.5v-30.5v-30.5v-413q0 -9 28 -14.5t68 -5.5h121q28 0 48.5 0.5t39.5 3t32 4.5t25.5 8t20.5 11.5t16 16.5t12.5 20t10.5 26.5t10 32t11 39.5q3 18 32 18q27 0 41 -14v-433q-9 -9 -39 -9 q-27 0 -34 18q-15 56 -29 88t-22.5 41.5t-21.5 16.5q-32 16 -208 16q-162 0 -162 -25v-388q0 -149 14 -173q16 -19 53 -25.5t102 -6.5h141q161 0 240 64q81 67 132 223q4 14 32 14q18 0 38.5 -4t25.5 -10q-8 -21 -34 -94t-39 -110.5t-29 -91.5t-21 -89q-59 0 -335 2.5 t-447 2.5q-77 0 -178 -2.5t-121 -2.5q-7 10 -7 37.5zM296 1792q0 55 40 93.5t95 38.5q36 0 67 -17.5t49 -48t18 -66.5q0 -54 -39.5 -93t-94.5 -39q-36 0 -67 17.5t-49.5 48t-18.5 66.5zM782 1792q0 55 40 93.5t94.5 38.5t94.5 -38.5t40 -93.5q0 -54 -41 -93t-96 -39 q-54 0 -93 38.5t-39 93.5z" />
<glyph unicode="&#xcc;" horiz-adv-x="786" d="M91 28.5q0 27.5 7 37.5q18 0 49.5 3.5t64 13t37.5 22.5q15 48 15 191v908q0 143 -15 191q-4 10 -24 18t-45.5 12t-47.5 6.5t-34 2.5q-7 10 -7 37.5t7 37.5q182 -13 296 -13q112 0 295 13q6 -10 6 -37.5t-6 -37.5q-34 0 -89.5 -10.5t-61.5 -28.5q-14 -41 -14 -191v-908 q0 -150 14 -191q6 -18 61.5 -28.5t89.5 -10.5q6 -10 6 -37.5t-6 -37.5q-183 14 -297 14q-112 0 -294 -14q-7 10 -7 37.5zM121 1897q0 33 36.5 54t86.5 21q27 0 41 -7q67 -50 170.5 -151t103.5 -115t-10 -26.5t-20 -12.5q-15 0 -79.5 26t-138 61.5t-132 78t-58.5 71.5z" />
<glyph unicode="&#xcd;" horiz-adv-x="786" d="M91 28.5q0 27.5 7 37.5q18 0 49.5 3.5t64 13t37.5 22.5q15 48 15 191v908q0 143 -15 191q-4 10 -24 18t-45.5 12t-47.5 6.5t-34 2.5q-7 10 -7 37.5t7 37.5q182 -13 296 -13q112 0 295 13q6 -10 6 -37.5t-6 -37.5q-34 0 -89.5 -10.5t-61.5 -28.5q-14 -41 -14 -191v-908 q0 -150 14 -191q6 -18 61.5 -28.5t89.5 -10.5q6 -10 6 -37.5t-6 -37.5q-183 14 -297 14q-112 0 -294 -14q-7 10 -7 37.5zM239 1699q0 14 102.5 115t169.5 151q13 7 41 7q32 0 60.5 -9t46.5 -26.5t18 -39.5q0 -29 -58.5 -71.5t-133 -78t-139.5 -61.5t-79 -26q-7 0 -13.5 6 t-10.5 15t-4 18z" />
<glyph unicode="&#xce;" horiz-adv-x="786" d="M91 28.5q0 27.5 7 37.5q18 0 49.5 3.5t64 13t37.5 22.5q15 48 15 191v908q0 143 -15 191q-4 10 -24 18t-45.5 12t-47.5 6.5t-34 2.5q-7 10 -7 37.5t7 37.5q182 -13 296 -13q112 0 295 13q6 -10 6 -37.5t-6 -37.5q-34 0 -89.5 -10.5t-61.5 -28.5q-14 -41 -14 -191v-908 q0 -150 14 -191q6 -18 61.5 -28.5t89.5 -10.5q6 -10 6 -37.5t-6 -37.5q-183 14 -297 14q-112 0 -294 -14q-7 10 -7 37.5zM121 1703q1 1 52.5 45.5t100.5 93.5q66 64 98 107q1 2 3 4.5t3 4t3 3.5t3 2.5t2.5 2t2.5 2t2.5 1.5t2.5 1h3q13 0 29 -21q8 -9 25 -30t32.5 -38.5 t34.5 -35.5q38 -39 75.5 -72t60 -50.5t23.5 -19.5q0 -7 -1.5 -14.5t-4.5 -14t-7.5 -10.5t-9.5 -4q-18 0 -104 47.5t-151 89.5q-55 -40 -145.5 -88.5t-109.5 -48.5q-11 0 -17 15t-6 28z" />
<glyph unicode="&#xcf;" horiz-adv-x="786" d="M16 1792.5q0 54.5 40 93t94.5 38.5t94.5 -38.5t40 -93t-40 -93.5t-94.5 -39t-94.5 39t-40 93.5zM91 28.5q0 27.5 7 37.5q18 0 49.5 3.5t64 13t37.5 22.5q15 48 15 191v908q0 143 -15 191q-4 10 -24 18t-45.5 12t-47.5 6.5t-34 2.5q-7 10 -7 37.5t7 37.5q182 -13 296 -13 q112 0 295 13q6 -10 6 -37.5t-6 -37.5q-34 0 -89.5 -10.5t-61.5 -28.5q-14 -41 -14 -191v-908q0 -150 14 -191q6 -18 61.5 -28.5t89.5 -10.5q6 -10 6 -37.5t-6 -37.5q-183 14 -297 14q-112 0 -294 -14q-7 10 -7 37.5zM502 1792q0 55 39.5 93.5t94.5 38.5t95 -38.5t40 -93.5 q0 -36 -19 -66.5t-50.5 -48t-67.5 -17.5q-55 0 -93.5 38.5t-38.5 93.5z" />
<glyph unicode="&#xd0;" horiz-adv-x="1684" d="M91 724q-2 17 0.5 38.5t8.5 30.5h757q3 0 4.5 -6.5t2 -17.5t0 -22.5t-2 -22.5t-4.5 -17h-759q-5 0 -7 17zM100 30.5q0 27.5 7 37.5q36 0 90 9.5t60 27.5q16 48 16 191v908q0 143 -16 191q-4 13 -37 22t-63.5 12t-49.5 3q-7 10 -7 37.5t7 37.5q196 -9 296 -9 q42 0 159.5 2.5t180.5 2.5q190 0 347 -53.5t265 -149.5t167.5 -233.5t59.5 -302.5q0 -174 -55.5 -315t-162 -243t-270.5 -157.5t-374 -55.5h-613q-7 10 -7 37.5zM533 296q0 -19 1 -49t5 -70.5t10 -53.5q12 -20 59.5 -31.5t104.5 -11.5q132 0 236.5 39t180.5 117.5t117 203 t41 287.5q0 141 -31.5 256.5t-87 195.5t-132.5 134.5t-166.5 79.5t-191.5 25q-44 0 -86 -6t-48 -21q-12 -32 -12 -153v-942z" />
<glyph unicode="&#xd1;" horiz-adv-x="1753" d="M75 29.5q0 26.5 7 36.5q34 0 101 15t79 38q25 47 25 193v899q0 130 -32 180q-12 18 -73 31.5t-91 13.5q-8 10 -8.5 38.5t6.5 37.5q23 -2 76.5 -5t92 -5t79.5 -2q105 0 210 9q35 -61 134.5 -190.5t208.5 -261.5t247.5 -302.5t223.5 -282.5q2 9 2 112v579q0 175 -25 226 q-10 20 -75 33.5t-102 13.5q-7 7 -8 34.5t5 41.5q31 -2 120.5 -9t148.5 -7t148.5 7t120.5 9q5 -15 6 -34.5t-8 -41.5q-35 0 -104 -13t-81 -37q-22 -45 -22 -219v-850q0 -82 9 -319q-9 -9 -50 -9q-16 0 -36.5 14t-36.5 38l-960 1199v-930q0 -146 22 -189q9 -21 78.5 -37 t102.5 -16q9 -12 9 -37.5t-5 -39.5q-21 1 -118 8.5t-155 7.5q-60 0 -143 -7t-122 -9q-7 12 -7 38.5zM515 1708q0 24 11 50.5t26 44.5q78 96 184 96q35 0 69 -9t55.5 -19t56.5 -29q114 -64 164 -64q37 0 69 15t49 32t32 34t21 20q6 0 12 -10t6 -18q0 -47 -39 -95 q-78 -96 -184 -96q-35 0 -69 9t-53.5 18.5t-55.5 29.5q-4 2 -21 11.5t-22 12.5t-20 10.5t-22 10.5t-20 8t-21.5 7t-19.5 4t-21 2q-37 0 -69 -15.5t-49 -33.5t-32 -36t-21 -20q-6 0 -11 11t-5 19z" />
<glyph unicode="&#xd2;" horiz-adv-x="1714" d="M100 748q0 104 28.5 204.5t78.5 185t121 156.5t154.5 121.5t179.5 77.5t195 28q85 0 168.5 -19.5t158 -57t141 -89.5t119.5 -118.5t92 -142.5t60 -164.5t21 -181.5q0 -105 -29 -205t-79.5 -184.5t-121.5 -155.5t-154.5 -120.5t-180 -77.5t-195.5 -28t-195 27t-179.5 75.5 t-154 119t-121 154.5t-79 185.5t-28.5 209.5zM397 812q0 -90 13.5 -177.5t39.5 -171.5t68.5 -155t97 -125t127.5 -84.5t158 -30.5q88 0 160 36.5t119.5 96.5t79.5 140.5t46 166t14 176.5q0 89 -13.5 177t-40 172t-69.5 155.5t-97.5 125.5t-128 85t-157.5 31 q-88 0 -160 -36.5t-119 -97t-79 -141.5t-45.5 -166.5t-13.5 -176.5zM534 1897q0 33 36.5 54t86.5 21q27 0 41 -7q67 -50 170 -151t103 -115t-9.5 -26.5t-19.5 -12.5q-15 0 -79.5 26t-138.5 61.5t-132 78t-58 71.5z" />
<glyph unicode="&#xd3;" horiz-adv-x="1714" d="M100 748q0 104 28.5 204.5t78.5 185t121 156.5t154.5 121.5t179.5 77.5t195 28q85 0 168.5 -19.5t158 -57t141 -89.5t119.5 -118.5t92 -142.5t60 -164.5t21 -181.5q0 -105 -29 -205t-79.5 -184.5t-121.5 -155.5t-154.5 -120.5t-180 -77.5t-195.5 -28t-195 27t-179.5 75.5 t-154 119t-121 154.5t-79 185.5t-28.5 209.5zM397 812q0 -90 13.5 -177.5t39.5 -171.5t68.5 -155t97 -125t127.5 -84.5t158 -30.5q88 0 160 36.5t119.5 96.5t79.5 140.5t46 166t14 176.5q0 89 -13.5 177t-40 172t-69.5 155.5t-97.5 125.5t-128 85t-157.5 31 q-88 0 -160 -36.5t-119 -97t-79 -141.5t-45.5 -166.5t-13.5 -176.5zM746 1699q0 14 102 115t169 151q14 7 41 7q50 0 87.5 -21t37.5 -54q0 -29 -58.5 -71.5t-132.5 -78t-139 -61.5t-80 -26q-10 0 -18.5 12.5t-8.5 26.5z" />
<glyph unicode="&#xd4;" horiz-adv-x="1714" d="M100 748q0 104 28.5 204.5t78.5 185t121 156.5t154.5 121.5t179.5 77.5t195 28q85 0 168.5 -19.5t158 -57t141 -89.5t119.5 -118.5t92 -142.5t60 -164.5t21 -181.5q0 -105 -29 -205t-79.5 -184.5t-121.5 -155.5t-154.5 -120.5t-180 -77.5t-195.5 -28t-195 27t-179.5 75.5 t-154 119t-121 154.5t-79 185.5t-28.5 209.5zM397 812q0 -90 13.5 -177.5t39.5 -171.5t68.5 -155t97 -125t127.5 -84.5t158 -30.5q88 0 160 36.5t119.5 96.5t79.5 140.5t46 166t14 176.5q0 89 -13.5 177t-40 172t-69.5 155.5t-97.5 125.5t-128 85t-157.5 31 q-88 0 -160 -36.5t-119 -97t-79 -141.5t-45.5 -166.5t-13.5 -176.5zM579 1703q1 1 52.5 45.5t100.5 93.5q67 64 98 107q1 2 3.5 4.5t3.5 4t2.5 3.5t2.5 2.5t2.5 2t2.5 2t2.5 1.5t2.5 1h3q13 0 30 -21q7 -9 24 -30t32.5 -38.5t34.5 -35.5q38 -39 75.5 -72t60 -50.5 t23.5 -19.5q0 -15 -6.5 -29t-15.5 -14q-13 0 -62.5 25t-102 56t-91.5 56q-55 -40 -145 -88.5t-110 -48.5q-11 0 -17 15t-6 28z" />
<glyph unicode="&#xd5;" horiz-adv-x="1714" d="M100 748q0 104 28.5 204.5t78.5 185t121 156.5t154.5 121.5t179.5 77.5t195 28q85 0 168.5 -19.5t158 -57t141 -89.5t119.5 -118.5t92 -142.5t60 -164.5t21 -181.5q0 -105 -29 -205t-79.5 -184.5t-121.5 -155.5t-154.5 -120.5t-180 -77.5t-195.5 -28t-195 27t-179.5 75.5 t-154 119t-121 154.5t-79 185.5t-28.5 209.5zM397 812q0 -90 13.5 -177.5t39.5 -171.5t68.5 -155t97 -125t127.5 -84.5t158 -30.5q88 0 160 36.5t119.5 96.5t79.5 140.5t46 166t14 176.5q0 89 -13.5 177t-40 172t-69.5 155.5t-97.5 125.5t-128 85t-157.5 31 q-88 0 -160 -36.5t-119 -97t-79 -141.5t-45.5 -166.5t-13.5 -176.5zM486 1708q0 24 10.5 50.5t25.5 44.5q78 96 185 96q34 0 68 -9t55.5 -19t56.5 -29q114 -64 164 -64q37 0 69 15t49 32t32.5 34t20.5 20q4 0 8.5 -5t7 -11.5t2.5 -11.5q0 -47 -38 -95q-78 -96 -185 -96 q-34 0 -68 9t-54 18.5t-56 29.5q-4 2 -21 11.5t-22 12.5t-20 10.5t-21.5 10.5t-19.5 8t-21.5 7t-19.5 4t-21 2q-37 0 -69 -15.5t-49.5 -33.5t-32.5 -36t-20 -20q-7 0 -11.5 11t-4.5 19z" />
<glyph unicode="&#xd6;" horiz-adv-x="1714" d="M100 748q0 104 28.5 204.5t78.5 185t121 156.5t154.5 121.5t179.5 77.5t195 28q85 0 168.5 -19.5t158 -57t141 -89.5t119.5 -118.5t92 -142.5t60 -164.5t21 -181.5q0 -105 -29 -205t-79.5 -184.5t-121.5 -155.5t-154.5 -120.5t-180 -77.5t-195.5 -28t-195 27t-179.5 75.5 t-154 119t-121 154.5t-79 185.5t-28.5 209.5zM397 812q0 -90 13.5 -177.5t39.5 -171.5t68.5 -155t97 -125t127.5 -84.5t158 -30.5q88 0 160 36.5t119.5 96.5t79.5 140.5t46 166t14 176.5q0 89 -13.5 177t-40 172t-69.5 155.5t-97.5 125.5t-128 85t-157.5 31 q-88 0 -160 -36.5t-119 -97t-79 -141.5t-45.5 -166.5t-13.5 -176.5zM481 1792q0 55 40 93.5t95 38.5t94.5 -38.5t39.5 -93t-39.5 -93.5t-94.5 -39q-36 0 -67 17.5t-49.5 48t-18.5 66.5zM967 1792q0 55 39.5 93.5t94.5 38.5q36 0 67 -17.5t49.5 -48t18.5 -66.5q0 -54 -41 -93 t-96 -39t-93.5 38.5t-38.5 93.5z" />
<glyph unicode="&#xd7;" horiz-adv-x="1060" d="M125 242q317 314 326 323l-326 324q0 24 22 57.5t38 33.5q11 0 16 -4q333 -322 337 -326l328 326q5 4 14 4q14 0 34.5 -38t20.5 -57q-310 -308 -317 -315l317 -328q0 -28 -18.5 -62t-36.5 -34q-11 0 -16 4l-333 333l-337 -335q-5 -4 -14 -4q-14 0 -34.5 39t-20.5 59z" />
<glyph unicode="&#xd8;" horiz-adv-x="1714" d="M100 748q0 104 28.5 204.5t78.5 185t121 156.5t154.5 121.5t179.5 77.5t195 28q85 0 168.5 -19.5t158 -57t141 -89.5t119.5 -118.5t92 -142.5t60 -164.5t21 -181.5q0 -105 -29 -205t-79.5 -184.5t-121.5 -155.5t-154.5 -120.5t-180 -77.5t-195.5 -28t-195 27t-179.5 75.5 t-154 119t-121 154.5t-79 185.5t-28.5 209.5zM356 16l907 1516q18 -4 49 -22.5t26 -27.5l-905 -1518q-11 4 -29.5 13t-34.5 21t-13 18zM397 812q0 -90 13.5 -177.5t39.5 -171.5t68.5 -155t97 -125t127.5 -84.5t158 -30.5q88 0 160 36.5t119.5 96.5t79.5 140.5t46 166 t14 176.5q0 89 -13.5 177t-40 172t-69.5 155.5t-97.5 125.5t-128 85t-157.5 31q-88 0 -160 -36.5t-119 -97t-79 -141.5t-45.5 -166.5t-13.5 -176.5z" />
<glyph unicode="&#xd9;" horiz-adv-x="1659" d="M55 1471.5q0 27.5 7 37.5q182 -13 298 -13q112 0 294 13q7 -10 7 -37.5t-7 -37.5q-34 0 -90 -10.5t-62 -28.5q-14 -41 -14 -191v-490q0 -136 19 -232t65 -172q96 -175 329 -175q65 0 122 16.5t109.5 56t90 99.5t60 151.5t23.5 207.5v501q0 165 -27 219q-7 15 -42.5 27 t-70 17.5t-53.5 5.5q-8 12 -8 37t5 36q19 -1 67.5 -4.5t69.5 -5t58.5 -2.5t73.5 -1q60 0 144.5 6t113.5 7q7 -10 7.5 -33.5t-7.5 -39.5q-37 0 -101.5 -13t-76.5 -37q-27 -61 -27 -216v-529q0 -135 -31 -244.5t-85.5 -185.5t-132 -127t-168 -74.5t-194.5 -23.5 q-137 0 -252.5 44t-192.5 130q-148 162 -148 469v575v26.5v26.5v23.5t-0.5 23.5t-1 21.5t-1.5 20.5t-2.5 17.5t-3.5 17.5t-5 14q-6 18 -62 28.5t-90 10.5q-7 10 -7 37.5zM522 1897q0 33 36.5 54t86.5 21q28 0 41 -7q67 -50 170.5 -151t103.5 -115t-9.5 -26.5t-20.5 -12.5 q-9 0 -42.5 12t-79 31t-96 44.5t-93 51.5t-70 52t-27.5 46z" />
<glyph unicode="&#xda;" horiz-adv-x="1659" d="M55 1471.5q0 27.5 7 37.5q182 -13 298 -13q112 0 294 13q7 -10 7 -37.5t-7 -37.5q-34 0 -90 -10.5t-62 -28.5q-14 -41 -14 -191v-490q0 -136 19 -232t65 -172q96 -175 329 -175q65 0 122 16.5t109.5 56t90 99.5t60 151.5t23.5 207.5v501q0 165 -27 219q-7 15 -42.5 27 t-70 17.5t-53.5 5.5q-8 12 -8 37t5 36q19 -1 67.5 -4.5t69.5 -5t58.5 -2.5t73.5 -1q60 0 144.5 6t113.5 7q7 -10 7.5 -33.5t-7.5 -39.5q-37 0 -101.5 -13t-76.5 -37q-27 -61 -27 -216v-529q0 -135 -31 -244.5t-85.5 -185.5t-132 -127t-168 -74.5t-194.5 -23.5 q-137 0 -252.5 44t-192.5 130q-148 162 -148 469v575v26.5v26.5v23.5t-0.5 23.5t-1 21.5t-1.5 20.5t-2.5 17.5t-3.5 17.5t-5 14q-6 18 -62 28.5t-90 10.5q-7 10 -7 37.5zM857 1699q0 14 102.5 115t169.5 151q13 7 41 7q50 0 87.5 -21t37.5 -54q0 -29 -59 -71.5t-133 -78 t-139 -61.5t-79 -26q-10 0 -19 12.5t-9 26.5z" />
<glyph unicode="&#xdb;" horiz-adv-x="1659" d="M55 1471.5q0 27.5 7 37.5q182 -13 298 -13q112 0 294 13q7 -10 7 -37.5t-7 -37.5q-34 0 -90 -10.5t-62 -28.5q-14 -41 -14 -191v-490q0 -136 19 -232t65 -172q96 -175 329 -175q65 0 122 16.5t109.5 56t90 99.5t60 151.5t23.5 207.5v501q0 165 -27 219q-7 15 -42.5 27 t-70 17.5t-53.5 5.5q-8 12 -8 37t5 36q19 -1 67.5 -4.5t69.5 -5t58.5 -2.5t73.5 -1q60 0 144.5 6t113.5 7q7 -10 7.5 -33.5t-7.5 -39.5q-37 0 -101.5 -13t-76.5 -37q-27 -61 -27 -216v-529q0 -135 -31 -244.5t-85.5 -185.5t-132 -127t-168 -74.5t-194.5 -23.5 q-137 0 -252.5 44t-192.5 130q-148 162 -148 469v575v26.5v26.5v23.5t-0.5 23.5t-1 21.5t-1.5 20.5t-2.5 17.5t-3.5 17.5t-5 14q-6 18 -62 28.5t-90 10.5q-7 10 -7 37.5zM609 1703q1 1 52 45.5t101 93.5q66 64 98 107q1 2 3 4.5t3 4t3 3.5t3 2.5t2.5 2t2.5 2t2 1.5t2.5 1 h3.5q13 0 29 -21q8 -9 25 -30t32.5 -38.5t33.5 -35.5q30 -30 60.5 -57.5t49.5 -43t33.5 -27.5t16.5 -14q0 -15 -6.5 -29t-16.5 -14q-18 0 -104.5 47.5t-150.5 89.5q-55 -40 -145.5 -88.5t-109.5 -48.5q-11 0 -17 15t-6 28z" />
<glyph unicode="&#xdc;" horiz-adv-x="1659" d="M55 1471.5q0 27.5 7 37.5q182 -13 298 -13q112 0 294 13q7 -10 7 -37.5t-7 -37.5q-34 0 -90 -10.5t-62 -28.5q-14 -41 -14 -191v-490q0 -136 19 -232t65 -172q96 -175 329 -175q65 0 122 16.5t109.5 56t90 99.5t60 151.5t23.5 207.5v501q0 165 -27 219q-7 15 -42.5 27 t-70 17.5t-53.5 5.5q-8 12 -8 37t5 36q19 -1 67.5 -4.5t69.5 -5t58.5 -2.5t73.5 -1q60 0 144.5 6t113.5 7q7 -10 7.5 -33.5t-7.5 -39.5q-37 0 -101.5 -13t-76.5 -37q-27 -61 -27 -216v-529q0 -135 -31 -244.5t-85.5 -185.5t-132 -127t-168 -74.5t-194.5 -23.5 q-137 0 -252.5 44t-192.5 130q-148 162 -148 469v575v26.5v26.5v23.5t-0.5 23.5t-1 21.5t-1.5 20.5t-2.5 17.5t-3.5 17.5t-5 14q-6 18 -62 28.5t-90 10.5q-7 10 -7 37.5zM518 1792q0 55 39.5 93.5t94.5 38.5t95 -38.5t40 -93t-40 -93.5t-95 -39q-36 0 -67 17.5t-49 48 t-18 66.5zM1003 1792q0 55 40 93.5t95 38.5t94.5 -38.5t39.5 -93.5q0 -54 -40.5 -93t-96.5 -39q-54 0 -93 38.5t-39 93.5z" />
<glyph unicode="&#xdd;" horiz-adv-x="1393" d="M-15.5 1470q0.5 29 7.5 39q201 -13 305 -13q126 0 308 13q6 -11 6 -39.5t-8 -35.5q-17 0 -36 -2t-44.5 -8.5t-42 -20.5t-16.5 -35q0 -17 23 -55l291 -520q29 45 88.5 153t116 214.5t90.5 173.5q9 27 9 43q0 20 -54 37.5t-113 17.5q-6 6 -6.5 38.5t4.5 38.5 q23 -1 63.5 -4.5t61.5 -5t54 -2.5t67 -1q49 0 90 2t86 6t77 5q6 -10 5.5 -40.5t-7.5 -36.5q-141 0 -185 -73q-84 -139 -210 -355t-180 -320q-11 -21 -11 -59v-329q0 -150 14 -191q3 -10 23 -18t45.5 -12t47.5 -6.5t34 -2.5q7 -10 7 -37.5t-7 -37.5q-182 14 -296 14 q-112 0 -294 -14q-7 10 -7 37.5t7 37.5q34 0 89 10.5t61 28.5q16 48 16 191v333q0 19 -16 55q-42 81 -101 188.5t-120 216.5t-82 147q-20 36 -37.5 60.5t-33.5 41.5t-41 39q-24 27 -68.5 42t-72.5 15q-8 7 -7.5 36zM685 1699q0 14 102.5 115t168.5 151q14 7 41 7 q50 0 88 -21t38 -54q0 -29 -59 -71.5t-133 -78t-139 -61.5t-80 -26q-5 0 -10 3.5t-8.5 9t-6 12.5t-2.5 14z" />
<glyph unicode="&#xde;" horiz-adv-x="1272" d="M91 28.5q0 27.5 7 37.5q18 0 49.5 3.5t64 13t37.5 22.5q15 48 15 191v908q0 143 -15 191q-4 10 -24 18t-45.5 12t-47.5 6.5t-34 2.5q-7 10 -7 37.5t7 37.5q182 -13 296 -13q112 0 295 13q6 -10 6 -37.5t-6 -37.5q-34 0 -89.5 -10.5t-61.5 -28.5q-16 -42 -16 -162 q0 -3 1 -35.5t1 -36.5q63 13 185 13q100 0 192 -30t161 -83.5t110 -131t41 -167.5q0 -126 -60.5 -230.5t-167.5 -164t-237 -59.5q-78 0 -130 39q-7 7 -17 24t-10 28q0 7 2.5 11.5t6.5 4.5q22 -7 89 -7q111 0 184 86.5t73 225.5q0 75 -20 141t-57.5 116.5t-96.5 80.5t-131 30 q-23 0 -44.5 -2.5t-40 -9.5t-22.5 -18q-10 -22 -10 -155v-607q0 -150 14 -191q6 -18 61.5 -28.5t89.5 -10.5q6 -10 6 -37.5t-6 -37.5q-183 14 -297 14q-112 0 -294 -14q-7 10 -7 37.5z" />
<glyph unicode="&#xdf;" horiz-adv-x="1292" d="M52 29.5q0 28.5 7 38.5q35 0 87.5 9.5t58.5 27.5q14 41 14 191v584h-132q-12 3 -12 25q12 21 66 75h78v23q0 108 43 216t109.5 188t149.5 130t161 50q62 0 120 -12.5t108.5 -38t88.5 -61.5t60 -86t22 -108q0 -40 -10.5 -75.5t-30 -65t-39 -51t-46.5 -45.5 q-14 -13 -51 -44t-54.5 -47t-34.5 -41t-17 -46q0 -14 4.5 -29t14.5 -30t19.5 -27.5t26.5 -28.5t29 -26.5t33.5 -26.5t32.5 -24t33.5 -24t29.5 -21q31 -21 49.5 -35.5t46 -38.5t44 -46t33.5 -50t25 -60.5t8 -67.5q0 -75 -29.5 -142t-78 -112.5t-110.5 -72.5t-127 -27 q-78 0 -146.5 24.5t-92.5 55.5q-9 32 -9 57q2 54 26 91t67 37q15 0 28.5 -5.5t22 -11.5t19.5 -20t15 -21t14.5 -25.5t12.5 -21.5q20 -35 42.5 -54t55.5 -19q51 0 79 38.5t28 107.5q0 22 -6 44t-14 39t-26 38t-29 33.5t-37 34t-37.5 30.5t-41.5 32q-12 8 -41 29t-42.5 31 t-38.5 31t-38 35t-30.5 36.5t-26 43t-14.5 46.5t-6 53q0 29 14.5 58.5t30.5 48t48.5 52.5t47.5 51q51 57 77 112.5t26 135.5q0 73 -21 133t-68.5 99.5t-113.5 39.5q-53 0 -93 -33t-63 -90.5t-34 -127.5t-11 -151v-798q0 -150 14 -191q6 -18 49.5 -27.5t75.5 -9.5 q7 -10 7 -38.5t-7 -38.5q-182 14 -258 14q-95 0 -278 -14q-7 10 -7 38.5z" />
<glyph unicode="&#xe0;" horiz-adv-x="1030" d="M75 251q0 64 37 115.5t82 66.5q191 65 410 153q14 16 14 52v60q0 85 -48.5 154t-118.5 69q-57 0 -85.5 -41.5t-44.5 -122.5q-22 -105 -116 -105q-41 0 -69.5 29.5t-28.5 70.5q0 15 6.5 37t16.5 39q22 21 63.5 48.5t99 58.5t128.5 52t135 21q80 0 147.5 -41.5 t108.5 -117.5t41 -170v-449q0 -47 15.5 -73.5t45.5 -26.5q13 0 25.5 3.5t20 7t16 9t9.5 5.5q11 -3 11 -27t-9 -39q-34 -32 -94.5 -67.5t-108.5 -35.5q-51 0 -97 41t-60 92q-28 -29 -122 -83t-147 -54q-119 0 -201 80.5t-82 188.5zM201 1459q0 7 4.5 15.5t15 19t31.5 17.5 t49 7q24 0 46.5 -5.5t30.5 -14.5q24 -28 54 -69t57 -81t49.5 -76.5t36 -60.5t13.5 -28q0 -11 -10 -22.5t-22 -11.5q-7 0 -45 23.5t-90 60.5t-101.5 78t-84 82t-34.5 66zM324 274q0 -66 45 -108.5t103 -42.5q32 0 67.5 14t57 30.5t21.5 26.5v314q-13 -4 -57.5 -20t-75 -28 t-50.5 -22q-54 -27 -82.5 -70t-28.5 -94z" />
<glyph unicode="&#xe1;" horiz-adv-x="1030" d="M75 251q0 64 37 115.5t82 66.5q191 65 410 153q14 16 14 52v60q0 85 -48.5 154t-118.5 69q-57 0 -85.5 -41.5t-44.5 -122.5q-22 -105 -116 -105q-41 0 -69.5 29.5t-28.5 70.5q0 15 6.5 37t16.5 39q22 21 63.5 48.5t99 58.5t128.5 52t135 21q80 0 147.5 -41.5 t108.5 -117.5t41 -170v-449q0 -47 15.5 -73.5t45.5 -26.5q13 0 25.5 3.5t20 7t16 9t9.5 5.5q11 -3 11 -27t-9 -39q-34 -32 -94.5 -67.5t-108.5 -35.5q-51 0 -97 41t-60 92q-28 -29 -122 -83t-147 -54q-119 0 -201 80.5t-82 188.5zM324 274q0 -66 45 -108.5t103 -42.5 q32 0 67.5 14t57 30.5t21.5 26.5v314q-13 -4 -57.5 -20t-75 -28t-50.5 -22q-54 -27 -82.5 -70t-28.5 -94zM401 1183q0 7 34.5 64t86 132t89.5 119q9 9 31.5 14.5t46.5 5.5q27 0 48.5 -7t31.5 -17.5t15 -19t5 -15.5q0 -31 -52.5 -85.5t-117 -103t-121 -85t-65.5 -36.5 q-11 0 -21.5 11.5t-10.5 22.5z" />
<glyph unicode="&#xe2;" horiz-adv-x="1030" d="M75 251q0 64 37 115.5t82 66.5q191 65 410 153q14 16 14 52v60q0 85 -48.5 154t-118.5 69q-57 0 -85.5 -41.5t-44.5 -122.5q-22 -105 -116 -105q-41 0 -69.5 29.5t-28.5 70.5q0 15 6.5 37t16.5 39q22 21 63.5 48.5t99 58.5t128.5 52t135 21q80 0 147.5 -41.5 t108.5 -117.5t41 -170v-449q0 -47 15.5 -73.5t45.5 -26.5q13 0 25.5 3.5t20 7t16 9t9.5 5.5q11 -3 11 -27t-9 -39q-34 -32 -94.5 -67.5t-108.5 -35.5q-51 0 -97 41t-60 92q-28 -29 -122 -83t-147 -54q-119 0 -201 80.5t-82 188.5zM294 1204q3 3 17.5 19l29 32t39.5 45.5 t51 62.5q35 43 87 126q4 8 7.5 12.5t7.5 6t10 1.5q7 0 12 -4t13 -16q2 -3 31 -48.5t51 -72.5q34 -44 67 -82t53 -59t21 -23q0 -21 -4.5 -38t-13.5 -17q-17 0 -96 56t-134 104q-54 -48 -131.5 -104t-94.5 -56q-9 0 -16 19.5t-7 35.5zM324 274q0 -66 45 -108.5t103 -42.5 q32 0 67.5 14t57 30.5t21.5 26.5v314q-13 -4 -57.5 -20t-75 -28t-50.5 -22q-54 -27 -82.5 -70t-28.5 -94z" />
<glyph unicode="&#xe3;" horiz-adv-x="1030" d="M75 251q0 64 37 115.5t82 66.5q191 65 410 153q14 16 14 52v60q0 85 -48.5 154t-118.5 69q-57 0 -85.5 -41.5t-44.5 -122.5q-22 -105 -116 -105q-41 0 -69.5 29.5t-28.5 70.5q0 15 6.5 37t16.5 39q22 21 63.5 48.5t99 58.5t128.5 52t135 21q80 0 147.5 -41.5 t108.5 -117.5t41 -170v-449q0 -47 15.5 -73.5t45.5 -26.5q13 0 25.5 3.5t20 7t16 9t9.5 5.5q11 -3 11 -27t-9 -39q-34 -32 -94.5 -67.5t-108.5 -35.5q-51 0 -97 41t-60 92q-28 -29 -122 -83t-147 -54q-119 0 -201 80.5t-82 188.5zM171 1199q0 42 32 101q64 100 155 100 q15 0 31 -3.5t25.5 -6t27.5 -12t22 -12t25 -16.5t22 -14q18 -12 38 -23.5t40 -20.5t38.5 -14.5t31.5 -5.5q31 0 57.5 15.5t39.5 33.5t25 36t17 20q16 0 16 -25q0 -36 -37 -103q-64 -100 -155 -100q-28 0 -55 9t-43 18t-44 27q-1 1 -2 1.5t-3 2t-3 1.5q-31 21 -51.5 33.5 t-49 24t-50.5 11.5q-25 0 -46 -10t-34 -25t-22 -30.5t-16 -27.5t-11 -14q-10 0 -15.5 10t-5.5 19zM324 274q0 -66 45 -108.5t103 -42.5q32 0 67.5 14t57 30.5t21.5 26.5v314q-13 -4 -57.5 -20t-75 -28t-50.5 -22q-54 -27 -82.5 -70t-28.5 -94z" />
<glyph unicode="&#xe4;" horiz-adv-x="1030" d="M75 251q0 64 37 115.5t82 66.5q191 65 410 153q14 16 14 52v60q0 85 -48.5 154t-118.5 69q-57 0 -85.5 -41.5t-44.5 -122.5q-22 -105 -116 -105q-41 0 -69.5 29.5t-28.5 70.5q0 15 6.5 37t16.5 39q22 21 63.5 48.5t99 58.5t128.5 52t135 21q80 0 147.5 -41.5 t108.5 -117.5t41 -170v-449q0 -47 15.5 -73.5t45.5 -26.5q13 0 25.5 3.5t20 7t16 9t9.5 5.5q11 -3 11 -27t-9 -39q-34 -32 -94.5 -67.5t-108.5 -35.5q-51 0 -97 41t-60 92q-28 -29 -122 -83t-147 -54q-119 0 -201 80.5t-82 188.5zM125 1284q0 54 40 92t95 38t94.5 -39 t39.5 -94q0 -26 -10.5 -51t-29 -42.5t-43 -28t-51.5 -10.5q-55 0 -95 40t-40 95zM324 274q0 -66 45 -108.5t103 -42.5q32 0 67.5 14t57 30.5t21.5 26.5v314q-13 -4 -57.5 -20t-75 -28t-50.5 -22q-54 -27 -82.5 -70t-28.5 -94zM575 1284q0 26 10.5 50.5t29 41.5t43 27.5 t51.5 10.5q55 0 95 -39t40 -94q0 -35 -19 -66t-50.5 -48.5t-67.5 -17.5q-55 0 -93.5 40t-38.5 95z" />
<glyph unicode="&#xe5;" horiz-adv-x="1030" d="M75 251q0 64 37 115.5t82 66.5q191 65 410 153q14 16 14 52v60q0 85 -48.5 154t-118.5 69q-57 0 -85.5 -41.5t-44.5 -122.5q-22 -105 -116 -105q-41 0 -69.5 29.5t-28.5 70.5q0 15 6.5 37t16.5 39q22 21 63.5 48.5t99 58.5t128.5 52t135 21q80 0 147.5 -41.5 t108.5 -117.5t41 -170v-449q0 -47 15.5 -73.5t45.5 -26.5q13 0 25.5 3.5t20 7t16 9t9.5 5.5q11 -3 11 -27t-9 -39q-34 -32 -94.5 -67.5t-108.5 -35.5q-51 0 -97 41t-60 92q-28 -29 -122 -83t-147 -54q-119 0 -201 80.5t-82 188.5zM283 1389q0 98 71 168.5t170 70.5 t168.5 -70t69.5 -169.5t-69.5 -169.5t-168.5 -70q-65 0 -120.5 32t-88 87.5t-32.5 120.5zM324 274q0 -66 45 -108.5t103 -42.5q32 0 67.5 14t57 30.5t21.5 26.5v314q-13 -4 -57.5 -20t-75 -28t-50.5 -22q-54 -27 -82.5 -70t-28.5 -94zM378 1389q0 -60 43 -102t103 -42 t101 41.5t41 102.5q0 60 -41 102.5t-101 42.5q-59 0 -102.5 -43t-43.5 -102z" />
<glyph unicode="&#xe6;" horiz-adv-x="1536" d="M75 251q0 64 34.5 113.5t79.5 68.5q55 23 219 84t201 76q19 11 23 41q3 35 0 73q-9 89 -59.5 151.5t-121.5 62.5q-57 0 -85.5 -42.5t-44.5 -123.5q-22 -103 -116 -103q-41 0 -69.5 29.5t-28.5 70.5t23 76q18 18 59 45.5t98.5 59t130 53.5t136.5 22q75 0 138 -36t101 -96 q59 57 133.5 94.5t156.5 37.5q59 0 110.5 -12.5t88.5 -33t67 -48t49 -57.5t31.5 -62t17.5 -60t5 -53q0 -30 -6.5 -52.5t-20 -36t-32.5 -14.5q-132 -10 -561 -20q-1 -74 13.5 -136.5t41 -106t60.5 -76.5t74 -52t79.5 -28.5t78.5 -9.5q59 0 113.5 21.5t85 45t54.5 50.5 q7 -2 15 -13.5t8 -23.5q0 -20 -12 -43q-18 -28 -49 -59.5t-77.5 -66.5t-111.5 -57t-133 -22q-114 0 -215 46t-157 132q-70 -61 -178.5 -119.5t-163.5 -58.5q-119 0 -201 80.5t-82 188.5zM324 274q0 -66 45 -108.5t103 -42.5q34 0 77 16t74 43t31 53q-13 34 -24 93t-14 114 q-2 3 -1 32t1 32q-11 -4 -56 -19t-75.5 -27t-49.5 -22q-54 -27 -82.5 -70t-28.5 -94zM841 645q34 0 171 3t162 6q20 0 30.5 12.5t10.5 33.5q0 33 -9 69t-27 71t-51.5 58t-76.5 23q-46 0 -84.5 -25t-61 -61t-38 -76t-21.5 -70t-5 -44z" />
<glyph unicode="&#xe7;" horiz-adv-x="989" d="M80 449q0 111 51 216t132.5 179.5t185 120t205.5 45.5q147 0 219 -48q32 -37 32 -86q0 -54 -32 -90t-77 -36q-25 0 -47 14t-51 44.5t-35 35.5q-34 29 -67.5 43t-75.5 14q-40 0 -78.5 -28.5t-66.5 -75t-45.5 -111.5t-17.5 -134q0 -61 10.5 -114t28.5 -93t43.5 -72.5 t55.5 -54.5t65 -37t71.5 -21.5t74.5 -6.5q147 0 249 114q7 -2 15 -13.5t8 -23.5q0 -25 -10 -43q-13 -22 -35 -46.5t-57.5 -53.5t-76 -51.5t-95 -38t-110.5 -15.5q-130 0 -237.5 60t-169.5 167.5t-62 239.5zM383 -274q0 14 5 14q63 -32 114 -32q49 0 73.5 21.5t24.5 51.5 q0 22 -8.5 39t-23.5 26.5t-34 9.5q-20 0 -60 -16q-2 0 -8.5 5.5t-12 13.5t-4.5 13q19 32 38.5 65.5t30.5 55.5h61q-32 -43 -36 -52q4 0 27 1t27 1q44 0 76 -33.5t32 -78.5q0 -53 -26.5 -94.5t-73.5 -64.5t-106 -23q-31 0 -60.5 11t-41.5 23q-14 27 -14 43z" />
<glyph unicode="&#xe8;" horiz-adv-x="1014" d="M82 456q0 108 42.5 211t109.5 177t154 119t173 45q69 0 127 -16.5t97 -44t68 -61t45.5 -71t24 -70.5t7.5 -63q0 -46 -14.5 -73.5t-42.5 -29.5q-131 -10 -563 -20q-1 -74 13.5 -136.5t41 -106t60.5 -76.5t74 -52t79 -28.5t79 -9.5q45 0 87 12t74.5 31t54.5 37t39 37 q7 -2 15 -13.5t8 -23.5q0 -20 -12 -43q-18 -28 -49 -59.5t-77.5 -66.5t-111 -57t-133.5 -22q-131 0 -238 59t-169.5 168t-62.5 247zM287 1489q0 6 5 15t15 19.5t31.5 17.5t49.5 7q23 0 46 -6t31 -14q39 -45 90.5 -120.5t85.5 -132t34 -62.5q0 -7 -4.5 -15t-12 -13.5 t-15.5 -5.5q-9 0 -65 36t-121 85t-117.5 103.5t-52.5 85.5zM319 645q33 0 170.5 3t162.5 6q20 0 30.5 12.5t10.5 33.5q0 33 -9 69t-27 71t-51.5 58t-76.5 23q-46 0 -84.5 -25t-61 -61t-38 -76t-21.5 -70t-5 -44z" />
<glyph unicode="&#xe9;" horiz-adv-x="1014" d="M82 456q0 108 42.5 211t109.5 177t154 119t173 45q69 0 127 -16.5t97 -44t68 -61t45.5 -71t24 -70.5t7.5 -63q0 -46 -14.5 -73.5t-42.5 -29.5q-131 -10 -563 -20q-1 -74 13.5 -136.5t41 -106t60.5 -76.5t74 -52t79 -28.5t79 -9.5q45 0 87 12t74.5 31t54.5 37t39 37 q7 -2 15 -13.5t8 -23.5q0 -20 -12 -43q-18 -28 -49 -59.5t-77.5 -66.5t-111 -57t-133.5 -22q-131 0 -238 59t-169.5 168t-62.5 247zM319 645q33 0 170.5 3t162.5 6q20 0 30.5 12.5t10.5 33.5q0 33 -9 69t-27 71t-51.5 58t-76.5 23q-46 0 -84.5 -25t-61 -61t-38 -76 t-21.5 -70t-5 -44zM461 1213q0 7 34.5 64t86 131.5t88.5 119.5q9 8 31.5 14t46.5 6q28 0 49 -7t31.5 -17.5t15 -19.5t4.5 -15q0 -31 -52 -85.5t-117 -103.5t-121 -85t-66 -36q-11 0 -21 11.5t-10 22.5z" />
<glyph unicode="&#xea;" horiz-adv-x="1014" d="M82 456q0 108 42.5 211t109.5 177t154 119t173 45q69 0 127 -16.5t97 -44t68 -61t45.5 -71t24 -70.5t7.5 -63q0 -46 -14.5 -73.5t-42.5 -29.5q-131 -10 -563 -20q-1 -74 13.5 -136.5t41 -106t60.5 -76.5t74 -52t79 -28.5t79 -9.5q45 0 87 12t74.5 31t54.5 37t39 37 q7 -2 15 -13.5t8 -23.5q0 -20 -12 -43q-18 -28 -49 -59.5t-77.5 -66.5t-111 -57t-133.5 -22q-131 0 -238 59t-169.5 168t-62.5 247zM303 1204q3 3 17.5 19l29 32t39.5 45.5t51 62.5q35 43 87 126q5 8 8 12.5t7 6t10 1.5q8 0 12.5 -4t12.5 -16q8 -13 22.5 -35.5t29 -44 t30.5 -41.5q27 -34 53.5 -66t43 -50t29.5 -31.5t15 -16.5q0 -21 -4.5 -38t-13.5 -17q-17 0 -96 56t-134 104q-33 -30 -80.5 -66.5t-90.5 -65t-55 -28.5q-9 0 -16 19.5t-7 35.5zM319 645q33 0 170.5 3t162.5 6q20 0 30.5 12.5t10.5 33.5q0 33 -9 69t-27 71t-51.5 58t-76.5 23 q-46 0 -84.5 -25t-61 -61t-38 -76t-21.5 -70t-5 -44z" />
<glyph unicode="&#xeb;" horiz-adv-x="1014" d="M82 456q0 108 42.5 211t109.5 177t154 119t173 45q69 0 127 -16.5t97 -44t68 -61t45.5 -71t24 -70.5t7.5 -63q0 -46 -14.5 -73.5t-42.5 -29.5q-131 -10 -563 -20q-1 -74 13.5 -136.5t41 -106t60.5 -76.5t74 -52t79 -28.5t79 -9.5q45 0 87 12t74.5 31t54.5 37t39 37 q7 -2 15 -13.5t8 -23.5q0 -20 -12 -43q-18 -28 -49 -59.5t-77.5 -66.5t-111 -57t-133.5 -22q-131 0 -238 59t-169.5 168t-62.5 247zM171 1254q0 54 39.5 92t95.5 38q54 0 94 -39t40 -93.5t-40 -93.5t-94 -39q-55 0 -95 40t-40 95zM319 645q33 0 170.5 3t162.5 6 q20 0 30.5 12.5t10.5 33.5q0 33 -9 69t-27 71t-51.5 58t-76.5 23q-46 0 -84.5 -25t-61 -61t-38 -76t-21.5 -70t-5 -44zM620 1254q0 54 40 92t95 38t94.5 -39t39.5 -93q0 -55 -40.5 -94t-96.5 -39q-54 0 -93 40t-39 95z" />
<glyph unicode="&#xec;" horiz-adv-x="670" d="M76 28.5q0 27.5 7 37.5q33 0 85.5 10.5t58.5 28.5q16 48 16 191v347q0 115 -16 153q-12 23 -63.5 33t-82.5 10q-4 4 -5 32t5 32q103 10 207.5 41t177.5 68q10 -1 21 -16t11 -22q-4 -16 -11 -69.5t-7 -72.5v-109v-427q0 -150 13 -191q6 -18 55.5 -28.5t81.5 -10.5 q7 -10 7 -37.5t-7 -37.5q-182 14 -271 14q-94 0 -276 -14q-7 10 -7 37.5zM94 1489q0 6 5 15t15.5 19.5t31.5 17.5t49 7q24 0 46.5 -6t30.5 -14q39 -45 90.5 -120.5t85.5 -132t34 -62.5q0 -11 -10 -22.5t-22 -11.5q-9 0 -65 36t-121 85t-117.5 103.5t-52.5 85.5z" />
<glyph unicode="&#xed;" horiz-adv-x="670" d="M76 28.5q0 27.5 7 37.5q33 0 85.5 10.5t58.5 28.5q16 48 16 191v347q0 115 -16 153q-12 23 -63.5 33t-82.5 10q-4 4 -5 32t5 32q103 10 207.5 41t177.5 68q10 -1 21 -16t11 -22q-4 -16 -11 -69.5t-7 -72.5v-109v-427q0 -150 13 -191q6 -18 55.5 -28.5t81.5 -10.5 q7 -10 7 -37.5t-7 -37.5q-182 14 -271 14q-94 0 -276 -14q-7 10 -7 37.5zM202 1213q0 7 34.5 64t86 131.5t88.5 119.5q9 8 31.5 14t46.5 6q28 0 49 -7t31.5 -17.5t15 -19.5t4.5 -15q0 -25 -34.5 -66t-84.5 -82t-101.5 -78.5t-89.5 -60.5t-45 -23q-12 0 -22 11.5t-10 22.5z " />
<glyph unicode="&#xee;" horiz-adv-x="670" d="M76 28.5q0 27.5 7 37.5q33 0 85.5 10.5t58.5 28.5q16 48 16 191v347q0 115 -16 153q-12 23 -63.5 33t-82.5 10q-4 4 -5 32t5 32q103 10 207.5 41t177.5 68q10 -1 21 -16t11 -22q-4 -16 -11 -69.5t-7 -72.5v-109v-427q0 -150 13 -191q6 -18 55.5 -28.5t81.5 -10.5 q7 -10 7 -37.5t-7 -37.5q-182 14 -271 14q-94 0 -276 -14q-7 10 -7 37.5zM94 1204q3 3 17.5 19l29 32t39.5 45.5t51 62.5q35 43 87 126q7 12 12 16t13 4t12.5 -4t12.5 -16q2 -3 31 -48.5t51 -72.5q27 -34 53.5 -66t43 -50t29.5 -31.5t16 -16.5q0 -21 -4.5 -38t-14.5 -17 q-17 0 -96 56t-134 104q-53 -48 -130.5 -104t-95.5 -56q-9 0 -16 19.5t-7 35.5z" />
<glyph unicode="&#xef;" horiz-adv-x="670" d="M-2 1263q0 54 42 94.5t97 40.5t94.5 -40t39.5 -95q0 -54 -41 -94t-95.5 -40t-95.5 40t-41 94zM77 871q-1 28 5 32q103 10 208 41t177 68q10 -1 21 -16t11 -22q-4 -16 -11 -69.5t-7 -72.5v-109v-427q0 -150 14 -191q6 -18 55 -28.5t82 -10.5q6 -10 6 -37.5t-6 -37.5 q-183 14 -272 14q-93 0 -276 -14q-6 10 -6 37.5t6 37.5q33 0 85.5 10.5t58.5 28.5q16 48 16 191v347q0 115 -16 153q-12 23 -63.5 33t-82.5 10q-4 4 -5 32zM413 1263q0 55 41 95t95.5 40t95.5 -40t41 -94.5t-42 -94.5t-97 -40t-94.5 39.5t-39.5 94.5z" />
<glyph unicode="&#xf0;" horiz-adv-x="1208" d="M84 488q0 111 37.5 208.5t101.5 166.5t152.5 109t187.5 40q100 0 169 -27q-63 185 -205 321l-228 -152q-17 17 -33.5 41.5t-7.5 33.5l203 137q-119 90 -258 148q-2 17 4 35.5t19 23.5q156 -29 335 -139l253 171q10 -10 21 -23t19.5 -29.5t2.5 -22.5l-219 -148 q116 -85 196 -178q251 -287 251 -627q0 -131 -39.5 -243t-107 -187.5t-157.5 -118t-190 -42.5q-104 0 -196 34t-161 96.5t-109.5 158.5t-40.5 213zM340 502q0 -90 21 -170t56 -136.5t82.5 -89.5t97.5 -33q61 0 106.5 34t72 93.5t39.5 131.5t13 156q0 92 -15 176.5t-42 138.5 q-71 123 -203 123q-51 0 -90.5 -24.5t-65 -64.5t-42 -95.5t-23.5 -114.5t-7 -125z" />
<glyph unicode="&#xf1;" horiz-adv-x="1288" d="M66.5 871q-1.5 28 5.5 32q103 10 207.5 41t177.5 68q6 0 14 -7t13 -16.5t5 -14.5q-3 -13 -10.5 -68t-7.5 -62q0 -14 4 -14q3 0 12 9q29 34 80 71.5t116.5 67.5t115.5 30q76 0 129 -21t87 -58.5t53.5 -102.5t26.5 -142t7 -187v-201q0 -150 14 -191q6 -18 59 -28.5 t87 -10.5q7 -10 7 -37.5t-7 -37.5q-183 14 -278 14q-82 0 -265 -14q-7 10 -7 37.5t7 37.5q32 0 79 10.5t53 28.5q14 41 14 191v206q0 70 -5 122t-17.5 96t-33.5 71t-53.5 42t-77.5 15q-40 0 -90.5 -24.5t-83.5 -54.5t-33 -46v-427q0 -150 13 -191q6 -18 55.5 -28.5 t81.5 -10.5q7 -10 7 -37.5t-7 -37.5q-182 14 -271 14q-94 0 -276 -14q-7 10 -7 37.5t7 37.5q18 0 47.5 3.5t60.5 13t36 22.5q5 15 8.5 34t5 48t2 49t0.5 60v347q0 121 -16 153q-12 23 -63.5 33t-82.5 10q-4 4 -5.5 32zM354 1199q0 42 32 101q65 100 155 100q16 0 32 -3.5 t25.5 -6t27 -12t21.5 -12t25 -16.5t22 -14q40 -26 81.5 -45t66.5 -19q32 0 58 15.5t39.5 33.5t25.5 36t16 20q16 0 16 -25q0 -36 -36 -103q-65 -100 -155 -100q-30 0 -60 10.5t-43 18.5t-48 30q-14 10 -24.5 16.5t-25 15.5t-26.5 15t-25 11t-25.5 8t-23.5 3q-26 0 -47 -10 t-33.5 -25t-22 -30.5t-16.5 -27.5t-11 -14q-9 0 -15 10t-6 19z" />
<glyph unicode="&#xf2;" horiz-adv-x="1185" d="M82 490q0 108 39 204.5t106 165.5t161 109.5t200 40.5q114 0 210 -38t162.5 -105t103.5 -159.5t37 -199.5t-39 -204t-106.5 -167.5t-162 -111.5t-200.5 -41q-114 0 -210.5 39t-162 106.5t-102 160.5t-36.5 200zM296 1489q0 6 5 15t15.5 19.5t31.5 17.5t49 7q24 0 46.5 -6 t30.5 -14q39 -45 90.5 -120.5t85.5 -132t34 -62.5q0 -11 -10 -22.5t-22 -11.5q-9 0 -65 36t-121 85t-117.5 103.5t-52.5 85.5zM342 536q0 -65 10.5 -129.5t32.5 -125t53.5 -107.5t77.5 -75t100 -28q52 0 92 23t65 60.5t40.5 89.5t21.5 103.5t6 108.5q0 65 -10.5 130.5 t-33.5 126.5t-54.5 108.5t-77.5 76t-100 28.5q-52 0 -92 -23.5t-64.5 -61t-40 -90t-21 -104.5t-5.5 -111z" />
<glyph unicode="&#xf3;" horiz-adv-x="1185" d="M82 490q0 108 39 204.5t106 165.5t161 109.5t200 40.5q114 0 210 -38t162.5 -105t103.5 -159.5t37 -199.5t-39 -204t-106.5 -167.5t-162 -111.5t-200.5 -41q-114 0 -210.5 39t-162 106.5t-102 160.5t-36.5 200zM342 536q0 -65 10.5 -129.5t32.5 -125t53.5 -107.5 t77.5 -75t100 -28q52 0 92 23t65 60.5t40.5 89.5t21.5 103.5t6 108.5q0 65 -10.5 130.5t-33.5 126.5t-54.5 108.5t-77.5 76t-100 28.5q-52 0 -92 -23.5t-64.5 -61t-40 -90t-21 -104.5t-5.5 -111zM410 1213q0 7 34.5 64t86 131.5t89.5 119.5q9 8 31.5 14t46.5 6q28 0 49 -7 t31 -17.5t15 -19.5t5 -15q0 -31 -52 -85.5t-117 -103.5t-121 -85t-66 -36q-11 0 -21.5 11.5t-10.5 22.5z" />
<glyph unicode="&#xf4;" horiz-adv-x="1185" d="M82 490q0 108 39 204.5t106 165.5t161 109.5t200 40.5q114 0 210 -38t162.5 -105t103.5 -159.5t37 -199.5t-39 -204t-106.5 -167.5t-162 -111.5t-200.5 -41q-114 0 -210.5 39t-162 106.5t-102 160.5t-36.5 200zM340 1204q3 3 17.5 19t28.5 32t39.5 45.5t51.5 62.5 q35 43 86 126q7 12 12 16t13 4t12.5 -4t12.5 -16q2 -3 31.5 -48.5t50.5 -72.5q35 -44 67.5 -82t52.5 -59t22 -23q0 -13 -1.5 -24.5t-6 -21t-10.5 -9.5q-18 0 -97 56t-134 104q-53 -48 -130.5 -104t-94.5 -56q-10 0 -16.5 19.5t-6.5 35.5zM342 536q0 -65 10.5 -129.5 t32.5 -125t53.5 -107.5t77.5 -75t100 -28q52 0 92 23t65 60.5t40.5 89.5t21.5 103.5t6 108.5q0 65 -10.5 130.5t-33.5 126.5t-54.5 108.5t-77.5 76t-100 28.5q-52 0 -92 -23.5t-64.5 -61t-40 -90t-21 -104.5t-5.5 -111z" />
<glyph unicode="&#xf5;" horiz-adv-x="1185" d="M82 490q0 108 39 204.5t106 165.5t161 109.5t200 40.5q114 0 210 -38t162.5 -105t103.5 -159.5t37 -199.5t-39 -204t-106.5 -167.5t-162 -111.5t-200.5 -41q-114 0 -210.5 39t-162 106.5t-102 160.5t-36.5 200zM269 1199q0 42 32 101q64 100 155 100q15 0 31 -3.5 t25.5 -6t27.5 -12t22 -12t25 -16.5t22 -14q18 -12 38 -23.5t40 -20.5t38.5 -14.5t31.5 -5.5q31 0 57.5 15.5t39.5 33.5t25 36t17 20q16 0 16 -25q0 -36 -36 -103q-65 -100 -156 -100q-28 0 -55 9t-43 18t-43 27l-3 1.5t-3 2t-3 1.5q-31 21 -51.5 33.5t-49 24t-49.5 11.5 q-26 0 -47 -10t-34 -25t-22 -30.5t-16 -27.5t-11 -14q-10 0 -15.5 10t-5.5 19zM342 536q0 -65 10.5 -129.5t32.5 -125t53.5 -107.5t77.5 -75t100 -28q52 0 92 23t65 60.5t40.5 89.5t21.5 103.5t6 108.5q0 65 -10.5 130.5t-33.5 126.5t-54.5 108.5t-77.5 76t-100 28.5 q-52 0 -92 -23.5t-64.5 -61t-40 -90t-21 -104.5t-5.5 -111z" />
<glyph unicode="&#xf6;" horiz-adv-x="1185" d="M82 490q0 108 39 204.5t106 165.5t161 109.5t200 40.5q114 0 210 -38t162.5 -105t103.5 -159.5t37 -199.5t-39 -204t-106.5 -167.5t-162 -111.5t-200.5 -41q-114 0 -210.5 39t-162 106.5t-102 160.5t-36.5 200zM221 1254q0 54 40 92t95 38t94.5 -39t39.5 -93 q0 -36 -18 -66.5t-49 -48.5t-67 -18q-55 0 -95 40t-40 95zM342 536q0 -65 10.5 -129.5t32.5 -125t53.5 -107.5t77.5 -75t100 -28q52 0 92 23t65 60.5t40.5 89.5t21.5 103.5t6 108.5q0 65 -10.5 130.5t-33.5 126.5t-54.5 108.5t-77.5 76t-100 28.5q-52 0 -92 -23.5t-64.5 -61 t-40 -90t-21 -104.5t-5.5 -111zM670 1254q0 54 40 92t95 38t94.5 -39t39.5 -93q0 -55 -40.5 -94t-95.5 -39t-94 40t-39 95z" />
<glyph unicode="&#xf7;" horiz-adv-x="1386" d="M146 534q0 14 8.5 49.5t23.5 50.5h1042q8 0 14 -9t6 -21q0 -29 -9.5 -56.5t-24.5 -43.5h-1046q-3 0 -6 2.5t-5.5 9.5t-2.5 18zM565 137q0 53 37.5 90t90.5 37t90.5 -37t37.5 -90t-37.5 -90.5t-90.5 -37.5t-90.5 37.5t-37.5 90.5zM565 992q0 53 37.5 90t90.5 37 q35 0 64.5 -17t46.5 -46t17 -64q0 -53 -37.5 -90.5t-90.5 -37.5t-90.5 37.5t-37.5 90.5z" />
<glyph unicode="&#xf8;" horiz-adv-x="1185" d="M82 490q0 108 39 204.5t106 165.5t161 109.5t200 40.5q114 0 210 -38t162.5 -105t103.5 -159.5t37 -199.5t-39 -204t-106.5 -167.5t-162 -111.5t-200.5 -41q-114 0 -210.5 39t-162 106.5t-102 160.5t-36.5 200zM237 0l682 990q8 -3 23.5 -10.5t29 -16t11.5 -12.5 l-682 -992q-8 3 -23.5 10.5t-29 17t-11.5 13.5zM342 536q0 -65 10.5 -129.5t32.5 -125t53.5 -107.5t77.5 -75t100 -28q52 0 92 23t65 60.5t40.5 89.5t21.5 103.5t6 108.5q0 65 -10.5 130.5t-33.5 126.5t-54.5 108.5t-77.5 76t-100 28.5q-52 0 -92 -23.5t-64.5 -61t-40 -90 t-21 -104.5t-5.5 -111z" />
<glyph unicode="&#xf9;" horiz-adv-x="1228" d="M25.5 896q-0.5 28 6.5 32q101 6 204 30.5t174 53.5q10 -1 21 -18t11 -25q-4 -9 -8.5 -33.5t-7 -55t-2.5 -55.5v-123v-219q0 -187 45.5 -275.5t155.5 -88.5q61 0 119.5 35t58.5 69v440q0 121 -19 156q-9 16 -39.5 27t-55.5 14.5t-41 3.5q-6 3 -5.5 32t7.5 32 q101 6 203.5 30.5t174.5 53.5q10 -1 21 -18t11 -25q-4 -9 -9 -33.5t-8 -55t-3 -55.5v-125v-417q0 -85 18 -128q16 -32 118 -32q7 -7 7 -27q0 -8 -4.5 -22.5t-11.5 -18.5q-56 -4 -138 -22.5t-141.5 -34.5t-64.5 -16q-7 0 -13.5 13.5t-6.5 31.5v73q0 8 -1 9.5t-4 -0.5 q-47 -42 -139 -82.5t-185 -40.5q-67 0 -118.5 26t-83 67t-51 99t-27 116t-7.5 123v246q0 117 -21 156q-13 23 -58.5 34t-75.5 11q-6 4 -6.5 32zM317 1459q0 7 5 15.5t15 19t31 17.5t49 7q16 0 32 -2.5t28 -7t18 -10.5q38 -45 90 -120.5t86 -131.5t34 -63q0 -11 -10.5 -22.5 t-21.5 -11.5q-10 0 -66 36.5t-121 85t-117 103t-52 85.5z" />
<glyph unicode="&#xfa;" horiz-adv-x="1228" d="M25.5 896q-0.5 28 6.5 32q101 6 204 30.5t174 53.5q10 -1 21 -18t11 -25q-4 -9 -8.5 -33.5t-7 -55t-2.5 -55.5v-123v-219q0 -187 45.5 -275.5t155.5 -88.5q61 0 119.5 35t58.5 69v440q0 121 -19 156q-9 16 -39.5 27t-55.5 14.5t-41 3.5q-6 3 -5.5 32t7.5 32 q101 6 203.5 30.5t174.5 53.5q10 -1 21 -18t11 -25q-4 -9 -9 -33.5t-8 -55t-3 -55.5v-125v-417q0 -85 18 -128q16 -32 118 -32q7 -7 7 -27q0 -8 -4.5 -22.5t-11.5 -18.5q-56 -4 -138 -22.5t-141.5 -34.5t-64.5 -16q-7 0 -13.5 13.5t-6.5 31.5v73q0 8 -1 9.5t-4 -0.5 q-47 -42 -139 -82.5t-185 -40.5q-67 0 -118.5 26t-83 67t-51 99t-27 116t-7.5 123v246q0 117 -21 156q-13 23 -58.5 34t-75.5 11q-6 4 -6.5 32zM522 1183q0 7 34.5 64t86 132t89.5 119q8 9 31 14.5t46 5.5q28 0 49.5 -7t31.5 -17.5t15 -19t5 -15.5q0 -31 -52.5 -85.5 t-117.5 -103t-121 -85t-65 -36.5q-11 0 -21.5 11.5t-10.5 22.5z" />
<glyph unicode="&#xfb;" horiz-adv-x="1228" d="M25.5 896q-0.5 28 6.5 32q101 6 204 30.5t174 53.5q10 -1 21 -18t11 -25q-4 -9 -8.5 -33.5t-7 -55t-2.5 -55.5v-123v-219q0 -187 45.5 -275.5t155.5 -88.5q61 0 119.5 35t58.5 69v440q0 121 -19 156q-9 16 -39.5 27t-55.5 14.5t-41 3.5q-6 3 -5.5 32t7.5 32 q101 6 203.5 30.5t174.5 53.5q10 -1 21 -18t11 -25q-4 -9 -9 -33.5t-8 -55t-3 -55.5v-125v-417q0 -85 18 -128q16 -32 118 -32q7 -7 7 -27q0 -8 -4.5 -22.5t-11.5 -18.5q-56 -4 -138 -22.5t-141.5 -34.5t-64.5 -16q-7 0 -13.5 13.5t-6.5 31.5v73q0 8 -1 9.5t-4 -0.5 q-47 -42 -139 -82.5t-185 -40.5q-67 0 -118.5 26t-83 67t-51 99t-27 116t-7.5 123v246q0 117 -21 156q-13 23 -58.5 34t-75.5 11q-6 4 -6.5 32zM337 1204q3 3 17.5 19l29 32t39.5 45.5t51 62.5q35 43 87 126q7 12 12 16t13 4t12.5 -4t12.5 -16q2 -3 31 -48.5t51 -72.5 q27 -34 53.5 -66t43 -50t29.5 -31.5t15 -16.5q0 -21 -4 -38t-14 -17q-17 0 -96 56t-134 104q-53 -48 -130.5 -104t-95.5 -56q-9 0 -16 19.5t-7 35.5z" />
<glyph unicode="&#xfc;" horiz-adv-x="1228" d="M25.5 896q-0.5 28 6.5 32q101 6 204 30.5t174 53.5q10 -1 21 -18t11 -25q-4 -9 -8.5 -33.5t-7 -55t-2.5 -55.5v-123v-219q0 -187 45.5 -275.5t155.5 -88.5q61 0 119.5 35t58.5 69v440q0 121 -19 156q-9 16 -39.5 27t-55.5 14.5t-41 3.5q-6 3 -5.5 32t7.5 32 q101 6 203.5 30.5t174.5 53.5q10 -1 21 -18t11 -25q-4 -9 -9 -33.5t-8 -55t-3 -55.5v-125v-417q0 -85 18 -128q16 -32 118 -32q7 -7 7 -27q0 -8 -4.5 -22.5t-11.5 -18.5q-56 -4 -138 -22.5t-141.5 -34.5t-64.5 -16q-7 0 -13.5 13.5t-6.5 31.5v73q0 8 -1 9.5t-4 -0.5 q-47 -42 -139 -82.5t-185 -40.5q-67 0 -118.5 26t-83 67t-51 99t-27 116t-7.5 123v246q0 117 -21 156q-13 23 -58.5 34t-75.5 11q-6 4 -6.5 32zM219 1284q0 54 39.5 92t94.5 38t95 -39t40 -93.5t-40 -93.5t-95 -39q-54 0 -94 40t-40 95zM668 1284q0 54 39.5 92t95.5 38 q54 0 94 -39t40 -94q0 -54 -41 -93t-96 -39q-54 0 -93 40t-39 95z" />
<glyph unicode="&#xfd;" horiz-adv-x="1142" d="M-0.5 958.5q0.5 30.5 6.5 37.5q183 -16 266 -16q90 0 258 16q7 -10 5.5 -40t-10.5 -35q-30 0 -76.5 -13t-46.5 -37q0 -14 5 -23q18 -35 77.5 -168.5t109.5 -249.5l50 -115q110 269 191 460q21 45 21 78q0 17 -16 31t-40.5 21.5t-48 11.5t-43.5 4q-8 4 -7.5 34.5t7.5 40.5 q117 -16 221 -16q71 0 214 16q7 -10 6 -39t-8 -36q-18 0 -46.5 -5t-66.5 -24.5t-51 -47.5q-29 -67 -88 -200t-136 -305.5t-134 -302.5q-7 -14 -26.5 -58.5t-27 -61t-24.5 -53t-27.5 -57t-26.5 -50t-31.5 -54t-32.5 -49.5q-38 -50 -80.5 -87t-82.5 -55.5t-74 -18.5 q-37 0 -65.5 11.5t-46.5 37t-18 60.5q0 50 41 87q112 0 184.5 33t132.5 119q9 14 19.5 32.5t18 33.5t17.5 37.5t14.5 33.5t13.5 34t10 25q-150 354 -367 817q-9 20 -28.5 35t-41 21.5t-37.5 9t-27 2.5q-7 7 -6.5 37.5zM562 1213q0 7 34.5 64t86 131.5t89.5 119.5 q8 8 30.5 14t46.5 6q28 0 49 -7t31.5 -17.5t15 -19.5t4.5 -15q0 -31 -52 -85.5t-117 -103.5t-121 -85t-65 -36q-12 0 -22 11.5t-10 22.5z" />
<glyph unicode="&#xfe;" horiz-adv-x="1174" d="M-9 -468.5q0 27.5 9 37.5q33 0 86.5 10.5t59.5 28.5q3 8 5.5 18t4 24t2.5 23.5t1.5 30t0.5 28.5v34v33v1473q0 82 -14 114q-5 11 -20.5 19t-36 13t-41.5 7t-39 2q-1 0 -2.5 6.5t-2 16t-0.5 19t1.5 16.5t3.5 8q123 13 228 40t155 49q10 0 20 -12.5t10 -23.5 q-25 -105 -25 -214v-445q0 -9 2 -11q3 -4 7 0q55 51 129 92.5t131 41.5q80 0 151 -28.5t121 -76t86.5 -109t54.5 -129.5t18 -136q0 -93 -32.5 -180t-87 -152.5t-124.5 -115.5t-148.5 -75.5t-155.5 -25.5q-21 0 -45.5 3t-41 6.5t-36 8t-22.5 5.5q-7 0 -7 -32v-174 q0 -150 13 -191q3 -7 12.5 -12.5t23.5 -9.5t30.5 -7.5t32 -5.5t28 -3t19.5 -1q7 -10 7 -37.5t-7 -37.5q-182 14 -278 14t-278 -14q-9 10 -9 37.5zM397 223q0 -49 29.5 -84.5t69.5 -50.5t83 -15q50 0 96.5 27.5t82 76t57.5 120t22 152.5q0 191 -75 301t-208 110 q-61 0 -109 -27.5t-48 -48.5v-561z" />
<glyph unicode="&#xff;" horiz-adv-x="1142" d="M-0.5 958.5q0.5 30.5 6.5 37.5q183 -16 266 -16q90 0 258 16q7 -10 5.5 -40t-10.5 -35q-30 0 -76.5 -13t-46.5 -37q0 -14 5 -23q18 -35 77.5 -168.5t109.5 -249.5l50 -115q110 269 191 460q21 45 21 78q0 17 -16 31t-40.5 21.5t-48 11.5t-43.5 4q-8 4 -7.5 34.5t7.5 40.5 q117 -16 221 -16q71 0 214 16q7 -10 6 -39t-8 -36q-18 0 -46.5 -5t-66.5 -24.5t-51 -47.5q-29 -67 -88 -200t-136 -305.5t-134 -302.5q-7 -14 -26.5 -58.5t-27 -61t-24.5 -53t-27.5 -57t-26.5 -50t-31.5 -54t-32.5 -49.5q-38 -50 -80.5 -87t-82.5 -55.5t-74 -18.5 q-37 0 -65.5 11.5t-46.5 37t-18 60.5q0 50 41 87q112 0 184.5 33t132.5 119q9 14 19.5 32.5t18 33.5t17.5 37.5t14.5 33.5t13.5 34t10 25q-150 354 -367 817q-9 20 -28.5 35t-41 21.5t-37.5 9t-27 2.5q-7 7 -6.5 37.5zM268 1254q0 54 39.5 92t94.5 38q36 0 67 -17.5 t49.5 -48t18.5 -66.5q0 -55 -40 -94t-95 -39q-54 0 -94 40t-40 95zM717 1254q0 27 11 51t29 41.5t42.5 27.5t51.5 10q36 0 67 -17.5t49.5 -48t18.5 -66.5q0 -55 -41 -94t-96 -39q-54 0 -93 40t-39 95z" />
<glyph unicode="&#x152;" horiz-adv-x="2316" d="M103 748q0 104 28 204.5t78 184.5t120.5 155t152.5 120t177 76.5t191 27.5q73 0 258 -10t244 -10q73 0 355.5 9t383.5 9q9 -67 36 -183.5t32 -140.5q-2 -2 -8 -4.5t-13.5 -4t-15 -2t-13.5 -0.5q-26 0 -32 16q-37 116 -97.5 167.5t-157.5 51.5h-194q-125 0 -135 -25 q-11 -32 -11 -151v-413q0 -9 29 -14.5t69 -5.5h119q47 0 76 1.5t53.5 9.5t37 16.5t25 30t19 42.5t17.5 62q3 18 29 18q12 0 25 -4t19 -10v-433q-10 -9 -41 -9q-27 0 -35 18q-15 56 -28 88t-21.5 41.5t-20.5 16.5q-32 16 -210 16q-162 0 -162 -25v-392q0 -142 16 -169 q28 -34 155 -34h128q33 0 67.5 4.5t67.5 12.5t63.5 20.5t51.5 28.5q81 64 133 223q3 14 32 14q17 0 37.5 -4t25.5 -10q-7 -21 -33.5 -94t-39.5 -110.5t-28.5 -91.5t-21.5 -89q-58 0 -337.5 2.5t-451.5 2.5q-196 0 -291 -5q-12 0 -19 -0.5t-15.5 -1.5t-53 -1.5t-122.5 -0.5 q-148 0 -285 59t-237.5 159.5t-160.5 242t-60 298.5zM388 812q0 -89 13.5 -177t40.5 -171t70 -153.5t98 -124t128.5 -83.5t157.5 -30q214 0 274 82q31 43 41.5 94.5t10.5 138.5v716q0 156 -77 228q-100 95 -338 95q-87 0 -158.5 -36t-119 -96t-80.5 -140.5t-47 -166.5 t-14 -176z" />
<glyph unicode="&#x153;" horiz-adv-x="1780" d="M82 490q0 108 39 204.5t106 165.5t161 109.5t200 40.5q86 0 161.5 -22t135.5 -62t105 -96q68 82 158 130t179 48q59 0 110.5 -12.5t88.5 -33t67 -48t48.5 -57.5t31.5 -62t18 -60t5 -53q0 -30 -6.5 -52.5t-20 -36t-32.5 -14.5q-38 -3 -117 -6.5t-153 -5.5t-163.5 -4.5 t-125.5 -3.5q0 -94 23.5 -168t59.5 -118t83.5 -73t91 -39.5t87.5 -10.5q59 0 113.5 21.5t85 45t54.5 50.5q7 -2 15 -13.5t8 -23.5q0 -20 -12 -43q-14 -22 -35.5 -46t-56.5 -53.5t-75.5 -52t-94.5 -38t-109 -15.5q-109 0 -201.5 43t-156.5 121q-69 -76 -163.5 -119 t-201.5 -43q-114 0 -210.5 39t-162 106.5t-102 160.5t-36.5 200zM342 536q0 -65 10.5 -129.5t32.5 -125t53.5 -107.5t77.5 -75t100 -28q52 0 92 23t65 60.5t40.5 89.5t21.5 103.5t6 108.5q0 65 -10.5 130.5t-33.5 126.5t-54.5 108.5t-77.5 76t-100 28.5q-52 0 -92 -23.5 t-64.5 -61t-40 -90t-21 -104.5t-5.5 -111zM1085 645q34 0 171 3t162 6q20 0 30.5 12.5t10.5 33.5q0 33 -9 69t-27 71t-51.5 58t-76.5 23q-46 0 -84.5 -25t-61 -61t-38 -76t-21.5 -70t-5 -44z" />
<glyph unicode="&#x178;" horiz-adv-x="1393" d="M-15.5 1470q0.5 29 7.5 39q201 -13 305 -13q126 0 308 13q6 -11 6 -39.5t-8 -35.5q-17 0 -36 -2t-44.5 -8.5t-42 -20.5t-16.5 -35q0 -17 23 -55l291 -520q29 45 88.5 153t116 214.5t90.5 173.5q9 27 9 43q0 20 -54 37.5t-113 17.5q-6 6 -6.5 38.5t4.5 38.5 q23 -1 63.5 -4.5t61.5 -5t54 -2.5t67 -1q49 0 90 2t86 6t77 5q6 -10 5.5 -40.5t-7.5 -36.5q-141 0 -185 -73q-84 -139 -210 -355t-180 -320q-11 -21 -11 -59v-329q0 -150 14 -191q3 -10 23 -18t45.5 -12t47.5 -6.5t34 -2.5q7 -10 7 -37.5t-7 -37.5q-182 14 -296 14 q-112 0 -294 -14q-7 10 -7 37.5t7 37.5q34 0 89 10.5t61 28.5q16 48 16 191v333q0 19 -16 55q-42 81 -101 188.5t-120 216.5t-82 147q-20 36 -37.5 60.5t-33.5 41.5t-41 39q-24 27 -68.5 42t-72.5 15q-8 7 -7.5 36zM373 1798.5q0 54.5 39.5 93.5t94.5 39q36 0 67 -17.5 t49.5 -48t18.5 -66.5q0 -55 -40 -93.5t-95 -38.5t-94.5 38.5t-39.5 93zM858 1799q0 54 40 93t95 39t94.5 -39t39.5 -93t-40.5 -93t-95.5 -39q-36 0 -66.5 17.5t-48.5 48t-18 66.5z" />
<glyph unicode="&#x2000;" horiz-adv-x="986" />
<glyph unicode="&#x2001;" horiz-adv-x="1972" />
<glyph unicode="&#x2002;" horiz-adv-x="986" />
<glyph unicode="&#x2003;" horiz-adv-x="1972" />
<glyph unicode="&#x2004;" horiz-adv-x="657" />
<glyph unicode="&#x2005;" horiz-adv-x="493" />
<glyph unicode="&#x2006;" horiz-adv-x="328" />
<glyph unicode="&#x2007;" horiz-adv-x="328" />
<glyph unicode="&#x2008;" horiz-adv-x="246" />
<glyph unicode="&#x2009;" horiz-adv-x="394" />
<glyph unicode="&#x200a;" horiz-adv-x="109" />
<glyph unicode="&#x2010;" horiz-adv-x="857" d="M130 479q0 55 32 123q474 25 549 27q8 0 12 -4t4 -16q0 -62 -32 -130q-46 -3 -549 -25q-9 0 -12.5 5t-3.5 20z" />
<glyph unicode="&#x2011;" horiz-adv-x="857" d="M130 479q0 55 32 123q474 25 549 27q8 0 12 -4t4 -16q0 -62 -32 -130q-46 -3 -549 -25q-9 0 -12.5 5t-3.5 20z" />
<glyph unicode="&#x2012;" horiz-adv-x="857" d="M130 479q0 55 32 123q474 25 549 27q8 0 12 -4t4 -16q0 -62 -32 -130q-46 -3 -549 -25q-9 0 -12.5 5t-3.5 20z" />
<glyph unicode="&#x2013;" horiz-adv-x="1274" d="M128 470q0 24 8 79t24 55h969q13 0 13 -20q0 -37 -20 -119q-2 -6 -6 -10t-7 -5l-3 -1h-965h-3.5t-6 5.5t-3.5 15.5z" />
<glyph unicode="&#x2014;" horiz-adv-x="2042" d="M125 481q0 9 2.5 37.5t10.5 63t19 34.5h1740q14 0 14 -21q0 -45 -19 -118q-2 -7 -6.5 -11t-7.5 -4l-4 -1h-1735q-1 -1 -3.5 -0.5t-6.5 5.5t-4 15z" />
<glyph unicode="&#x2018;" horiz-adv-x="412" d="M89 1265q0 51 17 100t43.5 85t57 67.5t59 51t48.5 30.5t26 11q9 0 17.5 -5t16 -14.5t11.5 -21.5q-47 -29 -80 -60.5t-46 -57.5t-17.5 -42t-4.5 -27q0 -50 50 -110q4 -4 11.5 -12.5t11 -13t9 -12t8 -13t4.5 -12.5t2 -14q0 -41 -45.5 -73t-100.5 -32q-32 0 -64 16 q-15 22 -24.5 66.5t-9.5 92.5z" />
<glyph unicode="&#x2019;" horiz-adv-x="430" d="M75 1133q48 29 80.5 60.5t45.5 58.5t17.5 43t4.5 27q0 22 -9 43t-17 32t-24 30q-2 3 -9 11.5t-9.5 11t-8 10t-7 11.5t-4.5 10t-4 12t-1 12q0 41 44.5 74t99.5 33q32 0 63 -16q15 -22 23.5 -66t8.5 -94t-16.5 -99t-42.5 -85.5t-56 -67.5t-58 -50.5t-47.5 -30.5t-25.5 -11 q-14 0 -27.5 11.5t-20.5 29.5z" />
<glyph unicode="&#x201a;" horiz-adv-x="444" d="M36 -192q48 29 81 60.5t46.5 57.5t18.5 42t5 27q0 17 -4 31.5t-13 29t-15 22.5t-18 22q-3 3 -10 11.5t-9.5 12t-8 10.5t-8 11.5t-5.5 10.5t-4 12t-1 12q0 41 45.5 74t100.5 33q27 0 64 -18q10 -14 17.5 -40t11 -56.5t3.5 -63.5q0 -60 -24 -117t-58 -96t-70.5 -69.5 t-62.5 -45t-34 -14.5q-14 0 -27.5 11.5t-20.5 29.5z" />
<glyph unicode="&#x201c;" horiz-adv-x="745" d="M89 1265q0 51 17 100t43.5 85t57 67.5t59 51t48.5 30.5t26 11q9 0 17.5 -5t16 -14.5t11.5 -21.5q-47 -29 -80 -60.5t-46 -57.5t-17.5 -42t-4.5 -27q0 -17 4 -31.5t12 -28.5t14.5 -23t17.5 -22q3 -4 13.5 -15.5t14 -16.5t9.5 -14.5t8.5 -18t2.5 -17.5q0 -41 -45.5 -73 t-100.5 -32q-32 0 -64 16q-15 22 -24.5 66.5t-9.5 92.5zM422 1265q0 61 23.5 118t57.5 96.5t71 70t63 45.5t33 15q14 0 28 -11.5t20 -29.5q-47 -29 -80 -60.5t-47 -57.5t-18.5 -42t-4.5 -27q0 -53 43 -101q2 -1 5 -5q16 -17 24 -26.5t15.5 -25t7.5 -29.5q0 -41 -44 -73 t-99 -32q-32 0 -64 16q-10 14 -18 39.5t-12 57t-4 62.5z" />
<glyph unicode="&#x201d;" horiz-adv-x="745" d="M43 1131q48 28 81 59.5t46.5 58t18.5 42.5t5 27q0 53 -44 100q-1 2 -5 6q-15 17 -23 26.5t-16 25t-8 29.5q0 41 44.5 73t99.5 32q32 0 64 -16q15 -22 24.5 -67t9.5 -93q0 -60 -24 -117.5t-58 -97t-70.5 -70t-62.5 -45t-34 -14.5q-14 0 -27.5 11t-20.5 30zM376 1131 q48 28 80.5 59.5t45.5 58t17.5 42t4.5 27.5q0 21 -8 42t-16.5 33t-22.5 30q-3 3 -13.5 15t-14 17t-10 14.5t-8.5 18t-2 17.5q0 40 45 72.5t101 32.5q31 0 63 -16q16 -22 25.5 -67t9.5 -93q0 -51 -17.5 -99.5t-43.5 -85t-57 -67.5t-59.5 -50.5t-48 -30.5t-25.5 -11 q-14 0 -26.5 11t-19.5 30z" />
<glyph unicode="&#x201e;" horiz-adv-x="745" d="M59 -196q48 28 81 59.5t46.5 58t18.5 42.5t5 27q0 53 -44 100q-1 2 -5 6q-15 17 -23 26.5t-16 25t-8 29.5q0 41 44.5 73t99.5 32q32 0 63 -16q11 -15 18.5 -40.5t12 -56.5t4.5 -63q0 -60 -24 -117.5t-58 -97t-70.5 -70t-62.5 -45t-34 -14.5q-14 0 -27.5 11.5t-20.5 29.5z M392 -196q48 28 80.5 59.5t45.5 58t17.5 42t4.5 27.5q0 21 -8 42t-16.5 33t-23.5 30q-3 4 -10.5 13t-11.5 13.5t-9.5 12.5t-8.5 14t-5 13.5t-2 15.5q0 40 45 72.5t101 32.5q31 0 63 -16q16 -22 25.5 -67t9.5 -93q0 -60 -24.5 -117.5t-58.5 -97t-71 -70t-63.5 -45 t-33.5 -14.5q-14 0 -26.5 11t-19.5 30z" />
<glyph unicode="&#x2022;" horiz-adv-x="738" d="M87 599.5q0 116.5 83 199.5t199 83t198.5 -83t82.5 -199.5t-82.5 -199.5t-198.5 -83t-199 83t-83 199.5z" />
<glyph unicode="&#x2026;" horiz-adv-x="1947" d="M105 128q0 59 44.5 101t105.5 42q41 0 74.5 -20t52.5 -54t19 -74q0 -60 -42.5 -104t-103.5 -44t-105.5 45.5t-44.5 107.5zM775 128q0 23 8 45t22 39.5t32.5 31t41 20.5t47.5 7q40 0 73.5 -20t53 -54t19.5 -74q0 -60 -42.5 -104t-103.5 -44q-62 0 -106.5 45.5t-44.5 107.5 zM1446 128q0 59 44 101t106 42q40 0 74 -20t53 -54t19 -74q0 -60 -42.5 -104t-103.5 -44t-105.5 45.5t-44.5 107.5z" />
<glyph unicode="&#x202f;" horiz-adv-x="394" />
<glyph unicode="&#x2039;" horiz-adv-x="1121" d="M479 563q0 18 13 39q84 50 163 105.5t134 99.5t96 79.5t63.5 56.5l22.5 21q44 -11 55 -34q-6 -15 -65 -86.5t-135 -154t-121 -124.5q69 -63 190.5 -201.5t130.5 -162.5q-5 -11 -20.5 -21.5t-34.5 -15.5l-22.5 21.5t-63.5 57.5t-96 80t-134 100t-163 106q-13 18 -13 34z " />
<glyph unicode="&#x203a;" horiz-adv-x="1121" d="M479 201q9 24 130 162.5t191 201.5q-70 64 -191 202.5t-130 162.5q11 23 55 34l22.5 -21t63.5 -56.5t95.5 -79.5t134 -99.5t162.5 -105.5q14 -21 14 -39q0 -16 -14 -34q-61 -37 -120 -76.5t-104.5 -74t-86.5 -67t-70.5 -58.5t-51 -45.5t-33.5 -31t-12 -12.5 q-19 5 -34.5 15.5t-20.5 21.5z" />
<glyph unicode="&#x205f;" horiz-adv-x="493" />
<glyph unicode="&#x20ac;" horiz-adv-x="1529" d="M28 556q-10 11 10.5 54.5t35.5 43.5h61q-2 19 -2 53q0 48 2 73h-107q-10 10 10.5 54t35.5 44h77q28 125 95 232.5t161.5 185t217.5 121.5t258 44q259 0 461 -41q0 -3 10.5 -53t22 -106.5t21.5 -108t10 -60.5t-8 -17t-20 -12.5t-25 -4.5q-23 0 -32 11q-5 22 -11 42 t-21.5 52.5t-35.5 59t-53.5 56t-74 49.5t-99.5 33.5t-129 13.5q-101 0 -185.5 -40t-142.5 -109.5t-95 -158t-51 -189.5h465q16 -14 11.5 -35t-15.5 -39.5t-19 -23.5h-449v-16q0 -37 5 -110h467q16 -13 11.5 -34t-15.5 -39.5t-19 -24.5h-428q16 -80 45 -150.5t73 -132 t99 -106t127 -69.5t155 -25q170 0 280 98q59 52 97.5 132t48.5 130q22 0 44 -6.5t29 -13.5q0 -19 -14.5 -93.5t-35.5 -149t-34 -83.5q-107 -49 -220.5 -75t-256.5 -26q-136 0 -259 43t-217.5 119t-159.5 181t-91 227h-121z" />
<glyph unicode="&#x25fc;" horiz-adv-x="995" d="M0 0v995h995v-995h-995z" />
</font>
</defs>
</svg>
